G04 EAGLE Gerber RS-274X export*
G75*
%MOMM*%
%FSLAX34Y34*%
%LPD*%
%INTop Copper*%
%IPPOS*%
%AMOC8*
5,1,8,0,0,1.08239X$1,22.5*%
G01*
%ADD10R,2.000000X0.600000*%
%ADD11R,1.950000X0.550000*%
%ADD12C,1.422400*%
%ADD13P,1.539592X8X292.500000*%
%ADD14C,0.508000*%
%ADD15C,0.806400*%
%ADD16C,0.635000*%

G36*
X504978Y1528D02*
X504978Y1528D01*
X505004Y1526D01*
X505151Y1548D01*
X505298Y1565D01*
X505323Y1573D01*
X505349Y1577D01*
X505487Y1632D01*
X505626Y1682D01*
X505648Y1696D01*
X505673Y1706D01*
X505794Y1791D01*
X505919Y1871D01*
X505937Y1890D01*
X505959Y1905D01*
X506058Y2015D01*
X506161Y2122D01*
X506175Y2144D01*
X506192Y2164D01*
X506264Y2294D01*
X506340Y2421D01*
X506348Y2446D01*
X506361Y2469D01*
X506401Y2612D01*
X506446Y2753D01*
X506448Y2779D01*
X506456Y2804D01*
X506475Y3048D01*
X506475Y657352D01*
X506472Y657378D01*
X506474Y657404D01*
X506452Y657551D01*
X506435Y657698D01*
X506427Y657723D01*
X506423Y657749D01*
X506368Y657887D01*
X506318Y658026D01*
X506304Y658048D01*
X506294Y658073D01*
X506209Y658194D01*
X506129Y658319D01*
X506110Y658337D01*
X506095Y658359D01*
X505985Y658458D01*
X505878Y658561D01*
X505856Y658575D01*
X505836Y658592D01*
X505706Y658664D01*
X505579Y658740D01*
X505554Y658748D01*
X505531Y658761D01*
X505388Y658801D01*
X505247Y658846D01*
X505221Y658848D01*
X505196Y658856D01*
X504952Y658875D01*
X3048Y658875D01*
X3022Y658872D01*
X2996Y658874D01*
X2849Y658852D01*
X2702Y658835D01*
X2677Y658827D01*
X2651Y658823D01*
X2513Y658768D01*
X2374Y658718D01*
X2352Y658704D01*
X2327Y658694D01*
X2206Y658609D01*
X2081Y658529D01*
X2063Y658510D01*
X2041Y658495D01*
X1942Y658385D01*
X1839Y658278D01*
X1825Y658256D01*
X1808Y658236D01*
X1736Y658106D01*
X1660Y657979D01*
X1652Y657954D01*
X1639Y657931D01*
X1599Y657788D01*
X1554Y657647D01*
X1552Y657621D01*
X1544Y657596D01*
X1525Y657352D01*
X1525Y3048D01*
X1528Y3022D01*
X1526Y2996D01*
X1548Y2849D01*
X1565Y2702D01*
X1573Y2677D01*
X1577Y2651D01*
X1632Y2513D01*
X1682Y2374D01*
X1696Y2352D01*
X1706Y2327D01*
X1791Y2206D01*
X1871Y2081D01*
X1890Y2063D01*
X1905Y2041D01*
X2015Y1942D01*
X2122Y1839D01*
X2144Y1825D01*
X2164Y1808D01*
X2294Y1736D01*
X2421Y1660D01*
X2446Y1652D01*
X2469Y1639D01*
X2612Y1599D01*
X2753Y1554D01*
X2779Y1552D01*
X2804Y1544D01*
X3048Y1525D01*
X504952Y1525D01*
X504978Y1528D01*
G37*
%LPC*%
G36*
X16570Y42163D02*
X16570Y42163D01*
X13396Y43478D01*
X10966Y45908D01*
X9651Y49082D01*
X9651Y52518D01*
X10966Y55692D01*
X13396Y58122D01*
X16570Y59437D01*
X34230Y59437D01*
X37404Y58122D01*
X39848Y55678D01*
X39853Y55667D01*
X39909Y55586D01*
X39957Y55500D01*
X40008Y55444D01*
X40051Y55381D01*
X40124Y55315D01*
X40191Y55242D01*
X40254Y55199D01*
X40310Y55148D01*
X40396Y55100D01*
X40477Y55044D01*
X40548Y55016D01*
X40615Y54979D01*
X40710Y54952D01*
X40802Y54916D01*
X40877Y54905D01*
X40951Y54884D01*
X41100Y54872D01*
X41146Y54865D01*
X41165Y54867D01*
X41194Y54865D01*
X382241Y54865D01*
X382367Y54879D01*
X382493Y54886D01*
X382540Y54899D01*
X382588Y54905D01*
X382707Y54947D01*
X382828Y54982D01*
X382870Y55006D01*
X382916Y55022D01*
X383022Y55091D01*
X383132Y55152D01*
X383178Y55192D01*
X383208Y55211D01*
X383242Y55246D01*
X383318Y55311D01*
X423733Y95726D01*
X423812Y95825D01*
X423896Y95918D01*
X423920Y95961D01*
X423950Y95999D01*
X424004Y96113D01*
X424065Y96223D01*
X424078Y96270D01*
X424099Y96314D01*
X424125Y96437D01*
X424160Y96559D01*
X424165Y96620D01*
X424172Y96654D01*
X424171Y96702D01*
X424179Y96803D01*
X424179Y140941D01*
X424165Y141067D01*
X424158Y141193D01*
X424145Y141240D01*
X424139Y141288D01*
X424097Y141407D01*
X424062Y141528D01*
X424038Y141570D01*
X424022Y141616D01*
X423953Y141722D01*
X423892Y141832D01*
X423852Y141878D01*
X423833Y141908D01*
X423798Y141942D01*
X423733Y142018D01*
X407448Y158303D01*
X407349Y158382D01*
X407256Y158466D01*
X407213Y158490D01*
X407175Y158520D01*
X407061Y158574D01*
X406951Y158635D01*
X406904Y158648D01*
X406860Y158669D01*
X406737Y158695D01*
X406615Y158730D01*
X406554Y158735D01*
X406520Y158742D01*
X406472Y158741D01*
X406371Y158749D01*
X398606Y158749D01*
X398580Y158746D01*
X398554Y158748D01*
X398407Y158726D01*
X398260Y158709D01*
X398235Y158701D01*
X398209Y158697D01*
X398071Y158642D01*
X397932Y158592D01*
X397910Y158578D01*
X397885Y158568D01*
X397764Y158483D01*
X397639Y158403D01*
X397621Y158384D01*
X397599Y158369D01*
X397500Y158259D01*
X397397Y158152D01*
X397383Y158130D01*
X397366Y158110D01*
X397294Y157980D01*
X397218Y157853D01*
X397210Y157828D01*
X397197Y157805D01*
X397157Y157662D01*
X397112Y157521D01*
X397110Y157495D01*
X397102Y157470D01*
X397083Y157226D01*
X397083Y154401D01*
X397097Y154275D01*
X397104Y154149D01*
X397107Y154138D01*
X397107Y146087D01*
X397102Y146071D01*
X397097Y146011D01*
X397090Y145976D01*
X397091Y145928D01*
X397083Y145827D01*
X397083Y140007D01*
X396789Y139713D01*
X392684Y139713D01*
X392658Y139710D01*
X392632Y139712D01*
X392485Y139690D01*
X392338Y139673D01*
X392313Y139665D01*
X392287Y139661D01*
X392149Y139606D01*
X392010Y139556D01*
X391988Y139542D01*
X391963Y139532D01*
X391842Y139447D01*
X391717Y139367D01*
X391699Y139348D01*
X391677Y139333D01*
X391578Y139223D01*
X391475Y139116D01*
X391461Y139094D01*
X391444Y139074D01*
X391372Y138944D01*
X391296Y138817D01*
X391288Y138792D01*
X391275Y138769D01*
X391235Y138626D01*
X391190Y138485D01*
X391188Y138459D01*
X391180Y138434D01*
X391161Y138190D01*
X391161Y137013D01*
X391175Y136887D01*
X391182Y136761D01*
X391195Y136714D01*
X391201Y136666D01*
X391243Y136547D01*
X391278Y136426D01*
X391302Y136384D01*
X391318Y136338D01*
X391387Y136232D01*
X391448Y136122D01*
X391488Y136075D01*
X391507Y136045D01*
X391542Y136012D01*
X391607Y135936D01*
X391807Y135736D01*
X392653Y133693D01*
X392653Y131483D01*
X391807Y129440D01*
X390244Y127877D01*
X388201Y127031D01*
X385991Y127031D01*
X383948Y127877D01*
X382385Y129440D01*
X381539Y131483D01*
X381539Y133693D01*
X382385Y135736D01*
X382585Y135936D01*
X382664Y136035D01*
X382748Y136128D01*
X382772Y136171D01*
X382802Y136209D01*
X382856Y136323D01*
X382917Y136433D01*
X382930Y136480D01*
X382951Y136524D01*
X382977Y136647D01*
X383012Y136769D01*
X383017Y136830D01*
X383024Y136864D01*
X383023Y136912D01*
X383031Y137013D01*
X383031Y138190D01*
X383028Y138216D01*
X383030Y138242D01*
X383008Y138389D01*
X382991Y138536D01*
X382983Y138561D01*
X382979Y138587D01*
X382924Y138725D01*
X382874Y138864D01*
X382860Y138886D01*
X382850Y138911D01*
X382765Y139032D01*
X382685Y139157D01*
X382666Y139175D01*
X382651Y139197D01*
X382541Y139296D01*
X382434Y139399D01*
X382412Y139413D01*
X382392Y139430D01*
X382262Y139502D01*
X382135Y139578D01*
X382110Y139586D01*
X382087Y139599D01*
X381944Y139639D01*
X381803Y139684D01*
X381777Y139686D01*
X381752Y139694D01*
X381508Y139713D01*
X280375Y139713D01*
X280081Y140007D01*
X280081Y144391D01*
X280067Y144516D01*
X280060Y144642D01*
X280047Y144689D01*
X280041Y144737D01*
X279999Y144856D01*
X279964Y144977D01*
X279940Y145019D01*
X279924Y145065D01*
X279855Y145171D01*
X279794Y145281D01*
X279754Y145328D01*
X279735Y145358D01*
X279700Y145391D01*
X279635Y145468D01*
X279549Y145554D01*
X279214Y146133D01*
X279041Y146779D01*
X279041Y148678D01*
X279093Y148698D01*
X279232Y148748D01*
X279254Y148762D01*
X279279Y148772D01*
X279400Y148856D01*
X279525Y148937D01*
X279543Y148956D01*
X279565Y148971D01*
X279664Y149081D01*
X279767Y149188D01*
X279781Y149210D01*
X279798Y149230D01*
X279870Y149360D01*
X279946Y149487D01*
X279954Y149512D01*
X279967Y149535D01*
X280007Y149678D01*
X280052Y149819D01*
X280054Y149845D01*
X280062Y149870D01*
X280081Y150114D01*
X280078Y150140D01*
X280080Y150166D01*
X280058Y150313D01*
X280041Y150460D01*
X280033Y150485D01*
X280029Y150511D01*
X279974Y150649D01*
X279924Y150788D01*
X279910Y150811D01*
X279900Y150835D01*
X279815Y150956D01*
X279735Y151081D01*
X279716Y151100D01*
X279701Y151121D01*
X279591Y151220D01*
X279484Y151323D01*
X279462Y151337D01*
X279442Y151354D01*
X279312Y151426D01*
X279185Y151502D01*
X279160Y151510D01*
X279137Y151523D01*
X279041Y151550D01*
X279041Y153449D01*
X279214Y154095D01*
X279549Y154674D01*
X279635Y154760D01*
X279714Y154859D01*
X279798Y154953D01*
X279822Y154995D01*
X279852Y155033D01*
X279906Y155147D01*
X279967Y155258D01*
X279980Y155305D01*
X280001Y155348D01*
X280027Y155472D01*
X280062Y155594D01*
X280067Y155654D01*
X280074Y155689D01*
X280073Y155737D01*
X280081Y155837D01*
X280081Y157226D01*
X280078Y157252D01*
X280080Y157278D01*
X280058Y157425D01*
X280041Y157572D01*
X280033Y157597D01*
X280029Y157623D01*
X279974Y157761D01*
X279924Y157900D01*
X279910Y157922D01*
X279900Y157947D01*
X279815Y158068D01*
X279735Y158193D01*
X279716Y158211D01*
X279701Y158233D01*
X279591Y158332D01*
X279484Y158435D01*
X279462Y158449D01*
X279442Y158466D01*
X279312Y158538D01*
X279185Y158614D01*
X279160Y158622D01*
X279137Y158635D01*
X278994Y158675D01*
X278853Y158720D01*
X278827Y158722D01*
X278802Y158730D01*
X278558Y158749D01*
X277905Y158749D01*
X277779Y158735D01*
X277653Y158728D01*
X277606Y158715D01*
X277558Y158709D01*
X277439Y158667D01*
X277318Y158632D01*
X277276Y158608D01*
X277230Y158592D01*
X277124Y158523D01*
X277014Y158462D01*
X276968Y158422D01*
X276938Y158403D01*
X276904Y158368D01*
X276828Y158303D01*
X274259Y155734D01*
X274180Y155635D01*
X274096Y155542D01*
X274072Y155499D01*
X274042Y155461D01*
X273988Y155347D01*
X273927Y155237D01*
X273914Y155190D01*
X273893Y155146D01*
X273867Y155023D01*
X273832Y154901D01*
X273827Y154840D01*
X273820Y154806D01*
X273821Y154758D01*
X273813Y154657D01*
X273813Y115664D01*
X230284Y72135D01*
X41194Y72135D01*
X41119Y72127D01*
X41042Y72128D01*
X40946Y72107D01*
X40848Y72095D01*
X40776Y72070D01*
X40702Y72053D01*
X40613Y72011D01*
X40520Y71978D01*
X40456Y71936D01*
X40387Y71904D01*
X40310Y71842D01*
X40227Y71789D01*
X40174Y71734D01*
X40115Y71686D01*
X40054Y71609D01*
X39985Y71538D01*
X39946Y71473D01*
X39899Y71413D01*
X39856Y71330D01*
X37404Y68878D01*
X34230Y67563D01*
X16570Y67563D01*
X13396Y68878D01*
X10966Y71308D01*
X9651Y74482D01*
X9651Y77918D01*
X10966Y81092D01*
X13396Y83522D01*
X16570Y84837D01*
X34230Y84837D01*
X37404Y83522D01*
X39848Y81078D01*
X39853Y81067D01*
X39909Y80986D01*
X39957Y80900D01*
X40008Y80844D01*
X40051Y80781D01*
X40124Y80715D01*
X40191Y80642D01*
X40254Y80599D01*
X40310Y80548D01*
X40396Y80500D01*
X40477Y80444D01*
X40548Y80416D01*
X40615Y80379D01*
X40710Y80352D01*
X40802Y80316D01*
X40877Y80305D01*
X40951Y80284D01*
X41100Y80272D01*
X41146Y80265D01*
X41165Y80267D01*
X41194Y80265D01*
X226285Y80265D01*
X226411Y80279D01*
X226537Y80286D01*
X226584Y80299D01*
X226632Y80305D01*
X226751Y80347D01*
X226872Y80382D01*
X226914Y80406D01*
X226960Y80422D01*
X227066Y80491D01*
X227176Y80552D01*
X227222Y80592D01*
X227252Y80611D01*
X227286Y80646D01*
X227362Y80711D01*
X265237Y118586D01*
X265316Y118685D01*
X265400Y118778D01*
X265424Y118821D01*
X265454Y118859D01*
X265508Y118973D01*
X265569Y119083D01*
X265582Y119130D01*
X265603Y119174D01*
X265629Y119297D01*
X265664Y119419D01*
X265669Y119480D01*
X265676Y119514D01*
X265675Y119562D01*
X265683Y119663D01*
X265683Y158656D01*
X273906Y166879D01*
X278558Y166879D01*
X278584Y166882D01*
X278610Y166880D01*
X278757Y166902D01*
X278904Y166919D01*
X278929Y166927D01*
X278955Y166931D01*
X279093Y166986D01*
X279232Y167036D01*
X279254Y167050D01*
X279279Y167060D01*
X279400Y167145D01*
X279525Y167225D01*
X279543Y167244D01*
X279565Y167259D01*
X279664Y167369D01*
X279767Y167476D01*
X279781Y167498D01*
X279798Y167518D01*
X279870Y167648D01*
X279946Y167775D01*
X279954Y167800D01*
X279967Y167823D01*
X280007Y167966D01*
X280052Y168107D01*
X280054Y168133D01*
X280062Y168158D01*
X280081Y168402D01*
X280081Y169926D01*
X280078Y169952D01*
X280080Y169978D01*
X280058Y170125D01*
X280041Y170272D01*
X280033Y170297D01*
X280029Y170323D01*
X279974Y170461D01*
X279924Y170600D01*
X279910Y170622D01*
X279900Y170647D01*
X279815Y170768D01*
X279735Y170893D01*
X279716Y170911D01*
X279701Y170933D01*
X279591Y171032D01*
X279484Y171135D01*
X279462Y171149D01*
X279442Y171166D01*
X279312Y171238D01*
X279185Y171314D01*
X279160Y171322D01*
X279137Y171335D01*
X278994Y171375D01*
X278853Y171420D01*
X278827Y171422D01*
X278802Y171430D01*
X278558Y171449D01*
X273841Y171449D01*
X273715Y171435D01*
X273589Y171428D01*
X273542Y171415D01*
X273494Y171409D01*
X273375Y171367D01*
X273254Y171332D01*
X273212Y171308D01*
X273166Y171292D01*
X273060Y171223D01*
X272950Y171162D01*
X272904Y171122D01*
X272874Y171103D01*
X272840Y171068D01*
X272764Y171003D01*
X259019Y157258D01*
X258940Y157159D01*
X258856Y157066D01*
X258832Y157023D01*
X258802Y156985D01*
X258748Y156871D01*
X258687Y156761D01*
X258674Y156714D01*
X258653Y156670D01*
X258627Y156547D01*
X258592Y156425D01*
X258587Y156364D01*
X258580Y156330D01*
X258581Y156282D01*
X258573Y156181D01*
X258573Y120236D01*
X235872Y97535D01*
X41194Y97535D01*
X41119Y97527D01*
X41042Y97528D01*
X40946Y97507D01*
X40848Y97495D01*
X40776Y97470D01*
X40702Y97453D01*
X40613Y97411D01*
X40520Y97378D01*
X40456Y97336D01*
X40387Y97304D01*
X40310Y97242D01*
X40227Y97189D01*
X40174Y97134D01*
X40115Y97086D01*
X40054Y97009D01*
X39985Y96938D01*
X39946Y96873D01*
X39899Y96813D01*
X39856Y96730D01*
X37404Y94278D01*
X34230Y92963D01*
X16570Y92963D01*
X13396Y94278D01*
X10966Y96708D01*
X9651Y99882D01*
X9651Y103318D01*
X10966Y106492D01*
X13396Y108922D01*
X16570Y110237D01*
X34230Y110237D01*
X37404Y108922D01*
X39848Y106478D01*
X39853Y106467D01*
X39909Y106386D01*
X39957Y106300D01*
X40008Y106244D01*
X40051Y106181D01*
X40124Y106115D01*
X40191Y106042D01*
X40254Y105999D01*
X40310Y105948D01*
X40396Y105900D01*
X40477Y105844D01*
X40548Y105816D01*
X40615Y105779D01*
X40710Y105752D01*
X40802Y105716D01*
X40877Y105705D01*
X40951Y105684D01*
X41100Y105672D01*
X41146Y105665D01*
X41165Y105667D01*
X41194Y105665D01*
X231873Y105665D01*
X231999Y105679D01*
X232125Y105686D01*
X232172Y105699D01*
X232220Y105705D01*
X232339Y105747D01*
X232460Y105782D01*
X232502Y105806D01*
X232548Y105822D01*
X232654Y105891D01*
X232764Y105952D01*
X232810Y105992D01*
X232840Y106011D01*
X232874Y106046D01*
X232950Y106111D01*
X249997Y123158D01*
X250076Y123257D01*
X250160Y123350D01*
X250184Y123393D01*
X250214Y123431D01*
X250268Y123545D01*
X250329Y123655D01*
X250342Y123702D01*
X250363Y123746D01*
X250389Y123869D01*
X250424Y123991D01*
X250429Y124052D01*
X250436Y124086D01*
X250435Y124134D01*
X250443Y124235D01*
X250443Y160180D01*
X269842Y179579D01*
X278558Y179579D01*
X278584Y179582D01*
X278610Y179580D01*
X278757Y179602D01*
X278904Y179619D01*
X278929Y179627D01*
X278955Y179631D01*
X279093Y179686D01*
X279232Y179736D01*
X279254Y179750D01*
X279279Y179760D01*
X279400Y179845D01*
X279525Y179925D01*
X279543Y179944D01*
X279565Y179959D01*
X279664Y180069D01*
X279767Y180176D01*
X279781Y180198D01*
X279798Y180218D01*
X279870Y180348D01*
X279946Y180475D01*
X279954Y180500D01*
X279967Y180523D01*
X280007Y180666D01*
X280052Y180807D01*
X280054Y180833D01*
X280062Y180858D01*
X280081Y181102D01*
X280081Y182626D01*
X280078Y182652D01*
X280080Y182678D01*
X280058Y182825D01*
X280041Y182972D01*
X280033Y182997D01*
X280029Y183023D01*
X279974Y183161D01*
X279924Y183300D01*
X279910Y183322D01*
X279900Y183347D01*
X279815Y183468D01*
X279735Y183593D01*
X279716Y183611D01*
X279701Y183633D01*
X279591Y183732D01*
X279484Y183835D01*
X279462Y183849D01*
X279442Y183866D01*
X279312Y183938D01*
X279185Y184014D01*
X279160Y184022D01*
X279137Y184035D01*
X278994Y184075D01*
X278853Y184120D01*
X278827Y184122D01*
X278802Y184130D01*
X278558Y184149D01*
X262251Y184149D01*
X262249Y184149D01*
X262247Y184149D01*
X262076Y184129D01*
X261904Y184109D01*
X261902Y184109D01*
X261900Y184108D01*
X261668Y184033D01*
X260185Y183419D01*
X257975Y183419D01*
X255932Y184265D01*
X254369Y185828D01*
X253523Y187871D01*
X253523Y190081D01*
X254369Y192124D01*
X255932Y193687D01*
X257975Y194533D01*
X260185Y194533D01*
X262228Y193687D01*
X263190Y192725D01*
X263289Y192646D01*
X263382Y192562D01*
X263425Y192538D01*
X263463Y192508D01*
X263577Y192454D01*
X263687Y192393D01*
X263734Y192380D01*
X263778Y192359D01*
X263901Y192333D01*
X264023Y192298D01*
X264084Y192293D01*
X264118Y192286D01*
X264166Y192287D01*
X264267Y192279D01*
X278558Y192279D01*
X278584Y192282D01*
X278610Y192280D01*
X278757Y192302D01*
X278904Y192319D01*
X278929Y192327D01*
X278955Y192331D01*
X279093Y192386D01*
X279232Y192436D01*
X279254Y192450D01*
X279279Y192460D01*
X279400Y192545D01*
X279525Y192625D01*
X279543Y192644D01*
X279565Y192659D01*
X279664Y192769D01*
X279767Y192876D01*
X279781Y192898D01*
X279798Y192918D01*
X279870Y193048D01*
X279946Y193175D01*
X279954Y193200D01*
X279967Y193223D01*
X280007Y193366D01*
X280052Y193507D01*
X280054Y193533D01*
X280062Y193558D01*
X280081Y193802D01*
X280081Y196627D01*
X280067Y196753D01*
X280060Y196879D01*
X280057Y196890D01*
X280057Y204941D01*
X280062Y204957D01*
X280067Y205017D01*
X280074Y205052D01*
X280073Y205100D01*
X280081Y205201D01*
X280081Y209327D01*
X280067Y209453D01*
X280060Y209579D01*
X280057Y209590D01*
X280057Y217641D01*
X280062Y217657D01*
X280067Y217717D01*
X280074Y217752D01*
X280073Y217800D01*
X280081Y217901D01*
X280081Y222027D01*
X280067Y222153D01*
X280060Y222279D01*
X280057Y222290D01*
X280057Y230341D01*
X280062Y230357D01*
X280067Y230417D01*
X280074Y230452D01*
X280073Y230500D01*
X280081Y230601D01*
X280081Y234727D01*
X280067Y234853D01*
X280060Y234979D01*
X280057Y234990D01*
X280057Y243041D01*
X280062Y243057D01*
X280067Y243117D01*
X280074Y243152D01*
X280073Y243200D01*
X280081Y243301D01*
X280081Y247427D01*
X280067Y247553D01*
X280060Y247679D01*
X280057Y247690D01*
X280057Y255741D01*
X280062Y255757D01*
X280067Y255817D01*
X280074Y255852D01*
X280073Y255900D01*
X280081Y256001D01*
X280081Y260127D01*
X280067Y260253D01*
X280060Y260379D01*
X280057Y260390D01*
X280057Y268441D01*
X280062Y268457D01*
X280067Y268517D01*
X280074Y268552D01*
X280073Y268600D01*
X280081Y268701D01*
X280081Y271526D01*
X280078Y271552D01*
X280080Y271578D01*
X280058Y271725D01*
X280041Y271872D01*
X280033Y271897D01*
X280029Y271923D01*
X279974Y272061D01*
X279924Y272200D01*
X279910Y272222D01*
X279900Y272247D01*
X279815Y272368D01*
X279735Y272493D01*
X279716Y272511D01*
X279701Y272533D01*
X279591Y272632D01*
X279484Y272735D01*
X279462Y272749D01*
X279442Y272766D01*
X279312Y272838D01*
X279185Y272914D01*
X279160Y272922D01*
X279137Y272935D01*
X278994Y272975D01*
X278853Y273020D01*
X278827Y273022D01*
X278802Y273030D01*
X278558Y273049D01*
X275336Y273049D01*
X275310Y273046D01*
X275284Y273048D01*
X275137Y273026D01*
X274990Y273009D01*
X274965Y273001D01*
X274939Y272997D01*
X274801Y272942D01*
X274662Y272892D01*
X274640Y272878D01*
X274615Y272868D01*
X274494Y272783D01*
X274369Y272703D01*
X274351Y272684D01*
X274329Y272669D01*
X274230Y272559D01*
X274127Y272452D01*
X274113Y272430D01*
X274096Y272410D01*
X274024Y272280D01*
X273948Y272153D01*
X273940Y272128D01*
X273927Y272105D01*
X273887Y271962D01*
X273842Y271821D01*
X273840Y271795D01*
X273832Y271770D01*
X273813Y271526D01*
X273813Y216248D01*
X245271Y187706D01*
X245192Y187607D01*
X245108Y187514D01*
X245084Y187471D01*
X245054Y187433D01*
X245000Y187319D01*
X244939Y187209D01*
X244926Y187162D01*
X244905Y187118D01*
X244879Y186995D01*
X244844Y186873D01*
X244839Y186812D01*
X244832Y186778D01*
X244833Y186730D01*
X244825Y186629D01*
X244825Y186347D01*
X243979Y184304D01*
X242416Y182741D01*
X240373Y181895D01*
X240091Y181895D01*
X239965Y181881D01*
X239839Y181874D01*
X239792Y181861D01*
X239744Y181855D01*
X239625Y181813D01*
X239504Y181778D01*
X239462Y181754D01*
X239416Y181738D01*
X239310Y181669D01*
X239200Y181608D01*
X239153Y181568D01*
X239123Y181549D01*
X239090Y181514D01*
X239014Y181449D01*
X228991Y171427D01*
X228989Y171426D01*
X228842Y171409D01*
X228817Y171401D01*
X228791Y171397D01*
X228653Y171342D01*
X228514Y171292D01*
X228492Y171278D01*
X228467Y171268D01*
X228346Y171183D01*
X228221Y171103D01*
X228203Y171084D01*
X228181Y171069D01*
X228082Y170959D01*
X227979Y170852D01*
X227965Y170830D01*
X227948Y170810D01*
X227876Y170680D01*
X227800Y170553D01*
X227792Y170528D01*
X227779Y170505D01*
X227739Y170362D01*
X227694Y170221D01*
X227692Y170195D01*
X227684Y170170D01*
X227665Y169926D01*
X227665Y168402D01*
X227668Y168376D01*
X227666Y168350D01*
X227688Y168203D01*
X227705Y168056D01*
X227713Y168031D01*
X227717Y168005D01*
X227772Y167867D01*
X227822Y167728D01*
X227836Y167706D01*
X227846Y167681D01*
X227931Y167560D01*
X228011Y167435D01*
X228030Y167417D01*
X228045Y167395D01*
X228155Y167296D01*
X228262Y167193D01*
X228284Y167179D01*
X228304Y167162D01*
X228434Y167090D01*
X228561Y167014D01*
X228586Y167006D01*
X228609Y166993D01*
X228752Y166953D01*
X228893Y166908D01*
X228919Y166906D01*
X228944Y166898D01*
X229188Y166879D01*
X235110Y166879D01*
X246381Y155608D01*
X246381Y133952D01*
X243554Y131125D01*
X230063Y117634D01*
X227236Y114807D01*
X89756Y114807D01*
X86929Y117634D01*
X35777Y168786D01*
X35717Y168834D01*
X35664Y168889D01*
X35581Y168942D01*
X35504Y169003D01*
X35435Y169036D01*
X35371Y169077D01*
X35278Y169110D01*
X35189Y169152D01*
X35114Y169168D01*
X35042Y169194D01*
X34945Y169205D01*
X34848Y169225D01*
X34772Y169224D01*
X34696Y169233D01*
X34598Y169221D01*
X34500Y169219D01*
X34426Y169201D01*
X34350Y169192D01*
X34262Y169163D01*
X16570Y169163D01*
X13396Y170478D01*
X10966Y172908D01*
X9651Y176082D01*
X9651Y179518D01*
X10966Y182692D01*
X13396Y185122D01*
X16570Y186437D01*
X34230Y186437D01*
X37404Y185122D01*
X39834Y182692D01*
X41149Y179518D01*
X41149Y176062D01*
X41144Y176051D01*
X41127Y175954D01*
X41100Y175860D01*
X41096Y175783D01*
X41083Y175708D01*
X41088Y175610D01*
X41083Y175512D01*
X41097Y175436D01*
X41100Y175360D01*
X41128Y175266D01*
X41145Y175169D01*
X41176Y175099D01*
X41197Y175025D01*
X41245Y174939D01*
X41284Y174849D01*
X41330Y174788D01*
X41367Y174721D01*
X41464Y174607D01*
X41492Y174569D01*
X41507Y174557D01*
X41526Y174535D01*
X92678Y123383D01*
X92777Y123304D01*
X92870Y123220D01*
X92913Y123196D01*
X92951Y123166D01*
X93065Y123112D01*
X93175Y123051D01*
X93222Y123038D01*
X93266Y123017D01*
X93389Y122991D01*
X93511Y122956D01*
X93572Y122951D01*
X93606Y122944D01*
X93654Y122945D01*
X93755Y122937D01*
X223237Y122937D01*
X223363Y122951D01*
X223489Y122958D01*
X223536Y122971D01*
X223584Y122977D01*
X223703Y123019D01*
X223824Y123054D01*
X223866Y123078D01*
X223912Y123094D01*
X224018Y123163D01*
X224128Y123224D01*
X224175Y123264D01*
X224205Y123283D01*
X224238Y123318D01*
X224314Y123383D01*
X237805Y136874D01*
X237884Y136973D01*
X237968Y137066D01*
X237992Y137109D01*
X238022Y137147D01*
X238076Y137261D01*
X238137Y137371D01*
X238150Y137418D01*
X238171Y137462D01*
X238197Y137585D01*
X238232Y137707D01*
X238237Y137768D01*
X238244Y137802D01*
X238243Y137850D01*
X238251Y137951D01*
X238251Y151609D01*
X238237Y151735D01*
X238230Y151861D01*
X238217Y151908D01*
X238211Y151956D01*
X238169Y152075D01*
X238134Y152196D01*
X238110Y152238D01*
X238094Y152284D01*
X238025Y152390D01*
X237964Y152500D01*
X237924Y152546D01*
X237905Y152576D01*
X237870Y152610D01*
X237805Y152686D01*
X232188Y158303D01*
X232089Y158382D01*
X231996Y158466D01*
X231953Y158490D01*
X231915Y158520D01*
X231801Y158574D01*
X231691Y158635D01*
X231644Y158648D01*
X231600Y158669D01*
X231477Y158695D01*
X231355Y158730D01*
X231294Y158735D01*
X231260Y158742D01*
X231212Y158741D01*
X231111Y158749D01*
X229188Y158749D01*
X229162Y158746D01*
X229136Y158748D01*
X228989Y158726D01*
X228842Y158709D01*
X228817Y158701D01*
X228791Y158697D01*
X228653Y158642D01*
X228514Y158592D01*
X228492Y158578D01*
X228467Y158568D01*
X228346Y158483D01*
X228221Y158403D01*
X228203Y158384D01*
X228181Y158369D01*
X228082Y158259D01*
X227979Y158152D01*
X227965Y158130D01*
X227948Y158110D01*
X227876Y157980D01*
X227800Y157853D01*
X227792Y157828D01*
X227779Y157805D01*
X227739Y157662D01*
X227694Y157521D01*
X227692Y157495D01*
X227684Y157470D01*
X227665Y157226D01*
X227665Y154400D01*
X227679Y154274D01*
X227686Y154148D01*
X227689Y154138D01*
X227689Y146087D01*
X227684Y146071D01*
X227680Y146011D01*
X227672Y145977D01*
X227673Y145929D01*
X227665Y145828D01*
X227665Y140007D01*
X227371Y139713D01*
X223013Y139713D01*
X222865Y139696D01*
X222714Y139684D01*
X222691Y139676D01*
X222667Y139673D01*
X222526Y139623D01*
X222383Y139577D01*
X222362Y139564D01*
X222339Y139556D01*
X222213Y139474D01*
X222084Y139397D01*
X222067Y139380D01*
X222046Y139367D01*
X221942Y139259D01*
X221834Y139154D01*
X221821Y139134D01*
X221804Y139116D01*
X221727Y138987D01*
X221646Y138861D01*
X221638Y138838D01*
X221625Y138817D01*
X221579Y138674D01*
X221529Y138532D01*
X221526Y138508D01*
X221519Y138485D01*
X221507Y138336D01*
X221490Y138186D01*
X221493Y138162D01*
X221491Y138138D01*
X221513Y137989D01*
X221531Y137840D01*
X221540Y137812D01*
X221543Y137793D01*
X221560Y137749D01*
X221606Y137607D01*
X221965Y136741D01*
X221965Y134531D01*
X221119Y132488D01*
X219556Y130925D01*
X217513Y130079D01*
X215303Y130079D01*
X213260Y130925D01*
X211697Y132488D01*
X210851Y134531D01*
X210851Y136741D01*
X211210Y137607D01*
X211251Y137752D01*
X211297Y137895D01*
X211299Y137919D01*
X211306Y137942D01*
X211313Y138093D01*
X211325Y138242D01*
X211321Y138266D01*
X211323Y138290D01*
X211296Y138438D01*
X211273Y138587D01*
X211264Y138609D01*
X211260Y138633D01*
X211200Y138771D01*
X211145Y138911D01*
X211131Y138931D01*
X211121Y138953D01*
X211031Y139074D01*
X210946Y139197D01*
X210928Y139213D01*
X210913Y139233D01*
X210798Y139330D01*
X210687Y139430D01*
X210666Y139442D01*
X210647Y139458D01*
X210514Y139526D01*
X210382Y139599D01*
X210358Y139605D01*
X210337Y139616D01*
X210191Y139653D01*
X210046Y139694D01*
X210017Y139696D01*
X209999Y139701D01*
X209952Y139701D01*
X209803Y139713D01*
X110957Y139713D01*
X110663Y140007D01*
X110663Y144391D01*
X110649Y144516D01*
X110642Y144643D01*
X110629Y144689D01*
X110623Y144737D01*
X110581Y144856D01*
X110546Y144977D01*
X110522Y145019D01*
X110506Y145065D01*
X110437Y145171D01*
X110376Y145282D01*
X110336Y145328D01*
X110317Y145358D01*
X110282Y145391D01*
X110217Y145468D01*
X110131Y145554D01*
X109796Y146133D01*
X109623Y146779D01*
X109623Y148678D01*
X109675Y148698D01*
X109814Y148748D01*
X109836Y148762D01*
X109861Y148772D01*
X109982Y148856D01*
X110107Y148937D01*
X110125Y148956D01*
X110147Y148971D01*
X110246Y149081D01*
X110349Y149188D01*
X110363Y149210D01*
X110380Y149230D01*
X110452Y149360D01*
X110528Y149487D01*
X110536Y149512D01*
X110549Y149535D01*
X110589Y149678D01*
X110634Y149819D01*
X110636Y149845D01*
X110644Y149870D01*
X110663Y150114D01*
X110660Y150140D01*
X110662Y150166D01*
X110640Y150313D01*
X110623Y150460D01*
X110615Y150485D01*
X110611Y150511D01*
X110556Y150649D01*
X110506Y150788D01*
X110492Y150811D01*
X110482Y150835D01*
X110397Y150956D01*
X110317Y151081D01*
X110298Y151100D01*
X110283Y151121D01*
X110173Y151220D01*
X110066Y151323D01*
X110044Y151337D01*
X110024Y151354D01*
X109894Y151426D01*
X109767Y151502D01*
X109742Y151510D01*
X109719Y151523D01*
X109623Y151550D01*
X109623Y153449D01*
X109796Y154095D01*
X110131Y154674D01*
X110217Y154760D01*
X110296Y154859D01*
X110380Y154953D01*
X110404Y154995D01*
X110434Y155033D01*
X110488Y155147D01*
X110549Y155258D01*
X110562Y155305D01*
X110583Y155348D01*
X110609Y155472D01*
X110644Y155594D01*
X110649Y155654D01*
X110656Y155689D01*
X110655Y155737D01*
X110663Y155837D01*
X110663Y157226D01*
X110660Y157252D01*
X110662Y157278D01*
X110640Y157425D01*
X110623Y157572D01*
X110615Y157597D01*
X110611Y157623D01*
X110556Y157761D01*
X110506Y157900D01*
X110492Y157922D01*
X110482Y157947D01*
X110397Y158068D01*
X110317Y158193D01*
X110298Y158211D01*
X110283Y158233D01*
X110173Y158332D01*
X110066Y158435D01*
X110044Y158449D01*
X110024Y158466D01*
X109894Y158538D01*
X109767Y158614D01*
X109742Y158622D01*
X109719Y158635D01*
X109576Y158675D01*
X109435Y158720D01*
X109409Y158722D01*
X109384Y158730D01*
X109140Y158749D01*
X99104Y158749D01*
X99073Y158774D01*
X98959Y158828D01*
X98849Y158889D01*
X98802Y158902D01*
X98758Y158923D01*
X98635Y158949D01*
X98513Y158984D01*
X98452Y158989D01*
X98418Y158996D01*
X98370Y158995D01*
X98269Y159003D01*
X71468Y159003D01*
X36136Y194335D01*
X36077Y194383D01*
X36023Y194438D01*
X35940Y194491D01*
X35863Y194552D01*
X35794Y194584D01*
X35730Y194626D01*
X35637Y194659D01*
X35548Y194701D01*
X35474Y194717D01*
X35402Y194742D01*
X35304Y194753D01*
X35208Y194774D01*
X35131Y194773D01*
X35055Y194781D01*
X34957Y194770D01*
X34859Y194768D01*
X34785Y194749D01*
X34709Y194741D01*
X34567Y194695D01*
X34521Y194683D01*
X34504Y194674D01*
X34476Y194665D01*
X34230Y194563D01*
X16570Y194563D01*
X13396Y195878D01*
X10966Y198308D01*
X9651Y201482D01*
X9651Y204918D01*
X10966Y208092D01*
X13396Y210522D01*
X16570Y211837D01*
X34230Y211837D01*
X37404Y210522D01*
X39834Y208092D01*
X41149Y204918D01*
X41149Y201451D01*
X41163Y201325D01*
X41170Y201199D01*
X41183Y201152D01*
X41189Y201104D01*
X41231Y200985D01*
X41266Y200864D01*
X41290Y200822D01*
X41306Y200776D01*
X41375Y200670D01*
X41436Y200560D01*
X41476Y200513D01*
X41495Y200483D01*
X41530Y200450D01*
X41595Y200374D01*
X74390Y167579D01*
X74489Y167500D01*
X74582Y167416D01*
X74625Y167392D01*
X74663Y167362D01*
X74777Y167308D01*
X74887Y167247D01*
X74934Y167234D01*
X74978Y167213D01*
X75101Y167187D01*
X75223Y167152D01*
X75284Y167147D01*
X75318Y167140D01*
X75366Y167141D01*
X75467Y167133D01*
X102318Y167133D01*
X102349Y167108D01*
X102463Y167054D01*
X102573Y166993D01*
X102620Y166980D01*
X102664Y166959D01*
X102787Y166933D01*
X102909Y166898D01*
X102970Y166893D01*
X103004Y166886D01*
X103052Y166887D01*
X103153Y166879D01*
X109140Y166879D01*
X109166Y166882D01*
X109192Y166880D01*
X109339Y166902D01*
X109486Y166919D01*
X109511Y166927D01*
X109537Y166931D01*
X109675Y166986D01*
X109814Y167036D01*
X109836Y167050D01*
X109861Y167060D01*
X109982Y167145D01*
X110107Y167225D01*
X110125Y167244D01*
X110147Y167259D01*
X110246Y167369D01*
X110349Y167476D01*
X110363Y167498D01*
X110380Y167518D01*
X110452Y167648D01*
X110528Y167775D01*
X110536Y167800D01*
X110549Y167823D01*
X110589Y167966D01*
X110634Y168107D01*
X110636Y168133D01*
X110644Y168158D01*
X110663Y168402D01*
X110663Y169672D01*
X110660Y169698D01*
X110662Y169724D01*
X110640Y169871D01*
X110623Y170018D01*
X110615Y170043D01*
X110611Y170069D01*
X110556Y170207D01*
X110506Y170346D01*
X110492Y170368D01*
X110482Y170393D01*
X110397Y170514D01*
X110317Y170639D01*
X110298Y170657D01*
X110283Y170679D01*
X110173Y170778D01*
X110066Y170881D01*
X110044Y170895D01*
X110024Y170912D01*
X109894Y170984D01*
X109767Y171060D01*
X109742Y171068D01*
X109719Y171081D01*
X109576Y171121D01*
X109435Y171166D01*
X109409Y171168D01*
X109384Y171176D01*
X109140Y171195D01*
X83660Y171195D01*
X35338Y219517D01*
X35239Y219596D01*
X35146Y219680D01*
X35103Y219704D01*
X35065Y219734D01*
X34951Y219788D01*
X34841Y219849D01*
X34794Y219862D01*
X34750Y219883D01*
X34627Y219909D01*
X34505Y219944D01*
X34444Y219949D01*
X34410Y219956D01*
X34362Y219955D01*
X34261Y219963D01*
X16570Y219963D01*
X13396Y221278D01*
X10966Y223708D01*
X9651Y226882D01*
X9651Y230318D01*
X10966Y233492D01*
X13396Y235922D01*
X16570Y237237D01*
X34230Y237237D01*
X37404Y235922D01*
X39834Y233492D01*
X41149Y230318D01*
X41149Y226882D01*
X41047Y226636D01*
X41026Y226562D01*
X40995Y226492D01*
X40978Y226395D01*
X40951Y226300D01*
X40947Y226224D01*
X40934Y226149D01*
X40939Y226051D01*
X40934Y225952D01*
X40948Y225877D01*
X40952Y225801D01*
X40979Y225706D01*
X40997Y225610D01*
X41027Y225539D01*
X41048Y225466D01*
X41096Y225380D01*
X41135Y225290D01*
X41181Y225229D01*
X41218Y225162D01*
X41315Y225048D01*
X41343Y225010D01*
X41358Y224998D01*
X41377Y224976D01*
X86582Y179771D01*
X86681Y179692D01*
X86774Y179608D01*
X86817Y179584D01*
X86855Y179554D01*
X86969Y179500D01*
X87079Y179439D01*
X87126Y179426D01*
X87170Y179405D01*
X87293Y179379D01*
X87415Y179344D01*
X87476Y179339D01*
X87510Y179332D01*
X87558Y179333D01*
X87659Y179325D01*
X109140Y179325D01*
X109166Y179328D01*
X109192Y179326D01*
X109339Y179348D01*
X109486Y179365D01*
X109511Y179373D01*
X109537Y179377D01*
X109675Y179432D01*
X109814Y179482D01*
X109836Y179496D01*
X109861Y179506D01*
X109982Y179591D01*
X110107Y179671D01*
X110125Y179690D01*
X110147Y179705D01*
X110246Y179815D01*
X110349Y179922D01*
X110363Y179944D01*
X110380Y179964D01*
X110452Y180094D01*
X110528Y180221D01*
X110536Y180246D01*
X110549Y180269D01*
X110589Y180412D01*
X110634Y180553D01*
X110636Y180579D01*
X110644Y180604D01*
X110663Y180848D01*
X110663Y182626D01*
X110660Y182652D01*
X110662Y182678D01*
X110640Y182825D01*
X110623Y182972D01*
X110615Y182997D01*
X110611Y183023D01*
X110556Y183161D01*
X110506Y183300D01*
X110492Y183322D01*
X110482Y183347D01*
X110397Y183468D01*
X110317Y183593D01*
X110298Y183611D01*
X110283Y183633D01*
X110173Y183732D01*
X110066Y183835D01*
X110044Y183849D01*
X110024Y183866D01*
X109894Y183938D01*
X109767Y184014D01*
X109742Y184022D01*
X109719Y184035D01*
X109576Y184075D01*
X109435Y184120D01*
X109409Y184122D01*
X109384Y184130D01*
X109140Y184149D01*
X96614Y184149D01*
X79502Y201261D01*
X79403Y201340D01*
X79310Y201424D01*
X79267Y201448D01*
X79229Y201478D01*
X79115Y201532D01*
X79005Y201593D01*
X78958Y201606D01*
X78914Y201627D01*
X78791Y201653D01*
X78669Y201688D01*
X78608Y201693D01*
X78574Y201700D01*
X78526Y201699D01*
X78425Y201707D01*
X78143Y201707D01*
X76100Y202553D01*
X74537Y204116D01*
X73691Y206159D01*
X73691Y208369D01*
X74537Y210412D01*
X76100Y211975D01*
X78143Y212821D01*
X80353Y212821D01*
X82396Y211975D01*
X83959Y210412D01*
X84805Y208369D01*
X84805Y208087D01*
X84819Y207961D01*
X84826Y207835D01*
X84839Y207788D01*
X84845Y207740D01*
X84887Y207621D01*
X84922Y207500D01*
X84946Y207458D01*
X84962Y207412D01*
X85031Y207306D01*
X85092Y207196D01*
X85132Y207150D01*
X85151Y207120D01*
X85186Y207086D01*
X85251Y207010D01*
X99536Y192725D01*
X99635Y192646D01*
X99728Y192562D01*
X99771Y192538D01*
X99809Y192508D01*
X99923Y192454D01*
X100033Y192393D01*
X100080Y192380D01*
X100124Y192359D01*
X100247Y192333D01*
X100369Y192298D01*
X100430Y192293D01*
X100464Y192286D01*
X100512Y192287D01*
X100613Y192279D01*
X109140Y192279D01*
X109166Y192282D01*
X109192Y192280D01*
X109339Y192302D01*
X109486Y192319D01*
X109511Y192327D01*
X109537Y192331D01*
X109675Y192386D01*
X109814Y192436D01*
X109836Y192450D01*
X109861Y192460D01*
X109982Y192545D01*
X110107Y192625D01*
X110125Y192644D01*
X110147Y192659D01*
X110246Y192769D01*
X110349Y192876D01*
X110363Y192898D01*
X110380Y192918D01*
X110452Y193048D01*
X110528Y193175D01*
X110536Y193200D01*
X110549Y193223D01*
X110589Y193366D01*
X110634Y193507D01*
X110636Y193533D01*
X110644Y193558D01*
X110663Y193802D01*
X110663Y196627D01*
X110649Y196753D01*
X110642Y196879D01*
X110639Y196890D01*
X110639Y204941D01*
X110644Y204957D01*
X110649Y205017D01*
X110656Y205052D01*
X110655Y205100D01*
X110663Y205201D01*
X110663Y209327D01*
X110649Y209453D01*
X110642Y209579D01*
X110639Y209590D01*
X110639Y217641D01*
X110644Y217657D01*
X110649Y217717D01*
X110656Y217752D01*
X110655Y217800D01*
X110663Y217901D01*
X110663Y222027D01*
X110649Y222153D01*
X110642Y222279D01*
X110639Y222290D01*
X110639Y230341D01*
X110644Y230357D01*
X110649Y230417D01*
X110656Y230452D01*
X110655Y230500D01*
X110663Y230601D01*
X110663Y234727D01*
X110649Y234853D01*
X110642Y234979D01*
X110639Y234990D01*
X110639Y243041D01*
X110644Y243057D01*
X110649Y243117D01*
X110656Y243152D01*
X110655Y243200D01*
X110663Y243301D01*
X110663Y247427D01*
X110649Y247553D01*
X110642Y247679D01*
X110639Y247690D01*
X110639Y255741D01*
X110644Y255757D01*
X110649Y255817D01*
X110656Y255852D01*
X110655Y255900D01*
X110663Y256001D01*
X110663Y260127D01*
X110649Y260253D01*
X110642Y260379D01*
X110639Y260390D01*
X110639Y268441D01*
X110644Y268457D01*
X110649Y268517D01*
X110656Y268552D01*
X110655Y268600D01*
X110663Y268701D01*
X110663Y271526D01*
X110660Y271552D01*
X110662Y271578D01*
X110640Y271725D01*
X110623Y271872D01*
X110615Y271897D01*
X110611Y271923D01*
X110556Y272061D01*
X110506Y272200D01*
X110492Y272222D01*
X110482Y272247D01*
X110397Y272368D01*
X110317Y272493D01*
X110298Y272511D01*
X110283Y272533D01*
X110173Y272632D01*
X110066Y272735D01*
X110044Y272749D01*
X110024Y272766D01*
X109894Y272838D01*
X109767Y272914D01*
X109742Y272922D01*
X109719Y272935D01*
X109576Y272975D01*
X109435Y273020D01*
X109409Y273022D01*
X109384Y273030D01*
X109140Y273049D01*
X97630Y273049D01*
X87375Y283304D01*
X87375Y306484D01*
X104996Y324105D01*
X211996Y324105D01*
X214823Y321278D01*
X216154Y319947D01*
X216253Y319868D01*
X216346Y319784D01*
X216389Y319760D01*
X216427Y319730D01*
X216541Y319676D01*
X216651Y319615D01*
X216698Y319602D01*
X216742Y319581D01*
X216865Y319555D01*
X216987Y319520D01*
X217048Y319515D01*
X217082Y319508D01*
X217130Y319509D01*
X217231Y319501D01*
X217513Y319501D01*
X219556Y318655D01*
X221119Y317092D01*
X221965Y315049D01*
X221965Y312839D01*
X221119Y310796D01*
X219556Y309233D01*
X217513Y308387D01*
X215303Y308387D01*
X213260Y309233D01*
X211697Y310796D01*
X210851Y312839D01*
X210851Y313121D01*
X210837Y313247D01*
X210830Y313373D01*
X210817Y313420D01*
X210811Y313468D01*
X210769Y313587D01*
X210734Y313708D01*
X210710Y313750D01*
X210694Y313796D01*
X210625Y313902D01*
X210564Y314012D01*
X210524Y314059D01*
X210505Y314089D01*
X210470Y314122D01*
X210405Y314198D01*
X209074Y315529D01*
X208975Y315608D01*
X208882Y315692D01*
X208839Y315716D01*
X208801Y315746D01*
X208687Y315800D01*
X208577Y315861D01*
X208530Y315874D01*
X208486Y315895D01*
X208363Y315921D01*
X208241Y315956D01*
X208180Y315961D01*
X208146Y315968D01*
X208098Y315967D01*
X207997Y315975D01*
X125329Y315975D01*
X125229Y315964D01*
X125128Y315962D01*
X125056Y315944D01*
X124982Y315935D01*
X124888Y315901D01*
X124790Y315877D01*
X124724Y315843D01*
X124654Y315818D01*
X124570Y315763D01*
X124481Y315717D01*
X124424Y315669D01*
X124361Y315629D01*
X124292Y315557D01*
X124215Y315492D01*
X124171Y315432D01*
X124119Y315378D01*
X124068Y315292D01*
X124008Y315211D01*
X123979Y315143D01*
X123940Y315079D01*
X123910Y314983D01*
X123870Y314891D01*
X123857Y314818D01*
X123834Y314747D01*
X123826Y314647D01*
X123808Y314548D01*
X123812Y314474D01*
X123806Y314400D01*
X123821Y314300D01*
X123826Y314200D01*
X123847Y314129D01*
X123858Y314055D01*
X123895Y313962D01*
X123923Y313865D01*
X123959Y313800D01*
X123987Y313731D01*
X124044Y313649D01*
X124093Y313561D01*
X124158Y313485D01*
X124186Y313445D01*
X124212Y313421D01*
X124251Y313375D01*
X125107Y312520D01*
X125953Y310477D01*
X125953Y308267D01*
X125107Y306224D01*
X124907Y306024D01*
X124828Y305925D01*
X124744Y305832D01*
X124720Y305789D01*
X124690Y305751D01*
X124636Y305637D01*
X124575Y305527D01*
X124562Y305480D01*
X124541Y305436D01*
X124515Y305313D01*
X124480Y305191D01*
X124475Y305130D01*
X124468Y305096D01*
X124469Y305048D01*
X124461Y304947D01*
X124461Y301738D01*
X124464Y301712D01*
X124462Y301686D01*
X124484Y301539D01*
X124501Y301392D01*
X124509Y301367D01*
X124513Y301341D01*
X124568Y301203D01*
X124618Y301064D01*
X124632Y301042D01*
X124642Y301017D01*
X124727Y300896D01*
X124807Y300771D01*
X124826Y300753D01*
X124841Y300731D01*
X124951Y300632D01*
X125058Y300529D01*
X125080Y300515D01*
X125100Y300498D01*
X125230Y300426D01*
X125357Y300350D01*
X125382Y300342D01*
X125405Y300329D01*
X125548Y300289D01*
X125689Y300244D01*
X125715Y300242D01*
X125740Y300234D01*
X125984Y300215D01*
X219287Y300215D01*
X219413Y300229D01*
X219539Y300236D01*
X219586Y300249D01*
X219634Y300255D01*
X219753Y300297D01*
X219874Y300332D01*
X219916Y300356D01*
X219962Y300372D01*
X220068Y300441D01*
X220178Y300502D01*
X220224Y300542D01*
X220254Y300561D01*
X220288Y300596D01*
X220364Y300661D01*
X255920Y336216D01*
X257647Y336932D01*
X354503Y336932D01*
X356230Y336216D01*
X389707Y302740D01*
X389727Y302723D01*
X389744Y302703D01*
X389864Y302615D01*
X389980Y302523D01*
X390004Y302512D01*
X390025Y302496D01*
X390161Y302437D01*
X390295Y302374D01*
X390321Y302368D01*
X390345Y302358D01*
X390491Y302332D01*
X390636Y302301D01*
X390662Y302301D01*
X390688Y302296D01*
X390836Y302304D01*
X390984Y302307D01*
X391010Y302313D01*
X391036Y302314D01*
X391178Y302355D01*
X391322Y302392D01*
X391345Y302404D01*
X391371Y302411D01*
X391500Y302483D01*
X391632Y302551D01*
X391652Y302568D01*
X391675Y302581D01*
X391861Y302740D01*
X436814Y347693D01*
X436893Y347792D01*
X436977Y347885D01*
X437001Y347928D01*
X437031Y347966D01*
X437085Y348080D01*
X437146Y348190D01*
X437159Y348237D01*
X437180Y348281D01*
X437206Y348404D01*
X437241Y348526D01*
X437246Y348587D01*
X437253Y348621D01*
X437252Y348669D01*
X437260Y348770D01*
X437260Y380571D01*
X437260Y380573D01*
X437260Y380575D01*
X437240Y380746D01*
X437220Y380917D01*
X437220Y380919D01*
X437219Y380921D01*
X437144Y381154D01*
X436403Y382943D01*
X436403Y385153D01*
X437249Y387196D01*
X438812Y388759D01*
X440855Y389605D01*
X443065Y389605D01*
X445108Y388759D01*
X446671Y387196D01*
X447517Y385153D01*
X447517Y382943D01*
X446776Y381154D01*
X446775Y381152D01*
X446774Y381150D01*
X446727Y380983D01*
X446680Y380819D01*
X446680Y380817D01*
X446679Y380815D01*
X446660Y380571D01*
X446660Y373651D01*
X446671Y373551D01*
X446673Y373451D01*
X446691Y373379D01*
X446700Y373305D01*
X446733Y373211D01*
X446758Y373113D01*
X446792Y373047D01*
X446817Y372977D01*
X446872Y372893D01*
X446918Y372803D01*
X446966Y372747D01*
X447006Y372684D01*
X447078Y372614D01*
X447143Y372538D01*
X447203Y372494D01*
X447257Y372442D01*
X447343Y372390D01*
X447424Y372331D01*
X447492Y372301D01*
X447556Y372263D01*
X447652Y372233D01*
X447744Y372193D01*
X447817Y372180D01*
X447888Y372157D01*
X447988Y372149D01*
X448087Y372131D01*
X448161Y372135D01*
X448235Y372129D01*
X448335Y372144D01*
X448435Y372149D01*
X448506Y372170D01*
X448580Y372181D01*
X448673Y372218D01*
X448770Y372246D01*
X448835Y372282D01*
X448904Y372309D01*
X448986Y372367D01*
X449074Y372416D01*
X449150Y372481D01*
X449190Y372508D01*
X449214Y372535D01*
X449260Y372574D01*
X452689Y376003D01*
X452768Y376102D01*
X452852Y376196D01*
X452876Y376238D01*
X452906Y376276D01*
X452960Y376390D01*
X453021Y376501D01*
X453034Y376548D01*
X453055Y376591D01*
X453081Y376715D01*
X453116Y376837D01*
X453121Y376897D01*
X453128Y376932D01*
X453127Y376980D01*
X453135Y377080D01*
X453135Y384920D01*
X453121Y385045D01*
X453114Y385171D01*
X453101Y385218D01*
X453095Y385266D01*
X453053Y385385D01*
X453018Y385506D01*
X452994Y385549D01*
X452978Y385594D01*
X452909Y385700D01*
X452848Y385810D01*
X452808Y385857D01*
X452789Y385887D01*
X452754Y385920D01*
X452689Y385997D01*
X448563Y390123D01*
X448563Y397277D01*
X452689Y401403D01*
X452768Y401502D01*
X452852Y401596D01*
X452876Y401638D01*
X452906Y401676D01*
X452960Y401790D01*
X453021Y401901D01*
X453034Y401948D01*
X453055Y401991D01*
X453081Y402115D01*
X453116Y402237D01*
X453121Y402297D01*
X453128Y402332D01*
X453127Y402380D01*
X453135Y402480D01*
X453135Y405609D01*
X453124Y405709D01*
X453122Y405810D01*
X453104Y405882D01*
X453095Y405956D01*
X453062Y406050D01*
X453037Y406148D01*
X453003Y406214D01*
X452978Y406284D01*
X452923Y406368D01*
X452877Y406457D01*
X452829Y406514D01*
X452789Y406577D01*
X452717Y406646D01*
X452652Y406723D01*
X452592Y406767D01*
X452538Y406819D01*
X452452Y406870D01*
X452371Y406930D01*
X452303Y406959D01*
X452239Y406998D01*
X452143Y407028D01*
X452051Y407068D01*
X451978Y407081D01*
X451907Y407104D01*
X451807Y407112D01*
X451708Y407130D01*
X451634Y407126D01*
X451560Y407132D01*
X451460Y407117D01*
X451360Y407112D01*
X451289Y407091D01*
X451215Y407080D01*
X451122Y407043D01*
X451025Y407015D01*
X450960Y406979D01*
X450891Y406951D01*
X450809Y406894D01*
X450721Y406845D01*
X450645Y406780D01*
X450605Y406752D01*
X450581Y406726D01*
X450535Y406687D01*
X448216Y404367D01*
X398606Y404367D01*
X398580Y404364D01*
X398554Y404366D01*
X398407Y404344D01*
X398260Y404327D01*
X398235Y404319D01*
X398209Y404315D01*
X398071Y404260D01*
X397932Y404210D01*
X397910Y404196D01*
X397885Y404186D01*
X397764Y404101D01*
X397639Y404021D01*
X397621Y404002D01*
X397599Y403987D01*
X397500Y403877D01*
X397397Y403770D01*
X397383Y403748D01*
X397366Y403728D01*
X397294Y403598D01*
X397218Y403471D01*
X397210Y403446D01*
X397197Y403423D01*
X397157Y403280D01*
X397112Y403139D01*
X397110Y403113D01*
X397102Y403088D01*
X397083Y402844D01*
X397083Y401320D01*
X397086Y401294D01*
X397084Y401268D01*
X397106Y401121D01*
X397123Y400974D01*
X397131Y400949D01*
X397135Y400923D01*
X397190Y400785D01*
X397240Y400646D01*
X397254Y400624D01*
X397264Y400599D01*
X397349Y400478D01*
X397429Y400353D01*
X397448Y400335D01*
X397463Y400313D01*
X397573Y400214D01*
X397680Y400111D01*
X397702Y400097D01*
X397722Y400080D01*
X397852Y400008D01*
X397979Y399932D01*
X398004Y399924D01*
X398027Y399911D01*
X398170Y399871D01*
X398311Y399826D01*
X398337Y399824D01*
X398362Y399816D01*
X398606Y399797D01*
X415196Y399797D01*
X424689Y390304D01*
X424689Y354932D01*
X404020Y334263D01*
X374744Y334263D01*
X367570Y341437D01*
X367471Y341516D01*
X367378Y341600D01*
X367335Y341624D01*
X367297Y341654D01*
X367183Y341708D01*
X367073Y341769D01*
X367026Y341782D01*
X366982Y341803D01*
X366859Y341829D01*
X366737Y341864D01*
X366676Y341869D01*
X366642Y341876D01*
X366594Y341875D01*
X366493Y341883D01*
X268064Y341883D01*
X262382Y347565D01*
X262283Y347644D01*
X262190Y347728D01*
X262147Y347752D01*
X262109Y347782D01*
X261995Y347836D01*
X261885Y347897D01*
X261838Y347910D01*
X261794Y347931D01*
X261671Y347957D01*
X261549Y347992D01*
X261488Y347997D01*
X261454Y348004D01*
X261406Y348003D01*
X261305Y348011D01*
X261023Y348011D01*
X258980Y348857D01*
X257417Y350420D01*
X256571Y352463D01*
X256571Y352745D01*
X256557Y352871D01*
X256550Y352997D01*
X256539Y353035D01*
X256539Y372589D01*
X256525Y372715D01*
X256518Y372841D01*
X256505Y372888D01*
X256499Y372936D01*
X256457Y373055D01*
X256422Y373176D01*
X256398Y373218D01*
X256382Y373264D01*
X256313Y373370D01*
X256252Y373480D01*
X256212Y373526D01*
X256193Y373556D01*
X256158Y373590D01*
X256093Y373666D01*
X238538Y391221D01*
X238439Y391300D01*
X238346Y391384D01*
X238303Y391408D01*
X238265Y391438D01*
X238151Y391492D01*
X238041Y391553D01*
X237994Y391566D01*
X237950Y391587D01*
X237827Y391613D01*
X237705Y391648D01*
X237644Y391653D01*
X237610Y391660D01*
X237562Y391659D01*
X237461Y391667D01*
X229188Y391667D01*
X229162Y391664D01*
X229136Y391666D01*
X228989Y391644D01*
X228842Y391627D01*
X228817Y391619D01*
X228791Y391615D01*
X228653Y391560D01*
X228514Y391510D01*
X228492Y391496D01*
X228467Y391486D01*
X228346Y391401D01*
X228221Y391321D01*
X228203Y391302D01*
X228181Y391287D01*
X228082Y391177D01*
X227979Y391070D01*
X227965Y391048D01*
X227948Y391028D01*
X227876Y390898D01*
X227800Y390771D01*
X227792Y390746D01*
X227779Y390723D01*
X227739Y390580D01*
X227694Y390439D01*
X227692Y390413D01*
X227684Y390388D01*
X227665Y390144D01*
X227665Y388620D01*
X227668Y388594D01*
X227666Y388568D01*
X227688Y388421D01*
X227705Y388274D01*
X227713Y388249D01*
X227717Y388223D01*
X227772Y388085D01*
X227822Y387946D01*
X227836Y387924D01*
X227846Y387899D01*
X227931Y387778D01*
X228011Y387653D01*
X228030Y387635D01*
X228045Y387613D01*
X228155Y387514D01*
X228262Y387411D01*
X228284Y387397D01*
X228304Y387380D01*
X228434Y387308D01*
X228561Y387232D01*
X228586Y387224D01*
X228609Y387211D01*
X228752Y387171D01*
X228893Y387126D01*
X228919Y387124D01*
X228944Y387116D01*
X229188Y387097D01*
X232824Y387097D01*
X247905Y372016D01*
X247905Y351884D01*
X230284Y334263D01*
X81563Y334263D01*
X81437Y334249D01*
X81311Y334242D01*
X81264Y334229D01*
X81216Y334223D01*
X81097Y334181D01*
X80976Y334146D01*
X80934Y334122D01*
X80888Y334106D01*
X80782Y334037D01*
X80672Y333976D01*
X80626Y333936D01*
X80596Y333917D01*
X80562Y333882D01*
X80486Y333817D01*
X47404Y300735D01*
X41194Y300735D01*
X41119Y300727D01*
X41042Y300728D01*
X40946Y300707D01*
X40848Y300695D01*
X40776Y300670D01*
X40702Y300653D01*
X40613Y300611D01*
X40520Y300578D01*
X40456Y300536D01*
X40387Y300504D01*
X40310Y300442D01*
X40227Y300389D01*
X40174Y300334D01*
X40115Y300286D01*
X40054Y300209D01*
X39985Y300138D01*
X39946Y300073D01*
X39899Y300013D01*
X39856Y299930D01*
X37404Y297478D01*
X34230Y296163D01*
X16570Y296163D01*
X13396Y297478D01*
X10966Y299908D01*
X9651Y303082D01*
X9651Y306518D01*
X10966Y309692D01*
X13396Y312122D01*
X16570Y313437D01*
X34230Y313437D01*
X37404Y312122D01*
X39848Y309678D01*
X39853Y309667D01*
X39909Y309586D01*
X39957Y309500D01*
X40008Y309444D01*
X40051Y309381D01*
X40124Y309315D01*
X40191Y309242D01*
X40254Y309199D01*
X40310Y309148D01*
X40396Y309100D01*
X40477Y309044D01*
X40548Y309016D01*
X40615Y308979D01*
X40710Y308952D01*
X40802Y308916D01*
X40877Y308905D01*
X40951Y308884D01*
X41100Y308872D01*
X41146Y308865D01*
X41165Y308867D01*
X41194Y308865D01*
X43405Y308865D01*
X43531Y308879D01*
X43657Y308886D01*
X43704Y308899D01*
X43752Y308905D01*
X43871Y308947D01*
X43992Y308982D01*
X44034Y309006D01*
X44080Y309022D01*
X44186Y309091D01*
X44296Y309152D01*
X44342Y309192D01*
X44372Y309211D01*
X44406Y309246D01*
X44482Y309311D01*
X77564Y342393D01*
X226285Y342393D01*
X226411Y342407D01*
X226537Y342414D01*
X226584Y342427D01*
X226632Y342433D01*
X226751Y342475D01*
X226872Y342510D01*
X226914Y342534D01*
X226960Y342550D01*
X227066Y342619D01*
X227176Y342680D01*
X227222Y342720D01*
X227252Y342739D01*
X227286Y342774D01*
X227362Y342839D01*
X239329Y354806D01*
X239408Y354905D01*
X239492Y354998D01*
X239516Y355041D01*
X239546Y355079D01*
X239600Y355193D01*
X239661Y355303D01*
X239674Y355350D01*
X239695Y355394D01*
X239721Y355517D01*
X239756Y355639D01*
X239761Y355700D01*
X239768Y355734D01*
X239767Y355782D01*
X239775Y355883D01*
X239775Y368017D01*
X239761Y368143D01*
X239754Y368269D01*
X239741Y368316D01*
X239735Y368364D01*
X239693Y368483D01*
X239658Y368604D01*
X239634Y368646D01*
X239618Y368692D01*
X239549Y368798D01*
X239488Y368908D01*
X239448Y368954D01*
X239429Y368984D01*
X239394Y369018D01*
X239329Y369094D01*
X230265Y378159D01*
X230187Y378221D01*
X230114Y378291D01*
X230050Y378329D01*
X229992Y378375D01*
X229901Y378418D01*
X229815Y378470D01*
X229744Y378492D01*
X229677Y378524D01*
X229579Y378545D01*
X229483Y378576D01*
X229409Y378582D01*
X229336Y378597D01*
X229236Y378596D01*
X229136Y378604D01*
X229062Y378593D01*
X228988Y378591D01*
X228891Y378567D01*
X228791Y378552D01*
X228722Y378525D01*
X228650Y378506D01*
X228560Y378460D01*
X228467Y378423D01*
X228406Y378381D01*
X228340Y378347D01*
X228263Y378282D01*
X228181Y378224D01*
X228131Y378169D01*
X228075Y378121D01*
X228015Y378040D01*
X227948Y377966D01*
X227912Y377901D01*
X227867Y377841D01*
X227828Y377748D01*
X227779Y377661D01*
X227759Y377589D01*
X227729Y377521D01*
X227712Y377422D01*
X227684Y377325D01*
X227676Y377225D01*
X227668Y377178D01*
X227670Y377142D01*
X227665Y377081D01*
X227665Y374618D01*
X227679Y374492D01*
X227686Y374366D01*
X227689Y374356D01*
X227689Y366305D01*
X227684Y366289D01*
X227680Y366229D01*
X227672Y366195D01*
X227673Y366147D01*
X227665Y366046D01*
X227665Y360225D01*
X227371Y359931D01*
X221996Y359931D01*
X221970Y359928D01*
X221944Y359930D01*
X221797Y359908D01*
X221650Y359891D01*
X221625Y359883D01*
X221599Y359879D01*
X221461Y359824D01*
X221322Y359774D01*
X221300Y359760D01*
X221275Y359750D01*
X221154Y359665D01*
X221029Y359585D01*
X221011Y359566D01*
X220989Y359551D01*
X220890Y359441D01*
X220787Y359334D01*
X220773Y359312D01*
X220756Y359292D01*
X220684Y359162D01*
X220608Y359035D01*
X220600Y359010D01*
X220587Y358987D01*
X220547Y358844D01*
X220502Y358703D01*
X220500Y358677D01*
X220492Y358652D01*
X220473Y358408D01*
X220473Y357993D01*
X220487Y357867D01*
X220494Y357741D01*
X220507Y357694D01*
X220513Y357646D01*
X220555Y357527D01*
X220590Y357406D01*
X220614Y357364D01*
X220630Y357318D01*
X220699Y357212D01*
X220760Y357102D01*
X220800Y357055D01*
X220819Y357025D01*
X220854Y356992D01*
X220871Y356972D01*
X220880Y356958D01*
X220889Y356950D01*
X220919Y356916D01*
X221119Y356716D01*
X221965Y354673D01*
X221965Y352463D01*
X221119Y350420D01*
X219556Y348857D01*
X217513Y348011D01*
X215303Y348011D01*
X213260Y348857D01*
X211697Y350420D01*
X210851Y352463D01*
X210851Y354673D01*
X211697Y356716D01*
X211897Y356916D01*
X211964Y356999D01*
X212002Y357039D01*
X212010Y357053D01*
X212060Y357108D01*
X212084Y357151D01*
X212114Y357189D01*
X212168Y357303D01*
X212229Y357413D01*
X212242Y357460D01*
X212263Y357504D01*
X212289Y357627D01*
X212324Y357749D01*
X212329Y357810D01*
X212336Y357844D01*
X212335Y357892D01*
X212343Y357993D01*
X212343Y358408D01*
X212340Y358434D01*
X212342Y358460D01*
X212320Y358607D01*
X212303Y358754D01*
X212295Y358779D01*
X212291Y358805D01*
X212236Y358943D01*
X212186Y359082D01*
X212172Y359104D01*
X212162Y359129D01*
X212077Y359250D01*
X211997Y359375D01*
X211978Y359393D01*
X211963Y359415D01*
X211853Y359514D01*
X211746Y359617D01*
X211724Y359631D01*
X211704Y359648D01*
X211574Y359720D01*
X211447Y359796D01*
X211422Y359804D01*
X211399Y359817D01*
X211256Y359857D01*
X211115Y359902D01*
X211089Y359904D01*
X211064Y359912D01*
X210820Y359931D01*
X110957Y359931D01*
X110663Y360225D01*
X110663Y364609D01*
X110649Y364734D01*
X110642Y364861D01*
X110629Y364907D01*
X110623Y364955D01*
X110581Y365074D01*
X110546Y365195D01*
X110522Y365237D01*
X110506Y365283D01*
X110437Y365389D01*
X110376Y365500D01*
X110336Y365546D01*
X110317Y365576D01*
X110282Y365609D01*
X110217Y365686D01*
X110131Y365772D01*
X109796Y366351D01*
X109623Y366997D01*
X109623Y368896D01*
X109675Y368916D01*
X109814Y368966D01*
X109836Y368980D01*
X109861Y368990D01*
X109982Y369074D01*
X110107Y369155D01*
X110125Y369174D01*
X110147Y369189D01*
X110246Y369299D01*
X110349Y369406D01*
X110363Y369428D01*
X110380Y369448D01*
X110452Y369578D01*
X110528Y369705D01*
X110536Y369730D01*
X110549Y369753D01*
X110589Y369896D01*
X110634Y370037D01*
X110636Y370063D01*
X110644Y370088D01*
X110663Y370332D01*
X110660Y370358D01*
X110662Y370384D01*
X110640Y370531D01*
X110623Y370678D01*
X110615Y370703D01*
X110611Y370729D01*
X110556Y370867D01*
X110506Y371006D01*
X110492Y371029D01*
X110482Y371053D01*
X110397Y371174D01*
X110317Y371299D01*
X110298Y371318D01*
X110283Y371339D01*
X110173Y371438D01*
X110066Y371541D01*
X110044Y371555D01*
X110024Y371572D01*
X109894Y371644D01*
X109767Y371720D01*
X109742Y371728D01*
X109719Y371741D01*
X109623Y371768D01*
X109623Y373667D01*
X109796Y374313D01*
X110131Y374892D01*
X110217Y374978D01*
X110296Y375077D01*
X110380Y375171D01*
X110404Y375213D01*
X110434Y375251D01*
X110488Y375365D01*
X110549Y375476D01*
X110562Y375523D01*
X110583Y375566D01*
X110609Y375690D01*
X110644Y375812D01*
X110649Y375872D01*
X110656Y375907D01*
X110655Y375955D01*
X110663Y376055D01*
X110663Y377444D01*
X110660Y377470D01*
X110662Y377496D01*
X110640Y377643D01*
X110623Y377790D01*
X110615Y377815D01*
X110611Y377841D01*
X110556Y377979D01*
X110506Y378118D01*
X110492Y378140D01*
X110482Y378165D01*
X110397Y378286D01*
X110317Y378411D01*
X110298Y378429D01*
X110283Y378451D01*
X110173Y378550D01*
X110066Y378653D01*
X110044Y378667D01*
X110024Y378684D01*
X109894Y378756D01*
X109767Y378832D01*
X109742Y378840D01*
X109719Y378853D01*
X109576Y378893D01*
X109435Y378938D01*
X109409Y378940D01*
X109384Y378948D01*
X109140Y378967D01*
X89691Y378967D01*
X89565Y378953D01*
X89439Y378946D01*
X89392Y378933D01*
X89344Y378927D01*
X89225Y378885D01*
X89104Y378850D01*
X89062Y378826D01*
X89016Y378810D01*
X88910Y378741D01*
X88800Y378680D01*
X88754Y378640D01*
X88724Y378621D01*
X88690Y378586D01*
X88614Y378521D01*
X41595Y331502D01*
X41516Y331403D01*
X41432Y331310D01*
X41408Y331267D01*
X41378Y331229D01*
X41324Y331115D01*
X41263Y331005D01*
X41250Y330958D01*
X41229Y330914D01*
X41203Y330791D01*
X41168Y330669D01*
X41163Y330608D01*
X41156Y330574D01*
X41157Y330526D01*
X41149Y330425D01*
X41149Y328482D01*
X39834Y325308D01*
X37404Y322878D01*
X34230Y321563D01*
X16570Y321563D01*
X13396Y322878D01*
X10966Y325308D01*
X9651Y328482D01*
X9651Y331918D01*
X10966Y335092D01*
X13396Y337522D01*
X16570Y338837D01*
X34230Y338837D01*
X35554Y338288D01*
X35628Y338267D01*
X35698Y338237D01*
X35794Y338220D01*
X35889Y338193D01*
X35965Y338189D01*
X36041Y338175D01*
X36139Y338180D01*
X36237Y338176D01*
X36312Y338189D01*
X36389Y338193D01*
X36483Y338221D01*
X36580Y338238D01*
X36650Y338269D01*
X36724Y338290D01*
X36809Y338338D01*
X36900Y338377D01*
X36961Y338423D01*
X37028Y338460D01*
X37142Y338557D01*
X37179Y338585D01*
X37192Y338600D01*
X37214Y338618D01*
X85692Y387097D01*
X109140Y387097D01*
X109166Y387100D01*
X109192Y387098D01*
X109339Y387120D01*
X109486Y387137D01*
X109511Y387145D01*
X109537Y387149D01*
X109675Y387204D01*
X109814Y387254D01*
X109836Y387268D01*
X109861Y387278D01*
X109982Y387363D01*
X110107Y387443D01*
X110125Y387462D01*
X110147Y387477D01*
X110246Y387587D01*
X110349Y387694D01*
X110363Y387716D01*
X110380Y387736D01*
X110452Y387866D01*
X110528Y387993D01*
X110536Y388018D01*
X110549Y388041D01*
X110589Y388184D01*
X110634Y388325D01*
X110636Y388351D01*
X110644Y388376D01*
X110663Y388620D01*
X110663Y390144D01*
X110660Y390170D01*
X110662Y390196D01*
X110640Y390343D01*
X110623Y390490D01*
X110615Y390515D01*
X110611Y390541D01*
X110556Y390679D01*
X110506Y390818D01*
X110492Y390840D01*
X110482Y390865D01*
X110397Y390986D01*
X110317Y391111D01*
X110298Y391129D01*
X110283Y391151D01*
X110173Y391250D01*
X110066Y391353D01*
X110044Y391367D01*
X110024Y391384D01*
X109894Y391456D01*
X109767Y391532D01*
X109742Y391540D01*
X109719Y391553D01*
X109576Y391593D01*
X109435Y391638D01*
X109409Y391640D01*
X109384Y391648D01*
X109140Y391667D01*
X85627Y391667D01*
X85501Y391653D01*
X85375Y391646D01*
X85328Y391633D01*
X85280Y391627D01*
X85161Y391585D01*
X85040Y391550D01*
X84998Y391526D01*
X84952Y391510D01*
X84846Y391441D01*
X84736Y391380D01*
X84690Y391340D01*
X84660Y391321D01*
X84626Y391286D01*
X84550Y391221D01*
X44864Y351535D01*
X41194Y351535D01*
X41119Y351527D01*
X41042Y351528D01*
X40946Y351507D01*
X40848Y351495D01*
X40776Y351470D01*
X40702Y351453D01*
X40613Y351411D01*
X40520Y351378D01*
X40456Y351336D01*
X40387Y351304D01*
X40310Y351242D01*
X40227Y351189D01*
X40174Y351134D01*
X40115Y351086D01*
X40054Y351009D01*
X39985Y350938D01*
X39946Y350873D01*
X39899Y350813D01*
X39856Y350730D01*
X37404Y348278D01*
X34230Y346963D01*
X16570Y346963D01*
X13396Y348278D01*
X10966Y350708D01*
X9651Y353882D01*
X9651Y357318D01*
X10966Y360492D01*
X13396Y362922D01*
X16570Y364237D01*
X34230Y364237D01*
X37404Y362922D01*
X40002Y360324D01*
X40022Y360308D01*
X40039Y360288D01*
X40159Y360200D01*
X40275Y360108D01*
X40298Y360097D01*
X40320Y360081D01*
X40456Y360022D01*
X40590Y359959D01*
X40616Y359953D01*
X40640Y359943D01*
X40786Y359917D01*
X40931Y359885D01*
X40957Y359886D01*
X40983Y359881D01*
X41131Y359889D01*
X41279Y359891D01*
X41304Y359898D01*
X41331Y359899D01*
X41473Y359940D01*
X41617Y359976D01*
X41640Y359988D01*
X41666Y359996D01*
X41795Y360068D01*
X41927Y360136D01*
X41947Y360153D01*
X41970Y360166D01*
X42156Y360324D01*
X81628Y399797D01*
X109140Y399797D01*
X109166Y399800D01*
X109192Y399798D01*
X109339Y399820D01*
X109486Y399837D01*
X109511Y399845D01*
X109537Y399849D01*
X109675Y399904D01*
X109814Y399954D01*
X109836Y399968D01*
X109861Y399978D01*
X109982Y400063D01*
X110107Y400143D01*
X110125Y400162D01*
X110147Y400177D01*
X110246Y400287D01*
X110349Y400394D01*
X110363Y400416D01*
X110380Y400436D01*
X110452Y400566D01*
X110528Y400693D01*
X110536Y400718D01*
X110549Y400741D01*
X110589Y400884D01*
X110634Y401025D01*
X110636Y401051D01*
X110644Y401076D01*
X110663Y401320D01*
X110663Y402844D01*
X110660Y402870D01*
X110662Y402896D01*
X110640Y403043D01*
X110623Y403190D01*
X110615Y403215D01*
X110611Y403241D01*
X110556Y403379D01*
X110506Y403518D01*
X110492Y403540D01*
X110482Y403565D01*
X110397Y403686D01*
X110317Y403811D01*
X110298Y403829D01*
X110283Y403851D01*
X110173Y403950D01*
X110066Y404053D01*
X110044Y404067D01*
X110024Y404084D01*
X109894Y404156D01*
X109767Y404232D01*
X109742Y404240D01*
X109719Y404253D01*
X109576Y404293D01*
X109435Y404338D01*
X109409Y404340D01*
X109384Y404348D01*
X109140Y404367D01*
X101948Y404367D01*
X93218Y413097D01*
X93119Y413176D01*
X93026Y413260D01*
X92983Y413284D01*
X92945Y413314D01*
X92831Y413368D01*
X92721Y413429D01*
X92674Y413442D01*
X92630Y413463D01*
X92507Y413489D01*
X92385Y413524D01*
X92324Y413529D01*
X92290Y413536D01*
X92242Y413535D01*
X92141Y413543D01*
X91859Y413543D01*
X89816Y414389D01*
X88253Y415952D01*
X87407Y417995D01*
X87407Y420205D01*
X88253Y422248D01*
X89816Y423811D01*
X91859Y424657D01*
X94069Y424657D01*
X96112Y423811D01*
X97675Y422248D01*
X98521Y420205D01*
X98521Y419923D01*
X98535Y419797D01*
X98542Y419671D01*
X98555Y419624D01*
X98561Y419576D01*
X98603Y419457D01*
X98638Y419336D01*
X98662Y419294D01*
X98678Y419248D01*
X98747Y419142D01*
X98808Y419032D01*
X98848Y418986D01*
X98867Y418956D01*
X98902Y418922D01*
X98967Y418846D01*
X104870Y412943D01*
X104969Y412864D01*
X105062Y412780D01*
X105105Y412756D01*
X105143Y412726D01*
X105257Y412672D01*
X105367Y412611D01*
X105414Y412598D01*
X105458Y412577D01*
X105581Y412551D01*
X105703Y412516D01*
X105764Y412511D01*
X105798Y412504D01*
X105846Y412505D01*
X105947Y412497D01*
X109140Y412497D01*
X109166Y412500D01*
X109192Y412498D01*
X109339Y412520D01*
X109486Y412537D01*
X109511Y412545D01*
X109537Y412549D01*
X109675Y412604D01*
X109814Y412654D01*
X109836Y412668D01*
X109861Y412678D01*
X109982Y412762D01*
X110107Y412843D01*
X110125Y412862D01*
X110147Y412877D01*
X110246Y412987D01*
X110349Y413094D01*
X110363Y413116D01*
X110380Y413136D01*
X110452Y413266D01*
X110528Y413393D01*
X110536Y413418D01*
X110549Y413441D01*
X110589Y413584D01*
X110634Y413725D01*
X110636Y413751D01*
X110644Y413776D01*
X110663Y414020D01*
X110663Y416846D01*
X110649Y416972D01*
X110642Y417098D01*
X110639Y417108D01*
X110639Y425159D01*
X110644Y425175D01*
X110648Y425235D01*
X110656Y425269D01*
X110655Y425317D01*
X110663Y425418D01*
X110663Y429546D01*
X110649Y429672D01*
X110642Y429798D01*
X110639Y429808D01*
X110639Y437859D01*
X110644Y437875D01*
X110648Y437935D01*
X110656Y437969D01*
X110655Y438017D01*
X110663Y438118D01*
X110663Y442246D01*
X110649Y442372D01*
X110642Y442498D01*
X110639Y442508D01*
X110639Y450559D01*
X110644Y450575D01*
X110648Y450635D01*
X110656Y450669D01*
X110655Y450717D01*
X110663Y450818D01*
X110663Y454945D01*
X110649Y455071D01*
X110642Y455197D01*
X110639Y455208D01*
X110639Y463259D01*
X110644Y463275D01*
X110649Y463335D01*
X110656Y463370D01*
X110655Y463418D01*
X110663Y463519D01*
X110663Y465328D01*
X110660Y465354D01*
X110662Y465380D01*
X110640Y465527D01*
X110623Y465674D01*
X110615Y465699D01*
X110611Y465725D01*
X110556Y465863D01*
X110506Y466002D01*
X110492Y466024D01*
X110482Y466049D01*
X110397Y466170D01*
X110317Y466295D01*
X110298Y466313D01*
X110283Y466335D01*
X110173Y466434D01*
X110066Y466537D01*
X110044Y466551D01*
X110024Y466568D01*
X109894Y466640D01*
X109767Y466716D01*
X109742Y466724D01*
X109719Y466737D01*
X109576Y466777D01*
X109435Y466822D01*
X109409Y466824D01*
X109384Y466832D01*
X109140Y466851D01*
X103485Y466851D01*
X103359Y466837D01*
X103233Y466830D01*
X103186Y466817D01*
X103138Y466811D01*
X103019Y466769D01*
X102898Y466734D01*
X102856Y466710D01*
X102810Y466694D01*
X102704Y466625D01*
X102594Y466564D01*
X102547Y466524D01*
X102517Y466505D01*
X102484Y466470D01*
X102408Y466405D01*
X102208Y466205D01*
X100165Y465359D01*
X97955Y465359D01*
X95912Y466205D01*
X94349Y467768D01*
X93503Y469811D01*
X93503Y472021D01*
X94349Y474064D01*
X95912Y475627D01*
X97955Y476473D01*
X100165Y476473D01*
X102208Y475627D01*
X102408Y475427D01*
X102507Y475348D01*
X102600Y475264D01*
X102643Y475240D01*
X102681Y475210D01*
X102795Y475156D01*
X102905Y475095D01*
X102952Y475082D01*
X102996Y475061D01*
X103119Y475035D01*
X103241Y475000D01*
X103302Y474995D01*
X103336Y474988D01*
X103384Y474989D01*
X103485Y474981D01*
X109140Y474981D01*
X109166Y474984D01*
X109192Y474982D01*
X109339Y475004D01*
X109486Y475021D01*
X109511Y475029D01*
X109537Y475033D01*
X109675Y475088D01*
X109814Y475138D01*
X109836Y475152D01*
X109861Y475162D01*
X109982Y475247D01*
X110107Y475327D01*
X110125Y475346D01*
X110147Y475361D01*
X110246Y475471D01*
X110349Y475578D01*
X110363Y475600D01*
X110380Y475620D01*
X110452Y475750D01*
X110528Y475877D01*
X110536Y475902D01*
X110549Y475925D01*
X110589Y476068D01*
X110634Y476209D01*
X110636Y476235D01*
X110644Y476260D01*
X110663Y476504D01*
X110663Y480345D01*
X110649Y480471D01*
X110642Y480597D01*
X110639Y480608D01*
X110639Y488659D01*
X110644Y488675D01*
X110649Y488735D01*
X110656Y488770D01*
X110655Y488818D01*
X110663Y488919D01*
X110663Y491744D01*
X110660Y491770D01*
X110662Y491796D01*
X110640Y491943D01*
X110623Y492090D01*
X110615Y492115D01*
X110611Y492141D01*
X110556Y492279D01*
X110506Y492418D01*
X110492Y492440D01*
X110482Y492465D01*
X110397Y492586D01*
X110317Y492711D01*
X110298Y492729D01*
X110283Y492751D01*
X110173Y492850D01*
X110066Y492953D01*
X110044Y492967D01*
X110024Y492984D01*
X109894Y493056D01*
X109767Y493132D01*
X109742Y493140D01*
X109719Y493153D01*
X109576Y493193D01*
X109435Y493238D01*
X109409Y493240D01*
X109384Y493248D01*
X109140Y493267D01*
X99916Y493267D01*
X96365Y496819D01*
X96363Y496820D01*
X96362Y496822D01*
X96226Y496929D01*
X96092Y497035D01*
X96090Y497036D01*
X96088Y497037D01*
X95871Y497149D01*
X95150Y497447D01*
X93587Y499010D01*
X92741Y501053D01*
X92741Y503263D01*
X93587Y505306D01*
X95150Y506869D01*
X97193Y507715D01*
X99403Y507715D01*
X101446Y506869D01*
X103009Y505306D01*
X103855Y503263D01*
X103855Y502920D01*
X103858Y502894D01*
X103856Y502868D01*
X103878Y502721D01*
X103895Y502574D01*
X103903Y502549D01*
X103907Y502523D01*
X103962Y502385D01*
X104012Y502246D01*
X104026Y502224D01*
X104036Y502199D01*
X104121Y502078D01*
X104201Y501953D01*
X104220Y501935D01*
X104235Y501913D01*
X104345Y501814D01*
X104452Y501711D01*
X104474Y501697D01*
X104494Y501680D01*
X104624Y501608D01*
X104751Y501532D01*
X104776Y501524D01*
X104799Y501511D01*
X104942Y501471D01*
X105083Y501426D01*
X105109Y501424D01*
X105134Y501416D01*
X105378Y501397D01*
X109140Y501397D01*
X109166Y501400D01*
X109192Y501398D01*
X109339Y501420D01*
X109486Y501437D01*
X109511Y501445D01*
X109537Y501449D01*
X109675Y501504D01*
X109814Y501554D01*
X109836Y501568D01*
X109861Y501578D01*
X109982Y501663D01*
X110107Y501743D01*
X110125Y501762D01*
X110147Y501777D01*
X110246Y501887D01*
X110349Y501994D01*
X110363Y502016D01*
X110380Y502036D01*
X110452Y502166D01*
X110528Y502293D01*
X110536Y502318D01*
X110549Y502341D01*
X110589Y502484D01*
X110634Y502625D01*
X110636Y502651D01*
X110644Y502676D01*
X110663Y502920D01*
X110663Y505745D01*
X110661Y505761D01*
X110662Y505773D01*
X110653Y505837D01*
X110649Y505871D01*
X110642Y505997D01*
X110639Y506008D01*
X110639Y514059D01*
X110644Y514075D01*
X110649Y514135D01*
X110656Y514170D01*
X110655Y514218D01*
X110663Y514319D01*
X110663Y515153D01*
X110649Y515279D01*
X110642Y515405D01*
X110629Y515452D01*
X110623Y515500D01*
X110581Y515619D01*
X110546Y515740D01*
X110522Y515782D01*
X110506Y515828D01*
X110437Y515934D01*
X110376Y516044D01*
X110336Y516090D01*
X110317Y516120D01*
X110282Y516154D01*
X110217Y516230D01*
X97558Y528889D01*
X97459Y528968D01*
X97366Y529052D01*
X97323Y529076D01*
X97285Y529106D01*
X97171Y529160D01*
X97061Y529221D01*
X97014Y529234D01*
X96970Y529255D01*
X96847Y529281D01*
X96725Y529316D01*
X96664Y529321D01*
X96630Y529328D01*
X96582Y529327D01*
X96481Y529335D01*
X41194Y529335D01*
X41119Y529327D01*
X41042Y529328D01*
X40946Y529307D01*
X40848Y529295D01*
X40776Y529270D01*
X40702Y529253D01*
X40613Y529211D01*
X40520Y529178D01*
X40456Y529136D01*
X40387Y529104D01*
X40310Y529042D01*
X40227Y528989D01*
X40174Y528934D01*
X40115Y528886D01*
X40054Y528809D01*
X39985Y528738D01*
X39946Y528673D01*
X39899Y528613D01*
X39856Y528530D01*
X37404Y526078D01*
X34230Y524763D01*
X16570Y524763D01*
X13396Y526078D01*
X10966Y528508D01*
X9651Y531682D01*
X9651Y535118D01*
X10966Y538292D01*
X13396Y540722D01*
X16570Y542037D01*
X34230Y542037D01*
X37404Y540722D01*
X39848Y538278D01*
X39853Y538267D01*
X39909Y538186D01*
X39957Y538100D01*
X40008Y538044D01*
X40051Y537981D01*
X40124Y537915D01*
X40191Y537842D01*
X40254Y537799D01*
X40310Y537748D01*
X40396Y537700D01*
X40477Y537644D01*
X40548Y537616D01*
X40615Y537579D01*
X40710Y537552D01*
X40802Y537516D01*
X40877Y537505D01*
X40951Y537484D01*
X41100Y537472D01*
X41146Y537465D01*
X41165Y537467D01*
X41194Y537465D01*
X100480Y537465D01*
X117066Y520879D01*
X117165Y520800D01*
X117258Y520716D01*
X117301Y520692D01*
X117339Y520662D01*
X117453Y520608D01*
X117563Y520547D01*
X117610Y520534D01*
X117654Y520513D01*
X117777Y520487D01*
X117899Y520452D01*
X117960Y520447D01*
X117994Y520440D01*
X118042Y520441D01*
X118143Y520433D01*
X126185Y520433D01*
X126311Y520447D01*
X126437Y520454D01*
X126484Y520467D01*
X126532Y520473D01*
X126651Y520515D01*
X126772Y520550D01*
X126814Y520574D01*
X126860Y520590D01*
X126966Y520659D01*
X127076Y520720D01*
X127122Y520760D01*
X127152Y520779D01*
X127186Y520814D01*
X127262Y520879D01*
X148420Y542037D01*
X149577Y542037D01*
X149677Y542048D01*
X149778Y542050D01*
X149850Y542068D01*
X149924Y542077D01*
X150018Y542110D01*
X150116Y542135D01*
X150182Y542169D01*
X150252Y542194D01*
X150336Y542249D01*
X150425Y542295D01*
X150482Y542343D01*
X150545Y542383D01*
X150614Y542455D01*
X150691Y542520D01*
X150735Y542580D01*
X150787Y542634D01*
X150838Y542720D01*
X150898Y542801D01*
X150927Y542869D01*
X150966Y542933D01*
X150996Y543029D01*
X151036Y543121D01*
X151049Y543194D01*
X151072Y543265D01*
X151080Y543365D01*
X151098Y543464D01*
X151094Y543538D01*
X151100Y543612D01*
X151085Y543712D01*
X151080Y543812D01*
X151059Y543883D01*
X151048Y543957D01*
X151011Y544050D01*
X150983Y544147D01*
X150947Y544212D01*
X150919Y544281D01*
X150862Y544363D01*
X150813Y544451D01*
X150748Y544527D01*
X150720Y544567D01*
X150694Y544591D01*
X150655Y544637D01*
X147889Y547402D01*
X90202Y605089D01*
X90103Y605168D01*
X90010Y605252D01*
X89967Y605276D01*
X89929Y605306D01*
X89815Y605360D01*
X89705Y605421D01*
X89658Y605434D01*
X89614Y605455D01*
X89491Y605481D01*
X89369Y605516D01*
X89308Y605521D01*
X89274Y605528D01*
X89226Y605527D01*
X89125Y605535D01*
X41194Y605535D01*
X41119Y605527D01*
X41042Y605528D01*
X40946Y605507D01*
X40848Y605495D01*
X40776Y605470D01*
X40702Y605453D01*
X40613Y605411D01*
X40520Y605378D01*
X40456Y605336D01*
X40387Y605304D01*
X40310Y605242D01*
X40227Y605189D01*
X40174Y605134D01*
X40115Y605086D01*
X40054Y605009D01*
X39985Y604938D01*
X39946Y604873D01*
X39899Y604813D01*
X39856Y604730D01*
X37404Y602278D01*
X34230Y600963D01*
X16570Y600963D01*
X13396Y602278D01*
X10966Y604708D01*
X9651Y607882D01*
X9651Y611318D01*
X10966Y614492D01*
X13396Y616922D01*
X16570Y618237D01*
X34230Y618237D01*
X37404Y616922D01*
X39848Y614478D01*
X39853Y614467D01*
X39909Y614386D01*
X39957Y614300D01*
X40008Y614244D01*
X40051Y614181D01*
X40124Y614115D01*
X40191Y614042D01*
X40254Y613999D01*
X40310Y613948D01*
X40396Y613900D01*
X40477Y613844D01*
X40548Y613816D01*
X40615Y613779D01*
X40710Y613752D01*
X40802Y613716D01*
X40877Y613705D01*
X40951Y613684D01*
X41100Y613672D01*
X41146Y613665D01*
X41165Y613667D01*
X41194Y613665D01*
X93124Y613665D01*
X153638Y553151D01*
X153737Y553072D01*
X153830Y552988D01*
X153873Y552964D01*
X153911Y552934D01*
X154025Y552880D01*
X154135Y552819D01*
X154182Y552806D01*
X154226Y552785D01*
X154349Y552759D01*
X154471Y552724D01*
X154532Y552719D01*
X154566Y552712D01*
X154614Y552713D01*
X154715Y552705D01*
X442120Y552705D01*
X459994Y534831D01*
X460093Y534752D01*
X460186Y534668D01*
X460229Y534644D01*
X460267Y534614D01*
X460381Y534560D01*
X460491Y534499D01*
X460538Y534486D01*
X460582Y534465D01*
X460705Y534439D01*
X460827Y534404D01*
X460888Y534399D01*
X460922Y534392D01*
X460970Y534393D01*
X461071Y534385D01*
X461353Y534385D01*
X463396Y533539D01*
X464959Y531976D01*
X465805Y529933D01*
X465805Y527723D01*
X464959Y525680D01*
X463396Y524117D01*
X461353Y523271D01*
X459143Y523271D01*
X457100Y524117D01*
X455537Y525680D01*
X454691Y527723D01*
X454691Y528005D01*
X454677Y528131D01*
X454670Y528257D01*
X454657Y528304D01*
X454651Y528352D01*
X454609Y528471D01*
X454574Y528592D01*
X454550Y528634D01*
X454534Y528680D01*
X454465Y528786D01*
X454404Y528896D01*
X454364Y528942D01*
X454345Y528972D01*
X454310Y529006D01*
X454245Y529082D01*
X439198Y544129D01*
X439099Y544208D01*
X439006Y544292D01*
X438963Y544316D01*
X438925Y544346D01*
X438811Y544400D01*
X438701Y544461D01*
X438654Y544474D01*
X438610Y544495D01*
X438487Y544521D01*
X438365Y544556D01*
X438304Y544561D01*
X438270Y544568D01*
X438222Y544567D01*
X438121Y544575D01*
X266465Y544575D01*
X266365Y544564D01*
X266264Y544562D01*
X266192Y544544D01*
X266118Y544535D01*
X266024Y544502D01*
X265926Y544477D01*
X265860Y544443D01*
X265790Y544418D01*
X265706Y544363D01*
X265617Y544317D01*
X265560Y544269D01*
X265497Y544229D01*
X265428Y544157D01*
X265351Y544092D01*
X265307Y544032D01*
X265255Y543978D01*
X265204Y543892D01*
X265144Y543811D01*
X265115Y543743D01*
X265076Y543679D01*
X265046Y543583D01*
X265006Y543491D01*
X264993Y543418D01*
X264970Y543347D01*
X264962Y543247D01*
X264944Y543148D01*
X264948Y543074D01*
X264942Y543000D01*
X264957Y542900D01*
X264962Y542800D01*
X264983Y542729D01*
X264994Y542655D01*
X265031Y542562D01*
X265059Y542465D01*
X265095Y542400D01*
X265123Y542331D01*
X265180Y542249D01*
X265229Y542161D01*
X265294Y542085D01*
X265322Y542045D01*
X265348Y542021D01*
X265387Y541975D01*
X286484Y520879D01*
X286583Y520800D01*
X286676Y520716D01*
X286719Y520692D01*
X286757Y520662D01*
X286871Y520608D01*
X286981Y520547D01*
X287028Y520534D01*
X287072Y520513D01*
X287195Y520487D01*
X287317Y520452D01*
X287378Y520447D01*
X287412Y520440D01*
X287460Y520441D01*
X287561Y520433D01*
X379359Y520433D01*
X379385Y520436D01*
X379411Y520434D01*
X379558Y520456D01*
X379705Y520473D01*
X379730Y520481D01*
X379756Y520485D01*
X379894Y520540D01*
X380033Y520590D01*
X380055Y520604D01*
X380080Y520614D01*
X380201Y520699D01*
X380326Y520779D01*
X380344Y520798D01*
X380366Y520813D01*
X380465Y520923D01*
X380568Y521030D01*
X380582Y521052D01*
X380599Y521072D01*
X380671Y521202D01*
X380747Y521329D01*
X380755Y521354D01*
X380768Y521377D01*
X380808Y521520D01*
X380853Y521661D01*
X380855Y521687D01*
X380863Y521712D01*
X380882Y521956D01*
X380882Y523803D01*
X380882Y523805D01*
X380882Y523807D01*
X380862Y523977D01*
X380842Y524149D01*
X380842Y524151D01*
X380841Y524153D01*
X380766Y524386D01*
X380015Y526199D01*
X380015Y528409D01*
X380861Y530452D01*
X382424Y532015D01*
X384467Y532861D01*
X386677Y532861D01*
X388720Y532015D01*
X390283Y530452D01*
X391129Y528409D01*
X391129Y526199D01*
X390398Y524434D01*
X390397Y524432D01*
X390396Y524430D01*
X390349Y524263D01*
X390302Y524099D01*
X390302Y524097D01*
X390301Y524095D01*
X390282Y523851D01*
X390282Y521956D01*
X390285Y521930D01*
X390283Y521904D01*
X390305Y521757D01*
X390322Y521610D01*
X390330Y521585D01*
X390334Y521559D01*
X390389Y521421D01*
X390439Y521282D01*
X390453Y521260D01*
X390463Y521235D01*
X390548Y521114D01*
X390628Y520989D01*
X390647Y520971D01*
X390662Y520949D01*
X390772Y520850D01*
X390879Y520747D01*
X390901Y520733D01*
X390921Y520716D01*
X391051Y520644D01*
X391178Y520568D01*
X391203Y520560D01*
X391226Y520547D01*
X391369Y520507D01*
X391510Y520462D01*
X391536Y520460D01*
X391561Y520452D01*
X391805Y520433D01*
X396789Y520433D01*
X397083Y520139D01*
X397083Y517249D01*
X397088Y517199D01*
X397086Y517149D01*
X397108Y517026D01*
X397123Y516903D01*
X397140Y516856D01*
X397149Y516806D01*
X397198Y516692D01*
X397240Y516575D01*
X397267Y516533D01*
X397287Y516486D01*
X397362Y516387D01*
X397429Y516282D01*
X397465Y516247D01*
X397495Y516207D01*
X397590Y516126D01*
X397680Y516040D01*
X397723Y516014D01*
X397761Y515982D01*
X397872Y515925D01*
X397979Y515861D01*
X398027Y515846D01*
X398072Y515823D01*
X398192Y515793D01*
X398311Y515755D01*
X398361Y515751D01*
X398410Y515739D01*
X398534Y515737D01*
X398658Y515727D01*
X398708Y515734D01*
X398758Y515734D01*
X398880Y515760D01*
X399003Y515779D01*
X399050Y515797D01*
X399099Y515808D01*
X399211Y515861D01*
X399327Y515907D01*
X399368Y515936D01*
X399414Y515958D01*
X399511Y516035D01*
X399613Y516106D01*
X399647Y516144D01*
X399686Y516175D01*
X399763Y516273D01*
X399846Y516365D01*
X399871Y516409D01*
X399902Y516449D01*
X400013Y516666D01*
X400673Y518260D01*
X402236Y519823D01*
X404279Y520669D01*
X406489Y520669D01*
X408532Y519823D01*
X410095Y518260D01*
X410941Y516217D01*
X410941Y514007D01*
X410095Y511964D01*
X409895Y511764D01*
X409816Y511665D01*
X409732Y511572D01*
X409708Y511529D01*
X409678Y511491D01*
X409624Y511377D01*
X409563Y511267D01*
X409550Y511220D01*
X409529Y511176D01*
X409503Y511053D01*
X409468Y510931D01*
X409463Y510870D01*
X409456Y510836D01*
X409457Y510788D01*
X409449Y510687D01*
X409449Y502760D01*
X406622Y499933D01*
X399956Y493267D01*
X398606Y493267D01*
X398580Y493264D01*
X398554Y493266D01*
X398407Y493244D01*
X398260Y493227D01*
X398235Y493219D01*
X398209Y493215D01*
X398071Y493160D01*
X397932Y493110D01*
X397910Y493096D01*
X397885Y493086D01*
X397764Y493001D01*
X397639Y492921D01*
X397621Y492902D01*
X397599Y492887D01*
X397500Y492777D01*
X397397Y492670D01*
X397383Y492648D01*
X397366Y492628D01*
X397294Y492498D01*
X397218Y492371D01*
X397210Y492346D01*
X397197Y492323D01*
X397157Y492180D01*
X397112Y492039D01*
X397110Y492013D01*
X397102Y491988D01*
X397083Y491744D01*
X397083Y490220D01*
X397086Y490194D01*
X397084Y490168D01*
X397106Y490021D01*
X397123Y489874D01*
X397131Y489849D01*
X397135Y489823D01*
X397190Y489685D01*
X397240Y489546D01*
X397254Y489524D01*
X397264Y489499D01*
X397349Y489378D01*
X397429Y489253D01*
X397448Y489235D01*
X397463Y489213D01*
X397573Y489114D01*
X397680Y489011D01*
X397702Y488997D01*
X397722Y488980D01*
X397852Y488908D01*
X397979Y488832D01*
X398004Y488824D01*
X398027Y488811D01*
X398170Y488771D01*
X398311Y488726D01*
X398337Y488724D01*
X398362Y488716D01*
X398606Y488697D01*
X417215Y488697D01*
X417315Y488708D01*
X417416Y488710D01*
X417488Y488728D01*
X417562Y488737D01*
X417656Y488771D01*
X417754Y488795D01*
X417820Y488829D01*
X417890Y488854D01*
X417974Y488909D01*
X418063Y488955D01*
X418120Y489003D01*
X418183Y489043D01*
X418252Y489115D01*
X418329Y489180D01*
X418373Y489240D01*
X418425Y489294D01*
X418476Y489380D01*
X418536Y489461D01*
X418565Y489529D01*
X418604Y489593D01*
X418634Y489689D01*
X418674Y489781D01*
X418687Y489854D01*
X418710Y489925D01*
X418718Y490025D01*
X418736Y490124D01*
X418732Y490198D01*
X418738Y490272D01*
X418723Y490372D01*
X418718Y490472D01*
X418697Y490543D01*
X418686Y490617D01*
X418649Y490710D01*
X418621Y490807D01*
X418585Y490872D01*
X418557Y490941D01*
X418500Y491023D01*
X418451Y491111D01*
X418386Y491187D01*
X418358Y491227D01*
X418332Y491251D01*
X418293Y491297D01*
X417437Y492152D01*
X416591Y494195D01*
X416591Y496405D01*
X417437Y498448D01*
X419000Y500011D01*
X421043Y500857D01*
X423253Y500857D01*
X425296Y500011D01*
X425495Y499811D01*
X425595Y499732D01*
X425688Y499648D01*
X425731Y499624D01*
X425768Y499594D01*
X425883Y499540D01*
X425993Y499479D01*
X426040Y499466D01*
X426084Y499445D01*
X426207Y499419D01*
X426329Y499384D01*
X426389Y499379D01*
X426424Y499372D01*
X426472Y499373D01*
X426573Y499365D01*
X437548Y499365D01*
X459994Y476919D01*
X460093Y476840D01*
X460186Y476756D01*
X460229Y476732D01*
X460267Y476702D01*
X460381Y476648D01*
X460491Y476587D01*
X460538Y476574D01*
X460582Y476553D01*
X460705Y476527D01*
X460827Y476492D01*
X460888Y476487D01*
X460922Y476480D01*
X460970Y476481D01*
X461071Y476473D01*
X461353Y476473D01*
X463396Y475627D01*
X464959Y474064D01*
X465805Y472021D01*
X465805Y469811D01*
X464959Y467768D01*
X463396Y466205D01*
X461353Y465359D01*
X459143Y465359D01*
X457100Y466205D01*
X455537Y467768D01*
X454691Y469811D01*
X454691Y470093D01*
X454677Y470219D01*
X454670Y470345D01*
X454657Y470392D01*
X454651Y470440D01*
X454609Y470559D01*
X454574Y470680D01*
X454550Y470722D01*
X454534Y470768D01*
X454465Y470874D01*
X454404Y470984D01*
X454364Y471030D01*
X454345Y471060D01*
X454310Y471094D01*
X454245Y471170D01*
X434626Y490789D01*
X434527Y490868D01*
X434434Y490952D01*
X434391Y490976D01*
X434353Y491006D01*
X434239Y491060D01*
X434129Y491121D01*
X434082Y491134D01*
X434038Y491155D01*
X433915Y491181D01*
X433793Y491216D01*
X433732Y491221D01*
X433698Y491228D01*
X433650Y491227D01*
X433549Y491235D01*
X426573Y491235D01*
X426447Y491221D01*
X426321Y491214D01*
X426274Y491201D01*
X426226Y491195D01*
X426107Y491153D01*
X425986Y491118D01*
X425944Y491094D01*
X425898Y491078D01*
X425792Y491009D01*
X425682Y490948D01*
X425635Y490908D01*
X425605Y490889D01*
X425572Y490854D01*
X425495Y490789D01*
X425296Y490589D01*
X423222Y489730D01*
X423214Y489730D01*
X423142Y489712D01*
X423068Y489703D01*
X422974Y489670D01*
X422876Y489645D01*
X422810Y489611D01*
X422740Y489586D01*
X422656Y489531D01*
X422567Y489485D01*
X422510Y489437D01*
X422447Y489397D01*
X422378Y489325D01*
X422301Y489260D01*
X422257Y489200D01*
X422205Y489146D01*
X422154Y489060D01*
X422094Y488979D01*
X422065Y488911D01*
X422026Y488847D01*
X421996Y488751D01*
X421956Y488659D01*
X421943Y488586D01*
X421920Y488515D01*
X421912Y488415D01*
X421894Y488316D01*
X421898Y488242D01*
X421892Y488168D01*
X421907Y488068D01*
X421912Y487968D01*
X421933Y487897D01*
X421944Y487823D01*
X421981Y487730D01*
X422009Y487633D01*
X422045Y487568D01*
X422073Y487499D01*
X422130Y487417D01*
X422179Y487329D01*
X422244Y487253D01*
X422272Y487213D01*
X422298Y487189D01*
X422337Y487143D01*
X461265Y448216D01*
X461265Y427880D01*
X461279Y427755D01*
X461286Y427629D01*
X461299Y427582D01*
X461305Y427534D01*
X461347Y427415D01*
X461382Y427294D01*
X461406Y427251D01*
X461422Y427206D01*
X461491Y427100D01*
X461552Y426990D01*
X461592Y426943D01*
X461611Y426913D01*
X461646Y426880D01*
X461711Y426803D01*
X465837Y422677D01*
X465837Y415523D01*
X461711Y411397D01*
X461632Y411298D01*
X461548Y411204D01*
X461524Y411162D01*
X461494Y411124D01*
X461440Y411010D01*
X461379Y410899D01*
X461366Y410852D01*
X461345Y410809D01*
X461319Y410685D01*
X461284Y410563D01*
X461279Y410503D01*
X461272Y410468D01*
X461273Y410420D01*
X461265Y410320D01*
X461265Y402480D01*
X461279Y402355D01*
X461286Y402229D01*
X461299Y402182D01*
X461305Y402134D01*
X461347Y402015D01*
X461382Y401894D01*
X461406Y401852D01*
X461422Y401806D01*
X461491Y401700D01*
X461552Y401590D01*
X461592Y401543D01*
X461611Y401513D01*
X461646Y401480D01*
X461711Y401403D01*
X464903Y398211D01*
X465002Y398132D01*
X465096Y398048D01*
X465138Y398024D01*
X465176Y397994D01*
X465290Y397940D01*
X465401Y397879D01*
X465448Y397866D01*
X465491Y397845D01*
X465615Y397819D01*
X465737Y397784D01*
X465797Y397779D01*
X465832Y397772D01*
X465880Y397773D01*
X465980Y397765D01*
X473820Y397765D01*
X473945Y397779D01*
X474071Y397786D01*
X474118Y397799D01*
X474166Y397805D01*
X474285Y397847D01*
X474406Y397882D01*
X474449Y397906D01*
X474494Y397922D01*
X474600Y397991D01*
X474710Y398052D01*
X474757Y398092D01*
X474787Y398111D01*
X474820Y398146D01*
X474897Y398211D01*
X479023Y402337D01*
X486177Y402337D01*
X491237Y397277D01*
X491237Y390123D01*
X487111Y385997D01*
X487032Y385898D01*
X486948Y385804D01*
X486924Y385762D01*
X486894Y385724D01*
X486840Y385610D01*
X486779Y385499D01*
X486766Y385452D01*
X486745Y385409D01*
X486719Y385285D01*
X486684Y385163D01*
X486679Y385103D01*
X486672Y385068D01*
X486673Y385020D01*
X486665Y384920D01*
X486665Y377080D01*
X486679Y376955D01*
X486686Y376829D01*
X486699Y376782D01*
X486705Y376734D01*
X486747Y376615D01*
X486782Y376494D01*
X486806Y376451D01*
X486822Y376406D01*
X486891Y376300D01*
X486952Y376190D01*
X486992Y376143D01*
X487011Y376113D01*
X487046Y376080D01*
X487111Y376003D01*
X491237Y371877D01*
X491237Y364723D01*
X487111Y360597D01*
X487032Y360498D01*
X486948Y360404D01*
X486924Y360362D01*
X486894Y360324D01*
X486840Y360209D01*
X486779Y360099D01*
X486766Y360052D01*
X486745Y360009D01*
X486719Y359885D01*
X486684Y359763D01*
X486679Y359703D01*
X486672Y359668D01*
X486673Y359620D01*
X486665Y359520D01*
X486665Y351680D01*
X486679Y351555D01*
X486686Y351429D01*
X486699Y351382D01*
X486705Y351334D01*
X486747Y351215D01*
X486782Y351094D01*
X486806Y351051D01*
X486822Y351006D01*
X486891Y350900D01*
X486952Y350790D01*
X486992Y350743D01*
X487011Y350713D01*
X487046Y350680D01*
X487111Y350603D01*
X491237Y346477D01*
X491237Y339323D01*
X487111Y335197D01*
X487032Y335098D01*
X486948Y335004D01*
X486924Y334962D01*
X486894Y334924D01*
X486840Y334810D01*
X486779Y334699D01*
X486766Y334652D01*
X486745Y334609D01*
X486719Y334485D01*
X486684Y334363D01*
X486679Y334303D01*
X486672Y334268D01*
X486673Y334220D01*
X486665Y334120D01*
X486665Y326280D01*
X486679Y326155D01*
X486686Y326029D01*
X486699Y325982D01*
X486705Y325934D01*
X486747Y325815D01*
X486782Y325694D01*
X486806Y325651D01*
X486822Y325606D01*
X486891Y325500D01*
X486952Y325390D01*
X486992Y325343D01*
X487011Y325313D01*
X487046Y325280D01*
X487111Y325203D01*
X491237Y321077D01*
X491237Y313923D01*
X487111Y309797D01*
X487032Y309698D01*
X486948Y309604D01*
X486924Y309562D01*
X486894Y309524D01*
X486840Y309410D01*
X486779Y309299D01*
X486766Y309252D01*
X486745Y309209D01*
X486719Y309085D01*
X486684Y308963D01*
X486679Y308903D01*
X486672Y308868D01*
X486673Y308820D01*
X486665Y308720D01*
X486665Y300880D01*
X486679Y300755D01*
X486686Y300629D01*
X486699Y300582D01*
X486705Y300534D01*
X486747Y300415D01*
X486782Y300294D01*
X486806Y300251D01*
X486822Y300206D01*
X486891Y300100D01*
X486952Y299990D01*
X486992Y299943D01*
X487011Y299913D01*
X487046Y299880D01*
X487111Y299803D01*
X491237Y295677D01*
X491237Y288523D01*
X487111Y284397D01*
X487048Y284317D01*
X486985Y284252D01*
X486973Y284232D01*
X486948Y284204D01*
X486924Y284162D01*
X486894Y284124D01*
X486842Y284012D01*
X486806Y283953D01*
X486802Y283940D01*
X486779Y283899D01*
X486766Y283852D01*
X486745Y283809D01*
X486719Y283685D01*
X486706Y283640D01*
X486700Y283621D01*
X486700Y283618D01*
X486684Y283563D01*
X486679Y283503D01*
X486672Y283468D01*
X486673Y283420D01*
X486665Y283320D01*
X486665Y275480D01*
X486679Y275355D01*
X486686Y275229D01*
X486699Y275182D01*
X486705Y275134D01*
X486747Y275015D01*
X486782Y274894D01*
X486806Y274852D01*
X486822Y274806D01*
X486891Y274700D01*
X486952Y274590D01*
X486992Y274543D01*
X487011Y274513D01*
X487046Y274480D01*
X487111Y274403D01*
X491237Y270277D01*
X491237Y263123D01*
X487111Y258997D01*
X487032Y258898D01*
X486948Y258804D01*
X486924Y258762D01*
X486894Y258724D01*
X486840Y258610D01*
X486779Y258499D01*
X486766Y258452D01*
X486745Y258409D01*
X486719Y258285D01*
X486684Y258163D01*
X486679Y258103D01*
X486672Y258068D01*
X486673Y258020D01*
X486665Y257920D01*
X486665Y250080D01*
X486679Y249955D01*
X486686Y249829D01*
X486699Y249782D01*
X486705Y249734D01*
X486747Y249615D01*
X486782Y249494D01*
X486806Y249452D01*
X486822Y249406D01*
X486891Y249300D01*
X486952Y249190D01*
X486992Y249143D01*
X487011Y249113D01*
X487046Y249080D01*
X487111Y249003D01*
X491237Y244877D01*
X491237Y237723D01*
X486177Y232663D01*
X479023Y232663D01*
X474897Y236789D01*
X474798Y236868D01*
X474704Y236952D01*
X474662Y236976D01*
X474624Y237006D01*
X474510Y237060D01*
X474399Y237121D01*
X474352Y237134D01*
X474309Y237155D01*
X474185Y237181D01*
X474063Y237216D01*
X474003Y237221D01*
X473968Y237228D01*
X473920Y237227D01*
X473820Y237235D01*
X465980Y237235D01*
X465855Y237221D01*
X465729Y237214D01*
X465682Y237201D01*
X465634Y237195D01*
X465515Y237153D01*
X465394Y237118D01*
X465352Y237094D01*
X465306Y237078D01*
X465200Y237009D01*
X465090Y236948D01*
X465043Y236908D01*
X465013Y236889D01*
X464980Y236854D01*
X464903Y236789D01*
X460777Y232663D01*
X454943Y232663D01*
X454817Y232649D01*
X454691Y232642D01*
X454644Y232629D01*
X454596Y232623D01*
X454477Y232581D01*
X454356Y232546D01*
X454314Y232522D01*
X454268Y232506D01*
X454162Y232437D01*
X454052Y232376D01*
X454006Y232336D01*
X453976Y232317D01*
X453942Y232282D01*
X453866Y232217D01*
X431198Y209549D01*
X398606Y209549D01*
X398580Y209546D01*
X398554Y209548D01*
X398407Y209526D01*
X398260Y209509D01*
X398235Y209501D01*
X398209Y209497D01*
X398071Y209442D01*
X397932Y209392D01*
X397910Y209378D01*
X397885Y209368D01*
X397764Y209283D01*
X397639Y209203D01*
X397621Y209184D01*
X397599Y209169D01*
X397500Y209059D01*
X397397Y208952D01*
X397383Y208930D01*
X397366Y208910D01*
X397294Y208780D01*
X397218Y208653D01*
X397210Y208628D01*
X397197Y208605D01*
X397157Y208462D01*
X397112Y208321D01*
X397110Y208295D01*
X397102Y208270D01*
X397083Y208026D01*
X397083Y205201D01*
X397097Y205075D01*
X397104Y204949D01*
X397107Y204938D01*
X397107Y196887D01*
X397102Y196871D01*
X397097Y196811D01*
X397090Y196776D01*
X397091Y196728D01*
X397083Y196627D01*
X397083Y192501D01*
X397097Y192375D01*
X397104Y192249D01*
X397107Y192238D01*
X397107Y184187D01*
X397102Y184171D01*
X397097Y184111D01*
X397090Y184076D01*
X397091Y184028D01*
X397083Y183927D01*
X397083Y181102D01*
X397086Y181076D01*
X397084Y181050D01*
X397106Y180903D01*
X397123Y180756D01*
X397131Y180731D01*
X397135Y180705D01*
X397190Y180567D01*
X397240Y180428D01*
X397254Y180406D01*
X397264Y180381D01*
X397349Y180260D01*
X397429Y180135D01*
X397448Y180117D01*
X397463Y180095D01*
X397573Y179996D01*
X397680Y179893D01*
X397702Y179879D01*
X397722Y179862D01*
X397852Y179790D01*
X397979Y179714D01*
X398004Y179706D01*
X398027Y179693D01*
X398170Y179653D01*
X398311Y179608D01*
X398337Y179606D01*
X398362Y179598D01*
X398606Y179579D01*
X407309Y179579D01*
X407435Y179593D01*
X407561Y179600D01*
X407608Y179613D01*
X407656Y179619D01*
X407775Y179661D01*
X407896Y179696D01*
X407938Y179720D01*
X407984Y179736D01*
X408090Y179805D01*
X408200Y179866D01*
X408247Y179906D01*
X408277Y179925D01*
X408310Y179960D01*
X408314Y179963D01*
X410375Y180817D01*
X412585Y180817D01*
X414628Y179971D01*
X416191Y178408D01*
X417037Y176365D01*
X417037Y174155D01*
X416191Y172112D01*
X414628Y170549D01*
X412585Y169703D01*
X411223Y169703D01*
X411123Y169692D01*
X411022Y169690D01*
X410950Y169672D01*
X410876Y169663D01*
X410782Y169630D01*
X410684Y169605D01*
X410618Y169571D01*
X410548Y169546D01*
X410464Y169491D01*
X410375Y169445D01*
X410318Y169397D01*
X410255Y169357D01*
X410186Y169285D01*
X410109Y169220D01*
X410065Y169160D01*
X410013Y169106D01*
X409962Y169020D01*
X409902Y168939D01*
X409873Y168871D01*
X409834Y168807D01*
X409804Y168711D01*
X409764Y168619D01*
X409751Y168546D01*
X409728Y168475D01*
X409720Y168375D01*
X409702Y168276D01*
X409706Y168202D01*
X409700Y168128D01*
X409715Y168028D01*
X409720Y167928D01*
X409741Y167857D01*
X409752Y167783D01*
X409789Y167690D01*
X409817Y167593D01*
X409853Y167528D01*
X409881Y167459D01*
X409938Y167377D01*
X409987Y167289D01*
X410052Y167213D01*
X410080Y167173D01*
X410106Y167149D01*
X410145Y167103D01*
X412943Y164306D01*
X432309Y144940D01*
X432309Y92804D01*
X386240Y46735D01*
X41194Y46735D01*
X41119Y46727D01*
X41042Y46728D01*
X40946Y46707D01*
X40848Y46695D01*
X40776Y46670D01*
X40702Y46653D01*
X40613Y46611D01*
X40520Y46578D01*
X40456Y46536D01*
X40387Y46504D01*
X40310Y46442D01*
X40227Y46389D01*
X40174Y46334D01*
X40115Y46286D01*
X40054Y46209D01*
X39985Y46138D01*
X39946Y46073D01*
X39899Y46013D01*
X39856Y45930D01*
X37404Y43478D01*
X34230Y42163D01*
X16570Y42163D01*
G37*
%LPD*%
G36*
X229364Y183791D02*
X229364Y183791D01*
X229464Y183796D01*
X229535Y183817D01*
X229609Y183828D01*
X229702Y183865D01*
X229799Y183893D01*
X229864Y183929D01*
X229933Y183957D01*
X230015Y184014D01*
X230103Y184063D01*
X230179Y184128D01*
X230219Y184156D01*
X230243Y184182D01*
X230289Y184221D01*
X233265Y187198D01*
X233344Y187297D01*
X233428Y187390D01*
X233452Y187433D01*
X233482Y187471D01*
X233536Y187585D01*
X233597Y187695D01*
X233610Y187742D01*
X233631Y187786D01*
X233657Y187909D01*
X233692Y188031D01*
X233697Y188092D01*
X233704Y188126D01*
X233703Y188174D01*
X233711Y188275D01*
X233711Y188557D01*
X234557Y190600D01*
X236120Y192163D01*
X238163Y193009D01*
X238445Y193009D01*
X238571Y193023D01*
X238697Y193030D01*
X238744Y193043D01*
X238792Y193049D01*
X238911Y193091D01*
X239032Y193126D01*
X239074Y193150D01*
X239120Y193166D01*
X239226Y193235D01*
X239336Y193296D01*
X239382Y193336D01*
X239412Y193355D01*
X239446Y193390D01*
X239522Y193455D01*
X265237Y219170D01*
X265316Y219269D01*
X265400Y219362D01*
X265424Y219405D01*
X265454Y219443D01*
X265508Y219557D01*
X265569Y219667D01*
X265582Y219714D01*
X265603Y219758D01*
X265629Y219881D01*
X265664Y220003D01*
X265669Y220064D01*
X265676Y220098D01*
X265675Y220146D01*
X265683Y220247D01*
X265683Y267433D01*
X265669Y267559D01*
X265662Y267685D01*
X265649Y267732D01*
X265643Y267780D01*
X265601Y267899D01*
X265566Y268020D01*
X265542Y268062D01*
X265526Y268108D01*
X265457Y268214D01*
X265396Y268324D01*
X265356Y268371D01*
X265337Y268401D01*
X265302Y268434D01*
X265237Y268510D01*
X247142Y286605D01*
X247043Y286684D01*
X246950Y286768D01*
X246907Y286792D01*
X246869Y286822D01*
X246755Y286876D01*
X246645Y286937D01*
X246598Y286950D01*
X246554Y286971D01*
X246431Y286997D01*
X246309Y287032D01*
X246248Y287037D01*
X246214Y287044D01*
X246166Y287043D01*
X246065Y287051D01*
X245783Y287051D01*
X243740Y287897D01*
X242177Y289460D01*
X241331Y291503D01*
X241331Y293713D01*
X242177Y295756D01*
X243740Y297319D01*
X245783Y298165D01*
X247993Y298165D01*
X250036Y297319D01*
X251599Y295756D01*
X252445Y293713D01*
X252445Y293431D01*
X252459Y293305D01*
X252466Y293179D01*
X252479Y293132D01*
X252485Y293084D01*
X252527Y292965D01*
X252562Y292844D01*
X252586Y292802D01*
X252602Y292756D01*
X252671Y292650D01*
X252732Y292540D01*
X252772Y292493D01*
X252791Y292463D01*
X252826Y292430D01*
X252891Y292354D01*
X263083Y282161D01*
X263161Y282099D01*
X263234Y282029D01*
X263298Y281991D01*
X263356Y281945D01*
X263447Y281902D01*
X263533Y281850D01*
X263604Y281828D01*
X263671Y281796D01*
X263769Y281775D01*
X263865Y281744D01*
X263939Y281738D01*
X264012Y281723D01*
X264112Y281724D01*
X264212Y281716D01*
X264286Y281727D01*
X264360Y281729D01*
X264457Y281753D01*
X264557Y281768D01*
X264626Y281795D01*
X264698Y281814D01*
X264788Y281860D01*
X264881Y281897D01*
X264942Y281939D01*
X265008Y281973D01*
X265085Y282038D01*
X265167Y282096D01*
X265217Y282151D01*
X265273Y282199D01*
X265333Y282280D01*
X265400Y282354D01*
X265436Y282419D01*
X265481Y282479D01*
X265520Y282571D01*
X265569Y282659D01*
X265589Y282731D01*
X265619Y282799D01*
X265636Y282898D01*
X265664Y282995D01*
X265672Y283095D01*
X265680Y283142D01*
X265678Y283178D01*
X265683Y283239D01*
X265683Y286659D01*
X265669Y286785D01*
X265662Y286911D01*
X265649Y286958D01*
X265643Y287006D01*
X265601Y287125D01*
X265566Y287246D01*
X265542Y287288D01*
X265526Y287334D01*
X265457Y287440D01*
X265396Y287550D01*
X265356Y287597D01*
X265337Y287627D01*
X265302Y287660D01*
X265237Y287736D01*
X265037Y287936D01*
X264191Y289979D01*
X264191Y292189D01*
X265037Y294232D01*
X266600Y295795D01*
X268643Y296641D01*
X270853Y296641D01*
X272896Y295795D01*
X274459Y294232D01*
X275305Y292189D01*
X275305Y289979D01*
X274431Y287870D01*
X274364Y287785D01*
X274353Y287761D01*
X274337Y287740D01*
X274278Y287604D01*
X274215Y287470D01*
X274209Y287444D01*
X274199Y287420D01*
X274173Y287275D01*
X274142Y287130D01*
X274142Y287103D01*
X274137Y287077D01*
X274145Y286929D01*
X274148Y286781D01*
X274154Y286756D01*
X274155Y286729D01*
X274196Y286587D01*
X274232Y286443D01*
X274245Y286420D01*
X274252Y286394D01*
X274324Y286265D01*
X274392Y286133D01*
X274409Y286113D01*
X274422Y286090D01*
X274580Y285904D01*
X277481Y283003D01*
X277559Y282941D01*
X277632Y282871D01*
X277696Y282833D01*
X277754Y282787D01*
X277845Y282744D01*
X277931Y282692D01*
X278002Y282670D01*
X278069Y282638D01*
X278167Y282617D01*
X278263Y282586D01*
X278337Y282580D01*
X278410Y282565D01*
X278510Y282566D01*
X278610Y282558D01*
X278684Y282569D01*
X278758Y282571D01*
X278855Y282595D01*
X278955Y282610D01*
X279024Y282637D01*
X279096Y282656D01*
X279186Y282702D01*
X279279Y282739D01*
X279340Y282781D01*
X279406Y282815D01*
X279483Y282880D01*
X279565Y282938D01*
X279615Y282993D01*
X279671Y283041D01*
X279731Y283122D01*
X279798Y283196D01*
X279834Y283261D01*
X279879Y283321D01*
X279918Y283413D01*
X279967Y283501D01*
X279987Y283573D01*
X280017Y283641D01*
X280034Y283740D01*
X280062Y283837D01*
X280070Y283937D01*
X280078Y283984D01*
X280076Y284020D01*
X280081Y284081D01*
X280081Y285527D01*
X280067Y285653D01*
X280060Y285779D01*
X280057Y285790D01*
X280057Y293841D01*
X280062Y293857D01*
X280067Y293917D01*
X280074Y293952D01*
X280073Y294000D01*
X280081Y294101D01*
X280081Y299921D01*
X280375Y300215D01*
X285994Y300215D01*
X286020Y300218D01*
X286046Y300216D01*
X286193Y300238D01*
X286340Y300255D01*
X286365Y300263D01*
X286391Y300267D01*
X286529Y300322D01*
X286668Y300372D01*
X286690Y300386D01*
X286715Y300396D01*
X286836Y300481D01*
X286961Y300561D01*
X286979Y300580D01*
X287001Y300595D01*
X287100Y300705D01*
X287203Y300812D01*
X287217Y300834D01*
X287234Y300854D01*
X287306Y300984D01*
X287382Y301111D01*
X287390Y301136D01*
X287403Y301159D01*
X287443Y301302D01*
X287488Y301443D01*
X287490Y301469D01*
X287498Y301494D01*
X287517Y301738D01*
X287517Y305973D01*
X287503Y306099D01*
X287496Y306225D01*
X287483Y306272D01*
X287477Y306320D01*
X287435Y306439D01*
X287400Y306560D01*
X287376Y306602D01*
X287360Y306648D01*
X287291Y306754D01*
X287230Y306864D01*
X287190Y306911D01*
X287171Y306941D01*
X287136Y306974D01*
X287071Y307050D01*
X286373Y307748D01*
X285527Y309791D01*
X285527Y312001D01*
X286373Y314044D01*
X287936Y315607D01*
X289979Y316453D01*
X292189Y316453D01*
X294232Y315607D01*
X295795Y314044D01*
X296641Y312001D01*
X296641Y309791D01*
X295763Y307671D01*
X295762Y307669D01*
X295761Y307667D01*
X295713Y307495D01*
X295667Y307336D01*
X295667Y307334D01*
X295666Y307332D01*
X295647Y307088D01*
X295647Y301738D01*
X295650Y301712D01*
X295648Y301686D01*
X295670Y301539D01*
X295687Y301392D01*
X295695Y301367D01*
X295699Y301341D01*
X295754Y301203D01*
X295804Y301064D01*
X295818Y301042D01*
X295828Y301017D01*
X295913Y300896D01*
X295993Y300771D01*
X296012Y300753D01*
X296027Y300731D01*
X296137Y300632D01*
X296244Y300529D01*
X296266Y300515D01*
X296286Y300498D01*
X296416Y300426D01*
X296543Y300350D01*
X296568Y300342D01*
X296591Y300329D01*
X296734Y300289D01*
X296875Y300244D01*
X296901Y300242D01*
X296926Y300234D01*
X297170Y300215D01*
X375261Y300215D01*
X375361Y300226D01*
X375462Y300228D01*
X375534Y300246D01*
X375608Y300255D01*
X375702Y300288D01*
X375800Y300313D01*
X375866Y300347D01*
X375936Y300372D01*
X376020Y300427D01*
X376109Y300473D01*
X376166Y300521D01*
X376229Y300561D01*
X376298Y300633D01*
X376375Y300698D01*
X376419Y300758D01*
X376471Y300812D01*
X376522Y300898D01*
X376582Y300979D01*
X376611Y301047D01*
X376650Y301111D01*
X376680Y301207D01*
X376720Y301299D01*
X376733Y301372D01*
X376756Y301443D01*
X376764Y301543D01*
X376782Y301642D01*
X376778Y301716D01*
X376784Y301790D01*
X376769Y301890D01*
X376764Y301990D01*
X376743Y302061D01*
X376732Y302135D01*
X376695Y302228D01*
X376667Y302325D01*
X376631Y302390D01*
X376603Y302459D01*
X376546Y302541D01*
X376497Y302629D01*
X376432Y302705D01*
X376404Y302745D01*
X376378Y302769D01*
X376338Y302815D01*
X352067Y327086D01*
X351968Y327165D01*
X351875Y327249D01*
X351832Y327273D01*
X351794Y327303D01*
X351680Y327357D01*
X351570Y327418D01*
X351523Y327431D01*
X351479Y327452D01*
X351356Y327478D01*
X351234Y327513D01*
X351173Y327518D01*
X351139Y327525D01*
X351091Y327524D01*
X350990Y327532D01*
X261160Y327532D01*
X261034Y327518D01*
X260908Y327511D01*
X260861Y327498D01*
X260813Y327492D01*
X260694Y327450D01*
X260573Y327415D01*
X260531Y327391D01*
X260485Y327375D01*
X260379Y327306D01*
X260269Y327245D01*
X260223Y327205D01*
X260193Y327186D01*
X260163Y327156D01*
X260161Y327154D01*
X260153Y327146D01*
X260083Y327086D01*
X228135Y295138D01*
X228056Y295039D01*
X227972Y294946D01*
X227948Y294903D01*
X227918Y294865D01*
X227864Y294751D01*
X227803Y294641D01*
X227790Y294594D01*
X227769Y294550D01*
X227743Y294427D01*
X227708Y294305D01*
X227703Y294244D01*
X227696Y294210D01*
X227697Y294162D01*
X227689Y294061D01*
X227689Y285787D01*
X227684Y285771D01*
X227679Y285711D01*
X227672Y285676D01*
X227673Y285628D01*
X227665Y285527D01*
X227665Y282702D01*
X227668Y282676D01*
X227666Y282650D01*
X227688Y282503D01*
X227705Y282356D01*
X227713Y282331D01*
X227717Y282305D01*
X227772Y282167D01*
X227822Y282028D01*
X227836Y282006D01*
X227846Y281981D01*
X227931Y281860D01*
X228011Y281735D01*
X228030Y281717D01*
X228045Y281695D01*
X228155Y281596D01*
X228262Y281493D01*
X228284Y281479D01*
X228304Y281462D01*
X228434Y281390D01*
X228561Y281314D01*
X228586Y281306D01*
X228609Y281293D01*
X228752Y281253D01*
X228893Y281208D01*
X228919Y281206D01*
X228944Y281198D01*
X229188Y281179D01*
X236634Y281179D01*
X239014Y278799D01*
X239113Y278720D01*
X239206Y278636D01*
X239249Y278612D01*
X239287Y278582D01*
X239401Y278528D01*
X239511Y278467D01*
X239558Y278454D01*
X239602Y278433D01*
X239725Y278407D01*
X239847Y278372D01*
X239908Y278367D01*
X239942Y278360D01*
X239990Y278361D01*
X240091Y278353D01*
X240373Y278353D01*
X242416Y277507D01*
X242615Y277307D01*
X242715Y277228D01*
X242808Y277144D01*
X242851Y277120D01*
X242888Y277090D01*
X243003Y277036D01*
X243113Y276975D01*
X243160Y276962D01*
X243204Y276941D01*
X243327Y276915D01*
X243449Y276880D01*
X243509Y276875D01*
X243544Y276868D01*
X243592Y276869D01*
X243693Y276861D01*
X250096Y276861D01*
X261621Y265336D01*
X261621Y246728D01*
X249842Y234949D01*
X229188Y234949D01*
X229162Y234946D01*
X229136Y234948D01*
X228989Y234926D01*
X228842Y234909D01*
X228817Y234901D01*
X228791Y234897D01*
X228653Y234842D01*
X228514Y234792D01*
X228492Y234778D01*
X228467Y234768D01*
X228346Y234683D01*
X228221Y234603D01*
X228203Y234584D01*
X228181Y234569D01*
X228082Y234459D01*
X227979Y234352D01*
X227965Y234330D01*
X227948Y234310D01*
X227876Y234180D01*
X227800Y234053D01*
X227792Y234028D01*
X227779Y234005D01*
X227739Y233862D01*
X227694Y233721D01*
X227692Y233695D01*
X227684Y233670D01*
X227665Y233426D01*
X227665Y230600D01*
X227679Y230474D01*
X227686Y230348D01*
X227689Y230338D01*
X227689Y222287D01*
X227684Y222271D01*
X227680Y222211D01*
X227672Y222177D01*
X227673Y222129D01*
X227665Y222028D01*
X227665Y217900D01*
X227679Y217774D01*
X227686Y217648D01*
X227689Y217638D01*
X227689Y209587D01*
X227684Y209571D01*
X227680Y209511D01*
X227672Y209477D01*
X227673Y209429D01*
X227665Y209328D01*
X227665Y205200D01*
X227679Y205074D01*
X227686Y204948D01*
X227689Y204938D01*
X227689Y196887D01*
X227684Y196871D01*
X227680Y196811D01*
X227672Y196777D01*
X227673Y196729D01*
X227665Y196628D01*
X227665Y192500D01*
X227679Y192374D01*
X227686Y192248D01*
X227689Y192238D01*
X227689Y185299D01*
X227700Y185199D01*
X227702Y185098D01*
X227720Y185026D01*
X227729Y184952D01*
X227762Y184858D01*
X227787Y184760D01*
X227821Y184694D01*
X227846Y184624D01*
X227901Y184540D01*
X227947Y184451D01*
X227995Y184394D01*
X228035Y184331D01*
X228107Y184262D01*
X228172Y184185D01*
X228232Y184141D01*
X228286Y184089D01*
X228372Y184038D01*
X228453Y183978D01*
X228521Y183949D01*
X228585Y183910D01*
X228681Y183880D01*
X228773Y183840D01*
X228846Y183827D01*
X228917Y183804D01*
X229017Y183796D01*
X229116Y183778D01*
X229190Y183782D01*
X229264Y183776D01*
X229364Y183791D01*
G37*
G36*
X400147Y342407D02*
X400147Y342407D01*
X400273Y342414D01*
X400320Y342427D01*
X400368Y342433D01*
X400487Y342475D01*
X400608Y342510D01*
X400650Y342534D01*
X400696Y342550D01*
X400802Y342619D01*
X400912Y342680D01*
X400958Y342720D01*
X400988Y342739D01*
X401022Y342774D01*
X401098Y342839D01*
X416113Y357854D01*
X416192Y357953D01*
X416276Y358046D01*
X416300Y358089D01*
X416330Y358127D01*
X416384Y358241D01*
X416445Y358351D01*
X416458Y358398D01*
X416479Y358442D01*
X416505Y358565D01*
X416540Y358687D01*
X416545Y358748D01*
X416552Y358782D01*
X416551Y358830D01*
X416559Y358931D01*
X416559Y379967D01*
X416554Y380017D01*
X416556Y380067D01*
X416534Y380189D01*
X416519Y380313D01*
X416502Y380360D01*
X416493Y380410D01*
X416444Y380524D01*
X416402Y380641D01*
X416375Y380683D01*
X416355Y380729D01*
X416280Y380829D01*
X416213Y380934D01*
X416177Y380969D01*
X416147Y381009D01*
X416052Y381089D01*
X415962Y381176D01*
X415919Y381202D01*
X415881Y381234D01*
X415770Y381291D01*
X415663Y381355D01*
X415615Y381370D01*
X415570Y381393D01*
X415450Y381423D01*
X415331Y381461D01*
X415281Y381465D01*
X415232Y381477D01*
X415108Y381479D01*
X414984Y381489D01*
X414934Y381482D01*
X414884Y381482D01*
X414762Y381456D01*
X414639Y381437D01*
X414592Y381419D01*
X414543Y381408D01*
X414431Y381355D01*
X414315Y381309D01*
X414274Y381280D01*
X414228Y381258D01*
X414131Y381181D01*
X414029Y381110D01*
X413995Y381072D01*
X413956Y381041D01*
X413879Y380943D01*
X413796Y380851D01*
X413771Y380807D01*
X413740Y380767D01*
X413629Y380550D01*
X413143Y379376D01*
X411580Y377813D01*
X409537Y376967D01*
X407327Y376967D01*
X405284Y377813D01*
X404576Y378521D01*
X404477Y378600D01*
X404384Y378684D01*
X404341Y378708D01*
X404303Y378738D01*
X404189Y378792D01*
X404079Y378853D01*
X404032Y378866D01*
X403988Y378887D01*
X403865Y378913D01*
X403743Y378948D01*
X403682Y378953D01*
X403648Y378960D01*
X403600Y378959D01*
X403499Y378967D01*
X398606Y378967D01*
X398580Y378964D01*
X398554Y378966D01*
X398407Y378944D01*
X398260Y378927D01*
X398235Y378919D01*
X398209Y378915D01*
X398071Y378860D01*
X397932Y378810D01*
X397910Y378796D01*
X397885Y378786D01*
X397764Y378701D01*
X397639Y378621D01*
X397621Y378602D01*
X397599Y378587D01*
X397500Y378477D01*
X397397Y378370D01*
X397383Y378348D01*
X397366Y378328D01*
X397294Y378198D01*
X397218Y378071D01*
X397210Y378046D01*
X397197Y378023D01*
X397157Y377880D01*
X397112Y377739D01*
X397110Y377713D01*
X397102Y377688D01*
X397083Y377444D01*
X397083Y374619D01*
X397097Y374493D01*
X397104Y374367D01*
X397107Y374356D01*
X397107Y366305D01*
X397102Y366289D01*
X397097Y366229D01*
X397090Y366194D01*
X397091Y366146D01*
X397083Y366045D01*
X397083Y360225D01*
X396789Y359931D01*
X392684Y359931D01*
X392658Y359928D01*
X392632Y359930D01*
X392485Y359908D01*
X392338Y359891D01*
X392313Y359883D01*
X392287Y359879D01*
X392149Y359824D01*
X392010Y359774D01*
X391988Y359760D01*
X391963Y359750D01*
X391842Y359665D01*
X391717Y359585D01*
X391699Y359566D01*
X391677Y359551D01*
X391578Y359441D01*
X391475Y359334D01*
X391461Y359312D01*
X391444Y359292D01*
X391372Y359162D01*
X391296Y359035D01*
X391288Y359010D01*
X391275Y358987D01*
X391235Y358844D01*
X391190Y358703D01*
X391188Y358677D01*
X391180Y358652D01*
X391161Y358408D01*
X391161Y357993D01*
X391175Y357867D01*
X391182Y357741D01*
X391195Y357694D01*
X391201Y357646D01*
X391243Y357527D01*
X391278Y357406D01*
X391302Y357364D01*
X391318Y357318D01*
X391387Y357212D01*
X391448Y357102D01*
X391488Y357055D01*
X391507Y357025D01*
X391542Y356992D01*
X391559Y356972D01*
X391568Y356958D01*
X391577Y356950D01*
X391607Y356916D01*
X391807Y356716D01*
X392653Y354673D01*
X392653Y352463D01*
X391807Y350420D01*
X390244Y348857D01*
X388201Y348011D01*
X385991Y348011D01*
X383948Y348857D01*
X382385Y350420D01*
X381539Y352463D01*
X381539Y354673D01*
X382385Y356716D01*
X382585Y356916D01*
X382652Y356999D01*
X382690Y357039D01*
X382698Y357053D01*
X382748Y357108D01*
X382772Y357151D01*
X382802Y357189D01*
X382856Y357303D01*
X382917Y357413D01*
X382930Y357460D01*
X382951Y357504D01*
X382977Y357627D01*
X383012Y357749D01*
X383017Y357810D01*
X383024Y357844D01*
X383023Y357892D01*
X383031Y357993D01*
X383031Y358408D01*
X383028Y358434D01*
X383030Y358460D01*
X383008Y358607D01*
X382991Y358754D01*
X382983Y358779D01*
X382979Y358805D01*
X382924Y358943D01*
X382874Y359082D01*
X382860Y359104D01*
X382850Y359129D01*
X382765Y359250D01*
X382685Y359375D01*
X382666Y359393D01*
X382651Y359415D01*
X382541Y359514D01*
X382434Y359617D01*
X382412Y359631D01*
X382392Y359648D01*
X382262Y359720D01*
X382135Y359796D01*
X382110Y359804D01*
X382087Y359817D01*
X381944Y359857D01*
X381803Y359902D01*
X381777Y359904D01*
X381752Y359912D01*
X381508Y359931D01*
X280375Y359931D01*
X280081Y360225D01*
X280081Y364609D01*
X280067Y364734D01*
X280060Y364860D01*
X280047Y364907D01*
X280041Y364955D01*
X279999Y365074D01*
X279964Y365195D01*
X279940Y365237D01*
X279924Y365283D01*
X279855Y365389D01*
X279794Y365499D01*
X279754Y365546D01*
X279735Y365576D01*
X279700Y365609D01*
X279635Y365686D01*
X279549Y365772D01*
X279214Y366351D01*
X279041Y366997D01*
X279041Y368896D01*
X279093Y368916D01*
X279232Y368966D01*
X279254Y368980D01*
X279279Y368990D01*
X279400Y369074D01*
X279525Y369155D01*
X279543Y369174D01*
X279565Y369189D01*
X279664Y369299D01*
X279767Y369406D01*
X279781Y369428D01*
X279798Y369448D01*
X279870Y369578D01*
X279946Y369705D01*
X279954Y369730D01*
X279967Y369753D01*
X280007Y369896D01*
X280052Y370037D01*
X280054Y370063D01*
X280062Y370088D01*
X280081Y370332D01*
X280078Y370358D01*
X280080Y370384D01*
X280058Y370531D01*
X280041Y370678D01*
X280033Y370703D01*
X280029Y370729D01*
X279974Y370867D01*
X279924Y371006D01*
X279910Y371029D01*
X279900Y371053D01*
X279815Y371174D01*
X279735Y371299D01*
X279716Y371318D01*
X279701Y371339D01*
X279591Y371438D01*
X279484Y371541D01*
X279462Y371555D01*
X279442Y371572D01*
X279312Y371644D01*
X279185Y371720D01*
X279160Y371728D01*
X279137Y371741D01*
X279041Y371768D01*
X279041Y373667D01*
X279214Y374313D01*
X279549Y374892D01*
X279635Y374978D01*
X279714Y375077D01*
X279798Y375171D01*
X279822Y375213D01*
X279852Y375251D01*
X279906Y375365D01*
X279967Y375476D01*
X279980Y375523D01*
X280001Y375566D01*
X280027Y375690D01*
X280062Y375812D01*
X280067Y375872D01*
X280074Y375907D01*
X280073Y375955D01*
X280081Y376055D01*
X280081Y377444D01*
X280078Y377470D01*
X280080Y377496D01*
X280058Y377643D01*
X280041Y377790D01*
X280033Y377815D01*
X280029Y377841D01*
X279974Y377979D01*
X279924Y378118D01*
X279910Y378140D01*
X279900Y378165D01*
X279815Y378286D01*
X279735Y378411D01*
X279716Y378429D01*
X279701Y378451D01*
X279591Y378550D01*
X279484Y378653D01*
X279462Y378667D01*
X279442Y378684D01*
X279312Y378756D01*
X279185Y378832D01*
X279160Y378840D01*
X279137Y378853D01*
X278994Y378893D01*
X278853Y378938D01*
X278827Y378940D01*
X278802Y378948D01*
X278558Y378967D01*
X270604Y378967D01*
X235203Y414368D01*
X235203Y442107D01*
X235189Y442233D01*
X235182Y442359D01*
X235169Y442406D01*
X235163Y442454D01*
X235121Y442573D01*
X235086Y442694D01*
X235062Y442736D01*
X235046Y442782D01*
X234977Y442888D01*
X234916Y442998D01*
X234876Y443045D01*
X234857Y443075D01*
X234822Y443108D01*
X234757Y443184D01*
X234557Y443384D01*
X233711Y445427D01*
X233711Y447637D01*
X234557Y449680D01*
X235445Y450567D01*
X235507Y450646D01*
X235577Y450718D01*
X235615Y450782D01*
X235661Y450840D01*
X235704Y450931D01*
X235756Y451017D01*
X235778Y451088D01*
X235810Y451155D01*
X235831Y451253D01*
X235862Y451349D01*
X235868Y451423D01*
X235883Y451496D01*
X235882Y451596D01*
X235890Y451696D01*
X235879Y451770D01*
X235877Y451844D01*
X235853Y451941D01*
X235838Y452041D01*
X235811Y452110D01*
X235792Y452182D01*
X235746Y452271D01*
X235709Y452365D01*
X235667Y452426D01*
X235633Y452492D01*
X235568Y452568D01*
X235510Y452651D01*
X235455Y452701D01*
X235407Y452757D01*
X235326Y452817D01*
X235252Y452884D01*
X235187Y452920D01*
X235127Y452965D01*
X235035Y453004D01*
X234947Y453053D01*
X234875Y453073D01*
X234807Y453103D01*
X234708Y453120D01*
X234611Y453148D01*
X234511Y453156D01*
X234464Y453164D01*
X234428Y453162D01*
X234367Y453167D01*
X233591Y453167D01*
X231548Y454013D01*
X230840Y454721D01*
X230741Y454800D01*
X230648Y454884D01*
X230605Y454908D01*
X230567Y454938D01*
X230453Y454992D01*
X230343Y455053D01*
X230296Y455066D01*
X230252Y455087D01*
X230129Y455113D01*
X230007Y455148D01*
X229946Y455153D01*
X229912Y455160D01*
X229864Y455159D01*
X229763Y455167D01*
X229188Y455167D01*
X229162Y455164D01*
X229136Y455166D01*
X228989Y455144D01*
X228842Y455127D01*
X228817Y455119D01*
X228791Y455115D01*
X228653Y455060D01*
X228514Y455010D01*
X228492Y454996D01*
X228467Y454986D01*
X228346Y454901D01*
X228221Y454821D01*
X228203Y454802D01*
X228181Y454787D01*
X228082Y454677D01*
X227979Y454570D01*
X227965Y454548D01*
X227948Y454528D01*
X227876Y454398D01*
X227800Y454271D01*
X227792Y454246D01*
X227779Y454223D01*
X227739Y454080D01*
X227694Y453939D01*
X227692Y453913D01*
X227684Y453888D01*
X227665Y453644D01*
X227665Y450818D01*
X227679Y450692D01*
X227686Y450566D01*
X227689Y450556D01*
X227689Y442505D01*
X227684Y442489D01*
X227680Y442429D01*
X227672Y442395D01*
X227673Y442347D01*
X227665Y442246D01*
X227665Y438118D01*
X227679Y437992D01*
X227686Y437866D01*
X227689Y437856D01*
X227689Y429805D01*
X227684Y429789D01*
X227680Y429729D01*
X227672Y429695D01*
X227673Y429647D01*
X227665Y429546D01*
X227665Y425418D01*
X227679Y425292D01*
X227686Y425166D01*
X227689Y425156D01*
X227689Y417105D01*
X227684Y417089D01*
X227680Y417029D01*
X227672Y416995D01*
X227673Y416947D01*
X227665Y416846D01*
X227665Y412718D01*
X227679Y412592D01*
X227686Y412466D01*
X227689Y412456D01*
X227689Y404405D01*
X227684Y404389D01*
X227680Y404329D01*
X227672Y404295D01*
X227673Y404247D01*
X227665Y404146D01*
X227665Y401320D01*
X227668Y401294D01*
X227666Y401268D01*
X227688Y401121D01*
X227705Y400974D01*
X227713Y400949D01*
X227717Y400923D01*
X227772Y400785D01*
X227822Y400646D01*
X227836Y400624D01*
X227846Y400599D01*
X227931Y400478D01*
X228011Y400353D01*
X228030Y400335D01*
X228045Y400313D01*
X228155Y400214D01*
X228262Y400111D01*
X228284Y400097D01*
X228304Y400080D01*
X228434Y400008D01*
X228561Y399932D01*
X228586Y399924D01*
X228609Y399911D01*
X228752Y399871D01*
X228893Y399826D01*
X228919Y399824D01*
X228944Y399816D01*
X229188Y399797D01*
X241460Y399797D01*
X264669Y376588D01*
X264669Y359517D01*
X264683Y359391D01*
X264690Y359265D01*
X264703Y359218D01*
X264709Y359170D01*
X264751Y359051D01*
X264786Y358930D01*
X264810Y358888D01*
X264826Y358842D01*
X264895Y358736D01*
X264956Y358626D01*
X264996Y358579D01*
X265015Y358549D01*
X265050Y358516D01*
X265068Y358494D01*
X265077Y358482D01*
X265085Y358474D01*
X265115Y358439D01*
X266839Y356716D01*
X267685Y354673D01*
X267685Y354391D01*
X267699Y354265D01*
X267706Y354139D01*
X267719Y354092D01*
X267725Y354044D01*
X267767Y353925D01*
X267802Y353804D01*
X267826Y353762D01*
X267842Y353716D01*
X267911Y353610D01*
X267972Y353500D01*
X268012Y353454D01*
X268031Y353424D01*
X268066Y353390D01*
X268131Y353314D01*
X270986Y350459D01*
X271085Y350380D01*
X271178Y350296D01*
X271221Y350272D01*
X271259Y350242D01*
X271373Y350188D01*
X271483Y350127D01*
X271530Y350114D01*
X271574Y350093D01*
X271697Y350067D01*
X271819Y350032D01*
X271880Y350027D01*
X271914Y350020D01*
X271962Y350021D01*
X272063Y350013D01*
X370492Y350013D01*
X377666Y342839D01*
X377765Y342760D01*
X377858Y342676D01*
X377901Y342652D01*
X377939Y342622D01*
X378053Y342568D01*
X378163Y342507D01*
X378210Y342494D01*
X378254Y342473D01*
X378377Y342447D01*
X378499Y342412D01*
X378560Y342407D01*
X378594Y342400D01*
X378642Y342401D01*
X378743Y342393D01*
X400021Y342393D01*
X400147Y342407D01*
G37*
%LPC*%
G36*
X35471Y367823D02*
X35471Y367823D01*
X33428Y368669D01*
X31865Y370232D01*
X31019Y372275D01*
X31019Y374485D01*
X31865Y376528D01*
X33428Y378091D01*
X35471Y378937D01*
X37681Y378937D01*
X39770Y378071D01*
X39794Y378050D01*
X39835Y378028D01*
X39875Y377996D01*
X39898Y377985D01*
X39920Y377969D01*
X40016Y377927D01*
X40099Y377882D01*
X40142Y377870D01*
X40190Y377847D01*
X40216Y377841D01*
X40240Y377831D01*
X40347Y377812D01*
X40434Y377787D01*
X40488Y377783D01*
X40530Y377774D01*
X40557Y377774D01*
X40583Y377769D01*
X40627Y377772D01*
X40678Y377767D01*
X40680Y377767D01*
X40768Y377778D01*
X40879Y377780D01*
X40904Y377786D01*
X40931Y377787D01*
X40983Y377802D01*
X41026Y377807D01*
X41113Y377838D01*
X41217Y377864D01*
X41240Y377877D01*
X41266Y377884D01*
X41311Y377909D01*
X41354Y377925D01*
X41434Y377976D01*
X41527Y378024D01*
X41547Y378041D01*
X41570Y378054D01*
X41618Y378095D01*
X41647Y378114D01*
X41680Y378148D01*
X41756Y378212D01*
X71689Y408146D01*
X71768Y408245D01*
X71852Y408338D01*
X71876Y408381D01*
X71906Y408419D01*
X71960Y408533D01*
X72021Y408643D01*
X72034Y408690D01*
X72055Y408734D01*
X72081Y408857D01*
X72116Y408979D01*
X72121Y409040D01*
X72128Y409074D01*
X72127Y409122D01*
X72135Y409223D01*
X72135Y498495D01*
X72121Y498621D01*
X72114Y498747D01*
X72101Y498794D01*
X72095Y498842D01*
X72053Y498961D01*
X72018Y499082D01*
X71994Y499124D01*
X71978Y499170D01*
X71909Y499276D01*
X71848Y499386D01*
X71808Y499433D01*
X71789Y499463D01*
X71754Y499496D01*
X71689Y499572D01*
X71489Y499772D01*
X70643Y501815D01*
X70643Y504025D01*
X71489Y506068D01*
X73052Y507631D01*
X75095Y508477D01*
X77305Y508477D01*
X79348Y507631D01*
X80911Y506068D01*
X81757Y504025D01*
X81757Y501815D01*
X80911Y499772D01*
X80711Y499572D01*
X80632Y499473D01*
X80548Y499380D01*
X80524Y499337D01*
X80494Y499299D01*
X80440Y499185D01*
X80379Y499075D01*
X80366Y499028D01*
X80345Y498984D01*
X80319Y498861D01*
X80284Y498739D01*
X80279Y498678D01*
X80272Y498644D01*
X80273Y498596D01*
X80265Y498495D01*
X80265Y405224D01*
X44356Y369315D01*
X41001Y369315D01*
X40875Y369301D01*
X40749Y369294D01*
X40702Y369281D01*
X40654Y369275D01*
X40535Y369233D01*
X40414Y369198D01*
X40372Y369174D01*
X40326Y369158D01*
X40220Y369089D01*
X40110Y369028D01*
X40063Y368988D01*
X40033Y368969D01*
X40000Y368934D01*
X39924Y368869D01*
X39724Y368669D01*
X37681Y367823D01*
X35471Y367823D01*
G37*
%LPD*%
%LPC*%
G36*
X479023Y410463D02*
X479023Y410463D01*
X473963Y415523D01*
X473963Y422677D01*
X478089Y426803D01*
X478168Y426902D01*
X478252Y426996D01*
X478276Y427038D01*
X478306Y427076D01*
X478360Y427190D01*
X478421Y427301D01*
X478434Y427348D01*
X478455Y427391D01*
X478481Y427515D01*
X478516Y427637D01*
X478521Y427697D01*
X478528Y427732D01*
X478527Y427780D01*
X478535Y427880D01*
X478535Y469109D01*
X478521Y469235D01*
X478514Y469361D01*
X478501Y469408D01*
X478495Y469456D01*
X478453Y469575D01*
X478418Y469696D01*
X478394Y469738D01*
X478378Y469784D01*
X478309Y469890D01*
X478248Y470000D01*
X478208Y470046D01*
X478189Y470076D01*
X478154Y470110D01*
X478089Y470186D01*
X440722Y507553D01*
X440623Y507632D01*
X440530Y507716D01*
X440487Y507740D01*
X440449Y507770D01*
X440335Y507824D01*
X440225Y507885D01*
X440178Y507898D01*
X440134Y507919D01*
X440011Y507945D01*
X439889Y507980D01*
X439828Y507985D01*
X439794Y507992D01*
X439746Y507991D01*
X439645Y507999D01*
X426573Y507999D01*
X426447Y507985D01*
X426321Y507978D01*
X426274Y507965D01*
X426226Y507959D01*
X426107Y507917D01*
X425986Y507882D01*
X425944Y507858D01*
X425898Y507842D01*
X425792Y507773D01*
X425682Y507712D01*
X425635Y507672D01*
X425605Y507653D01*
X425572Y507618D01*
X425496Y507553D01*
X425296Y507353D01*
X423253Y506507D01*
X421043Y506507D01*
X419000Y507353D01*
X417437Y508916D01*
X416591Y510959D01*
X416591Y513169D01*
X417437Y515212D01*
X419000Y516775D01*
X421043Y517621D01*
X423253Y517621D01*
X425296Y516775D01*
X425496Y516575D01*
X425595Y516496D01*
X425688Y516412D01*
X425731Y516388D01*
X425769Y516358D01*
X425883Y516304D01*
X425993Y516243D01*
X426040Y516230D01*
X426084Y516209D01*
X426207Y516183D01*
X426329Y516148D01*
X426390Y516143D01*
X426424Y516136D01*
X426472Y516137D01*
X426573Y516129D01*
X443644Y516129D01*
X486665Y473108D01*
X486665Y427880D01*
X486679Y427755D01*
X486686Y427629D01*
X486699Y427582D01*
X486705Y427534D01*
X486747Y427415D01*
X486782Y427294D01*
X486806Y427251D01*
X486822Y427206D01*
X486891Y427100D01*
X486952Y426990D01*
X486992Y426943D01*
X487011Y426913D01*
X487046Y426880D01*
X487111Y426803D01*
X491237Y422677D01*
X491237Y415523D01*
X486177Y410463D01*
X479023Y410463D01*
G37*
%LPD*%
%LPC*%
G36*
X35471Y383063D02*
X35471Y383063D01*
X33428Y383909D01*
X31865Y385472D01*
X31019Y387515D01*
X31019Y389725D01*
X31865Y391768D01*
X33428Y393331D01*
X35471Y394177D01*
X37681Y394177D01*
X37979Y394053D01*
X38053Y394032D01*
X38123Y394002D01*
X38220Y393985D01*
X38314Y393958D01*
X38390Y393954D01*
X38466Y393940D01*
X38564Y393945D01*
X38662Y393941D01*
X38737Y393954D01*
X38814Y393958D01*
X38908Y393986D01*
X39005Y394003D01*
X39075Y394034D01*
X39149Y394055D01*
X39235Y394103D01*
X39325Y394142D01*
X39386Y394188D01*
X39453Y394225D01*
X39567Y394322D01*
X39605Y394350D01*
X39617Y394365D01*
X39639Y394384D01*
X51877Y406622D01*
X51956Y406721D01*
X52040Y406814D01*
X52064Y406857D01*
X52094Y406895D01*
X52148Y407009D01*
X52209Y407119D01*
X52222Y407166D01*
X52243Y407210D01*
X52269Y407333D01*
X52304Y407455D01*
X52309Y407516D01*
X52316Y407550D01*
X52315Y407598D01*
X52323Y407699D01*
X52323Y503067D01*
X52309Y503193D01*
X52302Y503319D01*
X52289Y503366D01*
X52283Y503414D01*
X52241Y503533D01*
X52206Y503654D01*
X52182Y503696D01*
X52166Y503742D01*
X52097Y503848D01*
X52036Y503958D01*
X51996Y504005D01*
X51977Y504035D01*
X51942Y504068D01*
X51877Y504144D01*
X51677Y504344D01*
X50831Y506387D01*
X50831Y508597D01*
X51677Y510640D01*
X53240Y512203D01*
X55283Y513049D01*
X57493Y513049D01*
X59536Y512203D01*
X61099Y510640D01*
X61945Y508597D01*
X61945Y506387D01*
X61099Y504344D01*
X60899Y504144D01*
X60820Y504045D01*
X60736Y503952D01*
X60712Y503909D01*
X60682Y503871D01*
X60628Y503757D01*
X60567Y503647D01*
X60554Y503600D01*
X60533Y503556D01*
X60507Y503433D01*
X60472Y503311D01*
X60467Y503250D01*
X60460Y503216D01*
X60461Y503168D01*
X60453Y503067D01*
X60453Y403700D01*
X41308Y384555D01*
X41001Y384555D01*
X40875Y384541D01*
X40749Y384534D01*
X40702Y384521D01*
X40654Y384515D01*
X40535Y384473D01*
X40414Y384438D01*
X40372Y384414D01*
X40326Y384398D01*
X40220Y384329D01*
X40110Y384268D01*
X40063Y384228D01*
X40033Y384209D01*
X40000Y384174D01*
X39924Y384109D01*
X39724Y383909D01*
X37681Y383063D01*
X35471Y383063D01*
G37*
%LPD*%
%LPC*%
G36*
X16570Y626363D02*
X16570Y626363D01*
X13396Y627678D01*
X10966Y630108D01*
X9651Y633282D01*
X9651Y636718D01*
X10966Y639892D01*
X13396Y642322D01*
X16570Y643637D01*
X34230Y643637D01*
X37404Y642322D01*
X39834Y639892D01*
X41149Y636718D01*
X41149Y633282D01*
X39834Y630108D01*
X37404Y627678D01*
X34230Y626363D01*
X16570Y626363D01*
G37*
%LPD*%
%LPC*%
G36*
X226882Y593851D02*
X226882Y593851D01*
X223708Y595166D01*
X221278Y597596D01*
X219963Y600770D01*
X219963Y618430D01*
X221278Y621604D01*
X223708Y624034D01*
X226882Y625349D01*
X230318Y625349D01*
X233492Y624034D01*
X235922Y621604D01*
X237237Y618430D01*
X237237Y600770D01*
X235922Y597596D01*
X233492Y595166D01*
X230318Y593851D01*
X226882Y593851D01*
G37*
%LPD*%
%LPC*%
G36*
X252282Y593851D02*
X252282Y593851D01*
X249108Y595166D01*
X246678Y597596D01*
X245363Y600770D01*
X245363Y618430D01*
X246678Y621604D01*
X249108Y624034D01*
X252282Y625349D01*
X255718Y625349D01*
X258892Y624034D01*
X261322Y621604D01*
X262637Y618430D01*
X262637Y600770D01*
X261322Y597596D01*
X258892Y595166D01*
X255718Y593851D01*
X252282Y593851D01*
G37*
%LPD*%
%LPC*%
G36*
X16570Y550163D02*
X16570Y550163D01*
X13396Y551478D01*
X10966Y553908D01*
X9651Y557082D01*
X9651Y560518D01*
X10966Y563692D01*
X13396Y566122D01*
X16570Y567437D01*
X34230Y567437D01*
X37404Y566122D01*
X39834Y563692D01*
X41149Y560518D01*
X41149Y557082D01*
X39834Y553908D01*
X37404Y551478D01*
X34230Y550163D01*
X16570Y550163D01*
G37*
%LPD*%
%LPC*%
G36*
X16570Y473963D02*
X16570Y473963D01*
X13396Y475278D01*
X10966Y477708D01*
X9651Y480882D01*
X9651Y484318D01*
X10966Y487492D01*
X13396Y489922D01*
X16570Y491237D01*
X34230Y491237D01*
X37404Y489922D01*
X39834Y487492D01*
X41149Y484318D01*
X41149Y480882D01*
X39834Y477708D01*
X37404Y475278D01*
X34230Y473963D01*
X16570Y473963D01*
G37*
%LPD*%
%LPC*%
G36*
X16570Y448563D02*
X16570Y448563D01*
X13396Y449878D01*
X10966Y452308D01*
X9651Y455482D01*
X9651Y458918D01*
X10966Y462092D01*
X13396Y464522D01*
X16570Y465837D01*
X34230Y465837D01*
X37404Y464522D01*
X39834Y462092D01*
X41149Y458918D01*
X41149Y455482D01*
X39834Y452308D01*
X37404Y449878D01*
X34230Y448563D01*
X16570Y448563D01*
G37*
%LPD*%
%LPC*%
G36*
X16570Y423163D02*
X16570Y423163D01*
X13396Y424478D01*
X10966Y426908D01*
X9651Y430082D01*
X9651Y433518D01*
X10966Y436692D01*
X13396Y439122D01*
X16570Y440437D01*
X34230Y440437D01*
X37404Y439122D01*
X39834Y436692D01*
X41149Y433518D01*
X41149Y430082D01*
X39834Y426908D01*
X37404Y424478D01*
X34230Y423163D01*
X16570Y423163D01*
G37*
%LPD*%
%LPC*%
G36*
X16570Y397763D02*
X16570Y397763D01*
X13396Y399078D01*
X10966Y401508D01*
X9651Y404682D01*
X9651Y408118D01*
X10966Y411292D01*
X13396Y413722D01*
X16570Y415037D01*
X34230Y415037D01*
X37404Y413722D01*
X39834Y411292D01*
X41149Y408118D01*
X41149Y404682D01*
X39834Y401508D01*
X37404Y399078D01*
X34230Y397763D01*
X16570Y397763D01*
G37*
%LPD*%
%LPC*%
G36*
X16570Y270763D02*
X16570Y270763D01*
X13396Y272078D01*
X10966Y274508D01*
X9651Y277682D01*
X9651Y281118D01*
X10966Y284292D01*
X13396Y286722D01*
X16570Y288037D01*
X34230Y288037D01*
X37404Y286722D01*
X39834Y284292D01*
X41149Y281118D01*
X41149Y277682D01*
X39834Y274508D01*
X37404Y272078D01*
X34230Y270763D01*
X16570Y270763D01*
G37*
%LPD*%
%LPC*%
G36*
X16570Y143763D02*
X16570Y143763D01*
X13396Y145078D01*
X10966Y147508D01*
X9651Y150682D01*
X9651Y154118D01*
X10966Y157292D01*
X13396Y159722D01*
X16570Y161037D01*
X34230Y161037D01*
X37404Y159722D01*
X39834Y157292D01*
X41149Y154118D01*
X41149Y150682D01*
X39834Y147508D01*
X37404Y145078D01*
X34230Y143763D01*
X16570Y143763D01*
G37*
%LPD*%
%LPC*%
G36*
X16570Y16763D02*
X16570Y16763D01*
X13396Y18078D01*
X10966Y20508D01*
X9651Y23682D01*
X9651Y27118D01*
X10966Y30292D01*
X13396Y32722D01*
X16570Y34037D01*
X34230Y34037D01*
X37404Y32722D01*
X39834Y30292D01*
X41149Y27118D01*
X41149Y23682D01*
X39834Y20508D01*
X37404Y18078D01*
X34230Y16763D01*
X16570Y16763D01*
G37*
%LPD*%
%LPC*%
G36*
X55283Y570515D02*
X55283Y570515D01*
X53240Y571361D01*
X51677Y572924D01*
X50831Y574967D01*
X50831Y577177D01*
X51677Y579220D01*
X53240Y580783D01*
X55283Y581629D01*
X57493Y581629D01*
X59536Y580783D01*
X59736Y580583D01*
X59835Y580504D01*
X59928Y580420D01*
X59971Y580396D01*
X60009Y580366D01*
X60123Y580312D01*
X60233Y580251D01*
X60280Y580238D01*
X60324Y580217D01*
X60447Y580191D01*
X60569Y580156D01*
X60630Y580151D01*
X60664Y580144D01*
X60712Y580145D01*
X60813Y580137D01*
X93111Y580137D01*
X93237Y580151D01*
X93363Y580158D01*
X93410Y580171D01*
X93458Y580177D01*
X93577Y580219D01*
X93698Y580254D01*
X93740Y580278D01*
X93786Y580294D01*
X93892Y580363D01*
X94002Y580424D01*
X94049Y580464D01*
X94079Y580483D01*
X94112Y580518D01*
X94188Y580583D01*
X94388Y580783D01*
X96431Y581629D01*
X98641Y581629D01*
X100684Y580783D01*
X102247Y579220D01*
X103093Y577177D01*
X103093Y574967D01*
X102247Y572924D01*
X100684Y571361D01*
X98641Y570515D01*
X96431Y570515D01*
X94388Y571361D01*
X94188Y571561D01*
X94089Y571640D01*
X93996Y571724D01*
X93953Y571748D01*
X93915Y571778D01*
X93801Y571832D01*
X93691Y571893D01*
X93644Y571906D01*
X93600Y571927D01*
X93477Y571953D01*
X93355Y571988D01*
X93294Y571993D01*
X93260Y572000D01*
X93212Y571999D01*
X93111Y572007D01*
X60813Y572007D01*
X60687Y571993D01*
X60561Y571986D01*
X60514Y571973D01*
X60466Y571967D01*
X60347Y571925D01*
X60226Y571890D01*
X60184Y571866D01*
X60138Y571850D01*
X60032Y571781D01*
X59922Y571720D01*
X59875Y571680D01*
X59845Y571661D01*
X59812Y571626D01*
X59736Y571561D01*
X59536Y571361D01*
X57493Y570515D01*
X55283Y570515D01*
G37*
%LPD*%
%LPC*%
G36*
X281685Y611885D02*
X281685Y611885D01*
X281685Y626119D01*
X283105Y625658D01*
X284459Y624968D01*
X285688Y624075D01*
X286763Y623000D01*
X287656Y621771D01*
X288346Y620417D01*
X288815Y618972D01*
X289053Y617472D01*
X289053Y611885D01*
X281685Y611885D01*
G37*
%LPD*%
%LPC*%
G36*
X281685Y607315D02*
X281685Y607315D01*
X289053Y607315D01*
X289053Y601728D01*
X288815Y600227D01*
X288346Y598783D01*
X287656Y597429D01*
X286763Y596200D01*
X285688Y595125D01*
X284459Y594232D01*
X283105Y593542D01*
X281685Y593081D01*
X281685Y607315D01*
G37*
%LPD*%
%LPC*%
G36*
X269747Y611885D02*
X269747Y611885D01*
X269747Y617472D01*
X269985Y618972D01*
X270454Y620417D01*
X271144Y621771D01*
X272037Y623000D01*
X273112Y624075D01*
X274341Y624968D01*
X275695Y625658D01*
X277115Y626119D01*
X277115Y611885D01*
X269747Y611885D01*
G37*
%LPD*%
%LPC*%
G36*
X275695Y593542D02*
X275695Y593542D01*
X274341Y594232D01*
X273112Y595125D01*
X272037Y596200D01*
X271144Y597429D01*
X270454Y598783D01*
X269985Y600227D01*
X269747Y601728D01*
X269747Y607315D01*
X277115Y607315D01*
X277115Y593081D01*
X275695Y593542D01*
G37*
%LPD*%
D10*
X291582Y289814D03*
X291582Y277114D03*
X291582Y264414D03*
X291582Y251714D03*
X291582Y239014D03*
X291582Y226314D03*
X291582Y213614D03*
X291582Y200914D03*
X291582Y188214D03*
X291582Y175514D03*
X291582Y162814D03*
X291582Y150114D03*
X385582Y150114D03*
X385582Y162814D03*
X385582Y175514D03*
X385582Y188214D03*
X385582Y200914D03*
X385582Y213614D03*
X385582Y226314D03*
X385582Y239014D03*
X385582Y251714D03*
X385582Y264414D03*
X385582Y277114D03*
X385582Y289814D03*
D11*
X385582Y150114D03*
X385582Y162814D03*
X385582Y175514D03*
X385582Y188214D03*
X385582Y200914D03*
X385582Y213614D03*
X385582Y226314D03*
X385582Y239014D03*
X385582Y251714D03*
X385582Y264414D03*
X385582Y277114D03*
X385582Y289814D03*
X291582Y289814D03*
X291582Y277114D03*
X291582Y264414D03*
X291582Y251714D03*
X291582Y239014D03*
X291582Y226314D03*
X291582Y213614D03*
X291582Y200914D03*
X291582Y188214D03*
X291582Y175514D03*
X291582Y162814D03*
X291582Y150114D03*
D10*
X122164Y289814D03*
X122164Y277114D03*
X122164Y264414D03*
X122164Y251714D03*
X122164Y239014D03*
X122164Y226314D03*
X122164Y213614D03*
X122164Y200914D03*
X122164Y188214D03*
X122164Y175514D03*
X122164Y162814D03*
X122164Y150114D03*
X216164Y150114D03*
X216164Y162814D03*
X216164Y175514D03*
X216164Y188214D03*
X216164Y200914D03*
X216164Y213614D03*
X216164Y226314D03*
X216164Y239014D03*
X216164Y251714D03*
X216164Y264414D03*
X216164Y277114D03*
X216164Y289814D03*
D11*
X216164Y150114D03*
X216164Y162814D03*
X216164Y175514D03*
X216164Y188214D03*
X216164Y200914D03*
X216164Y213614D03*
X216164Y226314D03*
X216164Y239014D03*
X216164Y251714D03*
X216164Y264414D03*
X216164Y277114D03*
X216164Y289814D03*
X122164Y289814D03*
X122164Y277114D03*
X122164Y264414D03*
X122164Y251714D03*
X122164Y239014D03*
X122164Y226314D03*
X122164Y213614D03*
X122164Y200914D03*
X122164Y188214D03*
X122164Y175514D03*
X122164Y162814D03*
X122164Y150114D03*
D10*
X291582Y510032D03*
X291582Y497332D03*
X291582Y484632D03*
X291582Y471932D03*
X291582Y459232D03*
X291582Y446532D03*
X291582Y433832D03*
X291582Y421132D03*
X291582Y408432D03*
X291582Y395732D03*
X291582Y383032D03*
X291582Y370332D03*
X385582Y370332D03*
X385582Y383032D03*
X385582Y395732D03*
X385582Y408432D03*
X385582Y421132D03*
X385582Y433832D03*
X385582Y446532D03*
X385582Y459232D03*
X385582Y471932D03*
X385582Y484632D03*
X385582Y497332D03*
X385582Y510032D03*
D11*
X385582Y370332D03*
X385582Y383032D03*
X385582Y395732D03*
X385582Y408432D03*
X385582Y421132D03*
X385582Y433832D03*
X385582Y446532D03*
X385582Y459232D03*
X385582Y471932D03*
X385582Y484632D03*
X385582Y497332D03*
X385582Y510032D03*
X291582Y510032D03*
X291582Y497332D03*
X291582Y484632D03*
X291582Y471932D03*
X291582Y459232D03*
X291582Y446532D03*
X291582Y433832D03*
X291582Y421132D03*
X291582Y408432D03*
X291582Y395732D03*
X291582Y383032D03*
X291582Y370332D03*
D10*
X122164Y510032D03*
X122164Y497332D03*
X122164Y484632D03*
X122164Y471932D03*
X122164Y459232D03*
X122164Y446532D03*
X122164Y433832D03*
X122164Y421132D03*
X122164Y408432D03*
X122164Y395732D03*
X122164Y383032D03*
X122164Y370332D03*
X216164Y370332D03*
X216164Y383032D03*
X216164Y395732D03*
X216164Y408432D03*
X216164Y421132D03*
X216164Y433832D03*
X216164Y446532D03*
X216164Y459232D03*
X216164Y471932D03*
X216164Y484632D03*
X216164Y497332D03*
X216164Y510032D03*
D11*
X216164Y370332D03*
X216164Y383032D03*
X216164Y395732D03*
X216164Y408432D03*
X216164Y421132D03*
X216164Y433832D03*
X216164Y446532D03*
X216164Y459232D03*
X216164Y471932D03*
X216164Y484632D03*
X216164Y497332D03*
X216164Y510032D03*
X122164Y510032D03*
X122164Y497332D03*
X122164Y484632D03*
X122164Y471932D03*
X122164Y459232D03*
X122164Y446532D03*
X122164Y433832D03*
X122164Y421132D03*
X122164Y408432D03*
X122164Y395732D03*
X122164Y383032D03*
X122164Y370332D03*
D12*
X228600Y602488D02*
X228600Y616712D01*
X254000Y616712D02*
X254000Y602488D01*
X279400Y602488D02*
X279400Y616712D01*
X32512Y609600D02*
X18288Y609600D01*
X18288Y635000D02*
X32512Y635000D01*
X32512Y25400D02*
X18288Y25400D01*
X18288Y50800D02*
X32512Y50800D01*
X32512Y76200D02*
X18288Y76200D01*
X18288Y101600D02*
X32512Y101600D01*
X32512Y152400D02*
X18288Y152400D01*
X18288Y177800D02*
X32512Y177800D01*
X32512Y203200D02*
X18288Y203200D01*
X18288Y228600D02*
X32512Y228600D01*
X32512Y279400D02*
X18288Y279400D01*
X18288Y304800D02*
X32512Y304800D01*
X32512Y330200D02*
X18288Y330200D01*
X18288Y355600D02*
X32512Y355600D01*
X32512Y406400D02*
X18288Y406400D01*
X18288Y431800D02*
X32512Y431800D01*
X32512Y457200D02*
X18288Y457200D01*
X18288Y482600D02*
X32512Y482600D01*
D13*
X457200Y419100D03*
X482600Y419100D03*
X457200Y393700D03*
X482600Y393700D03*
X457200Y368300D03*
X482600Y368300D03*
X457200Y342900D03*
X482600Y342900D03*
X457200Y317500D03*
X482600Y317500D03*
X457200Y292100D03*
X482600Y292100D03*
X457200Y266700D03*
X482600Y266700D03*
X457200Y241300D03*
X482600Y241300D03*
D12*
X32512Y533400D02*
X18288Y533400D01*
X18288Y558800D02*
X32512Y558800D01*
D14*
X98298Y188214D02*
X122164Y188214D01*
X98298Y188214D02*
X79248Y207264D01*
D15*
X79248Y207264D03*
X259080Y188976D03*
D14*
X259842Y188214D02*
X291582Y188214D01*
X259842Y188214D02*
X259080Y188976D01*
X122164Y408432D02*
X103632Y408432D01*
X92964Y419100D01*
D15*
X92964Y419100D03*
X269748Y420624D03*
D14*
X281940Y408432D02*
X291582Y408432D01*
X281940Y408432D02*
X269748Y420624D01*
X269748Y484632D01*
D15*
X269748Y484632D03*
X422148Y512064D03*
D14*
X441960Y512064D01*
X482600Y471424D02*
X482600Y419100D01*
X482600Y471424D02*
X441960Y512064D01*
X122164Y497332D02*
X122164Y484632D01*
X122164Y471932D01*
X122164Y459232D01*
X122164Y446532D01*
X122164Y433832D01*
X122164Y421132D01*
X216164Y421132D02*
X216164Y408432D01*
X216164Y421132D02*
X216164Y433832D01*
X216164Y446532D01*
X216164Y459232D01*
X216164Y484632D02*
X216164Y497332D01*
X291582Y497332D02*
X291582Y484632D01*
X291582Y471932D01*
X291582Y459232D01*
X291582Y446532D01*
X291582Y433832D01*
X291582Y421132D01*
X385582Y484632D02*
X385582Y497332D01*
X385582Y459232D02*
X385582Y446532D01*
X385582Y433832D01*
X385582Y421132D01*
X385582Y408432D01*
X446532Y408432D01*
X457200Y419100D01*
X457200Y393700D01*
X482600Y393700D01*
X482600Y368300D01*
X482600Y342900D01*
X457200Y342900D01*
X457200Y368300D01*
X457200Y393700D01*
X457200Y368300D02*
X482600Y368300D01*
X457200Y342900D02*
X457200Y317500D01*
X482600Y317500D01*
X482600Y342900D01*
X482600Y317500D02*
X482600Y292100D01*
X482600Y266700D01*
X457200Y266700D01*
X457200Y241300D01*
X482600Y241300D01*
X482600Y266700D01*
X385582Y264414D02*
X385582Y277114D01*
X422402Y277114D01*
X432816Y266700D02*
X457200Y266700D01*
X432816Y266700D02*
X422402Y277114D01*
X385582Y239014D02*
X385582Y226314D01*
X385582Y213614D01*
X385582Y200914D01*
X385582Y188214D01*
X385582Y213614D02*
X429514Y213614D01*
X457200Y241300D01*
X122164Y213614D02*
X122164Y200914D01*
X122164Y213614D02*
X122164Y226314D01*
X122164Y239014D01*
X122164Y251714D01*
X122164Y264414D01*
X216164Y264414D02*
X216164Y277114D01*
X216164Y239014D02*
X216164Y226314D01*
X216164Y213614D01*
X216164Y200914D01*
X216164Y188214D01*
X291582Y251714D02*
X291582Y264414D01*
X291582Y277114D01*
X291582Y251714D02*
X291582Y239014D01*
X291582Y226314D01*
X291582Y213614D01*
X291582Y200914D01*
X122164Y277114D02*
X99314Y277114D01*
X91440Y284988D01*
X91440Y304800D01*
X106680Y320040D01*
X210312Y320040D01*
X216408Y313944D01*
D15*
X216408Y313944D03*
X239268Y272796D03*
D14*
X234950Y277114D02*
X216164Y277114D01*
X234950Y277114D02*
X239268Y272796D01*
X122164Y277114D02*
X122164Y264414D01*
X216164Y239014D02*
X248158Y239014D01*
X257556Y248412D01*
X257556Y263652D01*
X248412Y272796D01*
X239268Y272796D01*
D15*
X269748Y291084D03*
D14*
X277622Y277114D02*
X291582Y277114D01*
X269748Y284988D02*
X269748Y291084D01*
X269748Y284988D02*
X277622Y277114D01*
X385582Y226314D02*
X409194Y226314D01*
X414528Y231648D01*
D15*
X414528Y231648D03*
D14*
X419100Y484632D02*
X385582Y484632D01*
X457200Y446532D02*
X457200Y419100D01*
X457200Y446532D02*
X419100Y484632D01*
X122164Y497332D02*
X101600Y497332D01*
X97536Y501396D01*
X98298Y502158D01*
D15*
X98298Y502158D03*
X242316Y498348D03*
D14*
X241300Y497332D02*
X216164Y497332D01*
X241300Y497332D02*
X242316Y498348D01*
X243332Y497332D02*
X291582Y497332D01*
X243332Y497332D02*
X242316Y498348D01*
D15*
X405384Y515112D03*
D14*
X405384Y504444D01*
X234188Y459232D02*
X216164Y459232D01*
X234188Y459232D02*
X234696Y458724D01*
D15*
X234696Y458724D03*
X99060Y470916D03*
D14*
X121148Y470916D02*
X122164Y471932D01*
X121148Y470916D02*
X99060Y470916D01*
X385582Y497332D02*
X398272Y497332D01*
X405384Y504444D01*
X91440Y609600D02*
X25400Y609600D01*
D15*
X422148Y495300D03*
X291084Y310896D03*
D14*
X152400Y548640D02*
X91440Y609600D01*
X152400Y548640D02*
X440436Y548640D01*
X291582Y310398D02*
X291582Y289814D01*
X291582Y310398D02*
X291084Y310896D01*
X422148Y495300D02*
X435864Y495300D01*
X460248Y470916D01*
D15*
X460248Y470916D03*
X460248Y528828D03*
D14*
X440436Y548640D01*
D15*
X76200Y502920D03*
D14*
X76200Y406908D01*
X42672Y373380D01*
X36576Y373380D01*
D15*
X36576Y373380D03*
X120396Y309372D03*
D14*
X120396Y291582D02*
X122164Y289814D01*
X120396Y291582D02*
X120396Y309372D01*
X216164Y395732D02*
X239776Y395732D01*
X260604Y374904D02*
X260604Y355092D01*
X262128Y353568D01*
X269748Y345948D01*
X368808Y345948D02*
X376428Y338328D01*
X402336Y338328D01*
X420624Y356616D02*
X420624Y388620D01*
X260604Y374904D02*
X239776Y395732D01*
X269748Y345948D02*
X368808Y345948D01*
X402336Y338328D02*
X420624Y356616D01*
X413512Y395732D02*
X385582Y395732D01*
X413512Y395732D02*
X420624Y388620D01*
X227330Y175514D02*
X216164Y175514D01*
X269748Y269748D02*
X246888Y292608D01*
X269748Y269748D02*
X269748Y217932D01*
D15*
X246888Y292608D03*
X262128Y353568D03*
D14*
X239268Y187452D02*
X227330Y175514D01*
X239268Y187452D02*
X269748Y217932D01*
D15*
X239268Y187452D03*
X411480Y175260D03*
D14*
X411226Y175514D02*
X385582Y175514D01*
X411226Y175514D02*
X411480Y175260D01*
D15*
X36576Y388620D03*
D14*
X39624Y388620D02*
X56388Y405384D01*
X39624Y388620D02*
X36576Y388620D01*
D15*
X56388Y576072D03*
D14*
X56388Y507492D02*
X56388Y405384D01*
D15*
X56388Y507492D03*
X97536Y576072D03*
D14*
X56388Y576072D01*
D15*
X216408Y525780D03*
D16*
X216164Y525536D02*
X216164Y510032D01*
X216164Y525536D02*
X216408Y525780D01*
D15*
X385572Y527304D03*
D16*
X385582Y527294D02*
X385582Y510032D01*
X385582Y527294D02*
X385572Y527304D01*
X258582Y332232D02*
X216164Y289814D01*
X258582Y332232D02*
X353568Y332232D01*
X385582Y300218D02*
X385582Y289814D01*
X385582Y300218D02*
X353568Y332232D01*
X385582Y289814D02*
X441960Y346192D01*
X441960Y384048D01*
D15*
X441960Y384048D03*
D16*
X122164Y150114D02*
X98298Y150114D01*
X97536Y150876D01*
D14*
X291582Y150114D02*
X291582Y137658D01*
X291084Y137160D01*
X122164Y370332D02*
X99060Y370332D01*
X271272Y370332D02*
X291582Y370332D01*
D16*
X122164Y370332D02*
X121920Y370088D01*
X121920Y352044D01*
X291582Y360162D02*
X291582Y370332D01*
X291582Y360162D02*
X291084Y359664D01*
X122164Y150114D02*
X122164Y134356D01*
D15*
X105156Y356616D03*
X167640Y353568D03*
X274320Y358140D03*
X71628Y301752D03*
X27432Y256032D03*
X71628Y249936D03*
X297180Y99060D03*
X382524Y91440D03*
X355092Y21336D03*
X419100Y25908D03*
X470916Y59436D03*
X473964Y117348D03*
X475488Y161544D03*
X487680Y516636D03*
X477012Y583692D03*
X416052Y629412D03*
X358140Y592836D03*
X169164Y606552D03*
X132588Y632460D03*
X114300Y551688D03*
X265176Y309372D03*
X265176Y74676D03*
D16*
X290820Y149352D02*
X291582Y150114D01*
X290820Y149352D02*
X278892Y149352D01*
D14*
X122164Y510032D02*
X98796Y533400D01*
X25400Y533400D01*
X122164Y510032D02*
X150104Y537972D01*
X263642Y537972D02*
X291582Y510032D01*
X263642Y537972D02*
X150104Y537972D01*
D15*
X252984Y481584D03*
D14*
X252984Y419100D01*
X276352Y395732D02*
X291582Y395732D01*
X276352Y395732D02*
X252984Y419100D01*
D15*
X239268Y446532D03*
D14*
X239268Y416052D01*
X272288Y383032D02*
X291582Y383032D01*
X272288Y383032D02*
X239268Y416052D01*
D15*
X408432Y382524D03*
D14*
X407924Y383032D02*
X385582Y383032D01*
X407924Y383032D02*
X408432Y382524D01*
D15*
X387096Y353568D03*
D14*
X387096Y368818D02*
X385582Y370332D01*
X387096Y368818D02*
X387096Y353568D01*
D15*
X216408Y353568D03*
D14*
X216408Y370088D02*
X216164Y370332D01*
X216408Y370088D02*
X216408Y353568D01*
X45720Y304800D02*
X25400Y304800D01*
X228600Y338328D02*
X243840Y353568D01*
X243840Y370332D01*
X79248Y338328D02*
X45720Y304800D01*
X79248Y338328D02*
X228600Y338328D01*
X231140Y383032D02*
X216164Y383032D01*
X231140Y383032D02*
X243840Y370332D01*
X122164Y383032D02*
X87376Y383032D01*
X34544Y330200D02*
X25400Y330200D01*
X34544Y330200D02*
X87376Y383032D01*
X83312Y395732D02*
X122164Y395732D01*
X43180Y355600D02*
X25400Y355600D01*
X43180Y355600D02*
X83312Y395732D01*
X32004Y228600D02*
X25400Y228600D01*
X32004Y228600D02*
X85344Y175260D01*
X121910Y175260D02*
X122164Y175514D01*
X121910Y175260D02*
X85344Y175260D01*
X33020Y203200D02*
X25400Y203200D01*
X73152Y163068D02*
X100584Y163068D01*
X73152Y163068D02*
X33020Y203200D01*
X100838Y162814D02*
X122164Y162814D01*
X100838Y162814D02*
X100584Y163068D01*
X32512Y177800D02*
X25400Y177800D01*
X225552Y118872D02*
X242316Y135636D01*
X242316Y153924D01*
X91440Y118872D02*
X32512Y177800D01*
X91440Y118872D02*
X225552Y118872D01*
X233426Y162814D02*
X216164Y162814D01*
X233426Y162814D02*
X242316Y153924D01*
D15*
X216408Y135636D03*
D14*
X216408Y149870D02*
X216164Y150114D01*
X216408Y149870D02*
X216408Y135636D01*
X234188Y101600D02*
X25400Y101600D01*
X234188Y101600D02*
X254508Y121920D01*
X254508Y158496D01*
X271526Y175514D02*
X291582Y175514D01*
X271526Y175514D02*
X254508Y158496D01*
X228600Y76200D02*
X25400Y76200D01*
X228600Y76200D02*
X269748Y117348D01*
X269748Y156972D01*
X275590Y162814D02*
X291582Y162814D01*
X275590Y162814D02*
X269748Y156972D01*
X384556Y50800D02*
X25400Y50800D01*
X384556Y50800D02*
X428244Y94488D01*
X428244Y143256D01*
X408432Y163068D01*
X408178Y162814D02*
X385582Y162814D01*
X408178Y162814D02*
X408432Y163068D01*
D15*
X387096Y132588D03*
D14*
X387096Y148600D02*
X385582Y150114D01*
X387096Y148600D02*
X387096Y132588D01*
X385582Y251714D02*
X411226Y251714D01*
X411480Y251460D01*
D15*
X411480Y251460D03*
D14*
X245110Y251714D02*
X216164Y251714D01*
X245110Y251714D02*
X245364Y251460D01*
D15*
X245364Y251460D03*
D14*
X237236Y471932D02*
X216164Y471932D01*
X237236Y471932D02*
X237744Y472440D01*
D15*
X237744Y472440D03*
X406908Y470916D03*
D14*
X405892Y471932D02*
X385582Y471932D01*
X405892Y471932D02*
X406908Y470916D01*
X426720Y451104D01*
X426720Y425196D01*
D15*
X426720Y425196D03*
M02*
