G04 EAGLE Gerber RS-274X export*
G75*
%MOMM*%
%FSLAX34Y34*%
%LPD*%
%INBottom Copper*%
%IPPOS*%
%AMOC8*
5,1,8,0,0,1.08239X$1,22.5*%
G01*
%ADD10C,1.422400*%
%ADD11P,1.539592X8X292.500000*%
%ADD12C,0.806400*%
%ADD13C,0.508000*%
%ADD14C,0.635000*%

G36*
X504978Y1528D02*
X504978Y1528D01*
X505004Y1526D01*
X505151Y1548D01*
X505298Y1565D01*
X505323Y1573D01*
X505349Y1577D01*
X505487Y1632D01*
X505626Y1682D01*
X505648Y1696D01*
X505673Y1706D01*
X505794Y1791D01*
X505919Y1871D01*
X505937Y1890D01*
X505959Y1905D01*
X506058Y2015D01*
X506161Y2122D01*
X506175Y2144D01*
X506192Y2164D01*
X506264Y2294D01*
X506340Y2421D01*
X506348Y2446D01*
X506361Y2469D01*
X506401Y2612D01*
X506446Y2753D01*
X506448Y2779D01*
X506456Y2804D01*
X506475Y3048D01*
X506475Y657352D01*
X506472Y657378D01*
X506474Y657404D01*
X506452Y657551D01*
X506435Y657698D01*
X506427Y657723D01*
X506423Y657749D01*
X506368Y657887D01*
X506318Y658026D01*
X506304Y658048D01*
X506294Y658073D01*
X506209Y658194D01*
X506129Y658319D01*
X506110Y658337D01*
X506095Y658359D01*
X505985Y658458D01*
X505878Y658561D01*
X505856Y658575D01*
X505836Y658592D01*
X505706Y658664D01*
X505579Y658740D01*
X505554Y658748D01*
X505531Y658761D01*
X505388Y658801D01*
X505247Y658846D01*
X505221Y658848D01*
X505196Y658856D01*
X504952Y658875D01*
X3048Y658875D01*
X3022Y658872D01*
X2996Y658874D01*
X2849Y658852D01*
X2702Y658835D01*
X2677Y658827D01*
X2651Y658823D01*
X2513Y658768D01*
X2374Y658718D01*
X2352Y658704D01*
X2327Y658694D01*
X2206Y658609D01*
X2081Y658529D01*
X2063Y658510D01*
X2041Y658495D01*
X1942Y658385D01*
X1839Y658278D01*
X1825Y658256D01*
X1808Y658236D01*
X1736Y658106D01*
X1660Y657979D01*
X1652Y657954D01*
X1639Y657931D01*
X1599Y657788D01*
X1554Y657647D01*
X1552Y657621D01*
X1544Y657596D01*
X1525Y657352D01*
X1525Y3048D01*
X1528Y3022D01*
X1526Y2996D01*
X1548Y2849D01*
X1565Y2702D01*
X1573Y2677D01*
X1577Y2651D01*
X1632Y2513D01*
X1682Y2374D01*
X1696Y2352D01*
X1706Y2327D01*
X1791Y2206D01*
X1871Y2081D01*
X1890Y2063D01*
X1905Y2041D01*
X2015Y1942D01*
X2122Y1839D01*
X2144Y1825D01*
X2164Y1808D01*
X2294Y1736D01*
X2421Y1660D01*
X2446Y1652D01*
X2469Y1639D01*
X2612Y1599D01*
X2753Y1554D01*
X2779Y1552D01*
X2804Y1544D01*
X3048Y1525D01*
X504952Y1525D01*
X504978Y1528D01*
G37*
%LPC*%
G36*
X413423Y226091D02*
X413423Y226091D01*
X411380Y226937D01*
X411180Y227137D01*
X411081Y227216D01*
X410988Y227300D01*
X410945Y227324D01*
X410907Y227354D01*
X410793Y227408D01*
X410683Y227469D01*
X410636Y227482D01*
X410592Y227503D01*
X410469Y227529D01*
X410347Y227564D01*
X410286Y227569D01*
X410252Y227576D01*
X410204Y227575D01*
X410103Y227583D01*
X240632Y227583D01*
X237805Y230410D01*
X231934Y236281D01*
X229107Y239108D01*
X229107Y268384D01*
X232442Y271719D01*
X232459Y271739D01*
X232479Y271756D01*
X232567Y271876D01*
X232659Y271992D01*
X232670Y272016D01*
X232686Y272037D01*
X232745Y272173D01*
X232808Y272307D01*
X232814Y272333D01*
X232824Y272357D01*
X232850Y272503D01*
X232881Y272648D01*
X232881Y272674D01*
X232886Y272700D01*
X232878Y272848D01*
X232875Y272996D01*
X232869Y273022D01*
X232868Y273048D01*
X232827Y273190D01*
X232790Y273334D01*
X232778Y273357D01*
X232771Y273383D01*
X232699Y273512D01*
X232631Y273644D01*
X232614Y273664D01*
X232601Y273687D01*
X232442Y273873D01*
X227583Y278732D01*
X227583Y296389D01*
X227569Y296515D01*
X227562Y296641D01*
X227549Y296688D01*
X227543Y296736D01*
X227501Y296855D01*
X227466Y296976D01*
X227442Y297018D01*
X227426Y297064D01*
X227357Y297170D01*
X227296Y297280D01*
X227256Y297326D01*
X227237Y297356D01*
X227202Y297390D01*
X227137Y297466D01*
X216662Y307941D01*
X216563Y308020D01*
X216470Y308104D01*
X216427Y308128D01*
X216389Y308158D01*
X216275Y308212D01*
X216165Y308273D01*
X216118Y308286D01*
X216074Y308307D01*
X215951Y308333D01*
X215829Y308368D01*
X215768Y308373D01*
X215734Y308380D01*
X215686Y308379D01*
X215585Y308387D01*
X215303Y308387D01*
X213260Y309233D01*
X211697Y310796D01*
X210851Y312839D01*
X210851Y315049D01*
X211697Y317092D01*
X213260Y318655D01*
X215303Y319501D01*
X217513Y319501D01*
X219556Y318655D01*
X221119Y317092D01*
X221965Y315049D01*
X221965Y314767D01*
X221979Y314641D01*
X221986Y314515D01*
X221999Y314468D01*
X222005Y314420D01*
X222047Y314301D01*
X222082Y314180D01*
X222106Y314138D01*
X222122Y314092D01*
X222191Y313986D01*
X222252Y313876D01*
X222292Y313830D01*
X222311Y313800D01*
X222346Y313766D01*
X222411Y313690D01*
X235713Y300388D01*
X235713Y282731D01*
X235727Y282605D01*
X235734Y282479D01*
X235747Y282432D01*
X235753Y282384D01*
X235795Y282265D01*
X235830Y282144D01*
X235854Y282102D01*
X235870Y282056D01*
X235939Y281950D01*
X236000Y281840D01*
X236040Y281794D01*
X236059Y281764D01*
X236094Y281730D01*
X236159Y281654D01*
X239014Y278799D01*
X239113Y278720D01*
X239206Y278636D01*
X239249Y278612D01*
X239287Y278582D01*
X239401Y278528D01*
X239511Y278467D01*
X239558Y278454D01*
X239602Y278433D01*
X239725Y278407D01*
X239847Y278372D01*
X239908Y278367D01*
X239942Y278360D01*
X239990Y278361D01*
X240091Y278353D01*
X240373Y278353D01*
X242416Y277507D01*
X242616Y277307D01*
X242715Y277228D01*
X242808Y277144D01*
X242851Y277120D01*
X242889Y277090D01*
X243003Y277036D01*
X243113Y276975D01*
X243160Y276962D01*
X243204Y276941D01*
X243327Y276915D01*
X243449Y276880D01*
X243510Y276875D01*
X243544Y276868D01*
X243592Y276869D01*
X243693Y276861D01*
X249145Y276861D01*
X249271Y276875D01*
X249397Y276882D01*
X249444Y276895D01*
X249492Y276901D01*
X249611Y276943D01*
X249732Y276978D01*
X249774Y277002D01*
X249820Y277018D01*
X249926Y277087D01*
X250036Y277148D01*
X250082Y277188D01*
X250112Y277207D01*
X250146Y277242D01*
X250222Y277307D01*
X263745Y290830D01*
X263824Y290929D01*
X263908Y291022D01*
X263932Y291065D01*
X263962Y291103D01*
X264016Y291217D01*
X264077Y291327D01*
X264090Y291374D01*
X264111Y291418D01*
X264137Y291541D01*
X264172Y291663D01*
X264177Y291724D01*
X264184Y291758D01*
X264183Y291806D01*
X264191Y291907D01*
X264191Y292189D01*
X265037Y294232D01*
X266600Y295795D01*
X268643Y296641D01*
X270853Y296641D01*
X272896Y295795D01*
X274459Y294232D01*
X275305Y292189D01*
X275305Y289979D01*
X274459Y287936D01*
X272896Y286373D01*
X270853Y285527D01*
X270571Y285527D01*
X270445Y285513D01*
X270319Y285506D01*
X270272Y285493D01*
X270224Y285487D01*
X270105Y285445D01*
X269984Y285410D01*
X269942Y285386D01*
X269896Y285370D01*
X269790Y285301D01*
X269680Y285240D01*
X269634Y285200D01*
X269604Y285181D01*
X269570Y285146D01*
X269494Y285081D01*
X253144Y268731D01*
X243693Y268731D01*
X243567Y268717D01*
X243441Y268710D01*
X243394Y268697D01*
X243346Y268691D01*
X243227Y268649D01*
X243106Y268614D01*
X243064Y268590D01*
X243018Y268574D01*
X242912Y268505D01*
X242802Y268444D01*
X242755Y268404D01*
X242725Y268385D01*
X242692Y268350D01*
X242616Y268285D01*
X242416Y268085D01*
X240373Y267239D01*
X240091Y267239D01*
X239965Y267225D01*
X239839Y267218D01*
X239792Y267205D01*
X239744Y267199D01*
X239625Y267157D01*
X239504Y267122D01*
X239462Y267098D01*
X239416Y267082D01*
X239310Y267013D01*
X239200Y266952D01*
X239153Y266912D01*
X239123Y266893D01*
X239090Y266858D01*
X239013Y266793D01*
X237683Y265462D01*
X237604Y265363D01*
X237520Y265270D01*
X237496Y265227D01*
X237466Y265189D01*
X237412Y265075D01*
X237351Y264965D01*
X237338Y264918D01*
X237317Y264874D01*
X237291Y264751D01*
X237256Y264629D01*
X237251Y264569D01*
X237244Y264534D01*
X237245Y264485D01*
X237237Y264385D01*
X237237Y254017D01*
X237242Y253967D01*
X237240Y253917D01*
X237262Y253795D01*
X237277Y253671D01*
X237294Y253624D01*
X237303Y253574D01*
X237352Y253460D01*
X237394Y253343D01*
X237421Y253301D01*
X237441Y253254D01*
X237516Y253155D01*
X237583Y253050D01*
X237619Y253015D01*
X237649Y252975D01*
X237744Y252894D01*
X237834Y252808D01*
X237877Y252782D01*
X237915Y252750D01*
X238026Y252693D01*
X238133Y252629D01*
X238181Y252614D01*
X238226Y252591D01*
X238346Y252561D01*
X238465Y252523D01*
X238515Y252519D01*
X238564Y252507D01*
X238688Y252505D01*
X238812Y252495D01*
X238862Y252502D01*
X238912Y252502D01*
X239034Y252528D01*
X239157Y252547D01*
X239204Y252565D01*
X239253Y252576D01*
X239365Y252629D01*
X239481Y252675D01*
X239522Y252704D01*
X239568Y252726D01*
X239665Y252803D01*
X239767Y252874D01*
X239801Y252912D01*
X239840Y252943D01*
X239917Y253041D01*
X240000Y253133D01*
X240025Y253177D01*
X240056Y253217D01*
X240167Y253434D01*
X240653Y254608D01*
X242216Y256171D01*
X244259Y257017D01*
X246469Y257017D01*
X248512Y256171D01*
X248712Y255971D01*
X248811Y255892D01*
X248904Y255808D01*
X248947Y255784D01*
X248985Y255754D01*
X249099Y255700D01*
X249209Y255639D01*
X249256Y255626D01*
X249300Y255605D01*
X249423Y255579D01*
X249545Y255544D01*
X249606Y255539D01*
X249640Y255532D01*
X249688Y255533D01*
X249789Y255525D01*
X407055Y255525D01*
X407181Y255539D01*
X407307Y255546D01*
X407354Y255559D01*
X407402Y255565D01*
X407521Y255607D01*
X407642Y255642D01*
X407684Y255666D01*
X407730Y255682D01*
X407836Y255751D01*
X407946Y255812D01*
X407993Y255852D01*
X408023Y255871D01*
X408056Y255906D01*
X408132Y255971D01*
X408332Y256171D01*
X410375Y257017D01*
X410657Y257017D01*
X410783Y257031D01*
X410909Y257038D01*
X410956Y257051D01*
X411004Y257057D01*
X411123Y257099D01*
X411244Y257134D01*
X411286Y257158D01*
X411332Y257174D01*
X411438Y257243D01*
X411548Y257304D01*
X411594Y257344D01*
X411624Y257363D01*
X411658Y257398D01*
X411734Y257463D01*
X447609Y293337D01*
X447834Y293563D01*
X447851Y293583D01*
X447871Y293600D01*
X447959Y293720D01*
X448051Y293836D01*
X448062Y293860D01*
X448078Y293881D01*
X448137Y294017D01*
X448200Y294151D01*
X448206Y294177D01*
X448216Y294201D01*
X448242Y294347D01*
X448273Y294492D01*
X448273Y294518D01*
X448278Y294544D01*
X448270Y294692D01*
X448267Y294840D01*
X448261Y294866D01*
X448260Y294892D01*
X448219Y295034D01*
X448182Y295178D01*
X448170Y295201D01*
X448163Y295227D01*
X448091Y295356D01*
X448023Y295488D01*
X448006Y295508D01*
X447993Y295531D01*
X447834Y295717D01*
X425703Y317848D01*
X425703Y355317D01*
X425692Y355417D01*
X425690Y355518D01*
X425672Y355590D01*
X425663Y355664D01*
X425630Y355758D01*
X425605Y355856D01*
X425571Y355922D01*
X425546Y355992D01*
X425491Y356076D01*
X425445Y356165D01*
X425397Y356222D01*
X425357Y356285D01*
X425285Y356354D01*
X425220Y356431D01*
X425160Y356475D01*
X425106Y356527D01*
X425020Y356578D01*
X424939Y356638D01*
X424871Y356667D01*
X424807Y356706D01*
X424711Y356736D01*
X424619Y356776D01*
X424546Y356789D01*
X424475Y356812D01*
X424375Y356820D01*
X424276Y356838D01*
X424202Y356834D01*
X424128Y356840D01*
X424028Y356825D01*
X423928Y356820D01*
X423857Y356799D01*
X423783Y356788D01*
X423690Y356751D01*
X423593Y356723D01*
X423528Y356687D01*
X423459Y356659D01*
X423377Y356602D01*
X423289Y356553D01*
X423213Y356488D01*
X423173Y356460D01*
X423149Y356434D01*
X423103Y356395D01*
X373540Y306831D01*
X295509Y306831D01*
X295383Y306817D01*
X295257Y306810D01*
X295210Y306797D01*
X295162Y306791D01*
X295043Y306749D01*
X294922Y306714D01*
X294880Y306690D01*
X294834Y306674D01*
X294728Y306605D01*
X294618Y306544D01*
X294571Y306504D01*
X294541Y306485D01*
X294508Y306450D01*
X294432Y306385D01*
X294232Y306185D01*
X292189Y305339D01*
X289979Y305339D01*
X287936Y306185D01*
X286373Y307748D01*
X285527Y309791D01*
X285527Y312001D01*
X286373Y314044D01*
X287936Y315607D01*
X289979Y316453D01*
X292189Y316453D01*
X294232Y315607D01*
X294432Y315407D01*
X294531Y315328D01*
X294624Y315244D01*
X294667Y315220D01*
X294705Y315190D01*
X294819Y315136D01*
X294929Y315075D01*
X294976Y315062D01*
X295020Y315041D01*
X295143Y315015D01*
X295265Y314980D01*
X295326Y314975D01*
X295360Y314968D01*
X295408Y314969D01*
X295509Y314961D01*
X369541Y314961D01*
X369667Y314975D01*
X369793Y314982D01*
X369840Y314995D01*
X369888Y315001D01*
X370007Y315043D01*
X370128Y315078D01*
X370170Y315102D01*
X370216Y315118D01*
X370322Y315187D01*
X370432Y315248D01*
X370478Y315288D01*
X370508Y315307D01*
X370542Y315342D01*
X370618Y315407D01*
X414589Y359378D01*
X414668Y359477D01*
X414752Y359570D01*
X414776Y359613D01*
X414806Y359651D01*
X414860Y359765D01*
X414921Y359875D01*
X414934Y359922D01*
X414955Y359966D01*
X414981Y360089D01*
X415016Y360211D01*
X415021Y360272D01*
X415028Y360306D01*
X415027Y360354D01*
X415035Y360455D01*
X415035Y377591D01*
X415024Y377691D01*
X415022Y377792D01*
X415004Y377864D01*
X414995Y377938D01*
X414961Y378032D01*
X414937Y378130D01*
X414903Y378196D01*
X414878Y378266D01*
X414823Y378350D01*
X414777Y378439D01*
X414729Y378496D01*
X414689Y378559D01*
X414617Y378628D01*
X414552Y378705D01*
X414492Y378749D01*
X414438Y378801D01*
X414352Y378852D01*
X414271Y378912D01*
X414203Y378941D01*
X414139Y378980D01*
X414043Y379010D01*
X413951Y379050D01*
X413878Y379063D01*
X413807Y379086D01*
X413707Y379094D01*
X413608Y379112D01*
X413534Y379108D01*
X413460Y379114D01*
X413360Y379099D01*
X413260Y379094D01*
X413189Y379073D01*
X413115Y379062D01*
X413022Y379025D01*
X412925Y378997D01*
X412860Y378961D01*
X412791Y378933D01*
X412709Y378876D01*
X412621Y378827D01*
X412545Y378762D01*
X412505Y378734D01*
X412481Y378708D01*
X412435Y378669D01*
X411580Y377813D01*
X409537Y376967D01*
X407327Y376967D01*
X405284Y377813D01*
X403721Y379376D01*
X402875Y381419D01*
X402875Y381701D01*
X402861Y381827D01*
X402854Y381953D01*
X402841Y382000D01*
X402835Y382048D01*
X402793Y382167D01*
X402758Y382288D01*
X402734Y382330D01*
X402718Y382376D01*
X402649Y382482D01*
X402588Y382592D01*
X402548Y382639D01*
X402529Y382669D01*
X402494Y382702D01*
X402429Y382778D01*
X357918Y427289D01*
X357819Y427368D01*
X357726Y427452D01*
X357683Y427476D01*
X357645Y427506D01*
X357531Y427560D01*
X357421Y427621D01*
X357374Y427634D01*
X357330Y427655D01*
X357207Y427681D01*
X357085Y427716D01*
X357024Y427721D01*
X356990Y427728D01*
X356942Y427727D01*
X356841Y427735D01*
X274173Y427735D01*
X274073Y427724D01*
X273972Y427722D01*
X273900Y427704D01*
X273826Y427695D01*
X273732Y427662D01*
X273634Y427637D01*
X273568Y427603D01*
X273498Y427578D01*
X273414Y427523D01*
X273325Y427477D01*
X273268Y427429D01*
X273205Y427389D01*
X273136Y427317D01*
X273059Y427252D01*
X273015Y427192D01*
X272963Y427138D01*
X272912Y427052D01*
X272852Y426971D01*
X272823Y426903D01*
X272784Y426839D01*
X272754Y426743D01*
X272714Y426651D01*
X272701Y426578D01*
X272678Y426507D01*
X272670Y426407D01*
X272652Y426308D01*
X272656Y426234D01*
X272650Y426160D01*
X272665Y426060D01*
X272670Y425960D01*
X272691Y425889D01*
X272702Y425815D01*
X272739Y425722D01*
X272767Y425625D01*
X272803Y425560D01*
X272831Y425491D01*
X272888Y425409D01*
X272937Y425321D01*
X273002Y425245D01*
X273030Y425205D01*
X273056Y425181D01*
X273095Y425135D01*
X274459Y423772D01*
X275305Y421729D01*
X275305Y419519D01*
X274459Y417476D01*
X272896Y415913D01*
X270853Y415067D01*
X270571Y415067D01*
X270445Y415053D01*
X270319Y415046D01*
X270281Y415035D01*
X97389Y415035D01*
X97263Y415021D01*
X97137Y415014D01*
X97090Y415001D01*
X97042Y414995D01*
X96923Y414953D01*
X96802Y414918D01*
X96760Y414894D01*
X96714Y414878D01*
X96608Y414809D01*
X96498Y414748D01*
X96451Y414708D01*
X96421Y414689D01*
X96388Y414654D01*
X96312Y414589D01*
X96112Y414389D01*
X94069Y413543D01*
X91859Y413543D01*
X89816Y414389D01*
X88253Y415952D01*
X87407Y417995D01*
X87407Y420205D01*
X88253Y422248D01*
X89816Y423811D01*
X91859Y424657D01*
X94069Y424657D01*
X96112Y423811D01*
X96312Y423611D01*
X96411Y423532D01*
X96504Y423448D01*
X96547Y423424D01*
X96585Y423394D01*
X96699Y423340D01*
X96809Y423279D01*
X96856Y423266D01*
X96900Y423245D01*
X97023Y423219D01*
X97145Y423184D01*
X97206Y423179D01*
X97240Y423172D01*
X97288Y423173D01*
X97389Y423165D01*
X263799Y423165D01*
X263925Y423179D01*
X264051Y423186D01*
X264098Y423199D01*
X264146Y423205D01*
X264265Y423247D01*
X264386Y423282D01*
X264428Y423306D01*
X264474Y423322D01*
X264580Y423391D01*
X264690Y423452D01*
X264737Y423492D01*
X264767Y423511D01*
X264800Y423546D01*
X264876Y423611D01*
X266401Y425135D01*
X266463Y425214D01*
X266533Y425286D01*
X266571Y425350D01*
X266617Y425408D01*
X266660Y425499D01*
X266712Y425585D01*
X266734Y425656D01*
X266766Y425723D01*
X266787Y425821D01*
X266818Y425917D01*
X266824Y425991D01*
X266839Y426064D01*
X266838Y426164D01*
X266846Y426264D01*
X266835Y426338D01*
X266833Y426412D01*
X266809Y426509D01*
X266794Y426609D01*
X266767Y426678D01*
X266748Y426750D01*
X266702Y426839D01*
X266665Y426933D01*
X266623Y426994D01*
X266589Y427060D01*
X266524Y427136D01*
X266466Y427219D01*
X266411Y427269D01*
X266363Y427325D01*
X266282Y427385D01*
X266208Y427452D01*
X266143Y427488D01*
X266083Y427533D01*
X265991Y427572D01*
X265903Y427621D01*
X265831Y427641D01*
X265763Y427671D01*
X265664Y427688D01*
X265567Y427716D01*
X265467Y427724D01*
X265420Y427732D01*
X265384Y427730D01*
X265323Y427735D01*
X41194Y427735D01*
X41119Y427727D01*
X41042Y427728D01*
X40946Y427707D01*
X40848Y427695D01*
X40776Y427670D01*
X40702Y427653D01*
X40613Y427611D01*
X40520Y427578D01*
X40456Y427536D01*
X40387Y427504D01*
X40310Y427442D01*
X40227Y427389D01*
X40174Y427334D01*
X40115Y427286D01*
X40054Y427209D01*
X39985Y427138D01*
X39946Y427073D01*
X39899Y427013D01*
X39856Y426930D01*
X37404Y424478D01*
X34230Y423163D01*
X16570Y423163D01*
X13396Y424478D01*
X10966Y426908D01*
X9651Y430082D01*
X9651Y433518D01*
X10966Y436692D01*
X13396Y439122D01*
X16570Y440437D01*
X34230Y440437D01*
X37404Y439122D01*
X39848Y436678D01*
X39853Y436667D01*
X39909Y436586D01*
X39957Y436500D01*
X40008Y436444D01*
X40051Y436381D01*
X40124Y436315D01*
X40191Y436242D01*
X40254Y436199D01*
X40310Y436148D01*
X40396Y436100D01*
X40477Y436044D01*
X40548Y436016D01*
X40615Y435979D01*
X40710Y435952D01*
X40802Y435916D01*
X40877Y435905D01*
X40951Y435884D01*
X41100Y435872D01*
X41146Y435865D01*
X41165Y435867D01*
X41194Y435865D01*
X360840Y435865D01*
X363667Y433038D01*
X408178Y388527D01*
X408277Y388448D01*
X408370Y388364D01*
X408413Y388340D01*
X408451Y388310D01*
X408565Y388256D01*
X408675Y388195D01*
X408722Y388182D01*
X408766Y388161D01*
X408889Y388135D01*
X409011Y388100D01*
X409072Y388095D01*
X409106Y388088D01*
X409154Y388089D01*
X409255Y388081D01*
X409537Y388081D01*
X411580Y387235D01*
X412435Y386379D01*
X412514Y386317D01*
X412586Y386247D01*
X412650Y386209D01*
X412708Y386163D01*
X412799Y386120D01*
X412885Y386068D01*
X412956Y386046D01*
X413023Y386014D01*
X413121Y385993D01*
X413217Y385962D01*
X413291Y385956D01*
X413364Y385941D01*
X413464Y385942D01*
X413564Y385934D01*
X413638Y385945D01*
X413712Y385947D01*
X413809Y385971D01*
X413909Y385986D01*
X413978Y386013D01*
X414050Y386032D01*
X414139Y386078D01*
X414233Y386115D01*
X414294Y386157D01*
X414360Y386191D01*
X414436Y386256D01*
X414519Y386314D01*
X414569Y386369D01*
X414625Y386417D01*
X414685Y386498D01*
X414752Y386572D01*
X414788Y386637D01*
X414833Y386697D01*
X414872Y386789D01*
X414921Y386877D01*
X414941Y386949D01*
X414971Y387017D01*
X414988Y387116D01*
X415016Y387213D01*
X415024Y387313D01*
X415032Y387360D01*
X415030Y387396D01*
X415035Y387457D01*
X415035Y396973D01*
X415021Y397099D01*
X415014Y397225D01*
X415001Y397272D01*
X414995Y397320D01*
X414953Y397439D01*
X414918Y397560D01*
X414894Y397602D01*
X414878Y397648D01*
X414809Y397754D01*
X414748Y397864D01*
X414708Y397910D01*
X414689Y397940D01*
X414654Y397974D01*
X414589Y398050D01*
X407415Y405224D01*
X407415Y455836D01*
X417637Y466058D01*
X417716Y466157D01*
X417800Y466250D01*
X417824Y466293D01*
X417854Y466331D01*
X417908Y466445D01*
X417969Y466555D01*
X417982Y466602D01*
X418003Y466646D01*
X418029Y466769D01*
X418064Y466891D01*
X418069Y466952D01*
X418076Y466986D01*
X418075Y467034D01*
X418083Y467135D01*
X418083Y490875D01*
X418069Y491001D01*
X418062Y491127D01*
X418049Y491174D01*
X418043Y491222D01*
X418001Y491341D01*
X417966Y491462D01*
X417942Y491504D01*
X417926Y491550D01*
X417857Y491656D01*
X417796Y491766D01*
X417756Y491813D01*
X417737Y491843D01*
X417702Y491876D01*
X417637Y491952D01*
X417437Y492152D01*
X416591Y494195D01*
X416591Y496405D01*
X416739Y496762D01*
X416753Y496811D01*
X416775Y496856D01*
X416801Y496978D01*
X416835Y497097D01*
X416837Y497148D01*
X416848Y497197D01*
X416846Y497321D01*
X416852Y497445D01*
X416843Y497495D01*
X416842Y497545D01*
X416812Y497666D01*
X416789Y497788D01*
X416769Y497834D01*
X416757Y497883D01*
X416700Y497994D01*
X416650Y498108D01*
X416620Y498148D01*
X416597Y498193D01*
X416517Y498288D01*
X416443Y498388D01*
X416404Y498420D01*
X416371Y498459D01*
X416272Y498533D01*
X416177Y498613D01*
X416132Y498636D01*
X416091Y498666D01*
X415977Y498715D01*
X415866Y498772D01*
X415817Y498784D01*
X415771Y498804D01*
X415649Y498826D01*
X415528Y498856D01*
X415478Y498857D01*
X415428Y498865D01*
X415304Y498859D01*
X415180Y498861D01*
X415130Y498850D01*
X415080Y498848D01*
X414961Y498813D01*
X414839Y498787D01*
X414794Y498765D01*
X414745Y498751D01*
X414637Y498690D01*
X414524Y498637D01*
X414485Y498605D01*
X414441Y498581D01*
X414255Y498422D01*
X396400Y480567D01*
X274173Y480567D01*
X274047Y480553D01*
X273921Y480546D01*
X273874Y480533D01*
X273826Y480527D01*
X273707Y480485D01*
X273586Y480450D01*
X273544Y480426D01*
X273498Y480410D01*
X273392Y480341D01*
X273282Y480280D01*
X273235Y480240D01*
X273205Y480221D01*
X273172Y480186D01*
X273096Y480121D01*
X272896Y479921D01*
X270853Y479075D01*
X268643Y479075D01*
X266600Y479921D01*
X265037Y481484D01*
X264191Y483527D01*
X264191Y485737D01*
X265037Y487780D01*
X266600Y489343D01*
X268643Y490189D01*
X270853Y490189D01*
X272896Y489343D01*
X273096Y489143D01*
X273195Y489064D01*
X273288Y488980D01*
X273331Y488956D01*
X273369Y488926D01*
X273483Y488872D01*
X273593Y488811D01*
X273640Y488798D01*
X273684Y488777D01*
X273807Y488751D01*
X273929Y488716D01*
X273990Y488711D01*
X274024Y488704D01*
X274072Y488705D01*
X274173Y488697D01*
X392401Y488697D01*
X392527Y488711D01*
X392653Y488718D01*
X392700Y488731D01*
X392748Y488737D01*
X392867Y488779D01*
X392988Y488814D01*
X393030Y488838D01*
X393076Y488854D01*
X393182Y488923D01*
X393292Y488984D01*
X393338Y489024D01*
X393368Y489043D01*
X393402Y489078D01*
X393478Y489143D01*
X416145Y511810D01*
X416224Y511909D01*
X416308Y512002D01*
X416332Y512045D01*
X416362Y512083D01*
X416416Y512197D01*
X416477Y512307D01*
X416490Y512354D01*
X416511Y512398D01*
X416537Y512521D01*
X416572Y512643D01*
X416577Y512704D01*
X416584Y512738D01*
X416583Y512786D01*
X416591Y512887D01*
X416591Y513169D01*
X417437Y515212D01*
X419000Y516775D01*
X421043Y517621D01*
X423253Y517621D01*
X425296Y516775D01*
X426859Y515212D01*
X427705Y513169D01*
X427705Y510959D01*
X426859Y508916D01*
X425296Y507353D01*
X423253Y506507D01*
X422971Y506507D01*
X422845Y506493D01*
X422719Y506486D01*
X422672Y506473D01*
X422624Y506467D01*
X422505Y506425D01*
X422384Y506390D01*
X422342Y506366D01*
X422296Y506350D01*
X422190Y506281D01*
X422080Y506220D01*
X422034Y506180D01*
X422004Y506161D01*
X421970Y506126D01*
X421894Y506061D01*
X419026Y503193D01*
X418994Y503154D01*
X418957Y503120D01*
X418886Y503018D01*
X418809Y502920D01*
X418788Y502875D01*
X418759Y502833D01*
X418713Y502717D01*
X418660Y502605D01*
X418650Y502556D01*
X418631Y502509D01*
X418613Y502386D01*
X418587Y502264D01*
X418588Y502214D01*
X418580Y502164D01*
X418591Y502040D01*
X418593Y501916D01*
X418605Y501867D01*
X418609Y501817D01*
X418647Y501699D01*
X418678Y501578D01*
X418701Y501533D01*
X418716Y501485D01*
X418780Y501379D01*
X418837Y501268D01*
X418870Y501230D01*
X418896Y501187D01*
X418983Y501097D01*
X419063Y501003D01*
X419104Y500973D01*
X419139Y500937D01*
X419244Y500869D01*
X419343Y500796D01*
X419390Y500776D01*
X419432Y500748D01*
X419549Y500707D01*
X419663Y500658D01*
X419713Y500649D01*
X419761Y500632D01*
X419884Y500618D01*
X420006Y500596D01*
X420057Y500598D01*
X420107Y500593D01*
X420230Y500607D01*
X420355Y500614D01*
X420403Y500628D01*
X420453Y500634D01*
X420686Y500709D01*
X421043Y500857D01*
X423253Y500857D01*
X425296Y500011D01*
X426859Y498448D01*
X427705Y496405D01*
X427705Y494195D01*
X426859Y492152D01*
X426659Y491952D01*
X426580Y491853D01*
X426496Y491760D01*
X426472Y491717D01*
X426442Y491679D01*
X426388Y491565D01*
X426327Y491455D01*
X426314Y491408D01*
X426293Y491364D01*
X426267Y491241D01*
X426232Y491119D01*
X426227Y491058D01*
X426220Y491024D01*
X426221Y490976D01*
X426213Y490875D01*
X426213Y463136D01*
X415991Y452914D01*
X415912Y452815D01*
X415828Y452722D01*
X415804Y452679D01*
X415774Y452641D01*
X415720Y452527D01*
X415659Y452417D01*
X415646Y452370D01*
X415625Y452326D01*
X415599Y452203D01*
X415564Y452081D01*
X415559Y452020D01*
X415552Y451986D01*
X415553Y451938D01*
X415545Y451837D01*
X415545Y409223D01*
X415559Y409097D01*
X415566Y408971D01*
X415579Y408924D01*
X415585Y408876D01*
X415627Y408757D01*
X415662Y408636D01*
X415686Y408594D01*
X415702Y408548D01*
X415771Y408442D01*
X415832Y408332D01*
X415872Y408286D01*
X415891Y408256D01*
X415926Y408222D01*
X415991Y408146D01*
X420338Y403799D01*
X423103Y401033D01*
X423181Y400971D01*
X423254Y400901D01*
X423318Y400863D01*
X423376Y400817D01*
X423467Y400774D01*
X423553Y400722D01*
X423624Y400700D01*
X423691Y400668D01*
X423789Y400647D01*
X423885Y400616D01*
X423959Y400610D01*
X424032Y400595D01*
X424132Y400596D01*
X424232Y400588D01*
X424306Y400599D01*
X424380Y400601D01*
X424477Y400625D01*
X424577Y400640D01*
X424646Y400667D01*
X424718Y400686D01*
X424807Y400732D01*
X424901Y400769D01*
X424962Y400811D01*
X425028Y400845D01*
X425104Y400910D01*
X425187Y400968D01*
X425237Y401023D01*
X425293Y401071D01*
X425353Y401152D01*
X425420Y401226D01*
X425456Y401291D01*
X425501Y401351D01*
X425540Y401444D01*
X425589Y401531D01*
X425609Y401603D01*
X425639Y401671D01*
X425656Y401770D01*
X425684Y401867D01*
X425692Y401967D01*
X425700Y402014D01*
X425698Y402050D01*
X425703Y402111D01*
X425703Y418585D01*
X425695Y418661D01*
X425696Y418737D01*
X425675Y418833D01*
X425663Y418931D01*
X425638Y419003D01*
X425621Y419078D01*
X425579Y419166D01*
X425546Y419259D01*
X425504Y419323D01*
X425472Y419392D01*
X425410Y419469D01*
X425357Y419552D01*
X425302Y419605D01*
X425254Y419665D01*
X425177Y419726D01*
X425106Y419794D01*
X425041Y419833D01*
X424981Y419881D01*
X424848Y419949D01*
X424807Y419973D01*
X424789Y419979D01*
X424763Y419992D01*
X423572Y420485D01*
X422009Y422048D01*
X421163Y424091D01*
X421163Y426301D01*
X422009Y428344D01*
X423572Y429907D01*
X425615Y430753D01*
X427825Y430753D01*
X429868Y429907D01*
X431431Y428344D01*
X432277Y426301D01*
X432277Y426019D01*
X432291Y425893D01*
X432298Y425767D01*
X432311Y425720D01*
X432317Y425672D01*
X432359Y425553D01*
X432394Y425432D01*
X432418Y425390D01*
X432434Y425344D01*
X432503Y425238D01*
X432564Y425128D01*
X432604Y425082D01*
X432623Y425052D01*
X432658Y425018D01*
X432723Y424942D01*
X433833Y423832D01*
X433833Y386605D01*
X433838Y386555D01*
X433836Y386505D01*
X433858Y386383D01*
X433873Y386259D01*
X433890Y386212D01*
X433899Y386162D01*
X433948Y386048D01*
X433990Y385931D01*
X434017Y385889D01*
X434037Y385843D01*
X434112Y385743D01*
X434179Y385638D01*
X434215Y385603D01*
X434245Y385563D01*
X434340Y385483D01*
X434430Y385396D01*
X434473Y385370D01*
X434511Y385338D01*
X434622Y385281D01*
X434729Y385217D01*
X434777Y385202D01*
X434822Y385179D01*
X434942Y385149D01*
X435061Y385111D01*
X435111Y385107D01*
X435160Y385095D01*
X435284Y385093D01*
X435408Y385083D01*
X435458Y385090D01*
X435508Y385090D01*
X435630Y385116D01*
X435753Y385135D01*
X435800Y385153D01*
X435849Y385164D01*
X435961Y385217D01*
X436077Y385263D01*
X436118Y385292D01*
X436164Y385314D01*
X436261Y385391D01*
X436363Y385462D01*
X436397Y385500D01*
X436436Y385531D01*
X436513Y385629D01*
X436596Y385721D01*
X436621Y385765D01*
X436652Y385805D01*
X436763Y386022D01*
X437144Y386942D01*
X437145Y386944D01*
X437146Y386946D01*
X437192Y387111D01*
X437240Y387277D01*
X437240Y387279D01*
X437241Y387281D01*
X437260Y387525D01*
X437260Y509486D01*
X437246Y509612D01*
X437239Y509738D01*
X437226Y509785D01*
X437220Y509833D01*
X437178Y509952D01*
X437143Y510073D01*
X437119Y510115D01*
X437103Y510161D01*
X437034Y510267D01*
X436973Y510377D01*
X436933Y510423D01*
X436914Y510453D01*
X436879Y510487D01*
X436814Y510563D01*
X425219Y522158D01*
X425120Y522237D01*
X425027Y522321D01*
X424984Y522345D01*
X424946Y522375D01*
X424832Y522429D01*
X424722Y522490D01*
X424675Y522503D01*
X424631Y522524D01*
X424508Y522550D01*
X424386Y522585D01*
X424325Y522590D01*
X424291Y522597D01*
X424243Y522596D01*
X424142Y522604D01*
X409428Y522604D01*
X409328Y522593D01*
X409227Y522591D01*
X409155Y522573D01*
X409081Y522564D01*
X408987Y522531D01*
X408889Y522506D01*
X408823Y522472D01*
X408753Y522447D01*
X408669Y522392D01*
X408580Y522346D01*
X408523Y522298D01*
X408460Y522258D01*
X408391Y522186D01*
X408314Y522121D01*
X408270Y522061D01*
X408218Y522007D01*
X408167Y521921D01*
X408107Y521840D01*
X408078Y521772D01*
X408039Y521708D01*
X408009Y521612D01*
X407969Y521520D01*
X407956Y521447D01*
X407933Y521376D01*
X407925Y521276D01*
X407907Y521177D01*
X407911Y521103D01*
X407905Y521029D01*
X407920Y520929D01*
X407925Y520829D01*
X407946Y520758D01*
X407957Y520684D01*
X407994Y520591D01*
X408022Y520494D01*
X408058Y520429D01*
X408086Y520360D01*
X408143Y520278D01*
X408192Y520190D01*
X408257Y520114D01*
X408285Y520074D01*
X408311Y520050D01*
X408350Y520004D01*
X410095Y518260D01*
X410941Y516217D01*
X410941Y514007D01*
X410095Y511964D01*
X408532Y510401D01*
X406489Y509555D01*
X406207Y509555D01*
X406081Y509541D01*
X405955Y509534D01*
X405908Y509521D01*
X405860Y509515D01*
X405741Y509473D01*
X405620Y509438D01*
X405578Y509414D01*
X405532Y509398D01*
X405426Y509329D01*
X405316Y509268D01*
X405270Y509228D01*
X405240Y509209D01*
X405206Y509174D01*
X405130Y509109D01*
X399448Y503427D01*
X253775Y503427D01*
X253649Y503413D01*
X253523Y503406D01*
X253476Y503393D01*
X253428Y503387D01*
X253309Y503345D01*
X253188Y503310D01*
X253146Y503286D01*
X253100Y503270D01*
X252994Y503201D01*
X252884Y503140D01*
X252838Y503100D01*
X252808Y503081D01*
X252774Y503046D01*
X252698Y502981D01*
X248319Y498602D01*
X248240Y498503D01*
X248156Y498410D01*
X248132Y498367D01*
X248102Y498329D01*
X248048Y498215D01*
X247987Y498105D01*
X247974Y498058D01*
X247953Y498014D01*
X247927Y497891D01*
X247892Y497769D01*
X247887Y497708D01*
X247880Y497674D01*
X247881Y497626D01*
X247873Y497525D01*
X247873Y497243D01*
X247027Y495200D01*
X245464Y493637D01*
X243421Y492791D01*
X241211Y492791D01*
X239168Y493637D01*
X237605Y495200D01*
X236796Y497153D01*
X236759Y497220D01*
X236731Y497291D01*
X236675Y497372D01*
X236627Y497458D01*
X236576Y497514D01*
X236532Y497577D01*
X236459Y497643D01*
X236393Y497716D01*
X236330Y497759D01*
X236273Y497810D01*
X236187Y497858D01*
X236106Y497914D01*
X236035Y497942D01*
X235968Y497979D01*
X235874Y498006D01*
X235782Y498042D01*
X235707Y498053D01*
X235633Y498074D01*
X235484Y498086D01*
X235437Y498093D01*
X235418Y498091D01*
X235389Y498093D01*
X102723Y498093D01*
X102597Y498079D01*
X102471Y498072D01*
X102424Y498059D01*
X102376Y498053D01*
X102257Y498011D01*
X102136Y497976D01*
X102094Y497952D01*
X102048Y497936D01*
X101942Y497867D01*
X101832Y497806D01*
X101785Y497766D01*
X101755Y497747D01*
X101722Y497712D01*
X101646Y497647D01*
X101446Y497447D01*
X99403Y496601D01*
X97193Y496601D01*
X95150Y497447D01*
X93587Y499010D01*
X92741Y501053D01*
X92741Y503263D01*
X93587Y505306D01*
X95150Y506869D01*
X97193Y507715D01*
X99403Y507715D01*
X101446Y506869D01*
X101646Y506669D01*
X101745Y506590D01*
X101838Y506506D01*
X101881Y506482D01*
X101919Y506452D01*
X102033Y506398D01*
X102143Y506337D01*
X102190Y506324D01*
X102234Y506303D01*
X102357Y506277D01*
X102479Y506242D01*
X102540Y506237D01*
X102574Y506230D01*
X102622Y506231D01*
X102723Y506223D01*
X240190Y506223D01*
X241239Y505174D01*
X241259Y505157D01*
X241276Y505137D01*
X241396Y505049D01*
X241512Y504957D01*
X241536Y504946D01*
X241557Y504930D01*
X241693Y504871D01*
X241827Y504808D01*
X241853Y504802D01*
X241877Y504792D01*
X242023Y504766D01*
X242168Y504735D01*
X242194Y504735D01*
X242220Y504730D01*
X242368Y504738D01*
X242516Y504741D01*
X242542Y504747D01*
X242568Y504748D01*
X242710Y504789D01*
X242854Y504826D01*
X242877Y504838D01*
X242903Y504845D01*
X243032Y504917D01*
X243164Y504985D01*
X243184Y505002D01*
X243207Y505015D01*
X243393Y505174D01*
X249776Y511557D01*
X395449Y511557D01*
X395575Y511571D01*
X395701Y511578D01*
X395748Y511591D01*
X395796Y511597D01*
X395915Y511639D01*
X396036Y511674D01*
X396078Y511698D01*
X396124Y511714D01*
X396230Y511783D01*
X396340Y511844D01*
X396386Y511884D01*
X396416Y511903D01*
X396450Y511938D01*
X396526Y512003D01*
X399381Y514858D01*
X399460Y514957D01*
X399544Y515050D01*
X399568Y515093D01*
X399598Y515131D01*
X399652Y515245D01*
X399713Y515355D01*
X399726Y515402D01*
X399747Y515446D01*
X399773Y515569D01*
X399808Y515691D01*
X399813Y515752D01*
X399820Y515786D01*
X399819Y515834D01*
X399827Y515935D01*
X399827Y516217D01*
X400673Y518260D01*
X402418Y520004D01*
X402480Y520082D01*
X402550Y520155D01*
X402588Y520219D01*
X402634Y520277D01*
X402677Y520368D01*
X402729Y520454D01*
X402751Y520525D01*
X402783Y520592D01*
X402804Y520690D01*
X402835Y520786D01*
X402841Y520860D01*
X402856Y520933D01*
X402855Y521033D01*
X402863Y521133D01*
X402852Y521207D01*
X402850Y521281D01*
X402826Y521378D01*
X402811Y521478D01*
X402784Y521547D01*
X402765Y521619D01*
X402719Y521708D01*
X402682Y521802D01*
X402640Y521863D01*
X402606Y521929D01*
X402541Y522005D01*
X402483Y522088D01*
X402428Y522138D01*
X402380Y522194D01*
X402299Y522254D01*
X402225Y522321D01*
X402160Y522357D01*
X402100Y522402D01*
X402008Y522441D01*
X401920Y522490D01*
X401848Y522510D01*
X401780Y522540D01*
X401681Y522557D01*
X401584Y522585D01*
X401484Y522593D01*
X401437Y522601D01*
X401401Y522599D01*
X401340Y522604D01*
X389049Y522604D01*
X389047Y522604D01*
X389045Y522604D01*
X388874Y522584D01*
X388703Y522564D01*
X388701Y522564D01*
X388699Y522563D01*
X388466Y522488D01*
X386677Y521747D01*
X384467Y521747D01*
X382678Y522488D01*
X382676Y522489D01*
X382674Y522490D01*
X382507Y522537D01*
X382343Y522584D01*
X382341Y522584D01*
X382339Y522585D01*
X382095Y522604D01*
X290657Y522604D01*
X288930Y523320D01*
X255839Y556410D01*
X255819Y556427D01*
X255802Y556447D01*
X255682Y556535D01*
X255566Y556627D01*
X255542Y556638D01*
X255521Y556654D01*
X255385Y556713D01*
X255251Y556776D01*
X255225Y556782D01*
X255201Y556792D01*
X255055Y556818D01*
X254910Y556849D01*
X254884Y556849D01*
X254858Y556854D01*
X254710Y556846D01*
X254562Y556843D01*
X254536Y556837D01*
X254510Y556836D01*
X254368Y556795D01*
X254224Y556758D01*
X254200Y556746D01*
X254175Y556739D01*
X254046Y556667D01*
X253914Y556599D01*
X253894Y556582D01*
X253871Y556569D01*
X253685Y556410D01*
X222190Y524916D01*
X222189Y524914D01*
X222187Y524913D01*
X222079Y524776D01*
X221973Y524643D01*
X221972Y524641D01*
X221971Y524639D01*
X221860Y524421D01*
X221119Y522632D01*
X219556Y521069D01*
X217513Y520223D01*
X215303Y520223D01*
X213260Y521069D01*
X211697Y522632D01*
X210851Y524675D01*
X210851Y526885D01*
X211697Y528928D01*
X213260Y530491D01*
X215049Y531232D01*
X215051Y531233D01*
X215053Y531233D01*
X215204Y531317D01*
X215354Y531401D01*
X215355Y531402D01*
X215357Y531403D01*
X215544Y531562D01*
X248854Y564873D01*
X248933Y564972D01*
X249017Y565065D01*
X249041Y565108D01*
X249071Y565146D01*
X249125Y565260D01*
X249186Y565370D01*
X249199Y565417D01*
X249220Y565461D01*
X249246Y565584D01*
X249281Y565706D01*
X249286Y565767D01*
X249293Y565801D01*
X249292Y565849D01*
X249300Y565950D01*
X249300Y594343D01*
X249286Y594468D01*
X249279Y594594D01*
X249266Y594641D01*
X249260Y594689D01*
X249218Y594808D01*
X249183Y594929D01*
X249159Y594971D01*
X249143Y595017D01*
X249074Y595123D01*
X249013Y595233D01*
X248973Y595280D01*
X248954Y595310D01*
X248919Y595343D01*
X248854Y595420D01*
X246678Y597596D01*
X245363Y600770D01*
X245363Y618430D01*
X246678Y621604D01*
X249108Y624034D01*
X252282Y625349D01*
X255718Y625349D01*
X258892Y624034D01*
X261322Y621604D01*
X262637Y618430D01*
X262637Y600770D01*
X261322Y597596D01*
X259146Y595420D01*
X259067Y595321D01*
X258983Y595227D01*
X258959Y595185D01*
X258929Y595147D01*
X258875Y595033D01*
X258814Y594922D01*
X258801Y594875D01*
X258780Y594832D01*
X258754Y594708D01*
X258719Y594586D01*
X258714Y594526D01*
X258707Y594491D01*
X258708Y594443D01*
X258700Y594343D01*
X258700Y567474D01*
X258714Y567348D01*
X258721Y567222D01*
X258734Y567175D01*
X258740Y567127D01*
X258782Y567008D01*
X258817Y566887D01*
X258841Y566845D01*
X258857Y566799D01*
X258926Y566693D01*
X258987Y566583D01*
X259027Y566537D01*
X259046Y566507D01*
X259081Y566473D01*
X259146Y566397D01*
X293093Y532450D01*
X293192Y532371D01*
X293285Y532287D01*
X293328Y532263D01*
X293366Y532233D01*
X293480Y532179D01*
X293590Y532118D01*
X293637Y532105D01*
X293681Y532084D01*
X293804Y532058D01*
X293926Y532023D01*
X293987Y532018D01*
X294021Y532011D01*
X294069Y532012D01*
X294170Y532004D01*
X382095Y532004D01*
X382097Y532004D01*
X382099Y532004D01*
X382270Y532024D01*
X382441Y532044D01*
X382443Y532044D01*
X382445Y532045D01*
X382678Y532120D01*
X384467Y532861D01*
X386677Y532861D01*
X388466Y532120D01*
X388468Y532119D01*
X388470Y532118D01*
X388637Y532071D01*
X388801Y532024D01*
X388803Y532024D01*
X388805Y532023D01*
X389049Y532004D01*
X427655Y532004D01*
X429382Y531288D01*
X445944Y514726D01*
X446660Y512999D01*
X446660Y424451D01*
X446671Y424351D01*
X446673Y424251D01*
X446691Y424179D01*
X446700Y424105D01*
X446733Y424011D01*
X446758Y423913D01*
X446792Y423847D01*
X446817Y423777D01*
X446872Y423693D01*
X446918Y423603D01*
X446966Y423547D01*
X447006Y423484D01*
X447078Y423414D01*
X447143Y423338D01*
X447203Y423294D01*
X447257Y423242D01*
X447343Y423190D01*
X447424Y423131D01*
X447492Y423101D01*
X447556Y423063D01*
X447652Y423033D01*
X447744Y422993D01*
X447817Y422980D01*
X447888Y422957D01*
X447988Y422949D01*
X448087Y422931D01*
X448161Y422935D01*
X448235Y422929D01*
X448335Y422944D01*
X448435Y422949D01*
X448506Y422970D01*
X448580Y422981D01*
X448673Y423018D01*
X448770Y423046D01*
X448835Y423082D01*
X448904Y423109D01*
X448986Y423167D01*
X449074Y423216D01*
X449150Y423281D01*
X449190Y423308D01*
X449214Y423335D01*
X449260Y423374D01*
X453623Y427737D01*
X460777Y427737D01*
X465837Y422677D01*
X465837Y415523D01*
X460777Y410463D01*
X453623Y410463D01*
X449260Y414826D01*
X449182Y414888D01*
X449109Y414958D01*
X449045Y414996D01*
X448987Y415042D01*
X448896Y415085D01*
X448810Y415137D01*
X448739Y415159D01*
X448672Y415191D01*
X448574Y415212D01*
X448478Y415243D01*
X448404Y415249D01*
X448331Y415265D01*
X448231Y415263D01*
X448131Y415271D01*
X448057Y415260D01*
X447983Y415259D01*
X447886Y415234D01*
X447786Y415219D01*
X447717Y415192D01*
X447645Y415174D01*
X447555Y415128D01*
X447462Y415091D01*
X447401Y415048D01*
X447335Y415014D01*
X447258Y414949D01*
X447176Y414892D01*
X447126Y414837D01*
X447070Y414788D01*
X447010Y414707D01*
X446943Y414633D01*
X446907Y414568D01*
X446862Y414508D01*
X446823Y414416D01*
X446774Y414328D01*
X446754Y414256D01*
X446724Y414188D01*
X446707Y414089D01*
X446679Y413992D01*
X446671Y413892D01*
X446663Y413845D01*
X446665Y413809D01*
X446660Y413749D01*
X446660Y399051D01*
X446661Y399042D01*
X446661Y399041D01*
X446662Y399032D01*
X446671Y398951D01*
X446673Y398851D01*
X446691Y398779D01*
X446700Y398705D01*
X446733Y398611D01*
X446758Y398513D01*
X446792Y398447D01*
X446817Y398377D01*
X446872Y398293D01*
X446918Y398203D01*
X446966Y398147D01*
X447006Y398084D01*
X447078Y398014D01*
X447143Y397938D01*
X447203Y397894D01*
X447257Y397842D01*
X447343Y397790D01*
X447424Y397731D01*
X447492Y397701D01*
X447556Y397663D01*
X447652Y397633D01*
X447744Y397593D01*
X447817Y397580D01*
X447888Y397557D01*
X447988Y397549D01*
X448087Y397531D01*
X448161Y397535D01*
X448235Y397529D01*
X448335Y397544D01*
X448435Y397549D01*
X448506Y397570D01*
X448580Y397581D01*
X448673Y397618D01*
X448770Y397646D01*
X448835Y397682D01*
X448904Y397709D01*
X448986Y397767D01*
X449074Y397816D01*
X449150Y397881D01*
X449190Y397908D01*
X449214Y397935D01*
X449260Y397974D01*
X453623Y402337D01*
X460777Y402337D01*
X465837Y397277D01*
X465837Y390123D01*
X460777Y385063D01*
X453623Y385063D01*
X449260Y389426D01*
X449182Y389488D01*
X449109Y389558D01*
X449045Y389596D01*
X448987Y389642D01*
X448896Y389685D01*
X448810Y389737D01*
X448739Y389759D01*
X448672Y389791D01*
X448574Y389812D01*
X448478Y389843D01*
X448404Y389849D01*
X448331Y389865D01*
X448231Y389863D01*
X448131Y389871D01*
X448057Y389860D01*
X447983Y389859D01*
X447886Y389834D01*
X447786Y389819D01*
X447717Y389792D01*
X447645Y389774D01*
X447555Y389728D01*
X447462Y389691D01*
X447401Y389648D01*
X447335Y389614D01*
X447258Y389549D01*
X447176Y389492D01*
X447126Y389437D01*
X447070Y389388D01*
X447010Y389307D01*
X446943Y389233D01*
X446907Y389168D01*
X446862Y389108D01*
X446823Y389016D01*
X446774Y388928D01*
X446754Y388856D01*
X446724Y388788D01*
X446707Y388689D01*
X446679Y388592D01*
X446671Y388492D01*
X446663Y388445D01*
X446665Y388409D01*
X446660Y388349D01*
X446660Y387525D01*
X446660Y387523D01*
X446660Y387521D01*
X446680Y387350D01*
X446700Y387179D01*
X446700Y387177D01*
X446701Y387175D01*
X446776Y386942D01*
X447517Y385153D01*
X447517Y382943D01*
X446671Y380900D01*
X445108Y379337D01*
X443065Y378491D01*
X440855Y378491D01*
X438812Y379337D01*
X437249Y380900D01*
X436763Y382074D01*
X436739Y382118D01*
X436722Y382165D01*
X436654Y382270D01*
X436594Y382378D01*
X436560Y382415D01*
X436533Y382458D01*
X436443Y382544D01*
X436360Y382636D01*
X436318Y382665D01*
X436282Y382700D01*
X436175Y382764D01*
X436073Y382835D01*
X436026Y382853D01*
X435983Y382879D01*
X435865Y382917D01*
X435749Y382962D01*
X435699Y382970D01*
X435651Y382985D01*
X435527Y382995D01*
X435404Y383013D01*
X435354Y383009D01*
X435304Y383013D01*
X435181Y382995D01*
X435057Y382984D01*
X435009Y382969D01*
X434959Y382961D01*
X434844Y382915D01*
X434725Y382877D01*
X434682Y382851D01*
X434635Y382833D01*
X434533Y382762D01*
X434427Y382698D01*
X434390Y382662D01*
X434349Y382634D01*
X434266Y382541D01*
X434177Y382455D01*
X434149Y382412D01*
X434116Y382375D01*
X434056Y382266D01*
X433988Y382161D01*
X433971Y382114D01*
X433947Y382070D01*
X433913Y381950D01*
X433872Y381833D01*
X433866Y381783D01*
X433852Y381734D01*
X433833Y381491D01*
X433833Y321847D01*
X433847Y321721D01*
X433854Y321595D01*
X433867Y321548D01*
X433873Y321500D01*
X433915Y321381D01*
X433950Y321260D01*
X433974Y321218D01*
X433990Y321172D01*
X434059Y321066D01*
X434120Y320956D01*
X434160Y320910D01*
X434179Y320880D01*
X434214Y320846D01*
X434279Y320770D01*
X453866Y301183D01*
X453965Y301104D01*
X454058Y301020D01*
X454101Y300996D01*
X454139Y300966D01*
X454253Y300912D01*
X454363Y300851D01*
X454410Y300838D01*
X454454Y300817D01*
X454577Y300791D01*
X454699Y300756D01*
X454760Y300751D01*
X454794Y300744D01*
X454842Y300745D01*
X454943Y300737D01*
X460777Y300737D01*
X465837Y295677D01*
X465837Y288523D01*
X460777Y283463D01*
X453623Y283463D01*
X452504Y284582D01*
X452484Y284598D01*
X452467Y284618D01*
X452347Y284706D01*
X452231Y284798D01*
X452208Y284809D01*
X452186Y284825D01*
X452050Y284884D01*
X451916Y284947D01*
X451890Y284953D01*
X451866Y284963D01*
X451720Y284989D01*
X451575Y285021D01*
X451549Y285020D01*
X451523Y285025D01*
X451375Y285017D01*
X451227Y285015D01*
X451202Y285008D01*
X451175Y285007D01*
X451033Y284966D01*
X450889Y284930D01*
X450866Y284918D01*
X450840Y284910D01*
X450711Y284838D01*
X450579Y284770D01*
X450559Y284753D01*
X450536Y284740D01*
X450350Y284582D01*
X417483Y251714D01*
X417404Y251615D01*
X417320Y251522D01*
X417296Y251479D01*
X417266Y251441D01*
X417212Y251327D01*
X417151Y251217D01*
X417138Y251170D01*
X417117Y251126D01*
X417091Y251003D01*
X417056Y250881D01*
X417051Y250820D01*
X417044Y250786D01*
X417045Y250738D01*
X417037Y250637D01*
X417037Y250355D01*
X416191Y248312D01*
X414628Y246749D01*
X412585Y245903D01*
X410375Y245903D01*
X408332Y246749D01*
X408132Y246949D01*
X408033Y247028D01*
X407940Y247112D01*
X407897Y247136D01*
X407859Y247166D01*
X407745Y247220D01*
X407635Y247281D01*
X407588Y247294D01*
X407544Y247315D01*
X407421Y247341D01*
X407299Y247376D01*
X407238Y247381D01*
X407204Y247388D01*
X407156Y247387D01*
X407055Y247395D01*
X249789Y247395D01*
X249663Y247381D01*
X249537Y247374D01*
X249490Y247361D01*
X249442Y247355D01*
X249323Y247313D01*
X249202Y247278D01*
X249160Y247254D01*
X249114Y247238D01*
X249008Y247169D01*
X248898Y247108D01*
X248851Y247068D01*
X248821Y247049D01*
X248788Y247014D01*
X248712Y246949D01*
X248512Y246749D01*
X246469Y245903D01*
X244259Y245903D01*
X242216Y246749D01*
X240653Y248312D01*
X240167Y249486D01*
X240143Y249530D01*
X240126Y249577D01*
X240058Y249682D01*
X239998Y249790D01*
X239964Y249827D01*
X239937Y249870D01*
X239847Y249956D01*
X239764Y250048D01*
X239723Y250077D01*
X239686Y250112D01*
X239579Y250176D01*
X239477Y250247D01*
X239430Y250265D01*
X239387Y250291D01*
X239269Y250329D01*
X239153Y250374D01*
X239103Y250382D01*
X239055Y250397D01*
X238931Y250407D01*
X238808Y250425D01*
X238758Y250421D01*
X238708Y250425D01*
X238585Y250407D01*
X238461Y250396D01*
X238413Y250381D01*
X238363Y250373D01*
X238247Y250327D01*
X238129Y250289D01*
X238086Y250263D01*
X238039Y250245D01*
X237937Y250174D01*
X237831Y250110D01*
X237794Y250074D01*
X237753Y250046D01*
X237670Y249954D01*
X237581Y249867D01*
X237553Y249824D01*
X237520Y249787D01*
X237460Y249678D01*
X237392Y249573D01*
X237375Y249526D01*
X237351Y249482D01*
X237317Y249362D01*
X237276Y249245D01*
X237270Y249195D01*
X237256Y249146D01*
X237237Y248903D01*
X237237Y243107D01*
X237251Y242981D01*
X237258Y242855D01*
X237271Y242808D01*
X237277Y242760D01*
X237319Y242641D01*
X237354Y242520D01*
X237378Y242478D01*
X237394Y242432D01*
X237463Y242326D01*
X237524Y242216D01*
X237564Y242169D01*
X237583Y242139D01*
X237618Y242106D01*
X237683Y242030D01*
X243554Y236159D01*
X243653Y236080D01*
X243746Y235996D01*
X243789Y235972D01*
X243827Y235942D01*
X243941Y235888D01*
X244051Y235827D01*
X244098Y235814D01*
X244142Y235793D01*
X244265Y235767D01*
X244387Y235732D01*
X244448Y235727D01*
X244482Y235720D01*
X244530Y235721D01*
X244631Y235713D01*
X410103Y235713D01*
X410229Y235727D01*
X410355Y235734D01*
X410402Y235747D01*
X410450Y235753D01*
X410569Y235795D01*
X410690Y235830D01*
X410732Y235854D01*
X410778Y235870D01*
X410884Y235939D01*
X410994Y236000D01*
X411041Y236040D01*
X411071Y236059D01*
X411104Y236094D01*
X411180Y236159D01*
X411380Y236359D01*
X413423Y237205D01*
X415633Y237205D01*
X417676Y236359D01*
X419239Y234796D01*
X420085Y232753D01*
X420085Y230543D01*
X419239Y228500D01*
X417676Y226937D01*
X415633Y226091D01*
X413423Y226091D01*
G37*
%LPD*%
%LPC*%
G36*
X238163Y440975D02*
X238163Y440975D01*
X236120Y441821D01*
X235920Y442021D01*
X235821Y442100D01*
X235728Y442184D01*
X235685Y442208D01*
X235647Y442238D01*
X235533Y442292D01*
X235423Y442353D01*
X235376Y442366D01*
X235332Y442387D01*
X235209Y442413D01*
X235087Y442448D01*
X235026Y442453D01*
X234992Y442460D01*
X234944Y442459D01*
X234843Y442467D01*
X210152Y442467D01*
X201454Y451165D01*
X201355Y451244D01*
X201262Y451328D01*
X201219Y451352D01*
X201181Y451382D01*
X201067Y451436D01*
X200957Y451497D01*
X200910Y451510D01*
X200866Y451531D01*
X200743Y451557D01*
X200621Y451592D01*
X200560Y451597D01*
X200526Y451604D01*
X200478Y451603D01*
X200377Y451611D01*
X39768Y451611D01*
X39643Y451597D01*
X39517Y451590D01*
X39470Y451577D01*
X39422Y451571D01*
X39303Y451529D01*
X39182Y451494D01*
X39140Y451470D01*
X39094Y451454D01*
X38988Y451385D01*
X38878Y451324D01*
X38831Y451284D01*
X38801Y451265D01*
X38768Y451230D01*
X38691Y451165D01*
X37404Y449878D01*
X34230Y448563D01*
X16570Y448563D01*
X13396Y449878D01*
X10966Y452308D01*
X9651Y455482D01*
X9651Y458918D01*
X10966Y462092D01*
X13396Y464522D01*
X16570Y465837D01*
X34230Y465837D01*
X37404Y464522D01*
X39834Y462092D01*
X40418Y460681D01*
X40456Y460614D01*
X40484Y460543D01*
X40540Y460462D01*
X40588Y460376D01*
X40639Y460320D01*
X40683Y460257D01*
X40756Y460191D01*
X40822Y460118D01*
X40885Y460075D01*
X40942Y460024D01*
X41028Y459976D01*
X41109Y459920D01*
X41180Y459892D01*
X41247Y459855D01*
X41341Y459828D01*
X41433Y459792D01*
X41508Y459781D01*
X41582Y459760D01*
X41731Y459748D01*
X41778Y459741D01*
X41797Y459743D01*
X41826Y459741D01*
X204376Y459741D01*
X213074Y451043D01*
X213173Y450964D01*
X213266Y450880D01*
X213309Y450856D01*
X213347Y450826D01*
X213461Y450772D01*
X213571Y450711D01*
X213618Y450698D01*
X213662Y450677D01*
X213785Y450651D01*
X213907Y450616D01*
X213968Y450611D01*
X214002Y450604D01*
X214050Y450605D01*
X214151Y450597D01*
X232139Y450597D01*
X232189Y450602D01*
X232239Y450600D01*
X232361Y450622D01*
X232485Y450637D01*
X232532Y450654D01*
X232582Y450663D01*
X232696Y450712D01*
X232813Y450754D01*
X232855Y450781D01*
X232901Y450801D01*
X233001Y450876D01*
X233106Y450943D01*
X233141Y450979D01*
X233181Y451009D01*
X233261Y451104D01*
X233348Y451194D01*
X233374Y451237D01*
X233406Y451275D01*
X233463Y451386D01*
X233527Y451493D01*
X233542Y451541D01*
X233565Y451586D01*
X233595Y451706D01*
X233633Y451825D01*
X233637Y451875D01*
X233649Y451924D01*
X233651Y452048D01*
X233661Y452172D01*
X233654Y452222D01*
X233654Y452272D01*
X233628Y452394D01*
X233609Y452517D01*
X233591Y452564D01*
X233580Y452613D01*
X233527Y452725D01*
X233481Y452841D01*
X233452Y452882D01*
X233430Y452928D01*
X233353Y453025D01*
X233282Y453127D01*
X233244Y453161D01*
X233213Y453200D01*
X233115Y453277D01*
X233023Y453360D01*
X232979Y453385D01*
X232939Y453416D01*
X232722Y453527D01*
X231548Y454013D01*
X229985Y455576D01*
X229139Y457619D01*
X229139Y457901D01*
X229125Y458027D01*
X229118Y458153D01*
X229105Y458200D01*
X229099Y458248D01*
X229057Y458367D01*
X229022Y458488D01*
X228998Y458530D01*
X228982Y458576D01*
X228913Y458682D01*
X228852Y458792D01*
X228812Y458838D01*
X228793Y458868D01*
X228758Y458902D01*
X228693Y458978D01*
X221266Y466405D01*
X221167Y466484D01*
X221074Y466568D01*
X221031Y466592D01*
X220993Y466622D01*
X220879Y466676D01*
X220769Y466737D01*
X220722Y466750D01*
X220678Y466771D01*
X220555Y466797D01*
X220433Y466832D01*
X220372Y466837D01*
X220338Y466844D01*
X220290Y466843D01*
X220189Y466851D01*
X103485Y466851D01*
X103359Y466837D01*
X103233Y466830D01*
X103186Y466817D01*
X103138Y466811D01*
X103019Y466769D01*
X102898Y466734D01*
X102856Y466710D01*
X102810Y466694D01*
X102704Y466625D01*
X102594Y466564D01*
X102547Y466524D01*
X102517Y466505D01*
X102484Y466470D01*
X102408Y466405D01*
X102208Y466205D01*
X100165Y465359D01*
X97955Y465359D01*
X95912Y466205D01*
X94349Y467768D01*
X93503Y469811D01*
X93503Y472021D01*
X94349Y474064D01*
X95921Y475636D01*
X95951Y475646D01*
X96055Y475714D01*
X96164Y475774D01*
X96201Y475808D01*
X96243Y475835D01*
X96330Y475925D01*
X96422Y476008D01*
X96451Y476050D01*
X96486Y476086D01*
X96549Y476193D01*
X96620Y476295D01*
X96639Y476342D01*
X96664Y476385D01*
X96702Y476503D01*
X96748Y476619D01*
X96755Y476669D01*
X96771Y476717D01*
X96781Y476841D01*
X96799Y476964D01*
X96795Y477014D01*
X96799Y477064D01*
X96780Y477187D01*
X96770Y477311D01*
X96754Y477359D01*
X96747Y477409D01*
X96701Y477525D01*
X96663Y477643D01*
X96637Y477686D01*
X96618Y477733D01*
X96547Y477835D01*
X96483Y477941D01*
X96448Y477978D01*
X96419Y478019D01*
X96327Y478102D01*
X96240Y478191D01*
X96198Y478219D01*
X96160Y478252D01*
X96052Y478312D01*
X95947Y478380D01*
X95899Y478397D01*
X95855Y478421D01*
X95736Y478455D01*
X95619Y478496D01*
X95569Y478502D01*
X95520Y478516D01*
X95276Y478535D01*
X41194Y478535D01*
X41119Y478527D01*
X41042Y478528D01*
X40946Y478507D01*
X40848Y478495D01*
X40776Y478470D01*
X40702Y478453D01*
X40613Y478411D01*
X40520Y478378D01*
X40456Y478336D01*
X40387Y478304D01*
X40310Y478242D01*
X40227Y478189D01*
X40174Y478134D01*
X40115Y478086D01*
X40054Y478009D01*
X39985Y477938D01*
X39946Y477873D01*
X39899Y477813D01*
X39856Y477730D01*
X37404Y475278D01*
X34230Y473963D01*
X16570Y473963D01*
X13396Y475278D01*
X10966Y477708D01*
X9651Y480882D01*
X9651Y484318D01*
X10966Y487492D01*
X13396Y489922D01*
X16570Y491237D01*
X34230Y491237D01*
X37404Y489922D01*
X39848Y487478D01*
X39853Y487467D01*
X39909Y487386D01*
X39957Y487300D01*
X40008Y487244D01*
X40051Y487181D01*
X40124Y487115D01*
X40191Y487042D01*
X40254Y486999D01*
X40310Y486948D01*
X40396Y486900D01*
X40477Y486844D01*
X40548Y486816D01*
X40615Y486779D01*
X40710Y486752D01*
X40802Y486716D01*
X40877Y486705D01*
X40951Y486684D01*
X41100Y486672D01*
X41146Y486665D01*
X41165Y486667D01*
X41194Y486665D01*
X250427Y486665D01*
X250429Y486665D01*
X250431Y486665D01*
X250601Y486685D01*
X250773Y486705D01*
X250775Y486705D01*
X250777Y486706D01*
X251010Y486781D01*
X251879Y487141D01*
X254089Y487141D01*
X256132Y486295D01*
X257695Y484732D01*
X258541Y482689D01*
X258541Y480479D01*
X257695Y478436D01*
X256132Y476873D01*
X254958Y476387D01*
X254914Y476363D01*
X254867Y476346D01*
X254762Y476278D01*
X254654Y476218D01*
X254617Y476184D01*
X254574Y476157D01*
X254488Y476067D01*
X254396Y475984D01*
X254367Y475942D01*
X254332Y475906D01*
X254268Y475799D01*
X254197Y475697D01*
X254179Y475650D01*
X254153Y475607D01*
X254115Y475489D01*
X254070Y475373D01*
X254062Y475323D01*
X254047Y475275D01*
X254037Y475151D01*
X254019Y475028D01*
X254023Y474978D01*
X254019Y474928D01*
X254037Y474805D01*
X254048Y474681D01*
X254063Y474633D01*
X254071Y474583D01*
X254117Y474468D01*
X254155Y474349D01*
X254181Y474306D01*
X254199Y474259D01*
X254270Y474157D01*
X254334Y474051D01*
X254370Y474014D01*
X254398Y473973D01*
X254491Y473890D01*
X254577Y473801D01*
X254620Y473773D01*
X254657Y473740D01*
X254766Y473680D01*
X254871Y473612D01*
X254918Y473595D01*
X254962Y473571D01*
X255082Y473537D01*
X255199Y473496D01*
X255249Y473490D01*
X255298Y473476D01*
X255541Y473457D01*
X400959Y473457D01*
X401085Y473471D01*
X401211Y473478D01*
X401258Y473491D01*
X401306Y473497D01*
X401425Y473539D01*
X401546Y473574D01*
X401588Y473598D01*
X401634Y473614D01*
X401740Y473683D01*
X401850Y473744D01*
X401897Y473784D01*
X401927Y473803D01*
X401960Y473838D01*
X402036Y473903D01*
X403760Y475627D01*
X405803Y476473D01*
X408013Y476473D01*
X410056Y475627D01*
X411619Y474064D01*
X412465Y472021D01*
X412465Y469811D01*
X411619Y467768D01*
X410056Y466205D01*
X408013Y465359D01*
X407731Y465359D01*
X407605Y465345D01*
X407479Y465338D01*
X407441Y465327D01*
X239629Y465327D01*
X239529Y465316D01*
X239428Y465314D01*
X239356Y465296D01*
X239282Y465287D01*
X239188Y465253D01*
X239090Y465229D01*
X239024Y465195D01*
X238954Y465170D01*
X238870Y465115D01*
X238781Y465069D01*
X238724Y465021D01*
X238661Y464981D01*
X238592Y464909D01*
X238515Y464844D01*
X238471Y464784D01*
X238419Y464730D01*
X238368Y464644D01*
X238308Y464563D01*
X238279Y464495D01*
X238240Y464431D01*
X238210Y464335D01*
X238170Y464243D01*
X238157Y464170D01*
X238134Y464099D01*
X238126Y463999D01*
X238108Y463900D01*
X238112Y463826D01*
X238106Y463752D01*
X238121Y463652D01*
X238126Y463552D01*
X238147Y463481D01*
X238158Y463407D01*
X238195Y463314D01*
X238223Y463217D01*
X238259Y463152D01*
X238287Y463083D01*
X238344Y463001D01*
X238393Y462913D01*
X238458Y462837D01*
X238486Y462797D01*
X238512Y462773D01*
X238551Y462727D01*
X239407Y461872D01*
X240253Y459829D01*
X240253Y457619D01*
X239407Y455576D01*
X238519Y454689D01*
X238457Y454610D01*
X238387Y454538D01*
X238349Y454474D01*
X238303Y454416D01*
X238260Y454325D01*
X238208Y454239D01*
X238186Y454168D01*
X238154Y454101D01*
X238133Y454003D01*
X238102Y453907D01*
X238096Y453833D01*
X238081Y453760D01*
X238082Y453660D01*
X238074Y453560D01*
X238085Y453486D01*
X238087Y453412D01*
X238111Y453315D01*
X238126Y453215D01*
X238153Y453146D01*
X238172Y453074D01*
X238218Y452985D01*
X238255Y452891D01*
X238297Y452830D01*
X238331Y452764D01*
X238396Y452688D01*
X238454Y452605D01*
X238509Y452555D01*
X238557Y452499D01*
X238638Y452439D01*
X238712Y452372D01*
X238777Y452336D01*
X238837Y452291D01*
X238929Y452252D01*
X239017Y452203D01*
X239089Y452183D01*
X239157Y452153D01*
X239256Y452136D01*
X239353Y452108D01*
X239453Y452100D01*
X239500Y452092D01*
X239536Y452094D01*
X239597Y452089D01*
X240373Y452089D01*
X242416Y451243D01*
X243979Y449680D01*
X244825Y447637D01*
X244825Y445427D01*
X243979Y443384D01*
X242416Y441821D01*
X240373Y440975D01*
X238163Y440975D01*
G37*
%LPD*%
%LPC*%
G36*
X257975Y183419D02*
X257975Y183419D01*
X255932Y184265D01*
X254369Y185828D01*
X253523Y187871D01*
X253523Y188153D01*
X253509Y188279D01*
X253502Y188405D01*
X253489Y188452D01*
X253483Y188500D01*
X253441Y188619D01*
X253406Y188740D01*
X253382Y188782D01*
X253366Y188828D01*
X253297Y188934D01*
X253236Y189044D01*
X253196Y189090D01*
X253177Y189120D01*
X253142Y189154D01*
X253077Y189230D01*
X239554Y202753D01*
X239455Y202832D01*
X239362Y202916D01*
X239319Y202940D01*
X239281Y202970D01*
X239167Y203024D01*
X239057Y203085D01*
X239010Y203098D01*
X238966Y203119D01*
X238843Y203145D01*
X238721Y203180D01*
X238660Y203185D01*
X238626Y203192D01*
X238578Y203191D01*
X238477Y203199D01*
X83673Y203199D01*
X83547Y203185D01*
X83421Y203178D01*
X83374Y203165D01*
X83326Y203159D01*
X83207Y203117D01*
X83086Y203082D01*
X83044Y203058D01*
X82998Y203042D01*
X82892Y202973D01*
X82782Y202912D01*
X82735Y202872D01*
X82705Y202853D01*
X82672Y202818D01*
X82596Y202753D01*
X82396Y202553D01*
X80353Y201707D01*
X78143Y201707D01*
X76100Y202553D01*
X74537Y204116D01*
X73691Y206159D01*
X73691Y208369D01*
X74537Y210412D01*
X76100Y211975D01*
X78143Y212821D01*
X80353Y212821D01*
X82396Y211975D01*
X82596Y211775D01*
X82695Y211696D01*
X82788Y211612D01*
X82831Y211588D01*
X82869Y211558D01*
X82983Y211504D01*
X83093Y211443D01*
X83140Y211430D01*
X83184Y211409D01*
X83307Y211383D01*
X83429Y211348D01*
X83490Y211343D01*
X83524Y211336D01*
X83572Y211337D01*
X83673Y211329D01*
X242476Y211329D01*
X258826Y194979D01*
X258925Y194900D01*
X259018Y194816D01*
X259061Y194792D01*
X259099Y194762D01*
X259213Y194708D01*
X259323Y194647D01*
X259370Y194634D01*
X259414Y194613D01*
X259537Y194587D01*
X259659Y194552D01*
X259720Y194547D01*
X259754Y194540D01*
X259802Y194541D01*
X259903Y194533D01*
X260185Y194533D01*
X262228Y193687D01*
X262428Y193487D01*
X262527Y193408D01*
X262620Y193324D01*
X262663Y193300D01*
X262701Y193270D01*
X262815Y193216D01*
X262925Y193155D01*
X262972Y193142D01*
X263016Y193121D01*
X263139Y193095D01*
X263261Y193060D01*
X263322Y193055D01*
X263356Y193048D01*
X263404Y193049D01*
X263505Y193041D01*
X456409Y193041D01*
X456535Y193055D01*
X456661Y193062D01*
X456708Y193075D01*
X456756Y193081D01*
X456875Y193123D01*
X456996Y193158D01*
X457038Y193182D01*
X457084Y193198D01*
X457190Y193267D01*
X457300Y193328D01*
X457346Y193368D01*
X457376Y193387D01*
X457410Y193422D01*
X457486Y193487D01*
X493837Y229838D01*
X493916Y229937D01*
X494000Y230030D01*
X494024Y230073D01*
X494054Y230111D01*
X494108Y230225D01*
X494169Y230335D01*
X494182Y230382D01*
X494203Y230426D01*
X494229Y230549D01*
X494264Y230671D01*
X494269Y230732D01*
X494276Y230766D01*
X494275Y230814D01*
X494283Y230915D01*
X494283Y401037D01*
X494269Y401163D01*
X494262Y401289D01*
X494249Y401336D01*
X494243Y401384D01*
X494201Y401503D01*
X494166Y401624D01*
X494142Y401666D01*
X494126Y401712D01*
X494057Y401818D01*
X493996Y401928D01*
X493956Y401974D01*
X493937Y402004D01*
X493902Y402038D01*
X493837Y402114D01*
X485934Y410017D01*
X485835Y410096D01*
X485742Y410180D01*
X485699Y410204D01*
X485661Y410234D01*
X485547Y410288D01*
X485437Y410349D01*
X485390Y410362D01*
X485346Y410383D01*
X485223Y410409D01*
X485101Y410444D01*
X485040Y410449D01*
X485006Y410456D01*
X484958Y410455D01*
X484857Y410463D01*
X479023Y410463D01*
X473963Y415523D01*
X473963Y422677D01*
X479023Y427737D01*
X486177Y427737D01*
X491237Y422677D01*
X491237Y416843D01*
X491251Y416717D01*
X491258Y416591D01*
X491271Y416544D01*
X491277Y416496D01*
X491319Y416377D01*
X491354Y416256D01*
X491378Y416214D01*
X491394Y416168D01*
X491463Y416062D01*
X491524Y415952D01*
X491564Y415905D01*
X491583Y415875D01*
X491618Y415842D01*
X491683Y415766D01*
X499586Y407863D01*
X502413Y405036D01*
X502413Y226916D01*
X460408Y184911D01*
X263505Y184911D01*
X263379Y184897D01*
X263253Y184890D01*
X263206Y184877D01*
X263158Y184871D01*
X263039Y184829D01*
X262918Y184794D01*
X262876Y184770D01*
X262830Y184754D01*
X262724Y184685D01*
X262614Y184624D01*
X262567Y184584D01*
X262537Y184565D01*
X262504Y184530D01*
X262428Y184465D01*
X262228Y184265D01*
X260185Y183419D01*
X257975Y183419D01*
G37*
%LPD*%
%LPC*%
G36*
X16570Y16763D02*
X16570Y16763D01*
X13396Y18078D01*
X10966Y20508D01*
X9651Y23682D01*
X9651Y27118D01*
X10966Y30292D01*
X13396Y32722D01*
X16570Y34037D01*
X34230Y34037D01*
X37404Y32722D01*
X39848Y30278D01*
X39853Y30267D01*
X39909Y30186D01*
X39957Y30100D01*
X40008Y30044D01*
X40051Y29981D01*
X40124Y29915D01*
X40191Y29842D01*
X40254Y29799D01*
X40310Y29748D01*
X40396Y29700D01*
X40477Y29644D01*
X40548Y29616D01*
X40615Y29579D01*
X40710Y29552D01*
X40802Y29516D01*
X40877Y29505D01*
X40951Y29484D01*
X41100Y29472D01*
X41146Y29465D01*
X41165Y29467D01*
X41194Y29465D01*
X277593Y29465D01*
X277719Y29479D01*
X277845Y29486D01*
X277892Y29499D01*
X277940Y29505D01*
X278059Y29547D01*
X278180Y29582D01*
X278222Y29606D01*
X278268Y29622D01*
X278374Y29691D01*
X278484Y29752D01*
X278530Y29792D01*
X278560Y29811D01*
X278594Y29846D01*
X278670Y29911D01*
X381093Y132334D01*
X381172Y132433D01*
X381256Y132526D01*
X381280Y132569D01*
X381310Y132607D01*
X381364Y132721D01*
X381425Y132831D01*
X381438Y132878D01*
X381459Y132922D01*
X381485Y133045D01*
X381520Y133167D01*
X381525Y133228D01*
X381532Y133262D01*
X381531Y133310D01*
X381539Y133411D01*
X381539Y133693D01*
X382385Y135736D01*
X383948Y137299D01*
X385991Y138145D01*
X388201Y138145D01*
X390244Y137299D01*
X391807Y135736D01*
X392653Y133693D01*
X392653Y131483D01*
X391807Y129440D01*
X390244Y127877D01*
X388201Y127031D01*
X387919Y127031D01*
X387793Y127017D01*
X387667Y127010D01*
X387620Y126997D01*
X387572Y126991D01*
X387453Y126949D01*
X387332Y126914D01*
X387290Y126890D01*
X387244Y126874D01*
X387138Y126805D01*
X387028Y126744D01*
X386982Y126704D01*
X386952Y126685D01*
X386918Y126650D01*
X386842Y126585D01*
X281592Y21335D01*
X41194Y21335D01*
X41119Y21327D01*
X41042Y21328D01*
X40946Y21307D01*
X40848Y21295D01*
X40776Y21270D01*
X40702Y21253D01*
X40613Y21211D01*
X40520Y21178D01*
X40456Y21136D01*
X40387Y21104D01*
X40310Y21042D01*
X40227Y20989D01*
X40174Y20934D01*
X40115Y20886D01*
X40054Y20809D01*
X39985Y20738D01*
X39946Y20673D01*
X39899Y20613D01*
X39856Y20530D01*
X37404Y18078D01*
X34230Y16763D01*
X16570Y16763D01*
G37*
%LPD*%
%LPC*%
G36*
X385991Y348011D02*
X385991Y348011D01*
X383948Y348857D01*
X382385Y350420D01*
X382087Y351141D01*
X382086Y351143D01*
X382085Y351145D01*
X382005Y351287D01*
X381918Y351445D01*
X381916Y351447D01*
X381915Y351449D01*
X381757Y351635D01*
X381061Y352330D01*
X331502Y401889D01*
X331403Y401968D01*
X331310Y402052D01*
X331267Y402076D01*
X331229Y402106D01*
X331115Y402160D01*
X331005Y402221D01*
X330958Y402234D01*
X330914Y402255D01*
X330791Y402281D01*
X330669Y402316D01*
X330608Y402321D01*
X330574Y402328D01*
X330526Y402327D01*
X330425Y402335D01*
X41194Y402335D01*
X41119Y402327D01*
X41042Y402328D01*
X40946Y402307D01*
X40848Y402295D01*
X40776Y402270D01*
X40702Y402253D01*
X40613Y402211D01*
X40520Y402178D01*
X40456Y402136D01*
X40387Y402104D01*
X40310Y402042D01*
X40227Y401989D01*
X40174Y401934D01*
X40115Y401886D01*
X40054Y401809D01*
X39985Y401738D01*
X39946Y401673D01*
X39899Y401613D01*
X39856Y401530D01*
X37404Y399078D01*
X34230Y397763D01*
X16570Y397763D01*
X13396Y399078D01*
X10966Y401508D01*
X9651Y404682D01*
X9651Y408118D01*
X10966Y411292D01*
X13396Y413722D01*
X16570Y415037D01*
X34230Y415037D01*
X37404Y413722D01*
X39848Y411278D01*
X39853Y411267D01*
X39909Y411186D01*
X39957Y411100D01*
X40008Y411044D01*
X40051Y410981D01*
X40124Y410915D01*
X40191Y410842D01*
X40254Y410799D01*
X40310Y410748D01*
X40396Y410700D01*
X40477Y410644D01*
X40548Y410616D01*
X40615Y410579D01*
X40710Y410552D01*
X40802Y410516D01*
X40877Y410505D01*
X40951Y410484D01*
X41100Y410472D01*
X41146Y410465D01*
X41165Y410467D01*
X41194Y410465D01*
X334424Y410465D01*
X385318Y359571D01*
X385417Y359492D01*
X385510Y359408D01*
X385553Y359384D01*
X385591Y359354D01*
X385705Y359300D01*
X385815Y359239D01*
X385862Y359226D01*
X385906Y359205D01*
X386029Y359179D01*
X386151Y359144D01*
X386212Y359139D01*
X386246Y359132D01*
X386294Y359133D01*
X386395Y359125D01*
X388201Y359125D01*
X390244Y358279D01*
X391807Y356716D01*
X392653Y354673D01*
X392653Y352463D01*
X391807Y350420D01*
X390244Y348857D01*
X388201Y348011D01*
X385991Y348011D01*
G37*
%LPD*%
%LPC*%
G36*
X245783Y287051D02*
X245783Y287051D01*
X243740Y287897D01*
X242177Y289460D01*
X241331Y291503D01*
X241331Y293713D01*
X242177Y295756D01*
X242377Y295956D01*
X242451Y296049D01*
X242509Y296109D01*
X242518Y296124D01*
X242540Y296148D01*
X242564Y296191D01*
X242594Y296229D01*
X242643Y296332D01*
X242688Y296408D01*
X242694Y296427D01*
X242709Y296453D01*
X242722Y296500D01*
X242743Y296544D01*
X242766Y296650D01*
X242794Y296740D01*
X242796Y296762D01*
X242804Y296789D01*
X242809Y296850D01*
X242816Y296884D01*
X242815Y296932D01*
X242823Y297033D01*
X242823Y340012D01*
X255302Y352491D01*
X255319Y352511D01*
X255339Y352528D01*
X255427Y352648D01*
X255519Y352764D01*
X255530Y352788D01*
X255546Y352809D01*
X255605Y352945D01*
X255668Y353079D01*
X255674Y353105D01*
X255684Y353129D01*
X255710Y353275D01*
X255741Y353420D01*
X255741Y353446D01*
X255746Y353472D01*
X255738Y353620D01*
X255735Y353768D01*
X255729Y353794D01*
X255728Y353820D01*
X255687Y353962D01*
X255650Y354106D01*
X255638Y354129D01*
X255631Y354155D01*
X255559Y354284D01*
X255491Y354416D01*
X255474Y354436D01*
X255461Y354459D01*
X255302Y354645D01*
X225838Y384109D01*
X225739Y384188D01*
X225646Y384272D01*
X225603Y384296D01*
X225565Y384326D01*
X225451Y384380D01*
X225341Y384441D01*
X225294Y384454D01*
X225250Y384475D01*
X225127Y384501D01*
X225005Y384536D01*
X224944Y384541D01*
X224910Y384548D01*
X224862Y384547D01*
X224761Y384555D01*
X41001Y384555D01*
X40875Y384541D01*
X40749Y384534D01*
X40702Y384521D01*
X40654Y384515D01*
X40535Y384473D01*
X40414Y384438D01*
X40372Y384414D01*
X40326Y384398D01*
X40220Y384329D01*
X40110Y384268D01*
X40063Y384228D01*
X40033Y384209D01*
X40000Y384174D01*
X39924Y384109D01*
X39724Y383909D01*
X37681Y383063D01*
X35471Y383063D01*
X33428Y383909D01*
X31865Y385472D01*
X31019Y387515D01*
X31019Y389725D01*
X31865Y391768D01*
X33428Y393331D01*
X35471Y394177D01*
X37681Y394177D01*
X39724Y393331D01*
X39924Y393131D01*
X40023Y393052D01*
X40116Y392968D01*
X40159Y392944D01*
X40197Y392914D01*
X40311Y392860D01*
X40421Y392799D01*
X40468Y392786D01*
X40512Y392765D01*
X40635Y392739D01*
X40757Y392704D01*
X40818Y392699D01*
X40852Y392692D01*
X40900Y392693D01*
X41001Y392685D01*
X228760Y392685D01*
X261874Y359571D01*
X261973Y359492D01*
X262066Y359408D01*
X262109Y359384D01*
X262147Y359354D01*
X262261Y359300D01*
X262371Y359239D01*
X262418Y359226D01*
X262462Y359205D01*
X262585Y359179D01*
X262707Y359144D01*
X262768Y359139D01*
X262802Y359132D01*
X262850Y359133D01*
X262951Y359125D01*
X263233Y359125D01*
X265276Y358279D01*
X266839Y356716D01*
X267685Y354673D01*
X267685Y352463D01*
X266839Y350420D01*
X265276Y348857D01*
X263233Y348011D01*
X262951Y348011D01*
X262825Y347997D01*
X262699Y347990D01*
X262652Y347977D01*
X262604Y347971D01*
X262485Y347929D01*
X262364Y347894D01*
X262322Y347870D01*
X262276Y347854D01*
X262170Y347785D01*
X262060Y347724D01*
X262014Y347684D01*
X261984Y347665D01*
X261950Y347630D01*
X261874Y347565D01*
X251399Y337090D01*
X251320Y336991D01*
X251236Y336898D01*
X251212Y336855D01*
X251182Y336817D01*
X251128Y336703D01*
X251067Y336593D01*
X251054Y336546D01*
X251033Y336502D01*
X251007Y336379D01*
X250972Y336257D01*
X250967Y336196D01*
X250960Y336162D01*
X250961Y336114D01*
X250953Y336013D01*
X250953Y297033D01*
X250956Y297008D01*
X250954Y296983D01*
X250968Y296885D01*
X250974Y296781D01*
X250987Y296734D01*
X250993Y296686D01*
X251002Y296660D01*
X251005Y296638D01*
X251040Y296552D01*
X251070Y296446D01*
X251094Y296404D01*
X251110Y296358D01*
X251127Y296332D01*
X251134Y296314D01*
X251184Y296243D01*
X251240Y296142D01*
X251280Y296095D01*
X251299Y296065D01*
X251324Y296042D01*
X251333Y296028D01*
X251350Y296013D01*
X251399Y295956D01*
X251599Y295756D01*
X252445Y293713D01*
X252445Y291503D01*
X251599Y289460D01*
X250036Y287897D01*
X247993Y287051D01*
X245783Y287051D01*
G37*
%LPD*%
%LPC*%
G36*
X16570Y270763D02*
X16570Y270763D01*
X13396Y272078D01*
X10966Y274508D01*
X9651Y277682D01*
X9651Y281118D01*
X10966Y284292D01*
X13396Y286722D01*
X16570Y288037D01*
X34230Y288037D01*
X37404Y286722D01*
X39848Y284278D01*
X39853Y284267D01*
X39909Y284186D01*
X39957Y284100D01*
X40008Y284044D01*
X40051Y283981D01*
X40124Y283915D01*
X40191Y283842D01*
X40254Y283799D01*
X40310Y283748D01*
X40396Y283700D01*
X40477Y283644D01*
X40548Y283616D01*
X40615Y283579D01*
X40710Y283552D01*
X40802Y283516D01*
X40877Y283505D01*
X40951Y283484D01*
X41100Y283472D01*
X41146Y283465D01*
X41165Y283467D01*
X41194Y283465D01*
X139925Y283465D01*
X140051Y283479D01*
X140177Y283486D01*
X140224Y283499D01*
X140272Y283505D01*
X140391Y283547D01*
X140512Y283582D01*
X140554Y283606D01*
X140600Y283622D01*
X140706Y283691D01*
X140816Y283752D01*
X140862Y283792D01*
X140892Y283811D01*
X140926Y283846D01*
X141002Y283911D01*
X210405Y353314D01*
X210484Y353413D01*
X210568Y353506D01*
X210592Y353549D01*
X210622Y353587D01*
X210676Y353701D01*
X210737Y353811D01*
X210750Y353858D01*
X210771Y353902D01*
X210797Y354025D01*
X210832Y354147D01*
X210837Y354208D01*
X210844Y354242D01*
X210843Y354290D01*
X210851Y354391D01*
X210851Y354673D01*
X211697Y356716D01*
X213260Y358279D01*
X215303Y359125D01*
X217513Y359125D01*
X219556Y358279D01*
X221119Y356716D01*
X221965Y354673D01*
X221965Y352463D01*
X221119Y350420D01*
X219556Y348857D01*
X217513Y348011D01*
X217231Y348011D01*
X217105Y347997D01*
X216979Y347990D01*
X216932Y347977D01*
X216884Y347971D01*
X216765Y347929D01*
X216644Y347894D01*
X216602Y347870D01*
X216556Y347854D01*
X216450Y347785D01*
X216340Y347724D01*
X216294Y347684D01*
X216264Y347665D01*
X216230Y347630D01*
X216154Y347565D01*
X143924Y275335D01*
X41194Y275335D01*
X41119Y275327D01*
X41042Y275328D01*
X40946Y275307D01*
X40848Y275295D01*
X40776Y275270D01*
X40702Y275253D01*
X40613Y275211D01*
X40520Y275178D01*
X40456Y275136D01*
X40387Y275104D01*
X40310Y275042D01*
X40227Y274989D01*
X40174Y274934D01*
X40115Y274886D01*
X40054Y274809D01*
X39985Y274738D01*
X39946Y274673D01*
X39899Y274613D01*
X39856Y274530D01*
X37404Y272078D01*
X34230Y270763D01*
X16570Y270763D01*
G37*
%LPD*%
%LPC*%
G36*
X215303Y130079D02*
X215303Y130079D01*
X213260Y130925D01*
X213060Y131125D01*
X212961Y131204D01*
X212868Y131288D01*
X212825Y131312D01*
X212787Y131342D01*
X212673Y131396D01*
X212563Y131457D01*
X212516Y131470D01*
X212472Y131491D01*
X212349Y131517D01*
X212227Y131552D01*
X212166Y131557D01*
X212132Y131564D01*
X212084Y131563D01*
X211983Y131571D01*
X40480Y131571D01*
X37653Y134398D01*
X28734Y143317D01*
X28635Y143396D01*
X28542Y143480D01*
X28499Y143504D01*
X28461Y143534D01*
X28347Y143588D01*
X28237Y143649D01*
X28190Y143662D01*
X28146Y143683D01*
X28023Y143709D01*
X27901Y143744D01*
X27840Y143749D01*
X27806Y143756D01*
X27758Y143755D01*
X27657Y143763D01*
X16570Y143763D01*
X13396Y145078D01*
X10966Y147508D01*
X9651Y150682D01*
X9651Y154118D01*
X10966Y157292D01*
X13396Y159722D01*
X16570Y161037D01*
X34230Y161037D01*
X37404Y159722D01*
X39834Y157292D01*
X41149Y154118D01*
X41149Y150682D01*
X39834Y147508D01*
X39014Y146688D01*
X38998Y146668D01*
X38978Y146651D01*
X38890Y146532D01*
X38798Y146415D01*
X38787Y146391D01*
X38771Y146370D01*
X38712Y146234D01*
X38649Y146100D01*
X38643Y146074D01*
X38633Y146050D01*
X38607Y145904D01*
X38575Y145759D01*
X38576Y145733D01*
X38571Y145707D01*
X38579Y145559D01*
X38581Y145411D01*
X38588Y145386D01*
X38589Y145359D01*
X38630Y145217D01*
X38666Y145073D01*
X38678Y145050D01*
X38686Y145024D01*
X38758Y144895D01*
X38826Y144763D01*
X38843Y144743D01*
X38856Y144720D01*
X39014Y144534D01*
X43402Y140147D01*
X43501Y140068D01*
X43594Y139984D01*
X43637Y139960D01*
X43675Y139930D01*
X43789Y139876D01*
X43899Y139815D01*
X43946Y139802D01*
X43990Y139781D01*
X44113Y139755D01*
X44235Y139720D01*
X44296Y139715D01*
X44330Y139708D01*
X44378Y139709D01*
X44479Y139701D01*
X211983Y139701D01*
X212109Y139715D01*
X212235Y139722D01*
X212282Y139735D01*
X212330Y139741D01*
X212449Y139783D01*
X212570Y139818D01*
X212612Y139842D01*
X212658Y139858D01*
X212764Y139927D01*
X212874Y139988D01*
X212921Y140028D01*
X212951Y140047D01*
X212984Y140082D01*
X213060Y140147D01*
X213260Y140347D01*
X215303Y141193D01*
X217513Y141193D01*
X219556Y140347D01*
X221119Y138784D01*
X221965Y136741D01*
X221965Y134531D01*
X221119Y132488D01*
X219556Y130925D01*
X217513Y130079D01*
X215303Y130079D01*
G37*
%LPD*%
%LPC*%
G36*
X75095Y497363D02*
X75095Y497363D01*
X73052Y498209D01*
X71489Y499772D01*
X70643Y501815D01*
X70643Y504025D01*
X71489Y506068D01*
X71689Y506268D01*
X71768Y506367D01*
X71852Y506460D01*
X71876Y506503D01*
X71906Y506541D01*
X71960Y506655D01*
X72021Y506765D01*
X72034Y506812D01*
X72055Y506856D01*
X72081Y506979D01*
X72116Y507101D01*
X72121Y507162D01*
X72128Y507196D01*
X72127Y507244D01*
X72135Y507345D01*
X72135Y608809D01*
X72121Y608935D01*
X72114Y609061D01*
X72101Y609108D01*
X72095Y609156D01*
X72053Y609275D01*
X72018Y609396D01*
X71994Y609438D01*
X71978Y609484D01*
X71909Y609590D01*
X71848Y609700D01*
X71808Y609746D01*
X71789Y609776D01*
X71754Y609810D01*
X71689Y609886D01*
X51086Y630489D01*
X50987Y630568D01*
X50894Y630652D01*
X50851Y630676D01*
X50813Y630706D01*
X50699Y630760D01*
X50589Y630821D01*
X50542Y630834D01*
X50498Y630855D01*
X50375Y630881D01*
X50253Y630916D01*
X50192Y630921D01*
X50158Y630928D01*
X50110Y630927D01*
X50009Y630935D01*
X41194Y630935D01*
X41119Y630927D01*
X41042Y630928D01*
X40946Y630907D01*
X40848Y630895D01*
X40776Y630870D01*
X40702Y630853D01*
X40613Y630811D01*
X40520Y630778D01*
X40456Y630736D01*
X40387Y630704D01*
X40310Y630642D01*
X40227Y630589D01*
X40174Y630534D01*
X40115Y630486D01*
X40054Y630409D01*
X39985Y630338D01*
X39946Y630273D01*
X39899Y630213D01*
X39856Y630130D01*
X37404Y627678D01*
X34230Y626363D01*
X16570Y626363D01*
X13396Y627678D01*
X10966Y630108D01*
X9651Y633282D01*
X9651Y636718D01*
X10966Y639892D01*
X13396Y642322D01*
X16570Y643637D01*
X34230Y643637D01*
X37404Y642322D01*
X39848Y639878D01*
X39853Y639867D01*
X39909Y639786D01*
X39957Y639700D01*
X40008Y639644D01*
X40051Y639581D01*
X40124Y639515D01*
X40191Y639442D01*
X40254Y639399D01*
X40310Y639348D01*
X40396Y639300D01*
X40477Y639244D01*
X40548Y639216D01*
X40615Y639179D01*
X40710Y639152D01*
X40802Y639116D01*
X40877Y639105D01*
X40951Y639084D01*
X41100Y639072D01*
X41146Y639065D01*
X41165Y639067D01*
X41194Y639065D01*
X54008Y639065D01*
X80265Y612808D01*
X80265Y507345D01*
X80279Y507219D01*
X80286Y507093D01*
X80299Y507046D01*
X80305Y506998D01*
X80347Y506879D01*
X80382Y506758D01*
X80406Y506716D01*
X80422Y506670D01*
X80491Y506564D01*
X80552Y506454D01*
X80592Y506407D01*
X80611Y506377D01*
X80646Y506344D01*
X80711Y506268D01*
X80911Y506068D01*
X81757Y504025D01*
X81757Y501815D01*
X80911Y499772D01*
X79348Y498209D01*
X77305Y497363D01*
X75095Y497363D01*
G37*
%LPD*%
%LPC*%
G36*
X96431Y570515D02*
X96431Y570515D01*
X94388Y571361D01*
X92825Y572924D01*
X91979Y574967D01*
X91979Y577177D01*
X92825Y579220D01*
X94388Y580783D01*
X96431Y581629D01*
X98641Y581629D01*
X100684Y580783D01*
X100884Y580583D01*
X100983Y580504D01*
X101076Y580420D01*
X101119Y580396D01*
X101157Y580366D01*
X101271Y580312D01*
X101381Y580251D01*
X101428Y580238D01*
X101472Y580217D01*
X101595Y580191D01*
X101717Y580156D01*
X101778Y580151D01*
X101812Y580144D01*
X101860Y580145D01*
X101961Y580137D01*
X192757Y580137D01*
X192883Y580151D01*
X193009Y580158D01*
X193056Y580171D01*
X193104Y580177D01*
X193223Y580219D01*
X193344Y580254D01*
X193386Y580278D01*
X193432Y580294D01*
X193538Y580363D01*
X193648Y580424D01*
X193694Y580464D01*
X193724Y580483D01*
X193758Y580518D01*
X193834Y580583D01*
X219517Y606266D01*
X219596Y606365D01*
X219680Y606458D01*
X219704Y606501D01*
X219734Y606539D01*
X219788Y606653D01*
X219849Y606763D01*
X219862Y606810D01*
X219883Y606854D01*
X219909Y606977D01*
X219944Y607099D01*
X219949Y607160D01*
X219956Y607194D01*
X219955Y607242D01*
X219963Y607343D01*
X219963Y618430D01*
X221278Y621604D01*
X223708Y624034D01*
X226882Y625349D01*
X230318Y625349D01*
X233492Y624034D01*
X235922Y621604D01*
X237237Y618430D01*
X237237Y600770D01*
X235922Y597596D01*
X233492Y595166D01*
X230318Y593851D01*
X226882Y593851D01*
X223708Y595166D01*
X222888Y595986D01*
X222868Y596002D01*
X222851Y596022D01*
X222732Y596110D01*
X222615Y596202D01*
X222591Y596213D01*
X222570Y596229D01*
X222434Y596288D01*
X222300Y596351D01*
X222274Y596357D01*
X222250Y596367D01*
X222104Y596393D01*
X221959Y596425D01*
X221933Y596424D01*
X221907Y596429D01*
X221759Y596421D01*
X221611Y596419D01*
X221586Y596412D01*
X221559Y596411D01*
X221417Y596370D01*
X221273Y596334D01*
X221250Y596322D01*
X221224Y596314D01*
X221095Y596242D01*
X220963Y596174D01*
X220943Y596157D01*
X220920Y596144D01*
X220734Y595986D01*
X196756Y572007D01*
X101961Y572007D01*
X101835Y571993D01*
X101709Y571986D01*
X101662Y571973D01*
X101614Y571967D01*
X101495Y571925D01*
X101374Y571890D01*
X101332Y571866D01*
X101286Y571850D01*
X101180Y571781D01*
X101070Y571720D01*
X101023Y571680D01*
X100993Y571661D01*
X100960Y571626D01*
X100884Y571561D01*
X100684Y571361D01*
X98641Y570515D01*
X96431Y570515D01*
G37*
%LPD*%
%LPC*%
G36*
X410375Y169703D02*
X410375Y169703D01*
X408332Y170549D01*
X408132Y170749D01*
X408033Y170828D01*
X407940Y170912D01*
X407897Y170936D01*
X407859Y170966D01*
X407745Y171020D01*
X407635Y171081D01*
X407588Y171094D01*
X407544Y171115D01*
X407421Y171141D01*
X407299Y171176D01*
X407238Y171181D01*
X407204Y171188D01*
X407156Y171187D01*
X407055Y171195D01*
X249776Y171195D01*
X239522Y181449D01*
X239423Y181528D01*
X239330Y181612D01*
X239287Y181636D01*
X239249Y181666D01*
X239135Y181720D01*
X239025Y181781D01*
X238978Y181794D01*
X238934Y181815D01*
X238811Y181841D01*
X238689Y181876D01*
X238628Y181881D01*
X238594Y181888D01*
X238546Y181887D01*
X238445Y181895D01*
X238163Y181895D01*
X236120Y182741D01*
X234557Y184304D01*
X233711Y186347D01*
X233711Y188557D01*
X234557Y190600D01*
X236120Y192163D01*
X238163Y193009D01*
X240373Y193009D01*
X242416Y192163D01*
X243979Y190600D01*
X244825Y188557D01*
X244825Y188275D01*
X244839Y188149D01*
X244846Y188023D01*
X244859Y187976D01*
X244865Y187928D01*
X244907Y187809D01*
X244942Y187688D01*
X244966Y187646D01*
X244982Y187600D01*
X245051Y187494D01*
X245112Y187384D01*
X245152Y187338D01*
X245171Y187308D01*
X245206Y187274D01*
X245271Y187198D01*
X252698Y179771D01*
X252797Y179692D01*
X252890Y179608D01*
X252933Y179584D01*
X252971Y179554D01*
X253085Y179500D01*
X253195Y179439D01*
X253242Y179426D01*
X253286Y179405D01*
X253409Y179379D01*
X253531Y179344D01*
X253592Y179339D01*
X253626Y179332D01*
X253674Y179333D01*
X253775Y179325D01*
X407055Y179325D01*
X407181Y179339D01*
X407307Y179346D01*
X407354Y179359D01*
X407402Y179365D01*
X407521Y179407D01*
X407642Y179442D01*
X407684Y179466D01*
X407730Y179482D01*
X407836Y179551D01*
X407946Y179612D01*
X407993Y179652D01*
X408023Y179671D01*
X408056Y179706D01*
X408132Y179771D01*
X408332Y179971D01*
X410375Y180817D01*
X412585Y180817D01*
X414628Y179971D01*
X416191Y178408D01*
X417037Y176365D01*
X417037Y174155D01*
X416191Y172112D01*
X414628Y170549D01*
X412585Y169703D01*
X410375Y169703D01*
G37*
%LPD*%
%LPC*%
G36*
X119291Y303815D02*
X119291Y303815D01*
X117248Y304661D01*
X115685Y306224D01*
X114839Y308267D01*
X114839Y308549D01*
X114825Y308675D01*
X114818Y308801D01*
X114805Y308848D01*
X114799Y308896D01*
X114757Y309015D01*
X114722Y309136D01*
X114698Y309178D01*
X114682Y309224D01*
X114613Y309330D01*
X114552Y309440D01*
X114512Y309486D01*
X114493Y309516D01*
X114458Y309550D01*
X114393Y309626D01*
X55150Y368869D01*
X55051Y368948D01*
X54958Y369032D01*
X54915Y369056D01*
X54877Y369086D01*
X54763Y369140D01*
X54653Y369201D01*
X54606Y369214D01*
X54562Y369235D01*
X54439Y369261D01*
X54317Y369296D01*
X54256Y369301D01*
X54222Y369308D01*
X54174Y369307D01*
X54073Y369315D01*
X41001Y369315D01*
X40875Y369301D01*
X40749Y369294D01*
X40702Y369281D01*
X40654Y369275D01*
X40535Y369233D01*
X40414Y369198D01*
X40372Y369174D01*
X40326Y369158D01*
X40220Y369089D01*
X40110Y369028D01*
X40063Y368988D01*
X40033Y368969D01*
X40000Y368934D01*
X39924Y368869D01*
X39724Y368669D01*
X37681Y367823D01*
X35471Y367823D01*
X33428Y368669D01*
X31865Y370232D01*
X31019Y372275D01*
X31019Y374485D01*
X31865Y376528D01*
X33428Y378091D01*
X35471Y378937D01*
X37681Y378937D01*
X39724Y378091D01*
X39924Y377891D01*
X40023Y377812D01*
X40116Y377728D01*
X40159Y377704D01*
X40197Y377674D01*
X40311Y377620D01*
X40421Y377559D01*
X40468Y377546D01*
X40512Y377525D01*
X40635Y377499D01*
X40757Y377464D01*
X40818Y377459D01*
X40852Y377452D01*
X40900Y377453D01*
X41001Y377445D01*
X58072Y377445D01*
X120142Y315375D01*
X120241Y315296D01*
X120334Y315212D01*
X120377Y315188D01*
X120415Y315158D01*
X120529Y315104D01*
X120639Y315043D01*
X120686Y315030D01*
X120730Y315009D01*
X120853Y314983D01*
X120975Y314948D01*
X121036Y314943D01*
X121070Y314936D01*
X121118Y314937D01*
X121219Y314929D01*
X121501Y314929D01*
X123544Y314083D01*
X125107Y312520D01*
X125953Y310477D01*
X125953Y308267D01*
X125107Y306224D01*
X123544Y304661D01*
X121501Y303815D01*
X119291Y303815D01*
G37*
%LPD*%
%LPC*%
G36*
X55283Y501935D02*
X55283Y501935D01*
X53240Y502781D01*
X51677Y504344D01*
X50831Y506387D01*
X50831Y508597D01*
X51677Y510640D01*
X51877Y510840D01*
X51956Y510939D01*
X52040Y511032D01*
X52064Y511075D01*
X52094Y511113D01*
X52148Y511227D01*
X52209Y511337D01*
X52222Y511384D01*
X52243Y511428D01*
X52269Y511551D01*
X52304Y511673D01*
X52309Y511734D01*
X52316Y511768D01*
X52315Y511816D01*
X52323Y511917D01*
X52323Y571647D01*
X52309Y571773D01*
X52302Y571899D01*
X52289Y571946D01*
X52283Y571994D01*
X52241Y572113D01*
X52206Y572234D01*
X52182Y572276D01*
X52166Y572322D01*
X52097Y572428D01*
X52036Y572538D01*
X51996Y572585D01*
X51977Y572615D01*
X51942Y572648D01*
X51877Y572724D01*
X51677Y572924D01*
X50831Y574967D01*
X50831Y577177D01*
X51677Y579220D01*
X53240Y580783D01*
X55283Y581629D01*
X57493Y581629D01*
X59536Y580783D01*
X61099Y579220D01*
X61945Y577177D01*
X61945Y574967D01*
X61099Y572924D01*
X60899Y572724D01*
X60820Y572625D01*
X60736Y572532D01*
X60712Y572489D01*
X60682Y572451D01*
X60628Y572337D01*
X60567Y572227D01*
X60554Y572180D01*
X60533Y572136D01*
X60507Y572013D01*
X60472Y571891D01*
X60467Y571830D01*
X60460Y571796D01*
X60461Y571748D01*
X60453Y571647D01*
X60453Y511917D01*
X60467Y511791D01*
X60474Y511665D01*
X60487Y511618D01*
X60493Y511570D01*
X60535Y511451D01*
X60570Y511330D01*
X60594Y511288D01*
X60610Y511242D01*
X60679Y511136D01*
X60740Y511026D01*
X60780Y510979D01*
X60799Y510949D01*
X60834Y510916D01*
X60899Y510840D01*
X61099Y510640D01*
X61945Y508597D01*
X61945Y506387D01*
X61099Y504344D01*
X59536Y502781D01*
X57493Y501935D01*
X55283Y501935D01*
G37*
%LPD*%
%LPC*%
G36*
X459143Y465359D02*
X459143Y465359D01*
X457100Y466205D01*
X455537Y467768D01*
X454691Y469811D01*
X454691Y472021D01*
X455537Y474064D01*
X455737Y474264D01*
X455816Y474363D01*
X455900Y474456D01*
X455924Y474499D01*
X455954Y474537D01*
X456008Y474651D01*
X456069Y474761D01*
X456082Y474808D01*
X456103Y474852D01*
X456129Y474975D01*
X456164Y475097D01*
X456169Y475158D01*
X456176Y475192D01*
X456175Y475240D01*
X456183Y475341D01*
X456183Y524403D01*
X456169Y524529D01*
X456162Y524655D01*
X456149Y524702D01*
X456143Y524750D01*
X456101Y524869D01*
X456066Y524990D01*
X456042Y525032D01*
X456026Y525078D01*
X455957Y525184D01*
X455896Y525294D01*
X455856Y525341D01*
X455837Y525371D01*
X455802Y525404D01*
X455737Y525480D01*
X455537Y525680D01*
X454691Y527723D01*
X454691Y529933D01*
X455537Y531976D01*
X457100Y533539D01*
X459143Y534385D01*
X461353Y534385D01*
X463396Y533539D01*
X464959Y531976D01*
X465805Y529933D01*
X465805Y527723D01*
X464959Y525680D01*
X464759Y525480D01*
X464680Y525381D01*
X464596Y525288D01*
X464572Y525245D01*
X464542Y525207D01*
X464488Y525093D01*
X464427Y524983D01*
X464414Y524936D01*
X464393Y524892D01*
X464367Y524769D01*
X464332Y524647D01*
X464327Y524586D01*
X464320Y524552D01*
X464321Y524504D01*
X464313Y524403D01*
X464313Y475341D01*
X464327Y475215D01*
X464334Y475089D01*
X464347Y475042D01*
X464353Y474994D01*
X464395Y474875D01*
X464430Y474754D01*
X464454Y474712D01*
X464470Y474666D01*
X464539Y474560D01*
X464600Y474450D01*
X464640Y474403D01*
X464659Y474373D01*
X464694Y474340D01*
X464759Y474264D01*
X464959Y474064D01*
X465805Y472021D01*
X465805Y469811D01*
X464959Y467768D01*
X463396Y466205D01*
X461353Y465359D01*
X459143Y465359D01*
G37*
%LPD*%
%LPC*%
G36*
X16570Y92963D02*
X16570Y92963D01*
X13396Y94278D01*
X10966Y96708D01*
X9651Y99882D01*
X9651Y103318D01*
X10966Y106492D01*
X13396Y108922D01*
X16570Y110237D01*
X34230Y110237D01*
X37404Y108922D01*
X39834Y106492D01*
X41149Y103318D01*
X41149Y99882D01*
X39834Y96708D01*
X37404Y94278D01*
X34230Y92963D01*
X16570Y92963D01*
G37*
%LPD*%
%LPC*%
G36*
X16570Y67563D02*
X16570Y67563D01*
X13396Y68878D01*
X10966Y71308D01*
X9651Y74482D01*
X9651Y77918D01*
X10966Y81092D01*
X13396Y83522D01*
X16570Y84837D01*
X34230Y84837D01*
X37404Y83522D01*
X39834Y81092D01*
X41149Y77918D01*
X41149Y74482D01*
X39834Y71308D01*
X37404Y68878D01*
X34230Y67563D01*
X16570Y67563D01*
G37*
%LPD*%
%LPC*%
G36*
X16570Y600963D02*
X16570Y600963D01*
X13396Y602278D01*
X10966Y604708D01*
X9651Y607882D01*
X9651Y611318D01*
X10966Y614492D01*
X13396Y616922D01*
X16570Y618237D01*
X34230Y618237D01*
X37404Y616922D01*
X39834Y614492D01*
X41149Y611318D01*
X41149Y607882D01*
X39834Y604708D01*
X37404Y602278D01*
X34230Y600963D01*
X16570Y600963D01*
G37*
%LPD*%
%LPC*%
G36*
X16570Y550163D02*
X16570Y550163D01*
X13396Y551478D01*
X10966Y553908D01*
X9651Y557082D01*
X9651Y560518D01*
X10966Y563692D01*
X13396Y566122D01*
X16570Y567437D01*
X34230Y567437D01*
X37404Y566122D01*
X39834Y563692D01*
X41149Y560518D01*
X41149Y557082D01*
X39834Y553908D01*
X37404Y551478D01*
X34230Y550163D01*
X16570Y550163D01*
G37*
%LPD*%
%LPC*%
G36*
X16570Y524763D02*
X16570Y524763D01*
X13396Y526078D01*
X10966Y528508D01*
X9651Y531682D01*
X9651Y535118D01*
X10966Y538292D01*
X13396Y540722D01*
X16570Y542037D01*
X34230Y542037D01*
X37404Y540722D01*
X39834Y538292D01*
X41149Y535118D01*
X41149Y531682D01*
X39834Y528508D01*
X37404Y526078D01*
X34230Y524763D01*
X16570Y524763D01*
G37*
%LPD*%
%LPC*%
G36*
X16570Y346963D02*
X16570Y346963D01*
X13396Y348278D01*
X10966Y350708D01*
X9651Y353882D01*
X9651Y357318D01*
X10966Y360492D01*
X13396Y362922D01*
X16570Y364237D01*
X34230Y364237D01*
X37404Y362922D01*
X39834Y360492D01*
X41149Y357318D01*
X41149Y353882D01*
X39834Y350708D01*
X37404Y348278D01*
X34230Y346963D01*
X16570Y346963D01*
G37*
%LPD*%
%LPC*%
G36*
X16570Y42163D02*
X16570Y42163D01*
X13396Y43478D01*
X10966Y45908D01*
X9651Y49082D01*
X9651Y52518D01*
X10966Y55692D01*
X13396Y58122D01*
X16570Y59437D01*
X34230Y59437D01*
X37404Y58122D01*
X39834Y55692D01*
X41149Y52518D01*
X41149Y49082D01*
X39834Y45908D01*
X37404Y43478D01*
X34230Y42163D01*
X16570Y42163D01*
G37*
%LPD*%
%LPC*%
G36*
X16570Y321563D02*
X16570Y321563D01*
X13396Y322878D01*
X10966Y325308D01*
X9651Y328482D01*
X9651Y331918D01*
X10966Y335092D01*
X13396Y337522D01*
X16570Y338837D01*
X34230Y338837D01*
X37404Y337522D01*
X39834Y335092D01*
X41149Y331918D01*
X41149Y328482D01*
X39834Y325308D01*
X37404Y322878D01*
X34230Y321563D01*
X16570Y321563D01*
G37*
%LPD*%
%LPC*%
G36*
X16570Y296163D02*
X16570Y296163D01*
X13396Y297478D01*
X10966Y299908D01*
X9651Y303082D01*
X9651Y306518D01*
X10966Y309692D01*
X13396Y312122D01*
X16570Y313437D01*
X34230Y313437D01*
X37404Y312122D01*
X39834Y309692D01*
X41149Y306518D01*
X41149Y303082D01*
X39834Y299908D01*
X37404Y297478D01*
X34230Y296163D01*
X16570Y296163D01*
G37*
%LPD*%
%LPC*%
G36*
X16570Y169163D02*
X16570Y169163D01*
X13396Y170478D01*
X10966Y172908D01*
X9651Y176082D01*
X9651Y179518D01*
X10966Y182692D01*
X13396Y185122D01*
X16570Y186437D01*
X34230Y186437D01*
X37404Y185122D01*
X39834Y182692D01*
X41149Y179518D01*
X41149Y176082D01*
X39834Y172908D01*
X37404Y170478D01*
X34230Y169163D01*
X16570Y169163D01*
G37*
%LPD*%
%LPC*%
G36*
X16570Y219963D02*
X16570Y219963D01*
X13396Y221278D01*
X10966Y223708D01*
X9651Y226882D01*
X9651Y230318D01*
X10966Y233492D01*
X13396Y235922D01*
X16570Y237237D01*
X34230Y237237D01*
X37404Y235922D01*
X39834Y233492D01*
X41149Y230318D01*
X41149Y226882D01*
X39834Y223708D01*
X37404Y221278D01*
X34230Y219963D01*
X16570Y219963D01*
G37*
%LPD*%
%LPC*%
G36*
X16570Y194563D02*
X16570Y194563D01*
X13396Y195878D01*
X10966Y198308D01*
X9651Y201482D01*
X9651Y204918D01*
X10966Y208092D01*
X13396Y210522D01*
X16570Y211837D01*
X34230Y211837D01*
X37404Y210522D01*
X39834Y208092D01*
X41149Y204918D01*
X41149Y201482D01*
X39834Y198308D01*
X37404Y195878D01*
X34230Y194563D01*
X16570Y194563D01*
G37*
%LPD*%
%LPC*%
G36*
X479023Y283463D02*
X479023Y283463D01*
X473963Y288523D01*
X473963Y295677D01*
X479023Y300737D01*
X486177Y300737D01*
X491237Y295677D01*
X491237Y288523D01*
X486177Y283463D01*
X479023Y283463D01*
G37*
%LPD*%
%LPC*%
G36*
X453623Y258063D02*
X453623Y258063D01*
X448563Y263123D01*
X448563Y270277D01*
X453623Y275337D01*
X460777Y275337D01*
X465837Y270277D01*
X465837Y263123D01*
X460777Y258063D01*
X453623Y258063D01*
G37*
%LPD*%
%LPC*%
G36*
X479023Y258063D02*
X479023Y258063D01*
X473963Y263123D01*
X473963Y270277D01*
X479023Y275337D01*
X486177Y275337D01*
X491237Y270277D01*
X491237Y263123D01*
X486177Y258063D01*
X479023Y258063D01*
G37*
%LPD*%
%LPC*%
G36*
X479023Y334263D02*
X479023Y334263D01*
X473963Y339323D01*
X473963Y346477D01*
X479023Y351537D01*
X486177Y351537D01*
X491237Y346477D01*
X491237Y339323D01*
X486177Y334263D01*
X479023Y334263D01*
G37*
%LPD*%
%LPC*%
G36*
X479023Y232663D02*
X479023Y232663D01*
X473963Y237723D01*
X473963Y244877D01*
X479023Y249937D01*
X486177Y249937D01*
X491237Y244877D01*
X491237Y237723D01*
X486177Y232663D01*
X479023Y232663D01*
G37*
%LPD*%
%LPC*%
G36*
X453623Y359663D02*
X453623Y359663D01*
X448563Y364723D01*
X448563Y371877D01*
X453623Y376937D01*
X460777Y376937D01*
X465837Y371877D01*
X465837Y364723D01*
X460777Y359663D01*
X453623Y359663D01*
G37*
%LPD*%
%LPC*%
G36*
X453623Y308863D02*
X453623Y308863D01*
X448563Y313923D01*
X448563Y321077D01*
X453623Y326137D01*
X460777Y326137D01*
X465837Y321077D01*
X465837Y313923D01*
X460777Y308863D01*
X453623Y308863D01*
G37*
%LPD*%
%LPC*%
G36*
X479023Y359663D02*
X479023Y359663D01*
X473963Y364723D01*
X473963Y371877D01*
X479023Y376937D01*
X486177Y376937D01*
X491237Y371877D01*
X491237Y364723D01*
X486177Y359663D01*
X479023Y359663D01*
G37*
%LPD*%
%LPC*%
G36*
X479023Y385063D02*
X479023Y385063D01*
X473963Y390123D01*
X473963Y397277D01*
X479023Y402337D01*
X486177Y402337D01*
X491237Y397277D01*
X491237Y390123D01*
X486177Y385063D01*
X479023Y385063D01*
G37*
%LPD*%
%LPC*%
G36*
X479023Y308863D02*
X479023Y308863D01*
X473963Y313923D01*
X473963Y321077D01*
X479023Y326137D01*
X486177Y326137D01*
X491237Y321077D01*
X491237Y313923D01*
X486177Y308863D01*
X479023Y308863D01*
G37*
%LPD*%
%LPC*%
G36*
X453623Y334263D02*
X453623Y334263D01*
X448563Y339323D01*
X448563Y346477D01*
X453623Y351537D01*
X460777Y351537D01*
X465837Y346477D01*
X465837Y339323D01*
X460777Y334263D01*
X453623Y334263D01*
G37*
%LPD*%
%LPC*%
G36*
X453623Y232663D02*
X453623Y232663D01*
X448563Y237723D01*
X448563Y244877D01*
X453623Y249937D01*
X460777Y249937D01*
X465837Y244877D01*
X465837Y237723D01*
X460777Y232663D01*
X453623Y232663D01*
G37*
%LPD*%
%LPC*%
G36*
X281685Y611885D02*
X281685Y611885D01*
X281685Y626119D01*
X283105Y625658D01*
X284459Y624968D01*
X285688Y624075D01*
X286763Y623000D01*
X287656Y621771D01*
X288346Y620417D01*
X288815Y618972D01*
X289053Y617472D01*
X289053Y611885D01*
X281685Y611885D01*
G37*
%LPD*%
%LPC*%
G36*
X281685Y607315D02*
X281685Y607315D01*
X289053Y607315D01*
X289053Y601728D01*
X288815Y600227D01*
X288346Y598783D01*
X287656Y597429D01*
X286763Y596200D01*
X285688Y595125D01*
X284459Y594232D01*
X283105Y593542D01*
X281685Y593081D01*
X281685Y607315D01*
G37*
%LPD*%
%LPC*%
G36*
X269747Y611885D02*
X269747Y611885D01*
X269747Y617472D01*
X269985Y618972D01*
X270454Y620417D01*
X271144Y621771D01*
X272037Y623000D01*
X273112Y624075D01*
X274341Y624968D01*
X275695Y625658D01*
X277115Y626119D01*
X277115Y611885D01*
X269747Y611885D01*
G37*
%LPD*%
%LPC*%
G36*
X275695Y593542D02*
X275695Y593542D01*
X274341Y594232D01*
X273112Y595125D01*
X272037Y596200D01*
X271144Y597429D01*
X270454Y598783D01*
X269985Y600227D01*
X269747Y601728D01*
X269747Y607315D01*
X277115Y607315D01*
X277115Y593081D01*
X275695Y593542D01*
G37*
%LPD*%
D10*
X228600Y602488D02*
X228600Y616712D01*
X254000Y616712D02*
X254000Y602488D01*
X279400Y602488D02*
X279400Y616712D01*
X32512Y609600D02*
X18288Y609600D01*
X18288Y635000D02*
X32512Y635000D01*
X32512Y25400D02*
X18288Y25400D01*
X18288Y50800D02*
X32512Y50800D01*
X32512Y76200D02*
X18288Y76200D01*
X18288Y101600D02*
X32512Y101600D01*
X32512Y152400D02*
X18288Y152400D01*
X18288Y177800D02*
X32512Y177800D01*
X32512Y203200D02*
X18288Y203200D01*
X18288Y228600D02*
X32512Y228600D01*
X32512Y279400D02*
X18288Y279400D01*
X18288Y304800D02*
X32512Y304800D01*
X32512Y330200D02*
X18288Y330200D01*
X18288Y355600D02*
X32512Y355600D01*
X32512Y406400D02*
X18288Y406400D01*
X18288Y431800D02*
X32512Y431800D01*
X32512Y457200D02*
X18288Y457200D01*
X18288Y482600D02*
X32512Y482600D01*
D11*
X457200Y419100D03*
X482600Y419100D03*
X457200Y393700D03*
X482600Y393700D03*
X457200Y368300D03*
X482600Y368300D03*
X457200Y342900D03*
X482600Y342900D03*
X457200Y317500D03*
X482600Y317500D03*
X457200Y292100D03*
X482600Y292100D03*
X457200Y266700D03*
X482600Y266700D03*
X457200Y241300D03*
X482600Y241300D03*
D10*
X32512Y533400D02*
X18288Y533400D01*
X18288Y558800D02*
X32512Y558800D01*
D12*
X79248Y207264D03*
D13*
X240792Y207264D01*
X259080Y188976D01*
D12*
X259080Y188976D03*
D13*
X482600Y419100D02*
X498348Y403352D01*
X458724Y188976D02*
X259080Y188976D01*
X498348Y228600D02*
X498348Y403352D01*
X498348Y228600D02*
X458724Y188976D01*
D12*
X92964Y419100D03*
D13*
X268224Y419100D01*
X269748Y420624D01*
D12*
X269748Y420624D03*
X269748Y484632D03*
X422148Y512064D03*
D13*
X394716Y484632D01*
X269748Y484632D01*
D12*
X216408Y313944D03*
D13*
X231648Y298704D01*
X231648Y280416D01*
X239268Y272796D01*
D12*
X239268Y272796D03*
D13*
X251460Y272796D01*
X269748Y291084D01*
D12*
X269748Y291084D03*
X414528Y231648D03*
D13*
X242316Y231648D01*
X233172Y240792D01*
X233172Y266700D01*
X239268Y272796D01*
D12*
X98298Y502158D03*
D13*
X238506Y502158D01*
X242316Y498348D01*
D12*
X242316Y498348D03*
D13*
X251460Y507492D01*
X397764Y507492D02*
X405384Y515112D01*
D12*
X405384Y515112D03*
D13*
X397764Y507492D02*
X251460Y507492D01*
D12*
X234696Y458724D03*
D13*
X222504Y470916D01*
X99060Y470916D01*
D12*
X99060Y470916D03*
X422148Y495300D03*
D13*
X422148Y464820D01*
X411480Y454152D01*
X411480Y406908D01*
X419100Y399288D01*
X419100Y358140D01*
X371856Y310896D02*
X291084Y310896D01*
D12*
X291084Y310896D03*
D13*
X371856Y310896D02*
X419100Y358140D01*
D12*
X460248Y470916D03*
D13*
X460248Y528828D01*
D12*
X460248Y528828D03*
D13*
X52324Y635000D02*
X25400Y635000D01*
X76200Y611124D02*
X76200Y502920D01*
D12*
X76200Y502920D03*
X36576Y373380D03*
D13*
X56388Y373380D02*
X120396Y309372D01*
X56388Y373380D02*
X36576Y373380D01*
D12*
X120396Y309372D03*
D13*
X76200Y611124D02*
X52324Y635000D01*
D12*
X246888Y292608D03*
D13*
X246888Y338328D01*
D12*
X262128Y353568D03*
D13*
X246888Y338328D01*
D12*
X239268Y187452D03*
D13*
X251460Y175260D01*
X411480Y175260D01*
D12*
X411480Y175260D03*
D13*
X262128Y353568D02*
X227076Y388620D01*
X36576Y388620D01*
D12*
X36576Y388620D03*
X56388Y576072D03*
D13*
X97536Y576072D02*
X195072Y576072D01*
X228600Y609600D01*
D12*
X56388Y507492D03*
D13*
X56388Y576072D01*
D12*
X97536Y576072D03*
D14*
X254000Y564896D02*
X254000Y609600D01*
X254762Y564134D02*
X216408Y525780D01*
D12*
X216408Y525780D03*
D14*
X254762Y564134D02*
X254000Y564896D01*
X254762Y564134D02*
X291592Y527304D01*
X385572Y527304D01*
D12*
X385572Y527304D03*
X441960Y384048D03*
D14*
X441960Y512064D01*
X426720Y527304D02*
X385572Y527304D01*
X426720Y527304D02*
X441960Y512064D01*
D12*
X105156Y356616D03*
X167640Y353568D03*
X274320Y358140D03*
X71628Y301752D03*
X27432Y256032D03*
X71628Y249936D03*
X297180Y99060D03*
X382524Y91440D03*
X355092Y21336D03*
X419100Y25908D03*
X470916Y59436D03*
X473964Y117348D03*
X475488Y161544D03*
X487680Y516636D03*
X477012Y583692D03*
X416052Y629412D03*
X358140Y592836D03*
X169164Y606552D03*
X132588Y632460D03*
X114300Y551688D03*
X265176Y309372D03*
X265176Y74676D03*
D13*
X251968Y482600D02*
X25400Y482600D01*
X251968Y482600D02*
X252984Y481584D01*
D12*
X252984Y481584D03*
D13*
X239268Y446532D02*
X211836Y446532D01*
X202692Y455676D01*
X26924Y455676D01*
X25400Y457200D01*
D12*
X239268Y446532D03*
D13*
X359156Y431800D02*
X25400Y431800D01*
X359156Y431800D02*
X408432Y382524D01*
D12*
X408432Y382524D03*
D13*
X332740Y406400D02*
X25400Y406400D01*
X332740Y406400D02*
X385572Y353568D01*
X387096Y353568D01*
D12*
X387096Y353568D03*
D13*
X142240Y279400D02*
X25400Y279400D01*
X142240Y279400D02*
X216408Y353568D01*
D12*
X216408Y353568D03*
D13*
X25400Y152400D02*
X42164Y135636D01*
X216408Y135636D01*
D12*
X216408Y135636D03*
D13*
X279908Y25400D02*
X25400Y25400D01*
X279908Y25400D02*
X387096Y132588D01*
D12*
X387096Y132588D03*
X411480Y251460D03*
D13*
X452120Y292100D01*
X457200Y292100D01*
X411480Y251460D02*
X245364Y251460D01*
D12*
X245364Y251460D03*
X237744Y472440D03*
D13*
X240792Y469392D01*
X405384Y469392D02*
X406908Y470916D01*
D12*
X406908Y470916D03*
D13*
X405384Y469392D02*
X240792Y469392D01*
D12*
X426720Y425196D03*
D13*
X429768Y422148D01*
X429768Y319532D02*
X457200Y292100D01*
X429768Y319532D02*
X429768Y422148D01*
M02*
