G04 EAGLE Gerber RS-274X export*
G75*
%MOMM*%
%FSLAX34Y34*%
%LPD*%
%INSilkscreen Top*%
%IPPOS*%
%AMOC8*
5,1,8,0,0,1.08239X$1,22.5*%
G01*
%ADD10C,0.076200*%
%ADD11C,0.254000*%
%ADD12C,0.150000*%
%ADD13C,0.500000*%
%ADD14C,0.152400*%
%ADD15C,0.660400*%
%ADD16C,0.127000*%
%ADD17R,0.609600X0.508000*%
%ADD18C,0.101600*%


D10*
X233299Y578257D02*
X233299Y574080D01*
X223901Y574080D01*
X223901Y578257D01*
X228078Y577212D02*
X228078Y574080D01*
X223901Y581987D02*
X233299Y581987D01*
X233299Y587208D02*
X223901Y581987D01*
X223901Y587208D02*
X233299Y587208D01*
X279894Y568929D02*
X279894Y567363D01*
X279894Y568929D02*
X285115Y568929D01*
X285115Y565796D01*
X285113Y565707D01*
X285107Y565619D01*
X285098Y565531D01*
X285085Y565443D01*
X285068Y565356D01*
X285048Y565270D01*
X285023Y565185D01*
X284996Y565100D01*
X284964Y565017D01*
X284930Y564936D01*
X284891Y564856D01*
X284850Y564778D01*
X284805Y564701D01*
X284757Y564627D01*
X284706Y564554D01*
X284652Y564484D01*
X284594Y564417D01*
X284534Y564351D01*
X284472Y564289D01*
X284406Y564229D01*
X284339Y564171D01*
X284269Y564117D01*
X284196Y564066D01*
X284122Y564018D01*
X284045Y563973D01*
X283967Y563932D01*
X283887Y563893D01*
X283806Y563859D01*
X283723Y563827D01*
X283638Y563800D01*
X283553Y563775D01*
X283467Y563755D01*
X283380Y563738D01*
X283292Y563725D01*
X283204Y563716D01*
X283116Y563710D01*
X283027Y563708D01*
X277805Y563708D01*
X277805Y563707D02*
X277714Y563709D01*
X277623Y563715D01*
X277532Y563725D01*
X277442Y563739D01*
X277353Y563757D01*
X277264Y563778D01*
X277177Y563804D01*
X277091Y563833D01*
X277006Y563866D01*
X276922Y563903D01*
X276840Y563943D01*
X276761Y563987D01*
X276683Y564034D01*
X276607Y564085D01*
X276533Y564139D01*
X276462Y564196D01*
X276394Y564256D01*
X276328Y564319D01*
X276265Y564385D01*
X276205Y564453D01*
X276148Y564524D01*
X276094Y564598D01*
X276043Y564674D01*
X275996Y564751D01*
X275952Y564831D01*
X275912Y564913D01*
X275875Y564997D01*
X275842Y565081D01*
X275813Y565168D01*
X275787Y565255D01*
X275766Y565344D01*
X275748Y565433D01*
X275734Y565523D01*
X275724Y565614D01*
X275718Y565705D01*
X275716Y565796D01*
X275717Y565796D02*
X275717Y568929D01*
X275717Y573461D02*
X285115Y573461D01*
X285115Y578683D02*
X275717Y573461D01*
X275717Y578683D02*
X285115Y578683D01*
X285115Y583215D02*
X275717Y583215D01*
X275717Y585826D01*
X275719Y585926D01*
X275725Y586026D01*
X275734Y586125D01*
X275748Y586225D01*
X275765Y586323D01*
X275786Y586421D01*
X275810Y586518D01*
X275839Y586614D01*
X275871Y586709D01*
X275906Y586802D01*
X275945Y586894D01*
X275988Y586985D01*
X276034Y587073D01*
X276084Y587160D01*
X276136Y587245D01*
X276192Y587328D01*
X276251Y587409D01*
X276314Y587487D01*
X276379Y587563D01*
X276447Y587637D01*
X276517Y587707D01*
X276591Y587775D01*
X276667Y587840D01*
X276745Y587903D01*
X276826Y587962D01*
X276909Y588018D01*
X276994Y588070D01*
X277081Y588120D01*
X277169Y588166D01*
X277260Y588209D01*
X277352Y588248D01*
X277445Y588283D01*
X277540Y588315D01*
X277636Y588344D01*
X277733Y588368D01*
X277831Y588389D01*
X277929Y588406D01*
X278029Y588420D01*
X278128Y588429D01*
X278228Y588435D01*
X278328Y588437D01*
X278328Y588436D02*
X282504Y588436D01*
X282504Y588437D02*
X282604Y588435D01*
X282704Y588429D01*
X282803Y588420D01*
X282903Y588406D01*
X283001Y588389D01*
X283099Y588368D01*
X283196Y588344D01*
X283292Y588315D01*
X283387Y588283D01*
X283480Y588248D01*
X283572Y588209D01*
X283663Y588166D01*
X283751Y588120D01*
X283838Y588070D01*
X283923Y588018D01*
X284006Y587962D01*
X284087Y587903D01*
X284165Y587840D01*
X284241Y587775D01*
X284315Y587707D01*
X284385Y587637D01*
X284453Y587563D01*
X284518Y587487D01*
X284581Y587409D01*
X284640Y587328D01*
X284696Y587245D01*
X284748Y587160D01*
X284798Y587073D01*
X284844Y586985D01*
X284887Y586894D01*
X284926Y586802D01*
X284961Y586709D01*
X284993Y586614D01*
X285022Y586518D01*
X285046Y586421D01*
X285067Y586323D01*
X285084Y586225D01*
X285098Y586125D01*
X285107Y586026D01*
X285113Y585926D01*
X285115Y585826D01*
X285115Y583215D01*
X259207Y570010D02*
X249809Y566877D01*
X249809Y573143D02*
X259207Y570010D01*
X259207Y578606D02*
X259207Y580695D01*
X259207Y578606D02*
X259205Y578517D01*
X259199Y578429D01*
X259190Y578341D01*
X259177Y578253D01*
X259160Y578166D01*
X259140Y578080D01*
X259115Y577995D01*
X259088Y577910D01*
X259056Y577827D01*
X259022Y577746D01*
X258983Y577666D01*
X258942Y577588D01*
X258897Y577511D01*
X258849Y577437D01*
X258798Y577364D01*
X258744Y577294D01*
X258686Y577227D01*
X258626Y577161D01*
X258564Y577099D01*
X258498Y577039D01*
X258431Y576981D01*
X258361Y576927D01*
X258288Y576876D01*
X258214Y576828D01*
X258137Y576783D01*
X258059Y576742D01*
X257979Y576703D01*
X257898Y576669D01*
X257815Y576637D01*
X257730Y576610D01*
X257645Y576585D01*
X257559Y576565D01*
X257472Y576548D01*
X257384Y576535D01*
X257296Y576526D01*
X257208Y576520D01*
X257119Y576518D01*
X251897Y576518D01*
X251897Y576517D02*
X251806Y576519D01*
X251715Y576525D01*
X251624Y576535D01*
X251534Y576549D01*
X251445Y576567D01*
X251356Y576588D01*
X251269Y576614D01*
X251183Y576643D01*
X251098Y576676D01*
X251014Y576713D01*
X250932Y576753D01*
X250853Y576797D01*
X250775Y576844D01*
X250699Y576895D01*
X250625Y576949D01*
X250554Y577006D01*
X250486Y577066D01*
X250420Y577129D01*
X250357Y577195D01*
X250297Y577263D01*
X250240Y577334D01*
X250186Y577408D01*
X250135Y577484D01*
X250088Y577561D01*
X250044Y577641D01*
X250004Y577723D01*
X249967Y577807D01*
X249934Y577891D01*
X249905Y577978D01*
X249879Y578065D01*
X249858Y578154D01*
X249840Y578243D01*
X249826Y578333D01*
X249816Y578424D01*
X249810Y578515D01*
X249808Y578606D01*
X249809Y578606D02*
X249809Y580695D01*
X259207Y586226D02*
X259207Y588315D01*
X259207Y586226D02*
X259205Y586137D01*
X259199Y586049D01*
X259190Y585961D01*
X259177Y585873D01*
X259160Y585786D01*
X259140Y585700D01*
X259115Y585615D01*
X259088Y585530D01*
X259056Y585447D01*
X259022Y585366D01*
X258983Y585286D01*
X258942Y585208D01*
X258897Y585131D01*
X258849Y585057D01*
X258798Y584984D01*
X258744Y584914D01*
X258686Y584847D01*
X258626Y584781D01*
X258564Y584719D01*
X258498Y584659D01*
X258431Y584601D01*
X258361Y584547D01*
X258288Y584496D01*
X258214Y584448D01*
X258137Y584403D01*
X258059Y584362D01*
X257979Y584323D01*
X257898Y584289D01*
X257815Y584257D01*
X257730Y584230D01*
X257645Y584205D01*
X257559Y584185D01*
X257472Y584168D01*
X257384Y584155D01*
X257296Y584146D01*
X257208Y584140D01*
X257119Y584138D01*
X251897Y584138D01*
X251897Y584137D02*
X251806Y584139D01*
X251715Y584145D01*
X251624Y584155D01*
X251534Y584169D01*
X251445Y584187D01*
X251356Y584208D01*
X251269Y584234D01*
X251183Y584263D01*
X251098Y584296D01*
X251014Y584333D01*
X250932Y584373D01*
X250853Y584417D01*
X250775Y584464D01*
X250699Y584515D01*
X250625Y584569D01*
X250554Y584626D01*
X250486Y584686D01*
X250420Y584749D01*
X250357Y584815D01*
X250297Y584883D01*
X250240Y584954D01*
X250186Y585028D01*
X250135Y585104D01*
X250088Y585181D01*
X250044Y585261D01*
X250004Y585343D01*
X249967Y585427D01*
X249934Y585511D01*
X249905Y585598D01*
X249879Y585685D01*
X249858Y585774D01*
X249840Y585863D01*
X249826Y585953D01*
X249816Y586044D01*
X249810Y586135D01*
X249808Y586226D01*
X249809Y586226D02*
X249809Y588315D01*
D11*
X183469Y48895D02*
X170487Y48895D01*
X170487Y78105D01*
X183469Y78105D01*
X180224Y65123D02*
X170487Y65123D01*
X196625Y60254D02*
X203927Y60254D01*
X196625Y60255D02*
X196475Y60253D01*
X196325Y60247D01*
X196176Y60237D01*
X196026Y60223D01*
X195877Y60206D01*
X195729Y60184D01*
X195581Y60158D01*
X195434Y60129D01*
X195288Y60095D01*
X195143Y60058D01*
X194999Y60017D01*
X194856Y59972D01*
X194714Y59924D01*
X194573Y59871D01*
X194434Y59815D01*
X194296Y59756D01*
X194161Y59693D01*
X194026Y59626D01*
X193894Y59555D01*
X193763Y59481D01*
X193635Y59404D01*
X193508Y59324D01*
X193384Y59240D01*
X193262Y59153D01*
X193143Y59062D01*
X193025Y58969D01*
X192911Y58872D01*
X192798Y58773D01*
X192689Y58670D01*
X192582Y58565D01*
X192478Y58457D01*
X192377Y58346D01*
X192279Y58232D01*
X192184Y58116D01*
X192092Y57998D01*
X192003Y57877D01*
X191918Y57754D01*
X191836Y57629D01*
X191757Y57501D01*
X191681Y57372D01*
X191609Y57240D01*
X191540Y57107D01*
X191475Y56972D01*
X191414Y56835D01*
X191356Y56697D01*
X191302Y56557D01*
X191251Y56416D01*
X191205Y56273D01*
X191162Y56129D01*
X191123Y55985D01*
X191087Y55839D01*
X191056Y55692D01*
X191028Y55545D01*
X191005Y55397D01*
X190985Y55248D01*
X190969Y55099D01*
X190957Y54950D01*
X190949Y54800D01*
X190945Y54650D01*
X190945Y54500D01*
X190949Y54350D01*
X190957Y54200D01*
X190969Y54051D01*
X190985Y53902D01*
X191005Y53753D01*
X191028Y53605D01*
X191056Y53458D01*
X191087Y53311D01*
X191123Y53165D01*
X191162Y53021D01*
X191205Y52877D01*
X191251Y52734D01*
X191302Y52593D01*
X191356Y52453D01*
X191414Y52315D01*
X191475Y52178D01*
X191540Y52043D01*
X191609Y51910D01*
X191681Y51778D01*
X191757Y51649D01*
X191836Y51521D01*
X191918Y51396D01*
X192003Y51273D01*
X192092Y51152D01*
X192184Y51034D01*
X192279Y50918D01*
X192377Y50804D01*
X192478Y50693D01*
X192582Y50585D01*
X192689Y50480D01*
X192798Y50377D01*
X192911Y50278D01*
X193025Y50181D01*
X193143Y50088D01*
X193262Y49997D01*
X193384Y49910D01*
X193508Y49826D01*
X193635Y49746D01*
X193763Y49669D01*
X193894Y49595D01*
X194026Y49524D01*
X194161Y49457D01*
X194296Y49394D01*
X194434Y49335D01*
X194573Y49279D01*
X194714Y49226D01*
X194856Y49178D01*
X194999Y49133D01*
X195143Y49092D01*
X195288Y49055D01*
X195434Y49021D01*
X195581Y48992D01*
X195729Y48966D01*
X195877Y48944D01*
X196026Y48927D01*
X196176Y48913D01*
X196325Y48903D01*
X196475Y48897D01*
X196625Y48895D01*
X203927Y48895D01*
X203927Y63500D01*
X203925Y63637D01*
X203919Y63773D01*
X203910Y63909D01*
X203896Y64045D01*
X203879Y64180D01*
X203858Y64315D01*
X203833Y64450D01*
X203805Y64583D01*
X203773Y64716D01*
X203737Y64848D01*
X203697Y64978D01*
X203654Y65108D01*
X203607Y65236D01*
X203556Y65363D01*
X203502Y65488D01*
X203445Y65612D01*
X203384Y65734D01*
X203320Y65855D01*
X203252Y65973D01*
X203181Y66090D01*
X203107Y66205D01*
X203029Y66317D01*
X202949Y66427D01*
X202865Y66535D01*
X202778Y66641D01*
X202689Y66744D01*
X202596Y66844D01*
X202501Y66942D01*
X202403Y67037D01*
X202303Y67130D01*
X202200Y67219D01*
X202094Y67306D01*
X201986Y67390D01*
X201876Y67470D01*
X201764Y67548D01*
X201649Y67622D01*
X201532Y67693D01*
X201414Y67761D01*
X201293Y67825D01*
X201171Y67886D01*
X201047Y67943D01*
X200922Y67997D01*
X200795Y68048D01*
X200667Y68095D01*
X200537Y68138D01*
X200407Y68178D01*
X200275Y68214D01*
X200142Y68246D01*
X200009Y68274D01*
X199874Y68299D01*
X199739Y68320D01*
X199604Y68337D01*
X199468Y68351D01*
X199332Y68360D01*
X199196Y68366D01*
X199059Y68368D01*
X192568Y68368D01*
X213914Y68368D02*
X213914Y48895D01*
X213914Y68368D02*
X223650Y68368D01*
X223650Y65123D01*
X231079Y53763D02*
X231079Y78105D01*
X231079Y53763D02*
X231081Y53626D01*
X231087Y53490D01*
X231096Y53354D01*
X231110Y53218D01*
X231127Y53083D01*
X231148Y52948D01*
X231173Y52813D01*
X231201Y52680D01*
X231233Y52547D01*
X231269Y52415D01*
X231309Y52285D01*
X231352Y52155D01*
X231399Y52027D01*
X231450Y51900D01*
X231504Y51775D01*
X231561Y51651D01*
X231622Y51529D01*
X231686Y51408D01*
X231754Y51290D01*
X231825Y51173D01*
X231899Y51058D01*
X231977Y50946D01*
X232057Y50836D01*
X232141Y50728D01*
X232228Y50622D01*
X232317Y50519D01*
X232410Y50419D01*
X232505Y50321D01*
X232603Y50226D01*
X232703Y50133D01*
X232806Y50044D01*
X232912Y49957D01*
X233020Y49873D01*
X233130Y49793D01*
X233242Y49715D01*
X233357Y49641D01*
X233474Y49570D01*
X233592Y49502D01*
X233713Y49438D01*
X233835Y49377D01*
X233959Y49320D01*
X234084Y49266D01*
X234211Y49215D01*
X234339Y49168D01*
X234469Y49125D01*
X234599Y49085D01*
X234731Y49049D01*
X234864Y49017D01*
X234997Y48989D01*
X235132Y48964D01*
X235267Y48943D01*
X235402Y48926D01*
X235538Y48912D01*
X235674Y48903D01*
X235810Y48897D01*
X235947Y48895D01*
X242586Y39158D02*
X245831Y39158D01*
X255568Y68368D01*
X242586Y68368D02*
X249077Y48895D01*
X263937Y65123D02*
X272051Y65123D01*
X272249Y65121D01*
X272446Y65113D01*
X272643Y65101D01*
X272840Y65085D01*
X273037Y65063D01*
X273232Y65037D01*
X273428Y65005D01*
X273622Y64969D01*
X273815Y64929D01*
X274008Y64884D01*
X274199Y64834D01*
X274389Y64779D01*
X274577Y64720D01*
X274764Y64656D01*
X274950Y64588D01*
X275133Y64515D01*
X275315Y64437D01*
X275495Y64356D01*
X275673Y64270D01*
X275849Y64179D01*
X276022Y64085D01*
X276193Y63986D01*
X276362Y63883D01*
X276528Y63776D01*
X276692Y63665D01*
X276852Y63550D01*
X277010Y63431D01*
X277165Y63309D01*
X277317Y63182D01*
X277466Y63052D01*
X277611Y62918D01*
X277753Y62781D01*
X277892Y62641D01*
X278028Y62497D01*
X278160Y62350D01*
X278288Y62199D01*
X278412Y62046D01*
X278533Y61889D01*
X278650Y61730D01*
X278763Y61568D01*
X278872Y61403D01*
X278977Y61236D01*
X279078Y61066D01*
X279175Y60894D01*
X279267Y60719D01*
X279355Y60542D01*
X279439Y60363D01*
X279519Y60182D01*
X279594Y60000D01*
X279664Y59815D01*
X279730Y59629D01*
X279792Y59441D01*
X279849Y59252D01*
X279901Y59061D01*
X279949Y58870D01*
X279992Y58677D01*
X280030Y58483D01*
X280064Y58288D01*
X280092Y58093D01*
X280116Y57896D01*
X280136Y57700D01*
X280150Y57503D01*
X280160Y57305D01*
X280164Y57108D01*
X280164Y56910D01*
X280160Y56713D01*
X280150Y56515D01*
X280136Y56318D01*
X280116Y56122D01*
X280092Y55925D01*
X280064Y55730D01*
X280030Y55535D01*
X279992Y55341D01*
X279949Y55148D01*
X279901Y54957D01*
X279849Y54766D01*
X279792Y54577D01*
X279730Y54389D01*
X279664Y54203D01*
X279594Y54018D01*
X279519Y53836D01*
X279439Y53655D01*
X279355Y53476D01*
X279267Y53299D01*
X279175Y53124D01*
X279078Y52952D01*
X278977Y52782D01*
X278872Y52615D01*
X278763Y52450D01*
X278650Y52288D01*
X278533Y52129D01*
X278412Y51972D01*
X278288Y51819D01*
X278160Y51668D01*
X278028Y51521D01*
X277892Y51377D01*
X277753Y51237D01*
X277611Y51100D01*
X277466Y50966D01*
X277317Y50836D01*
X277165Y50709D01*
X277010Y50587D01*
X276852Y50468D01*
X276692Y50353D01*
X276528Y50242D01*
X276362Y50135D01*
X276193Y50032D01*
X276022Y49933D01*
X275849Y49839D01*
X275673Y49748D01*
X275495Y49662D01*
X275315Y49581D01*
X275133Y49503D01*
X274950Y49430D01*
X274764Y49362D01*
X274577Y49298D01*
X274389Y49239D01*
X274199Y49184D01*
X274008Y49134D01*
X273815Y49089D01*
X273622Y49049D01*
X273428Y49013D01*
X273232Y48981D01*
X273037Y48955D01*
X272840Y48933D01*
X272643Y48917D01*
X272446Y48905D01*
X272249Y48897D01*
X272051Y48895D01*
X263937Y48895D01*
X263937Y78105D01*
X272051Y78105D01*
X272210Y78103D01*
X272369Y78097D01*
X272529Y78087D01*
X272687Y78074D01*
X272846Y78056D01*
X273003Y78035D01*
X273161Y78009D01*
X273317Y77980D01*
X273473Y77947D01*
X273628Y77910D01*
X273782Y77870D01*
X273935Y77825D01*
X274087Y77777D01*
X274238Y77726D01*
X274387Y77670D01*
X274535Y77611D01*
X274681Y77548D01*
X274826Y77482D01*
X274969Y77412D01*
X275111Y77339D01*
X275250Y77262D01*
X275388Y77182D01*
X275524Y77098D01*
X275657Y77011D01*
X275789Y76921D01*
X275918Y76828D01*
X276044Y76731D01*
X276169Y76632D01*
X276291Y76529D01*
X276410Y76424D01*
X276527Y76315D01*
X276641Y76204D01*
X276752Y76090D01*
X276861Y75973D01*
X276966Y75854D01*
X277069Y75732D01*
X277168Y75607D01*
X277265Y75481D01*
X277358Y75352D01*
X277448Y75220D01*
X277535Y75087D01*
X277619Y74951D01*
X277699Y74813D01*
X277776Y74674D01*
X277849Y74532D01*
X277919Y74389D01*
X277985Y74244D01*
X278048Y74098D01*
X278107Y73950D01*
X278163Y73801D01*
X278214Y73650D01*
X278262Y73498D01*
X278307Y73345D01*
X278347Y73191D01*
X278384Y73036D01*
X278417Y72880D01*
X278446Y72724D01*
X278472Y72566D01*
X278493Y72409D01*
X278511Y72250D01*
X278524Y72092D01*
X278534Y71932D01*
X278540Y71773D01*
X278542Y71614D01*
X278540Y71455D01*
X278534Y71296D01*
X278524Y71136D01*
X278511Y70978D01*
X278493Y70819D01*
X278472Y70662D01*
X278446Y70504D01*
X278417Y70348D01*
X278384Y70192D01*
X278347Y70037D01*
X278307Y69883D01*
X278262Y69730D01*
X278214Y69578D01*
X278163Y69427D01*
X278107Y69278D01*
X278048Y69130D01*
X277985Y68984D01*
X277919Y68839D01*
X277849Y68696D01*
X277776Y68554D01*
X277699Y68415D01*
X277619Y68277D01*
X277535Y68141D01*
X277448Y68008D01*
X277358Y67876D01*
X277265Y67747D01*
X277168Y67621D01*
X277069Y67496D01*
X276966Y67374D01*
X276861Y67255D01*
X276752Y67138D01*
X276641Y67024D01*
X276527Y66913D01*
X276410Y66804D01*
X276291Y66699D01*
X276169Y66596D01*
X276044Y66497D01*
X275918Y66400D01*
X275789Y66307D01*
X275657Y66217D01*
X275524Y66130D01*
X275388Y66046D01*
X275250Y65966D01*
X275111Y65889D01*
X274969Y65816D01*
X274826Y65746D01*
X274681Y65680D01*
X274535Y65617D01*
X274387Y65558D01*
X274238Y65502D01*
X274087Y65451D01*
X273935Y65403D01*
X273782Y65358D01*
X273628Y65318D01*
X273473Y65281D01*
X273317Y65248D01*
X273161Y65219D01*
X273003Y65193D01*
X272846Y65172D01*
X272687Y65154D01*
X272529Y65141D01*
X272369Y65131D01*
X272210Y65125D01*
X272051Y65123D01*
X286841Y39158D02*
X290087Y39158D01*
X299823Y68368D01*
X286841Y68368D02*
X293332Y48895D01*
X308162Y48895D02*
X308162Y68368D01*
X317898Y68368D01*
X317898Y65123D01*
X337513Y78105D02*
X337513Y48895D01*
X329399Y48895D01*
X329262Y48897D01*
X329126Y48903D01*
X328990Y48912D01*
X328854Y48926D01*
X328719Y48943D01*
X328584Y48964D01*
X328449Y48989D01*
X328316Y49017D01*
X328183Y49049D01*
X328051Y49085D01*
X327921Y49125D01*
X327791Y49168D01*
X327663Y49215D01*
X327536Y49266D01*
X327411Y49320D01*
X327287Y49377D01*
X327165Y49438D01*
X327044Y49502D01*
X326926Y49570D01*
X326809Y49641D01*
X326694Y49715D01*
X326582Y49793D01*
X326472Y49873D01*
X326364Y49957D01*
X326258Y50044D01*
X326155Y50133D01*
X326055Y50226D01*
X325957Y50321D01*
X325862Y50419D01*
X325769Y50519D01*
X325680Y50622D01*
X325593Y50728D01*
X325509Y50836D01*
X325429Y50946D01*
X325351Y51058D01*
X325277Y51173D01*
X325206Y51290D01*
X325138Y51408D01*
X325074Y51529D01*
X325013Y51651D01*
X324956Y51775D01*
X324902Y51900D01*
X324851Y52027D01*
X324804Y52155D01*
X324761Y52285D01*
X324721Y52415D01*
X324685Y52547D01*
X324653Y52680D01*
X324625Y52813D01*
X324600Y52948D01*
X324579Y53083D01*
X324562Y53218D01*
X324548Y53354D01*
X324539Y53490D01*
X324533Y53626D01*
X324531Y53763D01*
X324531Y63500D01*
X324533Y63637D01*
X324539Y63773D01*
X324548Y63909D01*
X324562Y64045D01*
X324579Y64180D01*
X324600Y64315D01*
X324625Y64450D01*
X324653Y64583D01*
X324685Y64716D01*
X324721Y64848D01*
X324761Y64978D01*
X324804Y65108D01*
X324851Y65236D01*
X324902Y65363D01*
X324956Y65488D01*
X325013Y65612D01*
X325074Y65734D01*
X325138Y65855D01*
X325206Y65973D01*
X325277Y66090D01*
X325351Y66205D01*
X325429Y66317D01*
X325509Y66427D01*
X325593Y66535D01*
X325680Y66641D01*
X325769Y66744D01*
X325862Y66844D01*
X325957Y66942D01*
X326055Y67037D01*
X326155Y67130D01*
X326258Y67219D01*
X326364Y67306D01*
X326472Y67390D01*
X326582Y67470D01*
X326694Y67548D01*
X326809Y67622D01*
X326926Y67693D01*
X327044Y67761D01*
X327165Y67825D01*
X327287Y67886D01*
X327411Y67943D01*
X327536Y67997D01*
X327663Y68048D01*
X327791Y68095D01*
X327921Y68138D01*
X328051Y68178D01*
X328183Y68214D01*
X328316Y68246D01*
X328449Y68274D01*
X328584Y68299D01*
X328719Y68320D01*
X328854Y68337D01*
X328990Y68351D01*
X329126Y68360D01*
X329262Y68366D01*
X329399Y68368D01*
X337513Y68368D01*
D12*
X300582Y297964D02*
X376582Y297964D01*
X376582Y143364D02*
X376582Y141964D01*
X376582Y296564D02*
X376582Y297964D01*
X376582Y141964D02*
X300582Y141964D01*
X300582Y143364D01*
X300582Y296564D02*
X300582Y297964D01*
D13*
X272832Y289814D03*
D10*
X308279Y305435D02*
X308279Y314833D01*
X311411Y309612D01*
X314544Y314833D01*
X314544Y305435D01*
X319164Y308046D02*
X319164Y314833D01*
X319163Y308046D02*
X319165Y307945D01*
X319171Y307844D01*
X319181Y307743D01*
X319194Y307643D01*
X319212Y307543D01*
X319233Y307444D01*
X319259Y307346D01*
X319288Y307249D01*
X319320Y307153D01*
X319357Y307059D01*
X319397Y306966D01*
X319441Y306874D01*
X319488Y306785D01*
X319539Y306697D01*
X319593Y306611D01*
X319650Y306528D01*
X319710Y306446D01*
X319774Y306368D01*
X319840Y306291D01*
X319910Y306218D01*
X319982Y306147D01*
X320057Y306079D01*
X320135Y306014D01*
X320215Y305952D01*
X320297Y305893D01*
X320382Y305837D01*
X320469Y305785D01*
X320557Y305736D01*
X320648Y305690D01*
X320740Y305649D01*
X320834Y305610D01*
X320929Y305576D01*
X321025Y305545D01*
X321123Y305518D01*
X321221Y305494D01*
X321321Y305475D01*
X321421Y305459D01*
X321521Y305447D01*
X321622Y305439D01*
X321723Y305435D01*
X321825Y305435D01*
X321926Y305439D01*
X322027Y305447D01*
X322127Y305459D01*
X322227Y305475D01*
X322327Y305494D01*
X322425Y305518D01*
X322523Y305545D01*
X322619Y305576D01*
X322714Y305610D01*
X322808Y305649D01*
X322900Y305690D01*
X322991Y305736D01*
X323079Y305785D01*
X323166Y305837D01*
X323251Y305893D01*
X323333Y305952D01*
X323413Y306014D01*
X323491Y306079D01*
X323566Y306147D01*
X323638Y306218D01*
X323708Y306291D01*
X323774Y306368D01*
X323838Y306446D01*
X323898Y306528D01*
X323955Y306611D01*
X324009Y306697D01*
X324060Y306785D01*
X324107Y306874D01*
X324151Y306966D01*
X324191Y307059D01*
X324228Y307153D01*
X324260Y307249D01*
X324289Y307346D01*
X324315Y307444D01*
X324336Y307543D01*
X324354Y307643D01*
X324367Y307743D01*
X324377Y307844D01*
X324383Y307945D01*
X324385Y308046D01*
X324385Y314833D01*
X334356Y314833D02*
X328091Y305435D01*
X334356Y305435D02*
X328091Y314833D01*
X337364Y304391D02*
X341541Y304391D01*
X345434Y305435D02*
X345434Y314833D01*
X348044Y314833D01*
X348145Y314831D01*
X348246Y314825D01*
X348347Y314815D01*
X348447Y314802D01*
X348547Y314784D01*
X348646Y314763D01*
X348744Y314737D01*
X348841Y314708D01*
X348937Y314676D01*
X349031Y314639D01*
X349124Y314599D01*
X349216Y314555D01*
X349305Y314508D01*
X349393Y314457D01*
X349479Y314403D01*
X349562Y314346D01*
X349644Y314286D01*
X349722Y314222D01*
X349799Y314156D01*
X349872Y314086D01*
X349943Y314014D01*
X350011Y313939D01*
X350076Y313861D01*
X350138Y313781D01*
X350197Y313699D01*
X350253Y313614D01*
X350305Y313527D01*
X350354Y313439D01*
X350400Y313348D01*
X350441Y313256D01*
X350480Y313162D01*
X350514Y313067D01*
X350545Y312971D01*
X350572Y312873D01*
X350596Y312775D01*
X350615Y312675D01*
X350631Y312575D01*
X350643Y312475D01*
X350651Y312374D01*
X350655Y312273D01*
X350655Y312171D01*
X350651Y312070D01*
X350643Y311969D01*
X350631Y311869D01*
X350615Y311769D01*
X350596Y311669D01*
X350572Y311571D01*
X350545Y311473D01*
X350514Y311377D01*
X350480Y311282D01*
X350441Y311188D01*
X350400Y311096D01*
X350354Y311005D01*
X350305Y310917D01*
X350253Y310830D01*
X350197Y310745D01*
X350138Y310663D01*
X350076Y310583D01*
X350011Y310505D01*
X349943Y310430D01*
X349872Y310358D01*
X349799Y310288D01*
X349722Y310222D01*
X349644Y310158D01*
X349562Y310098D01*
X349479Y310041D01*
X349393Y309987D01*
X349305Y309936D01*
X349216Y309889D01*
X349124Y309845D01*
X349031Y309805D01*
X348937Y309768D01*
X348841Y309736D01*
X348744Y309707D01*
X348646Y309681D01*
X348547Y309660D01*
X348447Y309642D01*
X348347Y309629D01*
X348246Y309619D01*
X348145Y309613D01*
X348044Y309611D01*
X348044Y309612D02*
X345434Y309612D01*
X348566Y309612D02*
X350655Y305435D01*
X353998Y305435D02*
X360264Y314833D01*
X353998Y314833D02*
X360264Y305435D01*
X363664Y312745D02*
X366275Y314833D01*
X366275Y305435D01*
X368885Y305435D02*
X363664Y305435D01*
D12*
X207164Y297964D02*
X131164Y297964D01*
X207164Y143364D02*
X207164Y141964D01*
X207164Y296564D02*
X207164Y297964D01*
X207164Y141964D02*
X131164Y141964D01*
X131164Y143364D01*
X131164Y296564D02*
X131164Y297964D01*
D13*
X103414Y289814D03*
D10*
X138861Y305435D02*
X138861Y314833D01*
X141993Y309612D01*
X145126Y314833D01*
X145126Y305435D01*
X149746Y308046D02*
X149746Y314833D01*
X149745Y308046D02*
X149747Y307945D01*
X149753Y307844D01*
X149763Y307743D01*
X149776Y307643D01*
X149794Y307543D01*
X149815Y307444D01*
X149841Y307346D01*
X149870Y307249D01*
X149902Y307153D01*
X149939Y307059D01*
X149979Y306966D01*
X150023Y306874D01*
X150070Y306785D01*
X150121Y306697D01*
X150175Y306611D01*
X150232Y306528D01*
X150292Y306446D01*
X150356Y306368D01*
X150422Y306291D01*
X150492Y306218D01*
X150564Y306147D01*
X150639Y306079D01*
X150717Y306014D01*
X150797Y305952D01*
X150879Y305893D01*
X150964Y305837D01*
X151051Y305785D01*
X151139Y305736D01*
X151230Y305690D01*
X151322Y305649D01*
X151416Y305610D01*
X151511Y305576D01*
X151607Y305545D01*
X151705Y305518D01*
X151803Y305494D01*
X151903Y305475D01*
X152003Y305459D01*
X152103Y305447D01*
X152204Y305439D01*
X152305Y305435D01*
X152407Y305435D01*
X152508Y305439D01*
X152609Y305447D01*
X152709Y305459D01*
X152809Y305475D01*
X152909Y305494D01*
X153007Y305518D01*
X153105Y305545D01*
X153201Y305576D01*
X153296Y305610D01*
X153390Y305649D01*
X153482Y305690D01*
X153573Y305736D01*
X153661Y305785D01*
X153748Y305837D01*
X153833Y305893D01*
X153915Y305952D01*
X153995Y306014D01*
X154073Y306079D01*
X154148Y306147D01*
X154220Y306218D01*
X154290Y306291D01*
X154356Y306368D01*
X154420Y306446D01*
X154480Y306528D01*
X154537Y306611D01*
X154591Y306697D01*
X154642Y306785D01*
X154689Y306874D01*
X154733Y306966D01*
X154773Y307059D01*
X154810Y307153D01*
X154842Y307249D01*
X154871Y307346D01*
X154897Y307444D01*
X154918Y307543D01*
X154936Y307643D01*
X154949Y307743D01*
X154959Y307844D01*
X154965Y307945D01*
X154967Y308046D01*
X154967Y314833D01*
X164938Y314833D02*
X158673Y305435D01*
X164938Y305435D02*
X158673Y314833D01*
X167946Y304391D02*
X172123Y304391D01*
X176016Y305435D02*
X176016Y314833D01*
X178626Y314833D01*
X178727Y314831D01*
X178828Y314825D01*
X178929Y314815D01*
X179029Y314802D01*
X179129Y314784D01*
X179228Y314763D01*
X179326Y314737D01*
X179423Y314708D01*
X179519Y314676D01*
X179613Y314639D01*
X179706Y314599D01*
X179798Y314555D01*
X179887Y314508D01*
X179975Y314457D01*
X180061Y314403D01*
X180144Y314346D01*
X180226Y314286D01*
X180304Y314222D01*
X180381Y314156D01*
X180454Y314086D01*
X180525Y314014D01*
X180593Y313939D01*
X180658Y313861D01*
X180720Y313781D01*
X180779Y313699D01*
X180835Y313614D01*
X180887Y313527D01*
X180936Y313439D01*
X180982Y313348D01*
X181023Y313256D01*
X181062Y313162D01*
X181096Y313067D01*
X181127Y312971D01*
X181154Y312873D01*
X181178Y312775D01*
X181197Y312675D01*
X181213Y312575D01*
X181225Y312475D01*
X181233Y312374D01*
X181237Y312273D01*
X181237Y312171D01*
X181233Y312070D01*
X181225Y311969D01*
X181213Y311869D01*
X181197Y311769D01*
X181178Y311669D01*
X181154Y311571D01*
X181127Y311473D01*
X181096Y311377D01*
X181062Y311282D01*
X181023Y311188D01*
X180982Y311096D01*
X180936Y311005D01*
X180887Y310917D01*
X180835Y310830D01*
X180779Y310745D01*
X180720Y310663D01*
X180658Y310583D01*
X180593Y310505D01*
X180525Y310430D01*
X180454Y310358D01*
X180381Y310288D01*
X180304Y310222D01*
X180226Y310158D01*
X180144Y310098D01*
X180061Y310041D01*
X179975Y309987D01*
X179887Y309936D01*
X179798Y309889D01*
X179706Y309845D01*
X179613Y309805D01*
X179519Y309768D01*
X179423Y309736D01*
X179326Y309707D01*
X179228Y309681D01*
X179129Y309660D01*
X179029Y309642D01*
X178929Y309629D01*
X178828Y309619D01*
X178727Y309613D01*
X178626Y309611D01*
X178626Y309612D02*
X176016Y309612D01*
X179148Y309612D02*
X181237Y305435D01*
X184580Y305435D02*
X190846Y314833D01*
X184580Y314833D02*
X190846Y305435D01*
X199468Y312484D02*
X199466Y312579D01*
X199460Y312673D01*
X199451Y312767D01*
X199438Y312861D01*
X199421Y312954D01*
X199400Y313046D01*
X199375Y313138D01*
X199347Y313228D01*
X199315Y313317D01*
X199280Y313405D01*
X199241Y313491D01*
X199199Y313576D01*
X199153Y313659D01*
X199104Y313740D01*
X199052Y313819D01*
X198997Y313896D01*
X198938Y313970D01*
X198877Y314042D01*
X198813Y314112D01*
X198746Y314179D01*
X198676Y314243D01*
X198604Y314304D01*
X198530Y314363D01*
X198453Y314418D01*
X198374Y314470D01*
X198293Y314519D01*
X198210Y314565D01*
X198125Y314607D01*
X198039Y314646D01*
X197951Y314681D01*
X197862Y314713D01*
X197772Y314741D01*
X197680Y314766D01*
X197588Y314787D01*
X197495Y314804D01*
X197401Y314817D01*
X197307Y314826D01*
X197213Y314832D01*
X197118Y314834D01*
X197118Y314833D02*
X197010Y314831D01*
X196901Y314825D01*
X196793Y314815D01*
X196686Y314802D01*
X196579Y314784D01*
X196472Y314763D01*
X196367Y314738D01*
X196262Y314709D01*
X196159Y314677D01*
X196057Y314640D01*
X195956Y314600D01*
X195857Y314557D01*
X195759Y314510D01*
X195663Y314459D01*
X195569Y314405D01*
X195477Y314348D01*
X195387Y314287D01*
X195299Y314223D01*
X195214Y314157D01*
X195131Y314087D01*
X195051Y314014D01*
X194973Y313938D01*
X194898Y313860D01*
X194826Y313779D01*
X194757Y313695D01*
X194691Y313609D01*
X194628Y313521D01*
X194569Y313430D01*
X194512Y313338D01*
X194459Y313243D01*
X194410Y313147D01*
X194364Y313048D01*
X194321Y312949D01*
X194282Y312847D01*
X194247Y312745D01*
X198685Y310656D02*
X198754Y310725D01*
X198820Y310796D01*
X198884Y310869D01*
X198945Y310945D01*
X199003Y311024D01*
X199057Y311104D01*
X199109Y311187D01*
X199157Y311271D01*
X199203Y311357D01*
X199244Y311445D01*
X199283Y311535D01*
X199318Y311626D01*
X199349Y311718D01*
X199377Y311811D01*
X199401Y311905D01*
X199421Y312000D01*
X199438Y312096D01*
X199451Y312193D01*
X199460Y312290D01*
X199466Y312387D01*
X199468Y312484D01*
X198684Y310656D02*
X194246Y305435D01*
X199467Y305435D01*
D12*
X300582Y518182D02*
X376582Y518182D01*
X376582Y363582D02*
X376582Y362182D01*
X376582Y516782D02*
X376582Y518182D01*
X376582Y362182D02*
X300582Y362182D01*
X300582Y363582D01*
X300582Y516782D02*
X300582Y518182D01*
D13*
X272832Y510032D03*
D10*
X309041Y524129D02*
X309041Y533527D01*
X312173Y528306D01*
X315306Y533527D01*
X315306Y524129D01*
X319926Y526740D02*
X319926Y533527D01*
X319925Y526740D02*
X319927Y526639D01*
X319933Y526538D01*
X319943Y526437D01*
X319956Y526337D01*
X319974Y526237D01*
X319995Y526138D01*
X320021Y526040D01*
X320050Y525943D01*
X320082Y525847D01*
X320119Y525753D01*
X320159Y525660D01*
X320203Y525568D01*
X320250Y525479D01*
X320301Y525391D01*
X320355Y525305D01*
X320412Y525222D01*
X320472Y525140D01*
X320536Y525062D01*
X320602Y524985D01*
X320672Y524912D01*
X320744Y524841D01*
X320819Y524773D01*
X320897Y524708D01*
X320977Y524646D01*
X321059Y524587D01*
X321144Y524531D01*
X321231Y524479D01*
X321319Y524430D01*
X321410Y524384D01*
X321502Y524343D01*
X321596Y524304D01*
X321691Y524270D01*
X321787Y524239D01*
X321885Y524212D01*
X321983Y524188D01*
X322083Y524169D01*
X322183Y524153D01*
X322283Y524141D01*
X322384Y524133D01*
X322485Y524129D01*
X322587Y524129D01*
X322688Y524133D01*
X322789Y524141D01*
X322889Y524153D01*
X322989Y524169D01*
X323089Y524188D01*
X323187Y524212D01*
X323285Y524239D01*
X323381Y524270D01*
X323476Y524304D01*
X323570Y524343D01*
X323662Y524384D01*
X323753Y524430D01*
X323841Y524479D01*
X323928Y524531D01*
X324013Y524587D01*
X324095Y524646D01*
X324175Y524708D01*
X324253Y524773D01*
X324328Y524841D01*
X324400Y524912D01*
X324470Y524985D01*
X324536Y525062D01*
X324600Y525140D01*
X324660Y525222D01*
X324717Y525305D01*
X324771Y525391D01*
X324822Y525479D01*
X324869Y525568D01*
X324913Y525660D01*
X324953Y525753D01*
X324990Y525847D01*
X325022Y525943D01*
X325051Y526040D01*
X325077Y526138D01*
X325098Y526237D01*
X325116Y526337D01*
X325129Y526437D01*
X325139Y526538D01*
X325145Y526639D01*
X325147Y526740D01*
X325147Y533527D01*
X335118Y533527D02*
X328852Y524129D01*
X335118Y524129D02*
X328852Y533527D01*
X338126Y523085D02*
X342303Y523085D01*
X347835Y524129D02*
X347835Y533527D01*
X350445Y533527D02*
X345224Y533527D01*
X353236Y524129D02*
X359502Y533527D01*
X353236Y533527D02*
X359502Y524129D01*
X362902Y531439D02*
X365513Y533527D01*
X365513Y524129D01*
X368123Y524129D02*
X362902Y524129D01*
D12*
X207164Y518182D02*
X131164Y518182D01*
X207164Y363582D02*
X207164Y362182D01*
X207164Y516782D02*
X207164Y518182D01*
X207164Y362182D02*
X131164Y362182D01*
X131164Y363582D01*
X131164Y516782D02*
X131164Y518182D01*
D13*
X103414Y510032D03*
D10*
X139623Y524129D02*
X139623Y533527D01*
X142755Y528306D01*
X145888Y533527D01*
X145888Y524129D01*
X150508Y526740D02*
X150508Y533527D01*
X150507Y526740D02*
X150509Y526639D01*
X150515Y526538D01*
X150525Y526437D01*
X150538Y526337D01*
X150556Y526237D01*
X150577Y526138D01*
X150603Y526040D01*
X150632Y525943D01*
X150664Y525847D01*
X150701Y525753D01*
X150741Y525660D01*
X150785Y525568D01*
X150832Y525479D01*
X150883Y525391D01*
X150937Y525305D01*
X150994Y525222D01*
X151054Y525140D01*
X151118Y525062D01*
X151184Y524985D01*
X151254Y524912D01*
X151326Y524841D01*
X151401Y524773D01*
X151479Y524708D01*
X151559Y524646D01*
X151641Y524587D01*
X151726Y524531D01*
X151813Y524479D01*
X151901Y524430D01*
X151992Y524384D01*
X152084Y524343D01*
X152178Y524304D01*
X152273Y524270D01*
X152369Y524239D01*
X152467Y524212D01*
X152565Y524188D01*
X152665Y524169D01*
X152765Y524153D01*
X152865Y524141D01*
X152966Y524133D01*
X153067Y524129D01*
X153169Y524129D01*
X153270Y524133D01*
X153371Y524141D01*
X153471Y524153D01*
X153571Y524169D01*
X153671Y524188D01*
X153769Y524212D01*
X153867Y524239D01*
X153963Y524270D01*
X154058Y524304D01*
X154152Y524343D01*
X154244Y524384D01*
X154335Y524430D01*
X154423Y524479D01*
X154510Y524531D01*
X154595Y524587D01*
X154677Y524646D01*
X154757Y524708D01*
X154835Y524773D01*
X154910Y524841D01*
X154982Y524912D01*
X155052Y524985D01*
X155118Y525062D01*
X155182Y525140D01*
X155242Y525222D01*
X155299Y525305D01*
X155353Y525391D01*
X155404Y525479D01*
X155451Y525568D01*
X155495Y525660D01*
X155535Y525753D01*
X155572Y525847D01*
X155604Y525943D01*
X155633Y526040D01*
X155659Y526138D01*
X155680Y526237D01*
X155698Y526337D01*
X155711Y526437D01*
X155721Y526538D01*
X155727Y526639D01*
X155729Y526740D01*
X155729Y533527D01*
X165700Y533527D02*
X159434Y524129D01*
X165700Y524129D02*
X159434Y533527D01*
X168708Y523085D02*
X172885Y523085D01*
X178417Y524129D02*
X178417Y533527D01*
X181027Y533527D02*
X175806Y533527D01*
X183818Y524129D02*
X190084Y533527D01*
X183818Y533527D02*
X190084Y524129D01*
X198706Y531178D02*
X198704Y531273D01*
X198698Y531367D01*
X198689Y531461D01*
X198676Y531555D01*
X198659Y531648D01*
X198638Y531740D01*
X198613Y531832D01*
X198585Y531922D01*
X198553Y532011D01*
X198518Y532099D01*
X198479Y532185D01*
X198437Y532270D01*
X198391Y532353D01*
X198342Y532434D01*
X198290Y532513D01*
X198235Y532590D01*
X198176Y532664D01*
X198115Y532736D01*
X198051Y532806D01*
X197984Y532873D01*
X197914Y532937D01*
X197842Y532998D01*
X197768Y533057D01*
X197691Y533112D01*
X197612Y533164D01*
X197531Y533213D01*
X197448Y533259D01*
X197363Y533301D01*
X197277Y533340D01*
X197189Y533375D01*
X197100Y533407D01*
X197010Y533435D01*
X196918Y533460D01*
X196826Y533481D01*
X196733Y533498D01*
X196639Y533511D01*
X196545Y533520D01*
X196451Y533526D01*
X196356Y533528D01*
X196356Y533527D02*
X196248Y533525D01*
X196139Y533519D01*
X196031Y533509D01*
X195924Y533496D01*
X195817Y533478D01*
X195710Y533457D01*
X195605Y533432D01*
X195500Y533403D01*
X195397Y533371D01*
X195295Y533334D01*
X195194Y533294D01*
X195095Y533251D01*
X194997Y533204D01*
X194901Y533153D01*
X194807Y533099D01*
X194715Y533042D01*
X194625Y532981D01*
X194537Y532917D01*
X194452Y532851D01*
X194369Y532781D01*
X194289Y532708D01*
X194211Y532632D01*
X194136Y532554D01*
X194064Y532473D01*
X193995Y532389D01*
X193929Y532303D01*
X193866Y532215D01*
X193807Y532124D01*
X193750Y532032D01*
X193697Y531937D01*
X193648Y531841D01*
X193602Y531742D01*
X193559Y531643D01*
X193520Y531541D01*
X193485Y531439D01*
X197923Y529350D02*
X197992Y529419D01*
X198058Y529490D01*
X198122Y529563D01*
X198183Y529639D01*
X198241Y529718D01*
X198295Y529798D01*
X198347Y529881D01*
X198395Y529965D01*
X198441Y530051D01*
X198482Y530139D01*
X198521Y530229D01*
X198556Y530320D01*
X198587Y530412D01*
X198615Y530505D01*
X198639Y530599D01*
X198659Y530694D01*
X198676Y530790D01*
X198689Y530887D01*
X198698Y530984D01*
X198704Y531081D01*
X198706Y531178D01*
X197922Y529350D02*
X193484Y524129D01*
X198705Y524129D01*
D14*
X269240Y650240D02*
X289560Y650240D01*
X269240Y650240D02*
X266700Y647700D01*
X269240Y624840D02*
X289560Y624840D01*
X269240Y624840D02*
X266700Y627380D01*
X266700Y647700D01*
X289560Y624840D02*
X292100Y627380D01*
X292100Y647700D02*
X289560Y650240D01*
X292100Y647700D02*
X292100Y627380D01*
X241300Y627380D02*
X241300Y647700D01*
X241300Y627380D02*
X243840Y624840D01*
X241300Y627380D02*
X238760Y624840D01*
X218440Y624840D02*
X215900Y627380D01*
X215900Y647700D01*
X243840Y624840D02*
X264160Y624840D01*
X266700Y627380D01*
X238760Y624840D02*
X218440Y624840D01*
X243840Y650240D02*
X264160Y650240D01*
X238760Y650240D02*
X218440Y650240D01*
X241300Y647700D02*
X243840Y650240D01*
X218440Y650240D02*
X215900Y647700D01*
X264160Y650240D02*
X266700Y647700D01*
X241300Y647700D02*
X238760Y650240D01*
D15*
X279400Y655320D02*
X279400Y704850D01*
X254000Y704850D02*
X254000Y655320D01*
X228600Y655320D02*
X228600Y704850D01*
D16*
X229094Y644271D02*
X226695Y642352D01*
X229094Y644271D02*
X229094Y635635D01*
X226695Y635635D02*
X231493Y635635D01*
X253464Y644271D02*
X253556Y644269D01*
X253647Y644263D01*
X253738Y644254D01*
X253829Y644240D01*
X253919Y644223D01*
X254008Y644201D01*
X254096Y644176D01*
X254183Y644148D01*
X254269Y644115D01*
X254353Y644079D01*
X254436Y644040D01*
X254517Y643997D01*
X254596Y643950D01*
X254673Y643901D01*
X254748Y643848D01*
X254820Y643792D01*
X254890Y643733D01*
X254958Y643671D01*
X255023Y643606D01*
X255085Y643538D01*
X255144Y643468D01*
X255200Y643396D01*
X255253Y643321D01*
X255302Y643244D01*
X255349Y643165D01*
X255392Y643084D01*
X255431Y643001D01*
X255467Y642917D01*
X255500Y642831D01*
X255528Y642744D01*
X255553Y642656D01*
X255575Y642567D01*
X255592Y642477D01*
X255606Y642386D01*
X255615Y642295D01*
X255621Y642204D01*
X255623Y642112D01*
X253464Y644271D02*
X253361Y644269D01*
X253259Y644263D01*
X253157Y644254D01*
X253055Y644241D01*
X252954Y644224D01*
X252853Y644203D01*
X252754Y644179D01*
X252655Y644150D01*
X252558Y644119D01*
X252461Y644083D01*
X252366Y644045D01*
X252273Y644002D01*
X252181Y643956D01*
X252091Y643907D01*
X252003Y643855D01*
X251916Y643799D01*
X251832Y643740D01*
X251751Y643679D01*
X251671Y643614D01*
X251594Y643546D01*
X251519Y643475D01*
X251448Y643402D01*
X251379Y643326D01*
X251312Y643248D01*
X251249Y643167D01*
X251189Y643084D01*
X251132Y642999D01*
X251078Y642912D01*
X251027Y642822D01*
X250980Y642731D01*
X250936Y642639D01*
X250895Y642544D01*
X250858Y642449D01*
X250825Y642352D01*
X254903Y640433D02*
X254970Y640499D01*
X255034Y640568D01*
X255095Y640639D01*
X255153Y640713D01*
X255208Y640789D01*
X255260Y640867D01*
X255309Y640947D01*
X255355Y641029D01*
X255397Y641113D01*
X255436Y641199D01*
X255471Y641286D01*
X255502Y641374D01*
X255530Y641464D01*
X255555Y641554D01*
X255576Y641646D01*
X255593Y641738D01*
X255606Y641831D01*
X255615Y641924D01*
X255621Y642018D01*
X255623Y642112D01*
X254903Y640433D02*
X250825Y635635D01*
X255623Y635635D01*
X274955Y635635D02*
X277354Y635635D01*
X277451Y635637D01*
X277547Y635643D01*
X277643Y635652D01*
X277739Y635666D01*
X277834Y635683D01*
X277928Y635705D01*
X278021Y635730D01*
X278114Y635758D01*
X278205Y635791D01*
X278294Y635827D01*
X278382Y635867D01*
X278469Y635910D01*
X278554Y635956D01*
X278636Y636006D01*
X278717Y636060D01*
X278795Y636116D01*
X278871Y636176D01*
X278945Y636238D01*
X279016Y636304D01*
X279084Y636372D01*
X279150Y636443D01*
X279212Y636517D01*
X279272Y636593D01*
X279328Y636671D01*
X279382Y636752D01*
X279432Y636835D01*
X279478Y636919D01*
X279521Y637006D01*
X279561Y637094D01*
X279597Y637183D01*
X279630Y637274D01*
X279658Y637367D01*
X279683Y637460D01*
X279705Y637554D01*
X279722Y637649D01*
X279736Y637745D01*
X279745Y637841D01*
X279751Y637937D01*
X279753Y638034D01*
X279751Y638131D01*
X279745Y638227D01*
X279736Y638323D01*
X279722Y638419D01*
X279705Y638514D01*
X279683Y638608D01*
X279658Y638701D01*
X279630Y638794D01*
X279597Y638885D01*
X279561Y638974D01*
X279521Y639062D01*
X279478Y639149D01*
X279432Y639234D01*
X279382Y639316D01*
X279328Y639397D01*
X279272Y639475D01*
X279212Y639551D01*
X279150Y639625D01*
X279084Y639696D01*
X279016Y639764D01*
X278945Y639830D01*
X278871Y639892D01*
X278795Y639952D01*
X278717Y640008D01*
X278636Y640062D01*
X278554Y640112D01*
X278469Y640158D01*
X278382Y640201D01*
X278294Y640241D01*
X278205Y640277D01*
X278114Y640310D01*
X278021Y640338D01*
X277928Y640363D01*
X277834Y640385D01*
X277739Y640402D01*
X277643Y640416D01*
X277547Y640425D01*
X277451Y640431D01*
X277354Y640433D01*
X277834Y644271D02*
X274955Y644271D01*
X277834Y644271D02*
X277920Y644269D01*
X278006Y644263D01*
X278092Y644254D01*
X278177Y644240D01*
X278261Y644223D01*
X278345Y644202D01*
X278427Y644177D01*
X278508Y644149D01*
X278588Y644117D01*
X278667Y644081D01*
X278743Y644042D01*
X278818Y643999D01*
X278891Y643954D01*
X278962Y643905D01*
X279030Y643852D01*
X279097Y643797D01*
X279160Y643739D01*
X279221Y643678D01*
X279279Y643615D01*
X279334Y643548D01*
X279387Y643480D01*
X279436Y643409D01*
X279481Y643336D01*
X279524Y643261D01*
X279563Y643185D01*
X279599Y643106D01*
X279631Y643026D01*
X279659Y642945D01*
X279684Y642863D01*
X279705Y642779D01*
X279722Y642695D01*
X279736Y642610D01*
X279745Y642524D01*
X279751Y642438D01*
X279753Y642352D01*
X279751Y642266D01*
X279745Y642180D01*
X279736Y642094D01*
X279722Y642009D01*
X279705Y641925D01*
X279684Y641841D01*
X279659Y641759D01*
X279631Y641678D01*
X279599Y641598D01*
X279563Y641519D01*
X279524Y641443D01*
X279481Y641368D01*
X279436Y641295D01*
X279387Y641224D01*
X279334Y641156D01*
X279279Y641089D01*
X279221Y641026D01*
X279160Y640965D01*
X279097Y640907D01*
X279030Y640852D01*
X278962Y640799D01*
X278891Y640750D01*
X278818Y640705D01*
X278743Y640662D01*
X278667Y640623D01*
X278588Y640587D01*
X278508Y640555D01*
X278427Y640527D01*
X278345Y640502D01*
X278261Y640481D01*
X278177Y640464D01*
X278092Y640450D01*
X278006Y640441D01*
X277920Y640435D01*
X277834Y640433D01*
X275915Y640433D01*
D17*
X279400Y652780D03*
X279400Y622300D03*
X254000Y622300D03*
X228600Y622300D03*
X254000Y652780D03*
X228600Y652780D03*
D14*
X15240Y622300D02*
X12700Y624840D01*
X15240Y622300D02*
X12700Y619760D01*
X35560Y622300D02*
X38100Y624840D01*
X35560Y622300D02*
X38100Y619760D01*
X38100Y599440D01*
X35560Y596900D01*
X38100Y645160D02*
X35560Y647700D01*
X38100Y645160D02*
X38100Y624840D01*
X35560Y647700D02*
X15240Y647700D01*
X12700Y645160D01*
X12700Y624840D01*
X12700Y619760D02*
X12700Y599440D01*
X15240Y596900D01*
X35560Y596900D01*
D18*
X46990Y596392D02*
X56134Y596392D01*
X52070Y599440D02*
X46990Y596392D01*
X52070Y599440D02*
X46990Y602488D01*
X56134Y602488D01*
X53594Y607263D02*
X46990Y607263D01*
X53594Y607263D02*
X53694Y607265D01*
X53793Y607271D01*
X53893Y607281D01*
X53991Y607294D01*
X54090Y607312D01*
X54187Y607333D01*
X54283Y607358D01*
X54379Y607387D01*
X54473Y607420D01*
X54566Y607456D01*
X54657Y607496D01*
X54747Y607540D01*
X54835Y607587D01*
X54921Y607637D01*
X55005Y607691D01*
X55087Y607748D01*
X55166Y607808D01*
X55244Y607872D01*
X55318Y607938D01*
X55390Y608007D01*
X55459Y608079D01*
X55525Y608153D01*
X55589Y608231D01*
X55649Y608310D01*
X55706Y608392D01*
X55760Y608476D01*
X55810Y608562D01*
X55857Y608650D01*
X55901Y608740D01*
X55941Y608831D01*
X55977Y608924D01*
X56010Y609018D01*
X56039Y609114D01*
X56064Y609210D01*
X56085Y609307D01*
X56103Y609406D01*
X56116Y609504D01*
X56126Y609604D01*
X56132Y609703D01*
X56134Y609803D01*
X56132Y609903D01*
X56126Y610002D01*
X56116Y610102D01*
X56103Y610200D01*
X56085Y610299D01*
X56064Y610396D01*
X56039Y610492D01*
X56010Y610588D01*
X55977Y610682D01*
X55941Y610775D01*
X55901Y610866D01*
X55857Y610956D01*
X55810Y611044D01*
X55760Y611130D01*
X55706Y611214D01*
X55649Y611296D01*
X55589Y611375D01*
X55525Y611453D01*
X55459Y611527D01*
X55390Y611599D01*
X55318Y611668D01*
X55244Y611734D01*
X55166Y611798D01*
X55087Y611858D01*
X55005Y611915D01*
X54921Y611969D01*
X54835Y612019D01*
X54747Y612066D01*
X54657Y612110D01*
X54566Y612150D01*
X54473Y612186D01*
X54379Y612219D01*
X54283Y612248D01*
X54187Y612273D01*
X54090Y612294D01*
X53991Y612312D01*
X53893Y612325D01*
X53793Y612335D01*
X53694Y612341D01*
X53594Y612343D01*
X46990Y612343D01*
X56134Y616204D02*
X46990Y622300D01*
X46990Y616204D02*
X56134Y622300D01*
X57150Y625450D02*
X57150Y629514D01*
X56134Y633542D02*
X46990Y633542D01*
X46990Y636082D01*
X46992Y636182D01*
X46998Y636281D01*
X47008Y636381D01*
X47021Y636479D01*
X47039Y636578D01*
X47060Y636675D01*
X47085Y636771D01*
X47114Y636867D01*
X47147Y636961D01*
X47183Y637054D01*
X47223Y637145D01*
X47267Y637235D01*
X47314Y637323D01*
X47364Y637409D01*
X47418Y637493D01*
X47475Y637575D01*
X47535Y637654D01*
X47599Y637732D01*
X47665Y637806D01*
X47734Y637878D01*
X47806Y637947D01*
X47880Y638013D01*
X47958Y638077D01*
X48037Y638137D01*
X48119Y638194D01*
X48203Y638248D01*
X48289Y638298D01*
X48377Y638345D01*
X48467Y638389D01*
X48558Y638429D01*
X48651Y638465D01*
X48745Y638498D01*
X48841Y638527D01*
X48937Y638552D01*
X49034Y638573D01*
X49133Y638591D01*
X49231Y638604D01*
X49331Y638614D01*
X49430Y638620D01*
X49530Y638622D01*
X49630Y638620D01*
X49729Y638614D01*
X49829Y638604D01*
X49927Y638591D01*
X50026Y638573D01*
X50123Y638552D01*
X50219Y638527D01*
X50315Y638498D01*
X50409Y638465D01*
X50502Y638429D01*
X50593Y638389D01*
X50683Y638345D01*
X50771Y638298D01*
X50857Y638248D01*
X50941Y638194D01*
X51023Y638137D01*
X51102Y638077D01*
X51180Y638013D01*
X51254Y637947D01*
X51326Y637878D01*
X51395Y637806D01*
X51461Y637732D01*
X51525Y637654D01*
X51585Y637575D01*
X51642Y637493D01*
X51696Y637409D01*
X51746Y637323D01*
X51793Y637235D01*
X51837Y637145D01*
X51877Y637054D01*
X51913Y636961D01*
X51946Y636867D01*
X51975Y636771D01*
X52000Y636675D01*
X52021Y636578D01*
X52039Y636479D01*
X52052Y636381D01*
X52062Y636281D01*
X52068Y636182D01*
X52070Y636082D01*
X52070Y633542D01*
X52070Y636590D02*
X56134Y638622D01*
X56134Y642112D02*
X46990Y648208D01*
X46990Y642112D02*
X56134Y648208D01*
D14*
X35560Y12700D02*
X15240Y12700D01*
X12700Y66040D02*
X12700Y86360D01*
X12700Y66040D02*
X15240Y63500D01*
X38100Y66040D02*
X38100Y86360D01*
X38100Y66040D02*
X35560Y63500D01*
X38100Y86360D02*
X35560Y88900D01*
X15240Y88900D02*
X12700Y86360D01*
X15240Y63500D02*
X12700Y60960D01*
X12700Y40640D01*
X15240Y38100D01*
X12700Y35560D01*
X12700Y15240D02*
X15240Y12700D01*
X12700Y15240D02*
X12700Y35560D01*
X38100Y60960D02*
X35560Y63500D01*
X38100Y40640D02*
X35560Y38100D01*
X38100Y35560D01*
X38100Y15240D02*
X35560Y12700D01*
X38100Y40640D02*
X38100Y60960D01*
X38100Y35560D02*
X38100Y15240D01*
X35560Y114300D02*
X15240Y114300D01*
X12700Y111760D01*
X35560Y114300D02*
X38100Y111760D01*
X38100Y91440D02*
X35560Y88900D01*
X15240Y88900D02*
X12700Y91440D01*
X12700Y111760D01*
X38100Y111760D02*
X38100Y91440D01*
D16*
X42799Y28434D02*
X44718Y26035D01*
X42799Y28434D02*
X51435Y28434D01*
X51435Y26035D02*
X51435Y30833D01*
X42799Y54074D02*
X42801Y54166D01*
X42807Y54257D01*
X42816Y54348D01*
X42830Y54439D01*
X42847Y54529D01*
X42869Y54618D01*
X42894Y54706D01*
X42922Y54793D01*
X42955Y54879D01*
X42991Y54963D01*
X43030Y55046D01*
X43073Y55127D01*
X43120Y55206D01*
X43169Y55283D01*
X43222Y55358D01*
X43278Y55430D01*
X43337Y55500D01*
X43399Y55568D01*
X43464Y55633D01*
X43532Y55695D01*
X43602Y55754D01*
X43674Y55810D01*
X43749Y55863D01*
X43826Y55912D01*
X43905Y55959D01*
X43986Y56002D01*
X44069Y56041D01*
X44153Y56077D01*
X44239Y56110D01*
X44326Y56138D01*
X44414Y56163D01*
X44503Y56185D01*
X44593Y56202D01*
X44684Y56216D01*
X44775Y56225D01*
X44866Y56231D01*
X44958Y56233D01*
X42799Y54074D02*
X42801Y53971D01*
X42807Y53869D01*
X42816Y53767D01*
X42829Y53665D01*
X42846Y53564D01*
X42867Y53463D01*
X42891Y53364D01*
X42920Y53265D01*
X42951Y53168D01*
X42987Y53071D01*
X43025Y52976D01*
X43068Y52883D01*
X43114Y52791D01*
X43163Y52701D01*
X43215Y52613D01*
X43271Y52526D01*
X43330Y52442D01*
X43391Y52361D01*
X43456Y52281D01*
X43524Y52204D01*
X43595Y52129D01*
X43668Y52058D01*
X43744Y51989D01*
X43822Y51922D01*
X43903Y51859D01*
X43986Y51799D01*
X44071Y51742D01*
X44158Y51688D01*
X44248Y51637D01*
X44339Y51590D01*
X44431Y51546D01*
X44526Y51505D01*
X44621Y51468D01*
X44718Y51435D01*
X46637Y55513D02*
X46571Y55580D01*
X46502Y55644D01*
X46431Y55705D01*
X46357Y55763D01*
X46281Y55818D01*
X46203Y55870D01*
X46123Y55919D01*
X46041Y55965D01*
X45957Y56007D01*
X45871Y56046D01*
X45784Y56081D01*
X45696Y56112D01*
X45606Y56140D01*
X45516Y56165D01*
X45424Y56186D01*
X45332Y56203D01*
X45239Y56216D01*
X45146Y56225D01*
X45052Y56231D01*
X44958Y56233D01*
X46637Y55513D02*
X51435Y51435D01*
X51435Y56233D01*
X51435Y76835D02*
X51435Y79234D01*
X51433Y79331D01*
X51427Y79427D01*
X51418Y79523D01*
X51404Y79619D01*
X51387Y79714D01*
X51365Y79808D01*
X51340Y79901D01*
X51312Y79994D01*
X51279Y80085D01*
X51243Y80174D01*
X51203Y80262D01*
X51160Y80349D01*
X51114Y80434D01*
X51064Y80516D01*
X51010Y80597D01*
X50954Y80675D01*
X50894Y80751D01*
X50832Y80825D01*
X50766Y80896D01*
X50698Y80964D01*
X50627Y81030D01*
X50553Y81092D01*
X50477Y81152D01*
X50399Y81208D01*
X50318Y81262D01*
X50236Y81312D01*
X50151Y81358D01*
X50064Y81401D01*
X49976Y81441D01*
X49887Y81477D01*
X49796Y81510D01*
X49703Y81538D01*
X49610Y81563D01*
X49516Y81585D01*
X49421Y81602D01*
X49325Y81616D01*
X49229Y81625D01*
X49133Y81631D01*
X49036Y81633D01*
X48939Y81631D01*
X48843Y81625D01*
X48747Y81616D01*
X48651Y81602D01*
X48556Y81585D01*
X48462Y81563D01*
X48369Y81538D01*
X48276Y81510D01*
X48185Y81477D01*
X48096Y81441D01*
X48008Y81401D01*
X47921Y81358D01*
X47837Y81312D01*
X47754Y81262D01*
X47673Y81208D01*
X47595Y81152D01*
X47519Y81092D01*
X47445Y81030D01*
X47374Y80964D01*
X47306Y80896D01*
X47240Y80825D01*
X47178Y80751D01*
X47118Y80675D01*
X47062Y80597D01*
X47008Y80516D01*
X46958Y80434D01*
X46912Y80349D01*
X46869Y80262D01*
X46829Y80174D01*
X46793Y80085D01*
X46760Y79994D01*
X46732Y79901D01*
X46707Y79808D01*
X46685Y79714D01*
X46668Y79619D01*
X46654Y79523D01*
X46645Y79427D01*
X46639Y79331D01*
X46637Y79234D01*
X42799Y79714D02*
X42799Y76835D01*
X42799Y79714D02*
X42801Y79800D01*
X42807Y79886D01*
X42816Y79972D01*
X42830Y80057D01*
X42847Y80141D01*
X42868Y80225D01*
X42893Y80307D01*
X42921Y80388D01*
X42953Y80468D01*
X42989Y80547D01*
X43028Y80623D01*
X43071Y80698D01*
X43116Y80771D01*
X43165Y80842D01*
X43218Y80910D01*
X43273Y80977D01*
X43331Y81040D01*
X43392Y81101D01*
X43455Y81159D01*
X43522Y81214D01*
X43590Y81267D01*
X43661Y81316D01*
X43734Y81361D01*
X43809Y81404D01*
X43885Y81443D01*
X43964Y81479D01*
X44044Y81511D01*
X44125Y81539D01*
X44207Y81564D01*
X44291Y81585D01*
X44375Y81602D01*
X44460Y81616D01*
X44546Y81625D01*
X44632Y81631D01*
X44718Y81633D01*
X44804Y81631D01*
X44890Y81625D01*
X44976Y81616D01*
X45061Y81602D01*
X45145Y81585D01*
X45229Y81564D01*
X45311Y81539D01*
X45392Y81511D01*
X45472Y81479D01*
X45551Y81443D01*
X45627Y81404D01*
X45702Y81361D01*
X45775Y81316D01*
X45846Y81267D01*
X45914Y81214D01*
X45981Y81159D01*
X46044Y81101D01*
X46105Y81040D01*
X46163Y80977D01*
X46218Y80910D01*
X46271Y80842D01*
X46320Y80771D01*
X46365Y80698D01*
X46408Y80623D01*
X46447Y80547D01*
X46483Y80468D01*
X46515Y80388D01*
X46543Y80307D01*
X46568Y80225D01*
X46589Y80141D01*
X46606Y80057D01*
X46620Y79972D01*
X46629Y79886D01*
X46635Y79800D01*
X46637Y79714D01*
X46637Y77795D01*
X49516Y102235D02*
X42799Y104154D01*
X49516Y102235D02*
X49516Y107033D01*
X47597Y105593D02*
X51435Y105593D01*
D18*
X57150Y17618D02*
X66294Y17618D01*
X62230Y20666D02*
X57150Y17618D01*
X62230Y20666D02*
X57150Y23714D01*
X66294Y23714D01*
X63754Y28489D02*
X57150Y28489D01*
X63754Y28489D02*
X63854Y28491D01*
X63953Y28497D01*
X64053Y28507D01*
X64151Y28520D01*
X64250Y28538D01*
X64347Y28559D01*
X64443Y28584D01*
X64539Y28613D01*
X64633Y28646D01*
X64726Y28682D01*
X64817Y28722D01*
X64907Y28766D01*
X64995Y28813D01*
X65081Y28863D01*
X65165Y28917D01*
X65247Y28974D01*
X65326Y29034D01*
X65404Y29098D01*
X65478Y29164D01*
X65550Y29233D01*
X65619Y29305D01*
X65685Y29379D01*
X65749Y29457D01*
X65809Y29536D01*
X65866Y29618D01*
X65920Y29702D01*
X65970Y29788D01*
X66017Y29876D01*
X66061Y29966D01*
X66101Y30057D01*
X66137Y30150D01*
X66170Y30244D01*
X66199Y30340D01*
X66224Y30436D01*
X66245Y30533D01*
X66263Y30632D01*
X66276Y30730D01*
X66286Y30830D01*
X66292Y30929D01*
X66294Y31029D01*
X66292Y31129D01*
X66286Y31228D01*
X66276Y31328D01*
X66263Y31426D01*
X66245Y31525D01*
X66224Y31622D01*
X66199Y31718D01*
X66170Y31814D01*
X66137Y31908D01*
X66101Y32001D01*
X66061Y32092D01*
X66017Y32182D01*
X65970Y32270D01*
X65920Y32356D01*
X65866Y32440D01*
X65809Y32522D01*
X65749Y32601D01*
X65685Y32679D01*
X65619Y32753D01*
X65550Y32825D01*
X65478Y32894D01*
X65404Y32960D01*
X65326Y33024D01*
X65247Y33084D01*
X65165Y33141D01*
X65081Y33195D01*
X64995Y33245D01*
X64907Y33292D01*
X64817Y33336D01*
X64726Y33376D01*
X64633Y33412D01*
X64539Y33445D01*
X64443Y33474D01*
X64347Y33499D01*
X64250Y33520D01*
X64151Y33538D01*
X64053Y33551D01*
X63953Y33561D01*
X63854Y33567D01*
X63754Y33569D01*
X57150Y33569D01*
X66294Y37430D02*
X57150Y43526D01*
X57150Y37430D02*
X66294Y43526D01*
X67310Y46675D02*
X67310Y50739D01*
X66294Y54768D02*
X57150Y54768D01*
X57150Y57308D01*
X57152Y57408D01*
X57158Y57507D01*
X57168Y57607D01*
X57181Y57705D01*
X57199Y57804D01*
X57220Y57901D01*
X57245Y57997D01*
X57274Y58093D01*
X57307Y58187D01*
X57343Y58280D01*
X57383Y58371D01*
X57427Y58461D01*
X57474Y58549D01*
X57524Y58635D01*
X57578Y58719D01*
X57635Y58801D01*
X57695Y58880D01*
X57759Y58958D01*
X57825Y59032D01*
X57894Y59104D01*
X57966Y59173D01*
X58040Y59239D01*
X58118Y59303D01*
X58197Y59363D01*
X58279Y59420D01*
X58363Y59474D01*
X58449Y59524D01*
X58537Y59571D01*
X58627Y59615D01*
X58718Y59655D01*
X58811Y59691D01*
X58905Y59724D01*
X59001Y59753D01*
X59097Y59778D01*
X59194Y59799D01*
X59293Y59817D01*
X59391Y59830D01*
X59491Y59840D01*
X59590Y59846D01*
X59690Y59848D01*
X59790Y59846D01*
X59889Y59840D01*
X59989Y59830D01*
X60087Y59817D01*
X60186Y59799D01*
X60283Y59778D01*
X60379Y59753D01*
X60475Y59724D01*
X60569Y59691D01*
X60662Y59655D01*
X60753Y59615D01*
X60843Y59571D01*
X60931Y59524D01*
X61017Y59474D01*
X61101Y59420D01*
X61183Y59363D01*
X61262Y59303D01*
X61340Y59239D01*
X61414Y59173D01*
X61486Y59104D01*
X61555Y59032D01*
X61621Y58958D01*
X61685Y58880D01*
X61745Y58801D01*
X61802Y58719D01*
X61856Y58635D01*
X61906Y58549D01*
X61953Y58461D01*
X61997Y58371D01*
X62037Y58280D01*
X62073Y58187D01*
X62106Y58093D01*
X62135Y57997D01*
X62160Y57901D01*
X62181Y57804D01*
X62199Y57705D01*
X62212Y57607D01*
X62222Y57507D01*
X62228Y57408D01*
X62230Y57308D01*
X62230Y54768D01*
X62230Y57816D02*
X66294Y59848D01*
X66294Y63337D02*
X57150Y69433D01*
X57150Y63337D02*
X66294Y69433D01*
X59182Y72989D02*
X57150Y75529D01*
X66294Y75529D01*
X66294Y72989D02*
X66294Y78069D01*
X67310Y81727D02*
X67310Y85791D01*
X66294Y91451D02*
X66294Y93483D01*
X66294Y91451D02*
X66292Y91362D01*
X66286Y91274D01*
X66277Y91186D01*
X66263Y91098D01*
X66246Y91011D01*
X66225Y90925D01*
X66200Y90840D01*
X66171Y90756D01*
X66139Y90673D01*
X66104Y90592D01*
X66064Y90513D01*
X66022Y90435D01*
X65976Y90359D01*
X65927Y90285D01*
X65874Y90214D01*
X65819Y90145D01*
X65760Y90078D01*
X65699Y90014D01*
X65635Y89953D01*
X65568Y89894D01*
X65499Y89839D01*
X65428Y89786D01*
X65354Y89737D01*
X65278Y89691D01*
X65200Y89649D01*
X65121Y89609D01*
X65040Y89574D01*
X64957Y89542D01*
X64873Y89513D01*
X64788Y89488D01*
X64702Y89467D01*
X64615Y89450D01*
X64527Y89436D01*
X64439Y89427D01*
X64351Y89421D01*
X64262Y89419D01*
X59182Y89419D01*
X59093Y89421D01*
X59005Y89427D01*
X58917Y89436D01*
X58829Y89450D01*
X58742Y89467D01*
X58656Y89488D01*
X58571Y89513D01*
X58487Y89542D01*
X58404Y89574D01*
X58323Y89609D01*
X58244Y89649D01*
X58166Y89691D01*
X58090Y89737D01*
X58016Y89786D01*
X57945Y89839D01*
X57876Y89894D01*
X57809Y89953D01*
X57745Y90014D01*
X57684Y90078D01*
X57625Y90145D01*
X57570Y90214D01*
X57517Y90285D01*
X57468Y90359D01*
X57422Y90435D01*
X57380Y90513D01*
X57340Y90592D01*
X57305Y90673D01*
X57273Y90756D01*
X57244Y90840D01*
X57219Y90925D01*
X57198Y91011D01*
X57181Y91098D01*
X57167Y91186D01*
X57158Y91274D01*
X57152Y91362D01*
X57150Y91451D01*
X57150Y93483D01*
X57150Y98999D02*
X66294Y98999D01*
X57150Y96459D02*
X57150Y101539D01*
X57150Y105318D02*
X66294Y105318D01*
X66294Y109382D01*
D14*
X35560Y139700D02*
X15240Y139700D01*
X12700Y193040D02*
X12700Y213360D01*
X12700Y193040D02*
X15240Y190500D01*
X38100Y193040D02*
X38100Y213360D01*
X38100Y193040D02*
X35560Y190500D01*
X38100Y213360D02*
X35560Y215900D01*
X15240Y215900D02*
X12700Y213360D01*
X15240Y190500D02*
X12700Y187960D01*
X12700Y167640D01*
X15240Y165100D01*
X12700Y162560D01*
X12700Y142240D02*
X15240Y139700D01*
X12700Y142240D02*
X12700Y162560D01*
X38100Y187960D02*
X35560Y190500D01*
X38100Y167640D02*
X35560Y165100D01*
X38100Y162560D01*
X38100Y142240D02*
X35560Y139700D01*
X38100Y167640D02*
X38100Y187960D01*
X38100Y162560D02*
X38100Y142240D01*
X35560Y241300D02*
X15240Y241300D01*
X12700Y238760D01*
X35560Y241300D02*
X38100Y238760D01*
X38100Y218440D02*
X35560Y215900D01*
X15240Y215900D02*
X12700Y218440D01*
X12700Y238760D01*
X38100Y238760D02*
X38100Y218440D01*
D16*
X42799Y155434D02*
X44718Y153035D01*
X42799Y155434D02*
X51435Y155434D01*
X51435Y153035D02*
X51435Y157833D01*
X42799Y181074D02*
X42801Y181166D01*
X42807Y181257D01*
X42816Y181348D01*
X42830Y181439D01*
X42847Y181529D01*
X42869Y181618D01*
X42894Y181706D01*
X42922Y181793D01*
X42955Y181879D01*
X42991Y181963D01*
X43030Y182046D01*
X43073Y182127D01*
X43120Y182206D01*
X43169Y182283D01*
X43222Y182358D01*
X43278Y182430D01*
X43337Y182500D01*
X43399Y182568D01*
X43464Y182633D01*
X43532Y182695D01*
X43602Y182754D01*
X43674Y182810D01*
X43749Y182863D01*
X43826Y182912D01*
X43905Y182959D01*
X43986Y183002D01*
X44069Y183041D01*
X44153Y183077D01*
X44239Y183110D01*
X44326Y183138D01*
X44414Y183163D01*
X44503Y183185D01*
X44593Y183202D01*
X44684Y183216D01*
X44775Y183225D01*
X44866Y183231D01*
X44958Y183233D01*
X42799Y181074D02*
X42801Y180971D01*
X42807Y180869D01*
X42816Y180767D01*
X42829Y180665D01*
X42846Y180564D01*
X42867Y180463D01*
X42891Y180364D01*
X42920Y180265D01*
X42951Y180168D01*
X42987Y180071D01*
X43025Y179976D01*
X43068Y179883D01*
X43114Y179791D01*
X43163Y179701D01*
X43215Y179613D01*
X43271Y179526D01*
X43330Y179442D01*
X43391Y179361D01*
X43456Y179281D01*
X43524Y179204D01*
X43595Y179129D01*
X43668Y179058D01*
X43744Y178989D01*
X43822Y178922D01*
X43903Y178859D01*
X43986Y178799D01*
X44071Y178742D01*
X44158Y178688D01*
X44248Y178637D01*
X44339Y178590D01*
X44431Y178546D01*
X44526Y178505D01*
X44621Y178468D01*
X44718Y178435D01*
X46637Y182513D02*
X46571Y182580D01*
X46502Y182644D01*
X46431Y182705D01*
X46357Y182763D01*
X46281Y182818D01*
X46203Y182870D01*
X46123Y182919D01*
X46041Y182965D01*
X45957Y183007D01*
X45871Y183046D01*
X45784Y183081D01*
X45696Y183112D01*
X45606Y183140D01*
X45516Y183165D01*
X45424Y183186D01*
X45332Y183203D01*
X45239Y183216D01*
X45146Y183225D01*
X45052Y183231D01*
X44958Y183233D01*
X46637Y182513D02*
X51435Y178435D01*
X51435Y183233D01*
X51435Y203835D02*
X51435Y206234D01*
X51433Y206331D01*
X51427Y206427D01*
X51418Y206523D01*
X51404Y206619D01*
X51387Y206714D01*
X51365Y206808D01*
X51340Y206901D01*
X51312Y206994D01*
X51279Y207085D01*
X51243Y207174D01*
X51203Y207262D01*
X51160Y207349D01*
X51114Y207434D01*
X51064Y207516D01*
X51010Y207597D01*
X50954Y207675D01*
X50894Y207751D01*
X50832Y207825D01*
X50766Y207896D01*
X50698Y207964D01*
X50627Y208030D01*
X50553Y208092D01*
X50477Y208152D01*
X50399Y208208D01*
X50318Y208262D01*
X50236Y208312D01*
X50151Y208358D01*
X50064Y208401D01*
X49976Y208441D01*
X49887Y208477D01*
X49796Y208510D01*
X49703Y208538D01*
X49610Y208563D01*
X49516Y208585D01*
X49421Y208602D01*
X49325Y208616D01*
X49229Y208625D01*
X49133Y208631D01*
X49036Y208633D01*
X48939Y208631D01*
X48843Y208625D01*
X48747Y208616D01*
X48651Y208602D01*
X48556Y208585D01*
X48462Y208563D01*
X48369Y208538D01*
X48276Y208510D01*
X48185Y208477D01*
X48096Y208441D01*
X48008Y208401D01*
X47921Y208358D01*
X47837Y208312D01*
X47754Y208262D01*
X47673Y208208D01*
X47595Y208152D01*
X47519Y208092D01*
X47445Y208030D01*
X47374Y207964D01*
X47306Y207896D01*
X47240Y207825D01*
X47178Y207751D01*
X47118Y207675D01*
X47062Y207597D01*
X47008Y207516D01*
X46958Y207434D01*
X46912Y207349D01*
X46869Y207262D01*
X46829Y207174D01*
X46793Y207085D01*
X46760Y206994D01*
X46732Y206901D01*
X46707Y206808D01*
X46685Y206714D01*
X46668Y206619D01*
X46654Y206523D01*
X46645Y206427D01*
X46639Y206331D01*
X46637Y206234D01*
X42799Y206714D02*
X42799Y203835D01*
X42799Y206714D02*
X42801Y206800D01*
X42807Y206886D01*
X42816Y206972D01*
X42830Y207057D01*
X42847Y207141D01*
X42868Y207225D01*
X42893Y207307D01*
X42921Y207388D01*
X42953Y207468D01*
X42989Y207547D01*
X43028Y207623D01*
X43071Y207698D01*
X43116Y207771D01*
X43165Y207842D01*
X43218Y207910D01*
X43273Y207977D01*
X43331Y208040D01*
X43392Y208101D01*
X43455Y208159D01*
X43522Y208214D01*
X43590Y208267D01*
X43661Y208316D01*
X43734Y208361D01*
X43809Y208404D01*
X43885Y208443D01*
X43964Y208479D01*
X44044Y208511D01*
X44125Y208539D01*
X44207Y208564D01*
X44291Y208585D01*
X44375Y208602D01*
X44460Y208616D01*
X44546Y208625D01*
X44632Y208631D01*
X44718Y208633D01*
X44804Y208631D01*
X44890Y208625D01*
X44976Y208616D01*
X45061Y208602D01*
X45145Y208585D01*
X45229Y208564D01*
X45311Y208539D01*
X45392Y208511D01*
X45472Y208479D01*
X45551Y208443D01*
X45627Y208404D01*
X45702Y208361D01*
X45775Y208316D01*
X45846Y208267D01*
X45914Y208214D01*
X45981Y208159D01*
X46044Y208101D01*
X46105Y208040D01*
X46163Y207977D01*
X46218Y207910D01*
X46271Y207842D01*
X46320Y207771D01*
X46365Y207698D01*
X46408Y207623D01*
X46447Y207547D01*
X46483Y207468D01*
X46515Y207388D01*
X46543Y207307D01*
X46568Y207225D01*
X46589Y207141D01*
X46606Y207057D01*
X46620Y206972D01*
X46629Y206886D01*
X46635Y206800D01*
X46637Y206714D01*
X46637Y204795D01*
X49516Y229235D02*
X42799Y231154D01*
X49516Y229235D02*
X49516Y234033D01*
X47597Y232593D02*
X51435Y232593D01*
D18*
X57150Y144618D02*
X66294Y144618D01*
X62230Y147666D02*
X57150Y144618D01*
X62230Y147666D02*
X57150Y150714D01*
X66294Y150714D01*
X63754Y155489D02*
X57150Y155489D01*
X63754Y155489D02*
X63854Y155491D01*
X63953Y155497D01*
X64053Y155507D01*
X64151Y155520D01*
X64250Y155538D01*
X64347Y155559D01*
X64443Y155584D01*
X64539Y155613D01*
X64633Y155646D01*
X64726Y155682D01*
X64817Y155722D01*
X64907Y155766D01*
X64995Y155813D01*
X65081Y155863D01*
X65165Y155917D01*
X65247Y155974D01*
X65326Y156034D01*
X65404Y156098D01*
X65478Y156164D01*
X65550Y156233D01*
X65619Y156305D01*
X65685Y156379D01*
X65749Y156457D01*
X65809Y156536D01*
X65866Y156618D01*
X65920Y156702D01*
X65970Y156788D01*
X66017Y156876D01*
X66061Y156966D01*
X66101Y157057D01*
X66137Y157150D01*
X66170Y157244D01*
X66199Y157340D01*
X66224Y157436D01*
X66245Y157533D01*
X66263Y157632D01*
X66276Y157730D01*
X66286Y157830D01*
X66292Y157929D01*
X66294Y158029D01*
X66292Y158129D01*
X66286Y158228D01*
X66276Y158328D01*
X66263Y158426D01*
X66245Y158525D01*
X66224Y158622D01*
X66199Y158718D01*
X66170Y158814D01*
X66137Y158908D01*
X66101Y159001D01*
X66061Y159092D01*
X66017Y159182D01*
X65970Y159270D01*
X65920Y159356D01*
X65866Y159440D01*
X65809Y159522D01*
X65749Y159601D01*
X65685Y159679D01*
X65619Y159753D01*
X65550Y159825D01*
X65478Y159894D01*
X65404Y159960D01*
X65326Y160024D01*
X65247Y160084D01*
X65165Y160141D01*
X65081Y160195D01*
X64995Y160245D01*
X64907Y160292D01*
X64817Y160336D01*
X64726Y160376D01*
X64633Y160412D01*
X64539Y160445D01*
X64443Y160474D01*
X64347Y160499D01*
X64250Y160520D01*
X64151Y160538D01*
X64053Y160551D01*
X63953Y160561D01*
X63854Y160567D01*
X63754Y160569D01*
X57150Y160569D01*
X66294Y164430D02*
X57150Y170526D01*
X57150Y164430D02*
X66294Y170526D01*
X67310Y173675D02*
X67310Y177739D01*
X66294Y181768D02*
X57150Y181768D01*
X57150Y184308D01*
X57152Y184408D01*
X57158Y184507D01*
X57168Y184607D01*
X57181Y184705D01*
X57199Y184804D01*
X57220Y184901D01*
X57245Y184997D01*
X57274Y185093D01*
X57307Y185187D01*
X57343Y185280D01*
X57383Y185371D01*
X57427Y185461D01*
X57474Y185549D01*
X57524Y185635D01*
X57578Y185719D01*
X57635Y185801D01*
X57695Y185880D01*
X57759Y185958D01*
X57825Y186032D01*
X57894Y186104D01*
X57966Y186173D01*
X58040Y186239D01*
X58118Y186303D01*
X58197Y186363D01*
X58279Y186420D01*
X58363Y186474D01*
X58449Y186524D01*
X58537Y186571D01*
X58627Y186615D01*
X58718Y186655D01*
X58811Y186691D01*
X58905Y186724D01*
X59001Y186753D01*
X59097Y186778D01*
X59194Y186799D01*
X59293Y186817D01*
X59391Y186830D01*
X59491Y186840D01*
X59590Y186846D01*
X59690Y186848D01*
X59790Y186846D01*
X59889Y186840D01*
X59989Y186830D01*
X60087Y186817D01*
X60186Y186799D01*
X60283Y186778D01*
X60379Y186753D01*
X60475Y186724D01*
X60569Y186691D01*
X60662Y186655D01*
X60753Y186615D01*
X60843Y186571D01*
X60931Y186524D01*
X61017Y186474D01*
X61101Y186420D01*
X61183Y186363D01*
X61262Y186303D01*
X61340Y186239D01*
X61414Y186173D01*
X61486Y186104D01*
X61555Y186032D01*
X61621Y185958D01*
X61685Y185880D01*
X61745Y185801D01*
X61802Y185719D01*
X61856Y185635D01*
X61906Y185549D01*
X61953Y185461D01*
X61997Y185371D01*
X62037Y185280D01*
X62073Y185187D01*
X62106Y185093D01*
X62135Y184997D01*
X62160Y184901D01*
X62181Y184804D01*
X62199Y184705D01*
X62212Y184607D01*
X62222Y184507D01*
X62228Y184408D01*
X62230Y184308D01*
X62230Y181768D01*
X62230Y184816D02*
X66294Y186848D01*
X66294Y190337D02*
X57150Y196433D01*
X57150Y190337D02*
X66294Y196433D01*
X59436Y205069D02*
X59342Y205067D01*
X59247Y205061D01*
X59153Y205051D01*
X59060Y205038D01*
X58967Y205020D01*
X58875Y204999D01*
X58784Y204974D01*
X58694Y204945D01*
X58605Y204913D01*
X58518Y204876D01*
X58432Y204837D01*
X58348Y204793D01*
X58266Y204747D01*
X58186Y204697D01*
X58108Y204643D01*
X58032Y204587D01*
X57959Y204527D01*
X57888Y204465D01*
X57820Y204399D01*
X57754Y204331D01*
X57692Y204260D01*
X57632Y204187D01*
X57576Y204111D01*
X57522Y204033D01*
X57472Y203953D01*
X57426Y203871D01*
X57382Y203787D01*
X57343Y203701D01*
X57306Y203614D01*
X57274Y203525D01*
X57245Y203435D01*
X57220Y203344D01*
X57199Y203252D01*
X57181Y203159D01*
X57168Y203066D01*
X57158Y202972D01*
X57152Y202877D01*
X57150Y202783D01*
X57152Y202677D01*
X57158Y202572D01*
X57167Y202467D01*
X57180Y202362D01*
X57197Y202258D01*
X57218Y202155D01*
X57242Y202052D01*
X57271Y201950D01*
X57302Y201850D01*
X57338Y201750D01*
X57376Y201652D01*
X57419Y201556D01*
X57465Y201460D01*
X57514Y201367D01*
X57566Y201276D01*
X57622Y201186D01*
X57681Y201098D01*
X57743Y201013D01*
X57808Y200930D01*
X57876Y200849D01*
X57947Y200771D01*
X58021Y200696D01*
X58097Y200623D01*
X58176Y200553D01*
X58257Y200486D01*
X58341Y200421D01*
X58427Y200360D01*
X58515Y200302D01*
X58605Y200247D01*
X58697Y200196D01*
X58791Y200147D01*
X58887Y200102D01*
X58984Y200061D01*
X59082Y200023D01*
X59182Y199989D01*
X61214Y204307D02*
X61147Y204374D01*
X61078Y204439D01*
X61006Y204501D01*
X60933Y204560D01*
X60856Y204616D01*
X60778Y204670D01*
X60698Y204720D01*
X60616Y204767D01*
X60532Y204811D01*
X60446Y204851D01*
X60359Y204889D01*
X60271Y204923D01*
X60181Y204953D01*
X60091Y204980D01*
X59999Y205004D01*
X59906Y205024D01*
X59813Y205040D01*
X59719Y205053D01*
X59625Y205062D01*
X59531Y205067D01*
X59436Y205069D01*
X61214Y204307D02*
X66294Y199989D01*
X66294Y205069D01*
X67310Y208727D02*
X67310Y212791D01*
X66294Y218451D02*
X66294Y220483D01*
X66294Y218451D02*
X66292Y218362D01*
X66286Y218274D01*
X66277Y218186D01*
X66263Y218098D01*
X66246Y218011D01*
X66225Y217925D01*
X66200Y217840D01*
X66171Y217756D01*
X66139Y217673D01*
X66104Y217592D01*
X66064Y217513D01*
X66022Y217435D01*
X65976Y217359D01*
X65927Y217285D01*
X65874Y217214D01*
X65819Y217145D01*
X65760Y217078D01*
X65699Y217014D01*
X65635Y216953D01*
X65568Y216894D01*
X65499Y216839D01*
X65428Y216786D01*
X65354Y216737D01*
X65278Y216691D01*
X65200Y216649D01*
X65121Y216609D01*
X65040Y216574D01*
X64957Y216542D01*
X64873Y216513D01*
X64788Y216488D01*
X64702Y216467D01*
X64615Y216450D01*
X64527Y216436D01*
X64439Y216427D01*
X64351Y216421D01*
X64262Y216419D01*
X59182Y216419D01*
X59093Y216421D01*
X59005Y216427D01*
X58917Y216436D01*
X58829Y216450D01*
X58742Y216467D01*
X58656Y216488D01*
X58571Y216513D01*
X58487Y216542D01*
X58404Y216574D01*
X58323Y216609D01*
X58244Y216649D01*
X58166Y216691D01*
X58090Y216737D01*
X58016Y216786D01*
X57945Y216839D01*
X57876Y216894D01*
X57809Y216953D01*
X57745Y217014D01*
X57684Y217078D01*
X57625Y217145D01*
X57570Y217214D01*
X57517Y217285D01*
X57468Y217359D01*
X57422Y217435D01*
X57380Y217513D01*
X57340Y217592D01*
X57305Y217673D01*
X57273Y217756D01*
X57244Y217840D01*
X57219Y217925D01*
X57198Y218011D01*
X57181Y218098D01*
X57167Y218186D01*
X57158Y218274D01*
X57152Y218362D01*
X57150Y218451D01*
X57150Y220483D01*
X57150Y225999D02*
X66294Y225999D01*
X57150Y223459D02*
X57150Y228539D01*
X57150Y232318D02*
X66294Y232318D01*
X66294Y236382D01*
D14*
X35560Y266700D02*
X15240Y266700D01*
X12700Y320040D02*
X12700Y340360D01*
X12700Y320040D02*
X15240Y317500D01*
X38100Y320040D02*
X38100Y340360D01*
X38100Y320040D02*
X35560Y317500D01*
X38100Y340360D02*
X35560Y342900D01*
X15240Y342900D02*
X12700Y340360D01*
X15240Y317500D02*
X12700Y314960D01*
X12700Y294640D01*
X15240Y292100D01*
X12700Y289560D01*
X12700Y269240D02*
X15240Y266700D01*
X12700Y269240D02*
X12700Y289560D01*
X38100Y314960D02*
X35560Y317500D01*
X38100Y294640D02*
X35560Y292100D01*
X38100Y289560D01*
X38100Y269240D02*
X35560Y266700D01*
X38100Y294640D02*
X38100Y314960D01*
X38100Y289560D02*
X38100Y269240D01*
X35560Y368300D02*
X15240Y368300D01*
X12700Y365760D01*
X35560Y368300D02*
X38100Y365760D01*
X38100Y345440D02*
X35560Y342900D01*
X15240Y342900D02*
X12700Y345440D01*
X12700Y365760D01*
X38100Y365760D02*
X38100Y345440D01*
D16*
X42799Y282434D02*
X44718Y280035D01*
X42799Y282434D02*
X51435Y282434D01*
X51435Y280035D02*
X51435Y284833D01*
X42799Y308074D02*
X42801Y308166D01*
X42807Y308257D01*
X42816Y308348D01*
X42830Y308439D01*
X42847Y308529D01*
X42869Y308618D01*
X42894Y308706D01*
X42922Y308793D01*
X42955Y308879D01*
X42991Y308963D01*
X43030Y309046D01*
X43073Y309127D01*
X43120Y309206D01*
X43169Y309283D01*
X43222Y309358D01*
X43278Y309430D01*
X43337Y309500D01*
X43399Y309568D01*
X43464Y309633D01*
X43532Y309695D01*
X43602Y309754D01*
X43674Y309810D01*
X43749Y309863D01*
X43826Y309912D01*
X43905Y309959D01*
X43986Y310002D01*
X44069Y310041D01*
X44153Y310077D01*
X44239Y310110D01*
X44326Y310138D01*
X44414Y310163D01*
X44503Y310185D01*
X44593Y310202D01*
X44684Y310216D01*
X44775Y310225D01*
X44866Y310231D01*
X44958Y310233D01*
X42799Y308074D02*
X42801Y307971D01*
X42807Y307869D01*
X42816Y307767D01*
X42829Y307665D01*
X42846Y307564D01*
X42867Y307463D01*
X42891Y307364D01*
X42920Y307265D01*
X42951Y307168D01*
X42987Y307071D01*
X43025Y306976D01*
X43068Y306883D01*
X43114Y306791D01*
X43163Y306701D01*
X43215Y306613D01*
X43271Y306526D01*
X43330Y306442D01*
X43391Y306361D01*
X43456Y306281D01*
X43524Y306204D01*
X43595Y306129D01*
X43668Y306058D01*
X43744Y305989D01*
X43822Y305922D01*
X43903Y305859D01*
X43986Y305799D01*
X44071Y305742D01*
X44158Y305688D01*
X44248Y305637D01*
X44339Y305590D01*
X44431Y305546D01*
X44526Y305505D01*
X44621Y305468D01*
X44718Y305435D01*
X46637Y309513D02*
X46571Y309580D01*
X46502Y309644D01*
X46431Y309705D01*
X46357Y309763D01*
X46281Y309818D01*
X46203Y309870D01*
X46123Y309919D01*
X46041Y309965D01*
X45957Y310007D01*
X45871Y310046D01*
X45784Y310081D01*
X45696Y310112D01*
X45606Y310140D01*
X45516Y310165D01*
X45424Y310186D01*
X45332Y310203D01*
X45239Y310216D01*
X45146Y310225D01*
X45052Y310231D01*
X44958Y310233D01*
X46637Y309513D02*
X51435Y305435D01*
X51435Y310233D01*
X51435Y330835D02*
X51435Y333234D01*
X51433Y333331D01*
X51427Y333427D01*
X51418Y333523D01*
X51404Y333619D01*
X51387Y333714D01*
X51365Y333808D01*
X51340Y333901D01*
X51312Y333994D01*
X51279Y334085D01*
X51243Y334174D01*
X51203Y334262D01*
X51160Y334349D01*
X51114Y334434D01*
X51064Y334516D01*
X51010Y334597D01*
X50954Y334675D01*
X50894Y334751D01*
X50832Y334825D01*
X50766Y334896D01*
X50698Y334964D01*
X50627Y335030D01*
X50553Y335092D01*
X50477Y335152D01*
X50399Y335208D01*
X50318Y335262D01*
X50236Y335312D01*
X50151Y335358D01*
X50064Y335401D01*
X49976Y335441D01*
X49887Y335477D01*
X49796Y335510D01*
X49703Y335538D01*
X49610Y335563D01*
X49516Y335585D01*
X49421Y335602D01*
X49325Y335616D01*
X49229Y335625D01*
X49133Y335631D01*
X49036Y335633D01*
X48939Y335631D01*
X48843Y335625D01*
X48747Y335616D01*
X48651Y335602D01*
X48556Y335585D01*
X48462Y335563D01*
X48369Y335538D01*
X48276Y335510D01*
X48185Y335477D01*
X48096Y335441D01*
X48008Y335401D01*
X47921Y335358D01*
X47837Y335312D01*
X47754Y335262D01*
X47673Y335208D01*
X47595Y335152D01*
X47519Y335092D01*
X47445Y335030D01*
X47374Y334964D01*
X47306Y334896D01*
X47240Y334825D01*
X47178Y334751D01*
X47118Y334675D01*
X47062Y334597D01*
X47008Y334516D01*
X46958Y334434D01*
X46912Y334349D01*
X46869Y334262D01*
X46829Y334174D01*
X46793Y334085D01*
X46760Y333994D01*
X46732Y333901D01*
X46707Y333808D01*
X46685Y333714D01*
X46668Y333619D01*
X46654Y333523D01*
X46645Y333427D01*
X46639Y333331D01*
X46637Y333234D01*
X42799Y333714D02*
X42799Y330835D01*
X42799Y333714D02*
X42801Y333800D01*
X42807Y333886D01*
X42816Y333972D01*
X42830Y334057D01*
X42847Y334141D01*
X42868Y334225D01*
X42893Y334307D01*
X42921Y334388D01*
X42953Y334468D01*
X42989Y334547D01*
X43028Y334623D01*
X43071Y334698D01*
X43116Y334771D01*
X43165Y334842D01*
X43218Y334910D01*
X43273Y334977D01*
X43331Y335040D01*
X43392Y335101D01*
X43455Y335159D01*
X43522Y335214D01*
X43590Y335267D01*
X43661Y335316D01*
X43734Y335361D01*
X43809Y335404D01*
X43885Y335443D01*
X43964Y335479D01*
X44044Y335511D01*
X44125Y335539D01*
X44207Y335564D01*
X44291Y335585D01*
X44375Y335602D01*
X44460Y335616D01*
X44546Y335625D01*
X44632Y335631D01*
X44718Y335633D01*
X44804Y335631D01*
X44890Y335625D01*
X44976Y335616D01*
X45061Y335602D01*
X45145Y335585D01*
X45229Y335564D01*
X45311Y335539D01*
X45392Y335511D01*
X45472Y335479D01*
X45551Y335443D01*
X45627Y335404D01*
X45702Y335361D01*
X45775Y335316D01*
X45846Y335267D01*
X45914Y335214D01*
X45981Y335159D01*
X46044Y335101D01*
X46105Y335040D01*
X46163Y334977D01*
X46218Y334910D01*
X46271Y334842D01*
X46320Y334771D01*
X46365Y334698D01*
X46408Y334623D01*
X46447Y334547D01*
X46483Y334468D01*
X46515Y334388D01*
X46543Y334307D01*
X46568Y334225D01*
X46589Y334141D01*
X46606Y334057D01*
X46620Y333972D01*
X46629Y333886D01*
X46635Y333800D01*
X46637Y333714D01*
X46637Y331795D01*
X49516Y356235D02*
X42799Y358154D01*
X49516Y356235D02*
X49516Y361033D01*
X47597Y359593D02*
X51435Y359593D01*
D18*
X57150Y272380D02*
X66294Y272380D01*
X62230Y275428D02*
X57150Y272380D01*
X62230Y275428D02*
X57150Y278476D01*
X66294Y278476D01*
X63754Y283251D02*
X57150Y283251D01*
X63754Y283251D02*
X63854Y283253D01*
X63953Y283259D01*
X64053Y283269D01*
X64151Y283282D01*
X64250Y283300D01*
X64347Y283321D01*
X64443Y283346D01*
X64539Y283375D01*
X64633Y283408D01*
X64726Y283444D01*
X64817Y283484D01*
X64907Y283528D01*
X64995Y283575D01*
X65081Y283625D01*
X65165Y283679D01*
X65247Y283736D01*
X65326Y283796D01*
X65404Y283860D01*
X65478Y283926D01*
X65550Y283995D01*
X65619Y284067D01*
X65685Y284141D01*
X65749Y284219D01*
X65809Y284298D01*
X65866Y284380D01*
X65920Y284464D01*
X65970Y284550D01*
X66017Y284638D01*
X66061Y284728D01*
X66101Y284819D01*
X66137Y284912D01*
X66170Y285006D01*
X66199Y285102D01*
X66224Y285198D01*
X66245Y285295D01*
X66263Y285394D01*
X66276Y285492D01*
X66286Y285592D01*
X66292Y285691D01*
X66294Y285791D01*
X66292Y285891D01*
X66286Y285990D01*
X66276Y286090D01*
X66263Y286188D01*
X66245Y286287D01*
X66224Y286384D01*
X66199Y286480D01*
X66170Y286576D01*
X66137Y286670D01*
X66101Y286763D01*
X66061Y286854D01*
X66017Y286944D01*
X65970Y287032D01*
X65920Y287118D01*
X65866Y287202D01*
X65809Y287284D01*
X65749Y287363D01*
X65685Y287441D01*
X65619Y287515D01*
X65550Y287587D01*
X65478Y287656D01*
X65404Y287722D01*
X65326Y287786D01*
X65247Y287846D01*
X65165Y287903D01*
X65081Y287957D01*
X64995Y288007D01*
X64907Y288054D01*
X64817Y288098D01*
X64726Y288138D01*
X64633Y288174D01*
X64539Y288207D01*
X64443Y288236D01*
X64347Y288261D01*
X64250Y288282D01*
X64151Y288300D01*
X64053Y288313D01*
X63953Y288323D01*
X63854Y288329D01*
X63754Y288331D01*
X57150Y288331D01*
X66294Y292192D02*
X57150Y298288D01*
X57150Y292192D02*
X66294Y298288D01*
X67310Y301437D02*
X67310Y305501D01*
X66294Y311089D02*
X57150Y311089D01*
X57150Y308549D02*
X57150Y313629D01*
X57150Y322671D02*
X66294Y316575D01*
X66294Y322671D02*
X57150Y316575D01*
X57150Y329021D02*
X57152Y329115D01*
X57158Y329210D01*
X57168Y329304D01*
X57181Y329397D01*
X57199Y329490D01*
X57220Y329582D01*
X57245Y329673D01*
X57274Y329763D01*
X57306Y329852D01*
X57343Y329939D01*
X57382Y330025D01*
X57426Y330109D01*
X57472Y330191D01*
X57522Y330271D01*
X57576Y330349D01*
X57632Y330425D01*
X57692Y330498D01*
X57754Y330569D01*
X57820Y330637D01*
X57888Y330703D01*
X57959Y330765D01*
X58032Y330825D01*
X58108Y330881D01*
X58186Y330935D01*
X58266Y330985D01*
X58348Y331031D01*
X58432Y331075D01*
X58518Y331114D01*
X58605Y331151D01*
X58694Y331183D01*
X58784Y331212D01*
X58875Y331237D01*
X58967Y331258D01*
X59060Y331276D01*
X59153Y331289D01*
X59247Y331299D01*
X59342Y331305D01*
X59436Y331307D01*
X57150Y329021D02*
X57152Y328915D01*
X57158Y328810D01*
X57167Y328705D01*
X57180Y328600D01*
X57197Y328496D01*
X57218Y328393D01*
X57242Y328290D01*
X57271Y328188D01*
X57302Y328088D01*
X57338Y327988D01*
X57376Y327890D01*
X57419Y327794D01*
X57465Y327698D01*
X57514Y327605D01*
X57566Y327514D01*
X57622Y327424D01*
X57681Y327336D01*
X57743Y327251D01*
X57808Y327168D01*
X57876Y327087D01*
X57947Y327009D01*
X58021Y326934D01*
X58097Y326861D01*
X58176Y326791D01*
X58257Y326724D01*
X58341Y326659D01*
X58427Y326598D01*
X58515Y326540D01*
X58605Y326485D01*
X58697Y326434D01*
X58791Y326385D01*
X58887Y326340D01*
X58984Y326299D01*
X59082Y326261D01*
X59182Y326227D01*
X61214Y330545D02*
X61147Y330612D01*
X61078Y330677D01*
X61006Y330739D01*
X60933Y330798D01*
X60856Y330854D01*
X60778Y330908D01*
X60698Y330958D01*
X60616Y331005D01*
X60532Y331049D01*
X60446Y331089D01*
X60359Y331127D01*
X60271Y331161D01*
X60181Y331191D01*
X60091Y331218D01*
X59999Y331242D01*
X59906Y331262D01*
X59813Y331278D01*
X59719Y331291D01*
X59625Y331300D01*
X59531Y331305D01*
X59436Y331307D01*
X61214Y330545D02*
X66294Y326227D01*
X66294Y331307D01*
X67310Y334965D02*
X67310Y339029D01*
X66294Y344689D02*
X66294Y346721D01*
X66294Y344689D02*
X66292Y344600D01*
X66286Y344512D01*
X66277Y344424D01*
X66263Y344336D01*
X66246Y344249D01*
X66225Y344163D01*
X66200Y344078D01*
X66171Y343994D01*
X66139Y343911D01*
X66104Y343830D01*
X66064Y343751D01*
X66022Y343673D01*
X65976Y343597D01*
X65927Y343523D01*
X65874Y343452D01*
X65819Y343383D01*
X65760Y343316D01*
X65699Y343252D01*
X65635Y343191D01*
X65568Y343132D01*
X65499Y343077D01*
X65428Y343024D01*
X65354Y342975D01*
X65278Y342929D01*
X65200Y342887D01*
X65121Y342847D01*
X65040Y342812D01*
X64957Y342780D01*
X64873Y342751D01*
X64788Y342726D01*
X64702Y342705D01*
X64615Y342688D01*
X64527Y342674D01*
X64439Y342665D01*
X64351Y342659D01*
X64262Y342657D01*
X59182Y342657D01*
X59093Y342659D01*
X59005Y342665D01*
X58917Y342674D01*
X58829Y342688D01*
X58742Y342705D01*
X58656Y342726D01*
X58571Y342751D01*
X58487Y342780D01*
X58404Y342812D01*
X58323Y342847D01*
X58244Y342887D01*
X58166Y342929D01*
X58090Y342975D01*
X58016Y343024D01*
X57945Y343077D01*
X57876Y343132D01*
X57809Y343191D01*
X57745Y343252D01*
X57684Y343316D01*
X57625Y343383D01*
X57570Y343452D01*
X57517Y343523D01*
X57468Y343597D01*
X57422Y343673D01*
X57380Y343751D01*
X57340Y343830D01*
X57305Y343911D01*
X57273Y343994D01*
X57244Y344078D01*
X57219Y344163D01*
X57198Y344249D01*
X57181Y344336D01*
X57167Y344424D01*
X57158Y344512D01*
X57152Y344600D01*
X57150Y344689D01*
X57150Y346721D01*
X57150Y352237D02*
X66294Y352237D01*
X57150Y349697D02*
X57150Y354777D01*
X57150Y358556D02*
X66294Y358556D01*
X66294Y362620D01*
D14*
X35560Y393700D02*
X15240Y393700D01*
X12700Y447040D02*
X12700Y467360D01*
X12700Y447040D02*
X15240Y444500D01*
X38100Y447040D02*
X38100Y467360D01*
X38100Y447040D02*
X35560Y444500D01*
X38100Y467360D02*
X35560Y469900D01*
X15240Y469900D02*
X12700Y467360D01*
X15240Y444500D02*
X12700Y441960D01*
X12700Y421640D01*
X15240Y419100D01*
X12700Y416560D01*
X12700Y396240D02*
X15240Y393700D01*
X12700Y396240D02*
X12700Y416560D01*
X38100Y441960D02*
X35560Y444500D01*
X38100Y421640D02*
X35560Y419100D01*
X38100Y416560D01*
X38100Y396240D02*
X35560Y393700D01*
X38100Y421640D02*
X38100Y441960D01*
X38100Y416560D02*
X38100Y396240D01*
X35560Y495300D02*
X15240Y495300D01*
X12700Y492760D01*
X35560Y495300D02*
X38100Y492760D01*
X38100Y472440D02*
X35560Y469900D01*
X15240Y469900D02*
X12700Y472440D01*
X12700Y492760D01*
X38100Y492760D02*
X38100Y472440D01*
D16*
X42799Y409434D02*
X44718Y407035D01*
X42799Y409434D02*
X51435Y409434D01*
X51435Y407035D02*
X51435Y411833D01*
X42799Y435074D02*
X42801Y435166D01*
X42807Y435257D01*
X42816Y435348D01*
X42830Y435439D01*
X42847Y435529D01*
X42869Y435618D01*
X42894Y435706D01*
X42922Y435793D01*
X42955Y435879D01*
X42991Y435963D01*
X43030Y436046D01*
X43073Y436127D01*
X43120Y436206D01*
X43169Y436283D01*
X43222Y436358D01*
X43278Y436430D01*
X43337Y436500D01*
X43399Y436568D01*
X43464Y436633D01*
X43532Y436695D01*
X43602Y436754D01*
X43674Y436810D01*
X43749Y436863D01*
X43826Y436912D01*
X43905Y436959D01*
X43986Y437002D01*
X44069Y437041D01*
X44153Y437077D01*
X44239Y437110D01*
X44326Y437138D01*
X44414Y437163D01*
X44503Y437185D01*
X44593Y437202D01*
X44684Y437216D01*
X44775Y437225D01*
X44866Y437231D01*
X44958Y437233D01*
X42799Y435074D02*
X42801Y434971D01*
X42807Y434869D01*
X42816Y434767D01*
X42829Y434665D01*
X42846Y434564D01*
X42867Y434463D01*
X42891Y434364D01*
X42920Y434265D01*
X42951Y434168D01*
X42987Y434071D01*
X43025Y433976D01*
X43068Y433883D01*
X43114Y433791D01*
X43163Y433701D01*
X43215Y433613D01*
X43271Y433526D01*
X43330Y433442D01*
X43391Y433361D01*
X43456Y433281D01*
X43524Y433204D01*
X43595Y433129D01*
X43668Y433058D01*
X43744Y432989D01*
X43822Y432922D01*
X43903Y432859D01*
X43986Y432799D01*
X44071Y432742D01*
X44158Y432688D01*
X44248Y432637D01*
X44339Y432590D01*
X44431Y432546D01*
X44526Y432505D01*
X44621Y432468D01*
X44718Y432435D01*
X46637Y436513D02*
X46571Y436580D01*
X46502Y436644D01*
X46431Y436705D01*
X46357Y436763D01*
X46281Y436818D01*
X46203Y436870D01*
X46123Y436919D01*
X46041Y436965D01*
X45957Y437007D01*
X45871Y437046D01*
X45784Y437081D01*
X45696Y437112D01*
X45606Y437140D01*
X45516Y437165D01*
X45424Y437186D01*
X45332Y437203D01*
X45239Y437216D01*
X45146Y437225D01*
X45052Y437231D01*
X44958Y437233D01*
X46637Y436513D02*
X51435Y432435D01*
X51435Y437233D01*
X51435Y457835D02*
X51435Y460234D01*
X51433Y460331D01*
X51427Y460427D01*
X51418Y460523D01*
X51404Y460619D01*
X51387Y460714D01*
X51365Y460808D01*
X51340Y460901D01*
X51312Y460994D01*
X51279Y461085D01*
X51243Y461174D01*
X51203Y461262D01*
X51160Y461349D01*
X51114Y461434D01*
X51064Y461516D01*
X51010Y461597D01*
X50954Y461675D01*
X50894Y461751D01*
X50832Y461825D01*
X50766Y461896D01*
X50698Y461964D01*
X50627Y462030D01*
X50553Y462092D01*
X50477Y462152D01*
X50399Y462208D01*
X50318Y462262D01*
X50236Y462312D01*
X50151Y462358D01*
X50064Y462401D01*
X49976Y462441D01*
X49887Y462477D01*
X49796Y462510D01*
X49703Y462538D01*
X49610Y462563D01*
X49516Y462585D01*
X49421Y462602D01*
X49325Y462616D01*
X49229Y462625D01*
X49133Y462631D01*
X49036Y462633D01*
X48939Y462631D01*
X48843Y462625D01*
X48747Y462616D01*
X48651Y462602D01*
X48556Y462585D01*
X48462Y462563D01*
X48369Y462538D01*
X48276Y462510D01*
X48185Y462477D01*
X48096Y462441D01*
X48008Y462401D01*
X47921Y462358D01*
X47837Y462312D01*
X47754Y462262D01*
X47673Y462208D01*
X47595Y462152D01*
X47519Y462092D01*
X47445Y462030D01*
X47374Y461964D01*
X47306Y461896D01*
X47240Y461825D01*
X47178Y461751D01*
X47118Y461675D01*
X47062Y461597D01*
X47008Y461516D01*
X46958Y461434D01*
X46912Y461349D01*
X46869Y461262D01*
X46829Y461174D01*
X46793Y461085D01*
X46760Y460994D01*
X46732Y460901D01*
X46707Y460808D01*
X46685Y460714D01*
X46668Y460619D01*
X46654Y460523D01*
X46645Y460427D01*
X46639Y460331D01*
X46637Y460234D01*
X42799Y460714D02*
X42799Y457835D01*
X42799Y460714D02*
X42801Y460800D01*
X42807Y460886D01*
X42816Y460972D01*
X42830Y461057D01*
X42847Y461141D01*
X42868Y461225D01*
X42893Y461307D01*
X42921Y461388D01*
X42953Y461468D01*
X42989Y461547D01*
X43028Y461623D01*
X43071Y461698D01*
X43116Y461771D01*
X43165Y461842D01*
X43218Y461910D01*
X43273Y461977D01*
X43331Y462040D01*
X43392Y462101D01*
X43455Y462159D01*
X43522Y462214D01*
X43590Y462267D01*
X43661Y462316D01*
X43734Y462361D01*
X43809Y462404D01*
X43885Y462443D01*
X43964Y462479D01*
X44044Y462511D01*
X44125Y462539D01*
X44207Y462564D01*
X44291Y462585D01*
X44375Y462602D01*
X44460Y462616D01*
X44546Y462625D01*
X44632Y462631D01*
X44718Y462633D01*
X44804Y462631D01*
X44890Y462625D01*
X44976Y462616D01*
X45061Y462602D01*
X45145Y462585D01*
X45229Y462564D01*
X45311Y462539D01*
X45392Y462511D01*
X45472Y462479D01*
X45551Y462443D01*
X45627Y462404D01*
X45702Y462361D01*
X45775Y462316D01*
X45846Y462267D01*
X45914Y462214D01*
X45981Y462159D01*
X46044Y462101D01*
X46105Y462040D01*
X46163Y461977D01*
X46218Y461910D01*
X46271Y461842D01*
X46320Y461771D01*
X46365Y461698D01*
X46408Y461623D01*
X46447Y461547D01*
X46483Y461468D01*
X46515Y461388D01*
X46543Y461307D01*
X46568Y461225D01*
X46589Y461141D01*
X46606Y461057D01*
X46620Y460972D01*
X46629Y460886D01*
X46635Y460800D01*
X46637Y460714D01*
X46637Y458795D01*
X49516Y483235D02*
X42799Y485154D01*
X49516Y483235D02*
X49516Y488033D01*
X47597Y486593D02*
X51435Y486593D01*
D18*
X57150Y399380D02*
X66294Y399380D01*
X62230Y402428D02*
X57150Y399380D01*
X62230Y402428D02*
X57150Y405476D01*
X66294Y405476D01*
X63754Y410251D02*
X57150Y410251D01*
X63754Y410251D02*
X63854Y410253D01*
X63953Y410259D01*
X64053Y410269D01*
X64151Y410282D01*
X64250Y410300D01*
X64347Y410321D01*
X64443Y410346D01*
X64539Y410375D01*
X64633Y410408D01*
X64726Y410444D01*
X64817Y410484D01*
X64907Y410528D01*
X64995Y410575D01*
X65081Y410625D01*
X65165Y410679D01*
X65247Y410736D01*
X65326Y410796D01*
X65404Y410860D01*
X65478Y410926D01*
X65550Y410995D01*
X65619Y411067D01*
X65685Y411141D01*
X65749Y411219D01*
X65809Y411298D01*
X65866Y411380D01*
X65920Y411464D01*
X65970Y411550D01*
X66017Y411638D01*
X66061Y411728D01*
X66101Y411819D01*
X66137Y411912D01*
X66170Y412006D01*
X66199Y412102D01*
X66224Y412198D01*
X66245Y412295D01*
X66263Y412394D01*
X66276Y412492D01*
X66286Y412592D01*
X66292Y412691D01*
X66294Y412791D01*
X66292Y412891D01*
X66286Y412990D01*
X66276Y413090D01*
X66263Y413188D01*
X66245Y413287D01*
X66224Y413384D01*
X66199Y413480D01*
X66170Y413576D01*
X66137Y413670D01*
X66101Y413763D01*
X66061Y413854D01*
X66017Y413944D01*
X65970Y414032D01*
X65920Y414118D01*
X65866Y414202D01*
X65809Y414284D01*
X65749Y414363D01*
X65685Y414441D01*
X65619Y414515D01*
X65550Y414587D01*
X65478Y414656D01*
X65404Y414722D01*
X65326Y414786D01*
X65247Y414846D01*
X65165Y414903D01*
X65081Y414957D01*
X64995Y415007D01*
X64907Y415054D01*
X64817Y415098D01*
X64726Y415138D01*
X64633Y415174D01*
X64539Y415207D01*
X64443Y415236D01*
X64347Y415261D01*
X64250Y415282D01*
X64151Y415300D01*
X64053Y415313D01*
X63953Y415323D01*
X63854Y415329D01*
X63754Y415331D01*
X57150Y415331D01*
X66294Y419192D02*
X57150Y425288D01*
X57150Y419192D02*
X66294Y425288D01*
X67310Y428437D02*
X67310Y432501D01*
X66294Y438089D02*
X57150Y438089D01*
X57150Y435549D02*
X57150Y440629D01*
X57150Y449671D02*
X66294Y443575D01*
X66294Y449671D02*
X57150Y443575D01*
X59182Y453227D02*
X57150Y455767D01*
X66294Y455767D01*
X66294Y453227D02*
X66294Y458307D01*
X67310Y461965D02*
X67310Y466029D01*
X66294Y471689D02*
X66294Y473721D01*
X66294Y471689D02*
X66292Y471600D01*
X66286Y471512D01*
X66277Y471424D01*
X66263Y471336D01*
X66246Y471249D01*
X66225Y471163D01*
X66200Y471078D01*
X66171Y470994D01*
X66139Y470911D01*
X66104Y470830D01*
X66064Y470751D01*
X66022Y470673D01*
X65976Y470597D01*
X65927Y470523D01*
X65874Y470452D01*
X65819Y470383D01*
X65760Y470316D01*
X65699Y470252D01*
X65635Y470191D01*
X65568Y470132D01*
X65499Y470077D01*
X65428Y470024D01*
X65354Y469975D01*
X65278Y469929D01*
X65200Y469887D01*
X65121Y469847D01*
X65040Y469812D01*
X64957Y469780D01*
X64873Y469751D01*
X64788Y469726D01*
X64702Y469705D01*
X64615Y469688D01*
X64527Y469674D01*
X64439Y469665D01*
X64351Y469659D01*
X64262Y469657D01*
X59182Y469657D01*
X59093Y469659D01*
X59005Y469665D01*
X58917Y469674D01*
X58829Y469688D01*
X58742Y469705D01*
X58656Y469726D01*
X58571Y469751D01*
X58487Y469780D01*
X58404Y469812D01*
X58323Y469847D01*
X58244Y469887D01*
X58166Y469929D01*
X58090Y469975D01*
X58016Y470024D01*
X57945Y470077D01*
X57876Y470132D01*
X57809Y470191D01*
X57745Y470252D01*
X57684Y470316D01*
X57625Y470383D01*
X57570Y470452D01*
X57517Y470523D01*
X57468Y470597D01*
X57422Y470673D01*
X57380Y470751D01*
X57340Y470830D01*
X57305Y470911D01*
X57273Y470994D01*
X57244Y471078D01*
X57219Y471163D01*
X57198Y471249D01*
X57181Y471336D01*
X57167Y471424D01*
X57158Y471512D01*
X57152Y471600D01*
X57150Y471689D01*
X57150Y473721D01*
X57150Y479237D02*
X66294Y479237D01*
X57150Y476697D02*
X57150Y481777D01*
X57150Y485556D02*
X66294Y485556D01*
X66294Y489620D01*
D14*
X448310Y431800D02*
X491490Y431800D01*
X495300Y410210D02*
X491490Y406400D01*
X495300Y402590D01*
X495300Y384810D01*
X491490Y381000D01*
X495300Y377190D01*
X495300Y359410D01*
X491490Y355600D01*
X448310Y355600D02*
X444500Y359410D01*
X444500Y377190D01*
X448310Y381000D01*
X444500Y384810D01*
X444500Y402590D01*
X448310Y406400D01*
X444500Y410210D01*
X491490Y355600D02*
X495300Y351790D01*
X495300Y334010D01*
X491490Y330200D01*
X495300Y326390D01*
X495300Y308610D01*
X491490Y304800D01*
X444500Y351790D02*
X448310Y355600D01*
X444500Y351790D02*
X444500Y334010D01*
X448310Y330200D02*
X444500Y326390D01*
X448310Y330200D02*
X444500Y334010D01*
X444500Y326390D02*
X444500Y308610D01*
X448310Y304800D01*
X444500Y427990D02*
X448310Y431800D01*
X444500Y427990D02*
X444500Y410210D01*
X491490Y431800D02*
X495300Y427990D01*
X495300Y410210D01*
X491490Y228600D02*
X448310Y228600D01*
X491490Y279400D02*
X495300Y283210D01*
X448310Y279400D02*
X444500Y283210D01*
X444500Y300990D02*
X448310Y304800D01*
X495300Y257810D02*
X491490Y254000D01*
X495300Y300990D02*
X491490Y304800D01*
X491490Y279400D02*
X495300Y275590D01*
X491490Y254000D02*
X495300Y250190D01*
X495300Y232410D02*
X491490Y228600D01*
X448310Y254000D02*
X444500Y257810D01*
X444500Y232410D02*
X448310Y228600D01*
X444500Y275590D02*
X448310Y279400D01*
X448310Y254000D02*
X444500Y250190D01*
X444500Y283210D02*
X444500Y300990D01*
X444500Y275590D02*
X444500Y257810D01*
X444500Y250190D02*
X444500Y232410D01*
X495300Y283210D02*
X495300Y300990D01*
X495300Y275590D02*
X495300Y257810D01*
X495300Y250190D02*
X495300Y232410D01*
D16*
X431165Y417195D02*
X428625Y420370D01*
X440055Y420370D01*
X440055Y417195D02*
X440055Y423545D01*
X431483Y398146D02*
X431379Y398144D01*
X431274Y398138D01*
X431170Y398129D01*
X431067Y398116D01*
X430964Y398098D01*
X430862Y398078D01*
X430760Y398053D01*
X430660Y398025D01*
X430560Y397993D01*
X430462Y397957D01*
X430365Y397918D01*
X430270Y397876D01*
X430176Y397830D01*
X430084Y397780D01*
X429994Y397728D01*
X429906Y397672D01*
X429820Y397612D01*
X429736Y397550D01*
X429655Y397485D01*
X429576Y397417D01*
X429499Y397345D01*
X429426Y397272D01*
X429354Y397195D01*
X429286Y397116D01*
X429221Y397035D01*
X429159Y396951D01*
X429099Y396865D01*
X429043Y396777D01*
X428991Y396687D01*
X428941Y396595D01*
X428895Y396501D01*
X428853Y396406D01*
X428814Y396309D01*
X428778Y396211D01*
X428746Y396111D01*
X428718Y396011D01*
X428693Y395909D01*
X428673Y395807D01*
X428655Y395704D01*
X428642Y395601D01*
X428633Y395497D01*
X428627Y395392D01*
X428625Y395288D01*
X428627Y395170D01*
X428633Y395051D01*
X428642Y394933D01*
X428655Y394816D01*
X428673Y394699D01*
X428693Y394582D01*
X428718Y394466D01*
X428746Y394351D01*
X428779Y394238D01*
X428814Y394125D01*
X428854Y394013D01*
X428896Y393903D01*
X428943Y393794D01*
X428993Y393686D01*
X429046Y393581D01*
X429103Y393477D01*
X429163Y393375D01*
X429226Y393275D01*
X429293Y393177D01*
X429362Y393081D01*
X429435Y392988D01*
X429511Y392897D01*
X429589Y392808D01*
X429671Y392722D01*
X429755Y392639D01*
X429841Y392558D01*
X429931Y392481D01*
X430022Y392406D01*
X430116Y392334D01*
X430213Y392265D01*
X430311Y392200D01*
X430412Y392137D01*
X430515Y392078D01*
X430619Y392022D01*
X430725Y391970D01*
X430833Y391921D01*
X430942Y391876D01*
X431053Y391834D01*
X431165Y391796D01*
X433705Y397193D02*
X433630Y397269D01*
X433551Y397344D01*
X433470Y397415D01*
X433386Y397484D01*
X433300Y397549D01*
X433212Y397611D01*
X433122Y397671D01*
X433030Y397727D01*
X432935Y397780D01*
X432839Y397829D01*
X432741Y397875D01*
X432642Y397918D01*
X432541Y397957D01*
X432439Y397992D01*
X432336Y398024D01*
X432232Y398052D01*
X432127Y398077D01*
X432020Y398098D01*
X431914Y398115D01*
X431807Y398128D01*
X431699Y398137D01*
X431591Y398143D01*
X431483Y398145D01*
X433705Y397193D02*
X440055Y391795D01*
X440055Y398145D01*
X440055Y369570D02*
X440055Y366395D01*
X440055Y369570D02*
X440053Y369681D01*
X440047Y369791D01*
X440038Y369902D01*
X440024Y370012D01*
X440007Y370121D01*
X439986Y370230D01*
X439961Y370338D01*
X439932Y370445D01*
X439900Y370551D01*
X439864Y370656D01*
X439824Y370759D01*
X439781Y370861D01*
X439734Y370962D01*
X439683Y371061D01*
X439630Y371158D01*
X439573Y371252D01*
X439512Y371345D01*
X439449Y371436D01*
X439382Y371525D01*
X439312Y371611D01*
X439239Y371694D01*
X439164Y371776D01*
X439086Y371854D01*
X439004Y371929D01*
X438921Y372002D01*
X438835Y372072D01*
X438746Y372139D01*
X438655Y372202D01*
X438562Y372263D01*
X438468Y372320D01*
X438371Y372373D01*
X438272Y372424D01*
X438171Y372471D01*
X438069Y372514D01*
X437966Y372554D01*
X437861Y372590D01*
X437755Y372622D01*
X437648Y372651D01*
X437540Y372676D01*
X437431Y372697D01*
X437322Y372714D01*
X437212Y372728D01*
X437101Y372737D01*
X436991Y372743D01*
X436880Y372745D01*
X436769Y372743D01*
X436659Y372737D01*
X436548Y372728D01*
X436438Y372714D01*
X436329Y372697D01*
X436220Y372676D01*
X436112Y372651D01*
X436005Y372622D01*
X435899Y372590D01*
X435794Y372554D01*
X435691Y372514D01*
X435589Y372471D01*
X435488Y372424D01*
X435389Y372373D01*
X435293Y372320D01*
X435198Y372263D01*
X435105Y372202D01*
X435014Y372139D01*
X434925Y372072D01*
X434839Y372002D01*
X434756Y371929D01*
X434674Y371854D01*
X434596Y371776D01*
X434521Y371694D01*
X434448Y371611D01*
X434378Y371525D01*
X434311Y371436D01*
X434248Y371345D01*
X434187Y371252D01*
X434130Y371158D01*
X434077Y371061D01*
X434026Y370962D01*
X433979Y370861D01*
X433936Y370759D01*
X433896Y370656D01*
X433860Y370551D01*
X433828Y370445D01*
X433799Y370338D01*
X433774Y370230D01*
X433753Y370121D01*
X433736Y370012D01*
X433722Y369902D01*
X433713Y369791D01*
X433707Y369681D01*
X433705Y369570D01*
X428625Y370205D02*
X428625Y366395D01*
X428625Y370205D02*
X428627Y370305D01*
X428633Y370404D01*
X428643Y370504D01*
X428656Y370602D01*
X428674Y370701D01*
X428695Y370798D01*
X428720Y370894D01*
X428749Y370990D01*
X428782Y371084D01*
X428818Y371177D01*
X428858Y371268D01*
X428902Y371358D01*
X428949Y371446D01*
X428999Y371532D01*
X429053Y371616D01*
X429110Y371698D01*
X429170Y371777D01*
X429234Y371855D01*
X429300Y371929D01*
X429369Y372001D01*
X429441Y372070D01*
X429515Y372136D01*
X429593Y372200D01*
X429672Y372260D01*
X429754Y372317D01*
X429838Y372371D01*
X429924Y372421D01*
X430012Y372468D01*
X430102Y372512D01*
X430193Y372552D01*
X430286Y372588D01*
X430380Y372621D01*
X430476Y372650D01*
X430572Y372675D01*
X430669Y372696D01*
X430768Y372714D01*
X430866Y372727D01*
X430966Y372737D01*
X431065Y372743D01*
X431165Y372745D01*
X431265Y372743D01*
X431364Y372737D01*
X431464Y372727D01*
X431562Y372714D01*
X431661Y372696D01*
X431758Y372675D01*
X431854Y372650D01*
X431950Y372621D01*
X432044Y372588D01*
X432137Y372552D01*
X432228Y372512D01*
X432318Y372468D01*
X432406Y372421D01*
X432492Y372371D01*
X432576Y372317D01*
X432658Y372260D01*
X432737Y372200D01*
X432815Y372136D01*
X432889Y372070D01*
X432961Y372001D01*
X433030Y371929D01*
X433096Y371855D01*
X433160Y371777D01*
X433220Y371698D01*
X433277Y371616D01*
X433331Y371532D01*
X433381Y371446D01*
X433428Y371358D01*
X433472Y371268D01*
X433512Y371177D01*
X433548Y371084D01*
X433581Y370990D01*
X433610Y370894D01*
X433635Y370798D01*
X433656Y370701D01*
X433674Y370602D01*
X433687Y370504D01*
X433697Y370404D01*
X433703Y370305D01*
X433705Y370205D01*
X433705Y367665D01*
X428625Y343535D02*
X437515Y340995D01*
X437515Y347345D01*
X434975Y345440D02*
X440055Y345440D01*
X440055Y319405D02*
X440055Y315595D01*
X440055Y319405D02*
X440053Y319505D01*
X440047Y319604D01*
X440037Y319704D01*
X440024Y319802D01*
X440006Y319901D01*
X439985Y319998D01*
X439960Y320094D01*
X439931Y320190D01*
X439898Y320284D01*
X439862Y320377D01*
X439822Y320468D01*
X439778Y320558D01*
X439731Y320646D01*
X439681Y320732D01*
X439627Y320816D01*
X439570Y320898D01*
X439510Y320977D01*
X439446Y321055D01*
X439380Y321129D01*
X439311Y321201D01*
X439239Y321270D01*
X439165Y321336D01*
X439087Y321400D01*
X439008Y321460D01*
X438926Y321517D01*
X438842Y321571D01*
X438756Y321621D01*
X438668Y321668D01*
X438578Y321712D01*
X438487Y321752D01*
X438394Y321788D01*
X438300Y321821D01*
X438204Y321850D01*
X438108Y321875D01*
X438011Y321896D01*
X437912Y321914D01*
X437814Y321927D01*
X437714Y321937D01*
X437615Y321943D01*
X437515Y321945D01*
X436245Y321945D01*
X436145Y321943D01*
X436046Y321937D01*
X435946Y321927D01*
X435848Y321914D01*
X435749Y321896D01*
X435652Y321875D01*
X435556Y321850D01*
X435460Y321821D01*
X435366Y321788D01*
X435273Y321752D01*
X435182Y321712D01*
X435092Y321668D01*
X435004Y321621D01*
X434918Y321571D01*
X434834Y321517D01*
X434752Y321460D01*
X434673Y321400D01*
X434595Y321336D01*
X434521Y321270D01*
X434449Y321201D01*
X434380Y321129D01*
X434314Y321055D01*
X434250Y320977D01*
X434190Y320898D01*
X434133Y320816D01*
X434079Y320732D01*
X434029Y320646D01*
X433982Y320558D01*
X433938Y320468D01*
X433898Y320377D01*
X433862Y320284D01*
X433829Y320190D01*
X433800Y320094D01*
X433775Y319998D01*
X433754Y319901D01*
X433736Y319802D01*
X433723Y319704D01*
X433713Y319604D01*
X433707Y319505D01*
X433705Y319405D01*
X433705Y315595D01*
X428625Y315595D01*
X428625Y321945D01*
X433705Y294005D02*
X433705Y290195D01*
X433705Y294005D02*
X433707Y294105D01*
X433713Y294204D01*
X433723Y294304D01*
X433736Y294402D01*
X433754Y294501D01*
X433775Y294598D01*
X433800Y294694D01*
X433829Y294790D01*
X433862Y294884D01*
X433898Y294977D01*
X433938Y295068D01*
X433982Y295158D01*
X434029Y295246D01*
X434079Y295332D01*
X434133Y295416D01*
X434190Y295498D01*
X434250Y295577D01*
X434314Y295655D01*
X434380Y295729D01*
X434449Y295801D01*
X434521Y295870D01*
X434595Y295936D01*
X434673Y296000D01*
X434752Y296060D01*
X434834Y296117D01*
X434918Y296171D01*
X435004Y296221D01*
X435092Y296268D01*
X435182Y296312D01*
X435273Y296352D01*
X435366Y296388D01*
X435460Y296421D01*
X435556Y296450D01*
X435652Y296475D01*
X435749Y296496D01*
X435848Y296514D01*
X435946Y296527D01*
X436046Y296537D01*
X436145Y296543D01*
X436245Y296545D01*
X436880Y296545D01*
X436991Y296543D01*
X437101Y296537D01*
X437212Y296528D01*
X437322Y296514D01*
X437431Y296497D01*
X437540Y296476D01*
X437648Y296451D01*
X437755Y296422D01*
X437861Y296390D01*
X437966Y296354D01*
X438069Y296314D01*
X438171Y296271D01*
X438272Y296224D01*
X438371Y296173D01*
X438468Y296120D01*
X438562Y296063D01*
X438655Y296002D01*
X438746Y295939D01*
X438835Y295872D01*
X438921Y295802D01*
X439004Y295729D01*
X439086Y295654D01*
X439164Y295576D01*
X439239Y295494D01*
X439312Y295411D01*
X439382Y295325D01*
X439449Y295236D01*
X439512Y295145D01*
X439573Y295052D01*
X439630Y294957D01*
X439683Y294861D01*
X439734Y294762D01*
X439781Y294661D01*
X439824Y294559D01*
X439864Y294456D01*
X439900Y294351D01*
X439932Y294245D01*
X439961Y294138D01*
X439986Y294030D01*
X440007Y293921D01*
X440024Y293812D01*
X440038Y293702D01*
X440047Y293591D01*
X440053Y293481D01*
X440055Y293370D01*
X440053Y293259D01*
X440047Y293149D01*
X440038Y293038D01*
X440024Y292928D01*
X440007Y292819D01*
X439986Y292710D01*
X439961Y292602D01*
X439932Y292495D01*
X439900Y292389D01*
X439864Y292284D01*
X439824Y292181D01*
X439781Y292079D01*
X439734Y291978D01*
X439683Y291879D01*
X439630Y291782D01*
X439573Y291688D01*
X439512Y291595D01*
X439449Y291504D01*
X439382Y291415D01*
X439312Y291329D01*
X439239Y291246D01*
X439164Y291164D01*
X439086Y291086D01*
X439004Y291011D01*
X438921Y290938D01*
X438835Y290868D01*
X438746Y290801D01*
X438655Y290738D01*
X438562Y290677D01*
X438468Y290620D01*
X438371Y290567D01*
X438272Y290516D01*
X438171Y290469D01*
X438069Y290426D01*
X437966Y290386D01*
X437861Y290350D01*
X437755Y290318D01*
X437648Y290289D01*
X437540Y290264D01*
X437431Y290243D01*
X437322Y290226D01*
X437212Y290212D01*
X437101Y290203D01*
X436991Y290197D01*
X436880Y290195D01*
X433705Y290195D01*
X433565Y290197D01*
X433425Y290203D01*
X433285Y290212D01*
X433146Y290226D01*
X433007Y290243D01*
X432869Y290264D01*
X432731Y290289D01*
X432594Y290318D01*
X432458Y290350D01*
X432323Y290387D01*
X432189Y290427D01*
X432056Y290470D01*
X431924Y290518D01*
X431793Y290568D01*
X431664Y290623D01*
X431537Y290681D01*
X431411Y290742D01*
X431287Y290807D01*
X431165Y290876D01*
X431045Y290947D01*
X430927Y291022D01*
X430810Y291100D01*
X430696Y291182D01*
X430585Y291266D01*
X430476Y291354D01*
X430369Y291444D01*
X430264Y291538D01*
X430163Y291634D01*
X430064Y291733D01*
X429968Y291834D01*
X429874Y291939D01*
X429784Y292046D01*
X429696Y292155D01*
X429612Y292266D01*
X429530Y292380D01*
X429452Y292497D01*
X429377Y292615D01*
X429306Y292735D01*
X429237Y292857D01*
X429172Y292981D01*
X429111Y293107D01*
X429053Y293234D01*
X428998Y293363D01*
X428948Y293494D01*
X428900Y293626D01*
X428857Y293759D01*
X428817Y293893D01*
X428780Y294028D01*
X428748Y294164D01*
X428719Y294301D01*
X428694Y294439D01*
X428673Y294577D01*
X428656Y294716D01*
X428642Y294855D01*
X428633Y294995D01*
X428627Y295135D01*
X428625Y295275D01*
X428625Y264795D02*
X429895Y264795D01*
X428625Y264795D02*
X428625Y271145D01*
X440055Y267970D01*
X436880Y245745D02*
X436769Y245743D01*
X436659Y245737D01*
X436548Y245728D01*
X436438Y245714D01*
X436329Y245697D01*
X436220Y245676D01*
X436112Y245651D01*
X436005Y245622D01*
X435899Y245590D01*
X435794Y245554D01*
X435691Y245514D01*
X435589Y245471D01*
X435488Y245424D01*
X435389Y245373D01*
X435293Y245320D01*
X435198Y245263D01*
X435105Y245202D01*
X435014Y245139D01*
X434925Y245072D01*
X434839Y245002D01*
X434756Y244929D01*
X434674Y244854D01*
X434596Y244776D01*
X434521Y244694D01*
X434448Y244611D01*
X434378Y244525D01*
X434311Y244436D01*
X434248Y244345D01*
X434187Y244252D01*
X434130Y244158D01*
X434077Y244061D01*
X434026Y243962D01*
X433979Y243861D01*
X433936Y243759D01*
X433896Y243656D01*
X433860Y243551D01*
X433828Y243445D01*
X433799Y243338D01*
X433774Y243230D01*
X433753Y243121D01*
X433736Y243012D01*
X433722Y242902D01*
X433713Y242791D01*
X433707Y242681D01*
X433705Y242570D01*
X433707Y242459D01*
X433713Y242349D01*
X433722Y242238D01*
X433736Y242128D01*
X433753Y242019D01*
X433774Y241910D01*
X433799Y241802D01*
X433828Y241695D01*
X433860Y241589D01*
X433896Y241484D01*
X433936Y241381D01*
X433979Y241279D01*
X434026Y241178D01*
X434077Y241079D01*
X434130Y240983D01*
X434187Y240888D01*
X434248Y240795D01*
X434311Y240704D01*
X434378Y240615D01*
X434448Y240529D01*
X434521Y240446D01*
X434596Y240364D01*
X434674Y240286D01*
X434756Y240211D01*
X434839Y240138D01*
X434925Y240068D01*
X435014Y240001D01*
X435105Y239938D01*
X435198Y239877D01*
X435293Y239820D01*
X435389Y239767D01*
X435488Y239716D01*
X435589Y239669D01*
X435691Y239626D01*
X435794Y239586D01*
X435899Y239550D01*
X436005Y239518D01*
X436112Y239489D01*
X436220Y239464D01*
X436329Y239443D01*
X436438Y239426D01*
X436548Y239412D01*
X436659Y239403D01*
X436769Y239397D01*
X436880Y239395D01*
X436991Y239397D01*
X437101Y239403D01*
X437212Y239412D01*
X437322Y239426D01*
X437431Y239443D01*
X437540Y239464D01*
X437648Y239489D01*
X437755Y239518D01*
X437861Y239550D01*
X437966Y239586D01*
X438069Y239626D01*
X438171Y239669D01*
X438272Y239716D01*
X438371Y239767D01*
X438468Y239820D01*
X438562Y239877D01*
X438655Y239938D01*
X438746Y240001D01*
X438835Y240068D01*
X438921Y240138D01*
X439004Y240211D01*
X439086Y240286D01*
X439164Y240364D01*
X439239Y240446D01*
X439312Y240529D01*
X439382Y240615D01*
X439449Y240704D01*
X439512Y240795D01*
X439573Y240888D01*
X439630Y240982D01*
X439683Y241079D01*
X439734Y241178D01*
X439781Y241279D01*
X439824Y241381D01*
X439864Y241484D01*
X439900Y241589D01*
X439932Y241695D01*
X439961Y241802D01*
X439986Y241910D01*
X440007Y242019D01*
X440024Y242128D01*
X440038Y242238D01*
X440047Y242349D01*
X440053Y242459D01*
X440055Y242570D01*
X440053Y242681D01*
X440047Y242791D01*
X440038Y242902D01*
X440024Y243012D01*
X440007Y243121D01*
X439986Y243230D01*
X439961Y243338D01*
X439932Y243445D01*
X439900Y243551D01*
X439864Y243656D01*
X439824Y243759D01*
X439781Y243861D01*
X439734Y243962D01*
X439683Y244061D01*
X439630Y244157D01*
X439573Y244252D01*
X439512Y244345D01*
X439449Y244436D01*
X439382Y244525D01*
X439312Y244611D01*
X439239Y244694D01*
X439164Y244776D01*
X439086Y244854D01*
X439004Y244929D01*
X438921Y245002D01*
X438835Y245072D01*
X438746Y245139D01*
X438655Y245202D01*
X438562Y245263D01*
X438468Y245320D01*
X438371Y245373D01*
X438272Y245424D01*
X438171Y245471D01*
X438069Y245514D01*
X437966Y245554D01*
X437861Y245590D01*
X437755Y245622D01*
X437648Y245651D01*
X437540Y245676D01*
X437431Y245697D01*
X437322Y245714D01*
X437212Y245728D01*
X437101Y245737D01*
X436991Y245743D01*
X436880Y245745D01*
X431165Y245110D02*
X431065Y245108D01*
X430966Y245102D01*
X430866Y245092D01*
X430768Y245079D01*
X430669Y245061D01*
X430572Y245040D01*
X430476Y245015D01*
X430380Y244986D01*
X430286Y244953D01*
X430193Y244917D01*
X430102Y244877D01*
X430012Y244833D01*
X429924Y244786D01*
X429838Y244736D01*
X429754Y244682D01*
X429672Y244625D01*
X429593Y244565D01*
X429515Y244501D01*
X429441Y244435D01*
X429369Y244366D01*
X429300Y244294D01*
X429234Y244220D01*
X429170Y244142D01*
X429110Y244063D01*
X429053Y243981D01*
X428999Y243897D01*
X428949Y243811D01*
X428902Y243723D01*
X428858Y243633D01*
X428818Y243542D01*
X428782Y243449D01*
X428749Y243355D01*
X428720Y243259D01*
X428695Y243163D01*
X428674Y243066D01*
X428656Y242967D01*
X428643Y242869D01*
X428633Y242769D01*
X428627Y242670D01*
X428625Y242570D01*
X428627Y242470D01*
X428633Y242371D01*
X428643Y242271D01*
X428656Y242173D01*
X428674Y242074D01*
X428695Y241977D01*
X428720Y241881D01*
X428749Y241785D01*
X428782Y241691D01*
X428818Y241598D01*
X428858Y241507D01*
X428902Y241417D01*
X428949Y241329D01*
X428999Y241243D01*
X429053Y241159D01*
X429110Y241077D01*
X429170Y240998D01*
X429234Y240920D01*
X429300Y240846D01*
X429369Y240774D01*
X429441Y240705D01*
X429515Y240639D01*
X429593Y240575D01*
X429672Y240515D01*
X429754Y240458D01*
X429838Y240404D01*
X429924Y240354D01*
X430012Y240307D01*
X430102Y240263D01*
X430193Y240223D01*
X430286Y240187D01*
X430380Y240154D01*
X430476Y240125D01*
X430572Y240100D01*
X430669Y240079D01*
X430768Y240061D01*
X430866Y240048D01*
X430966Y240038D01*
X431065Y240032D01*
X431165Y240030D01*
X431265Y240032D01*
X431364Y240038D01*
X431464Y240048D01*
X431562Y240061D01*
X431661Y240079D01*
X431758Y240100D01*
X431854Y240125D01*
X431950Y240154D01*
X432044Y240187D01*
X432137Y240223D01*
X432228Y240263D01*
X432318Y240307D01*
X432406Y240354D01*
X432492Y240404D01*
X432576Y240458D01*
X432658Y240515D01*
X432737Y240575D01*
X432815Y240639D01*
X432889Y240705D01*
X432961Y240774D01*
X433030Y240846D01*
X433096Y240920D01*
X433160Y240998D01*
X433220Y241077D01*
X433277Y241159D01*
X433331Y241243D01*
X433381Y241329D01*
X433428Y241417D01*
X433472Y241507D01*
X433512Y241598D01*
X433548Y241691D01*
X433581Y241785D01*
X433610Y241881D01*
X433635Y241977D01*
X433656Y242074D01*
X433674Y242173D01*
X433687Y242271D01*
X433697Y242371D01*
X433703Y242470D01*
X433705Y242570D01*
X433703Y242670D01*
X433697Y242769D01*
X433687Y242869D01*
X433674Y242967D01*
X433656Y243066D01*
X433635Y243163D01*
X433610Y243259D01*
X433581Y243355D01*
X433548Y243449D01*
X433512Y243542D01*
X433472Y243633D01*
X433428Y243723D01*
X433381Y243811D01*
X433331Y243897D01*
X433277Y243981D01*
X433220Y244063D01*
X433160Y244142D01*
X433096Y244220D01*
X433030Y244294D01*
X432961Y244366D01*
X432889Y244435D01*
X432815Y244501D01*
X432737Y244565D01*
X432658Y244625D01*
X432576Y244682D01*
X432492Y244736D01*
X432406Y244786D01*
X432318Y244833D01*
X432228Y244877D01*
X432137Y244917D01*
X432044Y244953D01*
X431950Y244986D01*
X431854Y245015D01*
X431758Y245040D01*
X431661Y245061D01*
X431562Y245079D01*
X431464Y245092D01*
X431364Y245102D01*
X431265Y245108D01*
X431165Y245110D01*
D18*
X421640Y268692D02*
X421640Y272756D01*
X421640Y268692D02*
X412496Y268692D01*
X412496Y272756D01*
X416560Y271740D02*
X416560Y268692D01*
X412496Y276616D02*
X421640Y276616D01*
X421640Y280680D01*
X421640Y284541D02*
X421640Y288605D01*
X421640Y284541D02*
X412496Y284541D01*
X412496Y288605D01*
X416560Y287589D02*
X416560Y284541D01*
X421640Y294143D02*
X421640Y296175D01*
X421640Y294143D02*
X421638Y294054D01*
X421632Y293966D01*
X421623Y293878D01*
X421609Y293790D01*
X421592Y293703D01*
X421571Y293617D01*
X421546Y293532D01*
X421517Y293448D01*
X421485Y293365D01*
X421450Y293284D01*
X421410Y293205D01*
X421368Y293127D01*
X421322Y293051D01*
X421273Y292977D01*
X421220Y292906D01*
X421165Y292837D01*
X421106Y292770D01*
X421045Y292706D01*
X420981Y292645D01*
X420914Y292586D01*
X420845Y292531D01*
X420774Y292478D01*
X420700Y292429D01*
X420624Y292383D01*
X420546Y292341D01*
X420467Y292301D01*
X420386Y292266D01*
X420303Y292234D01*
X420219Y292205D01*
X420134Y292180D01*
X420048Y292159D01*
X419961Y292142D01*
X419873Y292128D01*
X419785Y292119D01*
X419697Y292113D01*
X419608Y292111D01*
X414528Y292111D01*
X414439Y292113D01*
X414351Y292119D01*
X414263Y292128D01*
X414175Y292142D01*
X414088Y292159D01*
X414002Y292180D01*
X413917Y292205D01*
X413833Y292234D01*
X413750Y292266D01*
X413669Y292301D01*
X413590Y292341D01*
X413512Y292383D01*
X413436Y292429D01*
X413362Y292478D01*
X413291Y292531D01*
X413222Y292586D01*
X413155Y292645D01*
X413091Y292706D01*
X413030Y292770D01*
X412971Y292837D01*
X412916Y292906D01*
X412863Y292977D01*
X412814Y293051D01*
X412768Y293127D01*
X412726Y293205D01*
X412686Y293284D01*
X412651Y293365D01*
X412619Y293448D01*
X412590Y293532D01*
X412565Y293617D01*
X412544Y293703D01*
X412527Y293790D01*
X412513Y293878D01*
X412504Y293966D01*
X412498Y294054D01*
X412496Y294143D01*
X412496Y296175D01*
X412496Y301691D02*
X421640Y301691D01*
X412496Y299151D02*
X412496Y304231D01*
X412496Y308057D02*
X421640Y308057D01*
X412496Y308057D02*
X412496Y310597D01*
X412498Y310697D01*
X412504Y310796D01*
X412514Y310896D01*
X412527Y310994D01*
X412545Y311093D01*
X412566Y311190D01*
X412591Y311286D01*
X412620Y311382D01*
X412653Y311476D01*
X412689Y311569D01*
X412729Y311660D01*
X412773Y311750D01*
X412820Y311838D01*
X412870Y311924D01*
X412924Y312008D01*
X412981Y312090D01*
X413041Y312169D01*
X413105Y312247D01*
X413171Y312321D01*
X413240Y312393D01*
X413312Y312462D01*
X413386Y312528D01*
X413464Y312592D01*
X413543Y312652D01*
X413625Y312709D01*
X413709Y312763D01*
X413795Y312813D01*
X413883Y312860D01*
X413973Y312904D01*
X414064Y312944D01*
X414157Y312980D01*
X414251Y313013D01*
X414347Y313042D01*
X414443Y313067D01*
X414540Y313088D01*
X414639Y313106D01*
X414737Y313119D01*
X414837Y313129D01*
X414936Y313135D01*
X415036Y313137D01*
X415136Y313135D01*
X415235Y313129D01*
X415335Y313119D01*
X415433Y313106D01*
X415532Y313088D01*
X415629Y313067D01*
X415725Y313042D01*
X415821Y313013D01*
X415915Y312980D01*
X416008Y312944D01*
X416099Y312904D01*
X416189Y312860D01*
X416277Y312813D01*
X416363Y312763D01*
X416447Y312709D01*
X416529Y312652D01*
X416608Y312592D01*
X416686Y312528D01*
X416760Y312462D01*
X416832Y312393D01*
X416901Y312321D01*
X416967Y312247D01*
X417031Y312169D01*
X417091Y312090D01*
X417148Y312008D01*
X417202Y311924D01*
X417252Y311838D01*
X417299Y311750D01*
X417343Y311660D01*
X417383Y311569D01*
X417419Y311476D01*
X417452Y311382D01*
X417481Y311286D01*
X417506Y311190D01*
X417527Y311093D01*
X417545Y310994D01*
X417558Y310896D01*
X417568Y310796D01*
X417574Y310697D01*
X417576Y310597D01*
X417576Y308057D01*
X417576Y311105D02*
X421640Y313137D01*
X419100Y317134D02*
X415036Y317134D01*
X414936Y317136D01*
X414837Y317142D01*
X414737Y317152D01*
X414639Y317165D01*
X414540Y317183D01*
X414443Y317204D01*
X414347Y317229D01*
X414251Y317258D01*
X414157Y317291D01*
X414064Y317327D01*
X413973Y317367D01*
X413883Y317411D01*
X413795Y317458D01*
X413709Y317508D01*
X413625Y317562D01*
X413543Y317619D01*
X413464Y317679D01*
X413386Y317743D01*
X413312Y317809D01*
X413240Y317878D01*
X413171Y317950D01*
X413105Y318024D01*
X413041Y318102D01*
X412981Y318181D01*
X412924Y318263D01*
X412870Y318347D01*
X412820Y318433D01*
X412773Y318521D01*
X412729Y318611D01*
X412689Y318702D01*
X412653Y318795D01*
X412620Y318889D01*
X412591Y318985D01*
X412566Y319081D01*
X412545Y319178D01*
X412527Y319277D01*
X412514Y319375D01*
X412504Y319475D01*
X412498Y319574D01*
X412496Y319674D01*
X412498Y319774D01*
X412504Y319873D01*
X412514Y319973D01*
X412527Y320071D01*
X412545Y320170D01*
X412566Y320267D01*
X412591Y320363D01*
X412620Y320459D01*
X412653Y320553D01*
X412689Y320646D01*
X412729Y320737D01*
X412773Y320827D01*
X412820Y320915D01*
X412870Y321001D01*
X412924Y321085D01*
X412981Y321167D01*
X413041Y321246D01*
X413105Y321324D01*
X413171Y321398D01*
X413240Y321470D01*
X413312Y321539D01*
X413386Y321605D01*
X413464Y321669D01*
X413543Y321729D01*
X413625Y321786D01*
X413709Y321840D01*
X413795Y321890D01*
X413883Y321937D01*
X413973Y321981D01*
X414064Y322021D01*
X414157Y322057D01*
X414251Y322090D01*
X414347Y322119D01*
X414443Y322144D01*
X414540Y322165D01*
X414639Y322183D01*
X414737Y322196D01*
X414837Y322206D01*
X414936Y322212D01*
X415036Y322214D01*
X419100Y322214D01*
X419200Y322212D01*
X419299Y322206D01*
X419399Y322196D01*
X419497Y322183D01*
X419596Y322165D01*
X419693Y322144D01*
X419789Y322119D01*
X419885Y322090D01*
X419979Y322057D01*
X420072Y322021D01*
X420163Y321981D01*
X420253Y321937D01*
X420341Y321890D01*
X420427Y321840D01*
X420511Y321786D01*
X420593Y321729D01*
X420672Y321669D01*
X420750Y321605D01*
X420824Y321539D01*
X420896Y321470D01*
X420965Y321398D01*
X421031Y321324D01*
X421095Y321246D01*
X421155Y321167D01*
X421212Y321085D01*
X421266Y321001D01*
X421316Y320915D01*
X421363Y320827D01*
X421407Y320737D01*
X421447Y320646D01*
X421483Y320553D01*
X421516Y320459D01*
X421545Y320363D01*
X421570Y320267D01*
X421591Y320170D01*
X421609Y320071D01*
X421622Y319973D01*
X421632Y319873D01*
X421638Y319774D01*
X421640Y319674D01*
X421638Y319574D01*
X421632Y319475D01*
X421622Y319375D01*
X421609Y319277D01*
X421591Y319178D01*
X421570Y319081D01*
X421545Y318985D01*
X421516Y318889D01*
X421483Y318795D01*
X421447Y318702D01*
X421407Y318611D01*
X421363Y318521D01*
X421316Y318433D01*
X421266Y318347D01*
X421212Y318263D01*
X421155Y318181D01*
X421095Y318102D01*
X421031Y318024D01*
X420965Y317950D01*
X420896Y317878D01*
X420824Y317809D01*
X420750Y317743D01*
X420672Y317679D01*
X420593Y317619D01*
X420511Y317562D01*
X420427Y317508D01*
X420341Y317458D01*
X420253Y317411D01*
X420163Y317367D01*
X420072Y317327D01*
X419979Y317291D01*
X419885Y317258D01*
X419789Y317229D01*
X419693Y317204D01*
X419596Y317183D01*
X419497Y317165D01*
X419399Y317152D01*
X419299Y317142D01*
X419200Y317136D01*
X419100Y317134D01*
X421640Y326583D02*
X412496Y326583D01*
X412496Y329123D01*
X412498Y329223D01*
X412504Y329322D01*
X412514Y329422D01*
X412527Y329520D01*
X412545Y329619D01*
X412566Y329716D01*
X412591Y329812D01*
X412620Y329908D01*
X412653Y330002D01*
X412689Y330095D01*
X412729Y330186D01*
X412773Y330276D01*
X412820Y330364D01*
X412870Y330450D01*
X412924Y330534D01*
X412981Y330616D01*
X413041Y330695D01*
X413105Y330773D01*
X413171Y330847D01*
X413240Y330919D01*
X413312Y330988D01*
X413386Y331054D01*
X413464Y331118D01*
X413543Y331178D01*
X413625Y331235D01*
X413709Y331289D01*
X413795Y331339D01*
X413883Y331386D01*
X413973Y331430D01*
X414064Y331470D01*
X414157Y331506D01*
X414251Y331539D01*
X414347Y331568D01*
X414443Y331593D01*
X414540Y331614D01*
X414639Y331632D01*
X414737Y331645D01*
X414837Y331655D01*
X414936Y331661D01*
X415036Y331663D01*
X419100Y331663D01*
X419200Y331661D01*
X419299Y331655D01*
X419399Y331645D01*
X419497Y331632D01*
X419596Y331614D01*
X419693Y331593D01*
X419789Y331568D01*
X419885Y331539D01*
X419979Y331506D01*
X420072Y331470D01*
X420163Y331430D01*
X420253Y331386D01*
X420341Y331339D01*
X420427Y331289D01*
X420511Y331235D01*
X420593Y331178D01*
X420672Y331118D01*
X420750Y331054D01*
X420824Y330988D01*
X420896Y330919D01*
X420965Y330847D01*
X421031Y330773D01*
X421095Y330695D01*
X421155Y330616D01*
X421212Y330534D01*
X421266Y330450D01*
X421316Y330364D01*
X421363Y330276D01*
X421407Y330186D01*
X421447Y330095D01*
X421483Y330002D01*
X421516Y329908D01*
X421545Y329812D01*
X421570Y329716D01*
X421591Y329619D01*
X421609Y329520D01*
X421622Y329422D01*
X421632Y329322D01*
X421638Y329223D01*
X421640Y329123D01*
X421640Y326583D01*
X421640Y336357D02*
X421640Y340421D01*
X421640Y336357D02*
X412496Y336357D01*
X412496Y340421D01*
X416560Y339405D02*
X416560Y336357D01*
X421640Y346700D02*
X421638Y346789D01*
X421632Y346877D01*
X421623Y346965D01*
X421609Y347053D01*
X421592Y347140D01*
X421571Y347226D01*
X421546Y347311D01*
X421517Y347395D01*
X421485Y347478D01*
X421450Y347559D01*
X421410Y347638D01*
X421368Y347716D01*
X421322Y347792D01*
X421273Y347866D01*
X421220Y347937D01*
X421165Y348006D01*
X421106Y348073D01*
X421045Y348137D01*
X420981Y348198D01*
X420914Y348257D01*
X420845Y348312D01*
X420774Y348365D01*
X420700Y348414D01*
X420624Y348460D01*
X420546Y348502D01*
X420467Y348542D01*
X420386Y348577D01*
X420303Y348609D01*
X420219Y348638D01*
X420134Y348663D01*
X420048Y348684D01*
X419961Y348701D01*
X419873Y348715D01*
X419785Y348724D01*
X419697Y348730D01*
X419608Y348732D01*
X421640Y346700D02*
X421638Y346570D01*
X421632Y346439D01*
X421622Y346309D01*
X421608Y346180D01*
X421591Y346051D01*
X421569Y345922D01*
X421543Y345794D01*
X421514Y345667D01*
X421481Y345541D01*
X421444Y345416D01*
X421403Y345292D01*
X421358Y345170D01*
X421310Y345049D01*
X421258Y344929D01*
X421202Y344811D01*
X421143Y344695D01*
X421080Y344581D01*
X421014Y344468D01*
X420945Y344358D01*
X420872Y344250D01*
X420796Y344144D01*
X420717Y344040D01*
X420635Y343939D01*
X420549Y343841D01*
X420461Y343745D01*
X420370Y343652D01*
X414528Y343906D02*
X414439Y343908D01*
X414351Y343914D01*
X414263Y343923D01*
X414175Y343937D01*
X414088Y343954D01*
X414002Y343975D01*
X413917Y344000D01*
X413833Y344029D01*
X413750Y344061D01*
X413669Y344096D01*
X413590Y344136D01*
X413512Y344178D01*
X413436Y344224D01*
X413362Y344273D01*
X413291Y344326D01*
X413222Y344381D01*
X413155Y344440D01*
X413091Y344501D01*
X413030Y344565D01*
X412971Y344632D01*
X412916Y344701D01*
X412863Y344772D01*
X412814Y344846D01*
X412768Y344922D01*
X412726Y345000D01*
X412686Y345079D01*
X412651Y345160D01*
X412619Y345243D01*
X412590Y345327D01*
X412565Y345412D01*
X412544Y345498D01*
X412527Y345585D01*
X412513Y345673D01*
X412504Y345761D01*
X412498Y345849D01*
X412496Y345938D01*
X412498Y346061D01*
X412504Y346183D01*
X412514Y346305D01*
X412528Y346427D01*
X412545Y346548D01*
X412567Y346669D01*
X412592Y346789D01*
X412622Y346908D01*
X412655Y347026D01*
X412692Y347143D01*
X412732Y347258D01*
X412776Y347373D01*
X412824Y347486D01*
X412876Y347597D01*
X412931Y347706D01*
X412990Y347814D01*
X413052Y347920D01*
X413117Y348023D01*
X413186Y348125D01*
X413258Y348224D01*
X416306Y344922D02*
X416259Y344846D01*
X416209Y344772D01*
X416156Y344701D01*
X416099Y344632D01*
X416040Y344565D01*
X415978Y344501D01*
X415913Y344439D01*
X415845Y344381D01*
X415775Y344326D01*
X415703Y344273D01*
X415629Y344224D01*
X415552Y344178D01*
X415474Y344135D01*
X415393Y344096D01*
X415311Y344060D01*
X415228Y344028D01*
X415144Y344000D01*
X415058Y343975D01*
X414971Y343954D01*
X414883Y343937D01*
X414795Y343923D01*
X414706Y343914D01*
X414617Y343908D01*
X414528Y343906D01*
X417830Y347716D02*
X417877Y347792D01*
X417927Y347866D01*
X417980Y347937D01*
X418037Y348006D01*
X418096Y348073D01*
X418158Y348137D01*
X418223Y348199D01*
X418291Y348257D01*
X418361Y348312D01*
X418433Y348365D01*
X418507Y348414D01*
X418584Y348460D01*
X418662Y348503D01*
X418743Y348542D01*
X418825Y348578D01*
X418908Y348610D01*
X418992Y348638D01*
X419078Y348663D01*
X419165Y348684D01*
X419253Y348701D01*
X419341Y348715D01*
X419430Y348724D01*
X419519Y348730D01*
X419608Y348732D01*
X417830Y347716D02*
X416306Y344922D01*
X422656Y352085D02*
X422656Y356149D01*
X421640Y361808D02*
X421640Y363840D01*
X421640Y361808D02*
X421638Y361719D01*
X421632Y361631D01*
X421623Y361543D01*
X421609Y361455D01*
X421592Y361368D01*
X421571Y361282D01*
X421546Y361197D01*
X421517Y361113D01*
X421485Y361030D01*
X421450Y360949D01*
X421410Y360870D01*
X421368Y360792D01*
X421322Y360716D01*
X421273Y360642D01*
X421220Y360571D01*
X421165Y360502D01*
X421106Y360435D01*
X421045Y360371D01*
X420981Y360310D01*
X420914Y360251D01*
X420845Y360196D01*
X420774Y360143D01*
X420700Y360094D01*
X420624Y360048D01*
X420546Y360006D01*
X420467Y359966D01*
X420386Y359931D01*
X420303Y359899D01*
X420219Y359870D01*
X420134Y359845D01*
X420048Y359824D01*
X419961Y359807D01*
X419873Y359793D01*
X419785Y359784D01*
X419697Y359778D01*
X419608Y359776D01*
X414528Y359776D01*
X414439Y359778D01*
X414351Y359784D01*
X414263Y359793D01*
X414175Y359807D01*
X414088Y359824D01*
X414002Y359845D01*
X413917Y359870D01*
X413833Y359899D01*
X413750Y359931D01*
X413669Y359966D01*
X413590Y360006D01*
X413512Y360048D01*
X413436Y360094D01*
X413362Y360143D01*
X413291Y360196D01*
X413222Y360251D01*
X413155Y360310D01*
X413091Y360371D01*
X413030Y360435D01*
X412971Y360502D01*
X412916Y360571D01*
X412863Y360642D01*
X412814Y360716D01*
X412768Y360792D01*
X412726Y360870D01*
X412686Y360949D01*
X412651Y361030D01*
X412619Y361113D01*
X412590Y361197D01*
X412565Y361282D01*
X412544Y361368D01*
X412527Y361455D01*
X412513Y361543D01*
X412504Y361631D01*
X412498Y361719D01*
X412496Y361808D01*
X412496Y363840D01*
X415036Y367426D02*
X419100Y367426D01*
X415036Y367426D02*
X414936Y367428D01*
X414837Y367434D01*
X414737Y367444D01*
X414639Y367457D01*
X414540Y367475D01*
X414443Y367496D01*
X414347Y367521D01*
X414251Y367550D01*
X414157Y367583D01*
X414064Y367619D01*
X413973Y367659D01*
X413883Y367703D01*
X413795Y367750D01*
X413709Y367800D01*
X413625Y367854D01*
X413543Y367911D01*
X413464Y367971D01*
X413386Y368035D01*
X413312Y368101D01*
X413240Y368170D01*
X413171Y368242D01*
X413105Y368316D01*
X413041Y368394D01*
X412981Y368473D01*
X412924Y368555D01*
X412870Y368639D01*
X412820Y368725D01*
X412773Y368813D01*
X412729Y368903D01*
X412689Y368994D01*
X412653Y369087D01*
X412620Y369181D01*
X412591Y369277D01*
X412566Y369373D01*
X412545Y369470D01*
X412527Y369569D01*
X412514Y369667D01*
X412504Y369767D01*
X412498Y369866D01*
X412496Y369966D01*
X412498Y370066D01*
X412504Y370165D01*
X412514Y370265D01*
X412527Y370363D01*
X412545Y370462D01*
X412566Y370559D01*
X412591Y370655D01*
X412620Y370751D01*
X412653Y370845D01*
X412689Y370938D01*
X412729Y371029D01*
X412773Y371119D01*
X412820Y371207D01*
X412870Y371293D01*
X412924Y371377D01*
X412981Y371459D01*
X413041Y371538D01*
X413105Y371616D01*
X413171Y371690D01*
X413240Y371762D01*
X413312Y371831D01*
X413386Y371897D01*
X413464Y371961D01*
X413543Y372021D01*
X413625Y372078D01*
X413709Y372132D01*
X413795Y372182D01*
X413883Y372229D01*
X413973Y372273D01*
X414064Y372313D01*
X414157Y372349D01*
X414251Y372382D01*
X414347Y372411D01*
X414443Y372436D01*
X414540Y372457D01*
X414639Y372475D01*
X414737Y372488D01*
X414837Y372498D01*
X414936Y372504D01*
X415036Y372506D01*
X419100Y372506D01*
X419200Y372504D01*
X419299Y372498D01*
X419399Y372488D01*
X419497Y372475D01*
X419596Y372457D01*
X419693Y372436D01*
X419789Y372411D01*
X419885Y372382D01*
X419979Y372349D01*
X420072Y372313D01*
X420163Y372273D01*
X420253Y372229D01*
X420341Y372182D01*
X420427Y372132D01*
X420511Y372078D01*
X420593Y372021D01*
X420672Y371961D01*
X420750Y371897D01*
X420824Y371831D01*
X420896Y371762D01*
X420965Y371690D01*
X421031Y371616D01*
X421095Y371538D01*
X421155Y371459D01*
X421212Y371377D01*
X421266Y371293D01*
X421316Y371207D01*
X421363Y371119D01*
X421407Y371029D01*
X421447Y370938D01*
X421483Y370845D01*
X421516Y370751D01*
X421545Y370655D01*
X421570Y370559D01*
X421591Y370462D01*
X421609Y370363D01*
X421622Y370265D01*
X421632Y370165D01*
X421638Y370066D01*
X421640Y369966D01*
X421638Y369866D01*
X421632Y369767D01*
X421622Y369667D01*
X421609Y369569D01*
X421591Y369470D01*
X421570Y369373D01*
X421545Y369277D01*
X421516Y369181D01*
X421483Y369087D01*
X421447Y368994D01*
X421407Y368903D01*
X421363Y368813D01*
X421316Y368725D01*
X421266Y368639D01*
X421212Y368555D01*
X421155Y368473D01*
X421095Y368394D01*
X421031Y368316D01*
X420965Y368242D01*
X420896Y368170D01*
X420824Y368101D01*
X420750Y368035D01*
X420672Y367971D01*
X420593Y367911D01*
X420511Y367854D01*
X420427Y367800D01*
X420341Y367750D01*
X420253Y367703D01*
X420163Y367659D01*
X420072Y367619D01*
X419979Y367583D01*
X419885Y367550D01*
X419789Y367521D01*
X419693Y367496D01*
X419596Y367475D01*
X419497Y367457D01*
X419399Y367444D01*
X419299Y367434D01*
X419200Y367428D01*
X419100Y367426D01*
X421640Y376875D02*
X412496Y376875D01*
X421640Y381955D01*
X412496Y381955D01*
X412496Y386628D02*
X421640Y386628D01*
X421640Y391708D02*
X412496Y386628D01*
X412496Y391708D02*
X421640Y391708D01*
D14*
X15240Y546100D02*
X12700Y548640D01*
X15240Y546100D02*
X12700Y543560D01*
X35560Y546100D02*
X38100Y548640D01*
X35560Y546100D02*
X38100Y543560D01*
X38100Y523240D01*
X35560Y520700D01*
X38100Y568960D02*
X35560Y571500D01*
X38100Y568960D02*
X38100Y548640D01*
X35560Y571500D02*
X15240Y571500D01*
X12700Y568960D01*
X12700Y548640D01*
X12700Y543560D02*
X12700Y523240D01*
X15240Y520700D01*
X35560Y520700D01*
D18*
X46482Y520954D02*
X55626Y520954D01*
X51562Y524002D02*
X46482Y520954D01*
X51562Y524002D02*
X46482Y527050D01*
X55626Y527050D01*
X53086Y531825D02*
X46482Y531825D01*
X53086Y531825D02*
X53186Y531827D01*
X53285Y531833D01*
X53385Y531843D01*
X53483Y531856D01*
X53582Y531874D01*
X53679Y531895D01*
X53775Y531920D01*
X53871Y531949D01*
X53965Y531982D01*
X54058Y532018D01*
X54149Y532058D01*
X54239Y532102D01*
X54327Y532149D01*
X54413Y532199D01*
X54497Y532253D01*
X54579Y532310D01*
X54658Y532370D01*
X54736Y532434D01*
X54810Y532500D01*
X54882Y532569D01*
X54951Y532641D01*
X55017Y532715D01*
X55081Y532793D01*
X55141Y532872D01*
X55198Y532954D01*
X55252Y533038D01*
X55302Y533124D01*
X55349Y533212D01*
X55393Y533302D01*
X55433Y533393D01*
X55469Y533486D01*
X55502Y533580D01*
X55531Y533676D01*
X55556Y533772D01*
X55577Y533869D01*
X55595Y533968D01*
X55608Y534066D01*
X55618Y534166D01*
X55624Y534265D01*
X55626Y534365D01*
X55624Y534465D01*
X55618Y534564D01*
X55608Y534664D01*
X55595Y534762D01*
X55577Y534861D01*
X55556Y534958D01*
X55531Y535054D01*
X55502Y535150D01*
X55469Y535244D01*
X55433Y535337D01*
X55393Y535428D01*
X55349Y535518D01*
X55302Y535606D01*
X55252Y535692D01*
X55198Y535776D01*
X55141Y535858D01*
X55081Y535937D01*
X55017Y536015D01*
X54951Y536089D01*
X54882Y536161D01*
X54810Y536230D01*
X54736Y536296D01*
X54658Y536360D01*
X54579Y536420D01*
X54497Y536477D01*
X54413Y536531D01*
X54327Y536581D01*
X54239Y536628D01*
X54149Y536672D01*
X54058Y536712D01*
X53965Y536748D01*
X53871Y536781D01*
X53775Y536810D01*
X53679Y536835D01*
X53582Y536856D01*
X53483Y536874D01*
X53385Y536887D01*
X53285Y536897D01*
X53186Y536903D01*
X53086Y536905D01*
X46482Y536905D01*
X55626Y540766D02*
X46482Y546862D01*
X46482Y540766D02*
X55626Y546862D01*
X56642Y550012D02*
X56642Y554076D01*
X55626Y559664D02*
X46482Y559664D01*
X46482Y557124D02*
X46482Y562204D01*
X46482Y571246D02*
X55626Y565150D01*
X55626Y571246D02*
X46482Y565150D01*
M02*
