G04 EAGLE Gerber RS-274X export*
G75*
%MOMM*%
%FSLAX34Y34*%
%LPD*%
%INSoldermask Top*%
%IPPOS*%
%AMOC8*
5,1,8,0,0,1.08239X$1,22.5*%
G01*
%ADD10R,2.203200X0.803200*%
%ADD11R,2.153200X0.753200*%
%ADD12C,1.625600*%
%ADD13P,1.759533X8X292.500000*%


D10*
X291582Y289814D03*
X291582Y277114D03*
X291582Y264414D03*
X291582Y251714D03*
X291582Y239014D03*
X291582Y226314D03*
X291582Y213614D03*
X291582Y200914D03*
X291582Y188214D03*
X291582Y175514D03*
X291582Y162814D03*
X291582Y150114D03*
X385582Y150114D03*
X385582Y162814D03*
X385582Y175514D03*
X385582Y188214D03*
X385582Y200914D03*
X385582Y213614D03*
X385582Y226314D03*
X385582Y239014D03*
X385582Y251714D03*
X385582Y264414D03*
X385582Y277114D03*
X385582Y289814D03*
D11*
X385582Y150114D03*
X385582Y162814D03*
X385582Y175514D03*
X385582Y188214D03*
X385582Y200914D03*
X385582Y213614D03*
X385582Y226314D03*
X385582Y239014D03*
X385582Y251714D03*
X385582Y264414D03*
X385582Y277114D03*
X385582Y289814D03*
X291582Y289814D03*
X291582Y277114D03*
X291582Y264414D03*
X291582Y251714D03*
X291582Y239014D03*
X291582Y226314D03*
X291582Y213614D03*
X291582Y200914D03*
X291582Y188214D03*
X291582Y175514D03*
X291582Y162814D03*
X291582Y150114D03*
D10*
X122164Y289814D03*
X122164Y277114D03*
X122164Y264414D03*
X122164Y251714D03*
X122164Y239014D03*
X122164Y226314D03*
X122164Y213614D03*
X122164Y200914D03*
X122164Y188214D03*
X122164Y175514D03*
X122164Y162814D03*
X122164Y150114D03*
X216164Y150114D03*
X216164Y162814D03*
X216164Y175514D03*
X216164Y188214D03*
X216164Y200914D03*
X216164Y213614D03*
X216164Y226314D03*
X216164Y239014D03*
X216164Y251714D03*
X216164Y264414D03*
X216164Y277114D03*
X216164Y289814D03*
D11*
X216164Y150114D03*
X216164Y162814D03*
X216164Y175514D03*
X216164Y188214D03*
X216164Y200914D03*
X216164Y213614D03*
X216164Y226314D03*
X216164Y239014D03*
X216164Y251714D03*
X216164Y264414D03*
X216164Y277114D03*
X216164Y289814D03*
X122164Y289814D03*
X122164Y277114D03*
X122164Y264414D03*
X122164Y251714D03*
X122164Y239014D03*
X122164Y226314D03*
X122164Y213614D03*
X122164Y200914D03*
X122164Y188214D03*
X122164Y175514D03*
X122164Y162814D03*
X122164Y150114D03*
D10*
X291582Y510032D03*
X291582Y497332D03*
X291582Y484632D03*
X291582Y471932D03*
X291582Y459232D03*
X291582Y446532D03*
X291582Y433832D03*
X291582Y421132D03*
X291582Y408432D03*
X291582Y395732D03*
X291582Y383032D03*
X291582Y370332D03*
X385582Y370332D03*
X385582Y383032D03*
X385582Y395732D03*
X385582Y408432D03*
X385582Y421132D03*
X385582Y433832D03*
X385582Y446532D03*
X385582Y459232D03*
X385582Y471932D03*
X385582Y484632D03*
X385582Y497332D03*
X385582Y510032D03*
D11*
X385582Y370332D03*
X385582Y383032D03*
X385582Y395732D03*
X385582Y408432D03*
X385582Y421132D03*
X385582Y433832D03*
X385582Y446532D03*
X385582Y459232D03*
X385582Y471932D03*
X385582Y484632D03*
X385582Y497332D03*
X385582Y510032D03*
X291582Y510032D03*
X291582Y497332D03*
X291582Y484632D03*
X291582Y471932D03*
X291582Y459232D03*
X291582Y446532D03*
X291582Y433832D03*
X291582Y421132D03*
X291582Y408432D03*
X291582Y395732D03*
X291582Y383032D03*
X291582Y370332D03*
D10*
X122164Y510032D03*
X122164Y497332D03*
X122164Y484632D03*
X122164Y471932D03*
X122164Y459232D03*
X122164Y446532D03*
X122164Y433832D03*
X122164Y421132D03*
X122164Y408432D03*
X122164Y395732D03*
X122164Y383032D03*
X122164Y370332D03*
X216164Y370332D03*
X216164Y383032D03*
X216164Y395732D03*
X216164Y408432D03*
X216164Y421132D03*
X216164Y433832D03*
X216164Y446532D03*
X216164Y459232D03*
X216164Y471932D03*
X216164Y484632D03*
X216164Y497332D03*
X216164Y510032D03*
D11*
X216164Y370332D03*
X216164Y383032D03*
X216164Y395732D03*
X216164Y408432D03*
X216164Y421132D03*
X216164Y433832D03*
X216164Y446532D03*
X216164Y459232D03*
X216164Y471932D03*
X216164Y484632D03*
X216164Y497332D03*
X216164Y510032D03*
X122164Y510032D03*
X122164Y497332D03*
X122164Y484632D03*
X122164Y471932D03*
X122164Y459232D03*
X122164Y446532D03*
X122164Y433832D03*
X122164Y421132D03*
X122164Y408432D03*
X122164Y395732D03*
X122164Y383032D03*
X122164Y370332D03*
D12*
X228600Y602488D02*
X228600Y616712D01*
X254000Y616712D02*
X254000Y602488D01*
X279400Y602488D02*
X279400Y616712D01*
X32512Y609600D02*
X18288Y609600D01*
X18288Y635000D02*
X32512Y635000D01*
X32512Y25400D02*
X18288Y25400D01*
X18288Y50800D02*
X32512Y50800D01*
X32512Y76200D02*
X18288Y76200D01*
X18288Y101600D02*
X32512Y101600D01*
X32512Y152400D02*
X18288Y152400D01*
X18288Y177800D02*
X32512Y177800D01*
X32512Y203200D02*
X18288Y203200D01*
X18288Y228600D02*
X32512Y228600D01*
X32512Y279400D02*
X18288Y279400D01*
X18288Y304800D02*
X32512Y304800D01*
X32512Y330200D02*
X18288Y330200D01*
X18288Y355600D02*
X32512Y355600D01*
X32512Y406400D02*
X18288Y406400D01*
X18288Y431800D02*
X32512Y431800D01*
X32512Y457200D02*
X18288Y457200D01*
X18288Y482600D02*
X32512Y482600D01*
D13*
X457200Y419100D03*
X482600Y419100D03*
X457200Y393700D03*
X482600Y393700D03*
X457200Y368300D03*
X482600Y368300D03*
X457200Y342900D03*
X482600Y342900D03*
X457200Y317500D03*
X482600Y317500D03*
X457200Y292100D03*
X482600Y292100D03*
X457200Y266700D03*
X482600Y266700D03*
X457200Y241300D03*
X482600Y241300D03*
D12*
X32512Y533400D02*
X18288Y533400D01*
X18288Y558800D02*
X32512Y558800D01*
M02*
