M48
;GenerationSoftware,Autodesk,EAGLE,9.6.2*%
;CreationDate,2021-03-02T14:39:05Z*%
FMAT,2
ICI,OFF
METRIC,TZ,000.000
T2C0.400
T1C0.914
%
G90
M71
T1
X45720Y36830
X22860Y60960
X25400Y60960
X27940Y60960
X2540Y60960
X2540Y63500
X2540Y2540
X2540Y5080
X2540Y7620
X2540Y10160
X2540Y15240
X2540Y17780
X2540Y20320
X2540Y22860
X2540Y27940
X2540Y30480
X2540Y33020
X2540Y35560
X2540Y40640
X2540Y43180
X2540Y45720
X2540Y48260
X45720Y41910
X48260Y41910
X45720Y39370
X48260Y39370
X48260Y36830
X45720Y34290
X48260Y34290
X45720Y31750
X48260Y31750
X45720Y29210
X48260Y29210
X45720Y26670
X48260Y26670
X45720Y24130
X48260Y24130
X2540Y53340
X2540Y55880
T2
X29718Y9906
X38252Y9144
X35509Y2134
X41910Y2591
X47092Y5944
X47396Y11735
X47549Y16154
X48768Y51664
X47701Y58369
X41605Y62941
X35814Y59284
X16916Y60655
X13259Y63246
X11430Y55169
X23470Y45872
X26518Y7468
X25298Y48158
X23927Y44653
X40843Y38252
X38710Y35357
X21641Y35357
X21641Y13564
X38710Y13259
X41148Y25146
X24536Y25146
X23774Y47244
X40691Y47092
X42672Y42520
X7925Y20726
X25908Y18898
X9296Y41910
X26975Y42062
X26975Y48463
X42215Y51206
X21641Y31394
X23927Y27280
X26975Y29108
X41453Y23165
X9830Y50216
X24232Y49835
X40538Y51511
X9906Y47092
X42215Y49530
X29108Y31090
X46025Y47092
X46025Y52883
X7620Y50292
X3658Y37338
X12040Y30937
X24689Y29261
X26213Y35357
X23927Y18745
X41148Y17526
X26518Y30937
X3658Y38862
X5639Y57607
X5639Y50749
X9754Y57607
X21641Y52578
X38557Y52730
X44196Y38405
X10516Y35662
X16764Y35357
X27432Y35814
X7163Y30175
X2743Y25603
X7163Y24994
M30